<?xml version="1.0" encoding="UTF-8" standalone="no"?>
<!DOCTYPE svg PUBLIC "-//W3C//DTD SVG 1.1//EN"
 "http://www.w3.org/Graphics/SVG/1.1/DTD/svg11.dtd">
<!-- Generated by graphviz version 2.36.0 (20140111.2315)
 -->
<!-- Title: IControl.h Pages: 1 -->
<!--zoomable 420 -->
<svg id="main" version="1.1" xmlns="http://www.w3.org/2000/svg" xmlns:xlink="http://www.w3.org/1999/xlink" xml:space="preserve" onload="init(evt)">
<style type="text/css"><![CDATA[
.edge:hover path { stroke: red; }
.edge:hover polygon { stroke: red; fill: red; }
]]></style>
<script type="text/javascript"><![CDATA[
var edges = document.getElementsByTagName('g');
if (edges && edges.length) {
  for (var i=0;i<edges.length;i++) {
    if (edges[i].id.substr(0,4)=='edge') {
      edges[i].setAttribute('class','edge');
    }
  }
}
]]></script>
        <defs>
                <circle id="rim" cx="0" cy="0" r="7"/>
                <circle id="rim2" cx="0" cy="0" r="3.5"/>
                <g id="zoomPlus">
                        <use xlink:href="#rim" fill="#404040">
                                <set attributeName="fill" to="#808080" begin="zoomplus.mouseover" end="zoomplus.mouseout"/>
                        </use>
                        <path d="M-4,0h8M0,-4v8" fill="none" stroke="white" stroke-width="1.5" pointer-events="none"/>
                </g>
                <g id="zoomMin">
                        <use xlink:href="#rim" fill="#404040">
                                <set attributeName="fill" to="#808080" begin="zoomminus.mouseover" end="zoomminus.mouseout"/>
                        </use>
                        <path d="M-4,0h8" fill="none" stroke="white" stroke-width="1.5" pointer-events="none"/>
                </g>
                <g id="dirArrow">
                        <path fill="none" stroke="white" stroke-width="1.5" d="M0,-3.0v7 M-2.5,-0.5L0,-3.0L2.5,-0.5"/>
                </g>
               <g id="resetDef">
                       <use xlink:href="#rim2" fill="#404040">
                               <set attributeName="fill" to="#808080" begin="reset.mouseover" end="reset.mouseout"/>
                       </use>
               </g>
        </defs>

<script type="text/javascript">
var viewWidth = 1205;
var viewHeight = 420;
var sectionId = 'dynsection-0';
</script>
<script xlink:href="svgpan.js"/>
<svg id="graph" class="graph">
<g id="viewport">
<title>IControl.h</title>
<polygon fill="white" stroke="none" points="-4,4 -4,-416 1201,-416 1201,4 -4,4"/>
<!-- Node1 -->
<g id="node1" class="node"><title>Node1</title>
<polygon fill="#bfbfbf" stroke="black" points="817.5,-392.5 817.5,-411.5 876.5,-411.5 876.5,-392.5 817.5,-392.5"/>
<text text-anchor="middle" x="847" y="-399.5" font-family="Helvetica,sans-Serif" font-size="10.00">IControl.h</text>
</g>
<!-- Node2 -->
<g id="node2" class="node"><title>Node2</title>
<polygon fill="white" stroke="#bfbfbf" points="332,-0.5 332,-19.5 378,-19.5 378,-0.5 332,-0.5"/>
<text text-anchor="middle" x="355" y="-7.5" font-family="Helvetica,sans-Serif" font-size="10.00">cstring</text>
</g>
<!-- Node1&#45;&gt;Node2 -->
<g id="edge1" class="edge"><title>Node1&#45;&gt;Node2</title>
<path fill="none" stroke="midnightblue" d="M817.208,-400.03C701.725,-396.105 287.364,-380.431 234,-356 169.993,-326.696 159.644,-303.486 122,-244 75.3102,-170.221 8.19168,-122.303 65,-56 97.7252,-17.8051 252.468,-11.7586 321.553,-10.9909"/>
<polygon fill="midnightblue" stroke="midnightblue" points="321.902,-14.4884 331.873,-10.909 321.846,-7.48861 321.902,-14.4884"/>
</g>
<!-- Node3 -->
<g id="node3" class="node"><title>Node3</title>
<polygon fill="white" stroke="#bfbfbf" points="1013.5,-0.5 1013.5,-19.5 1058.5,-19.5 1058.5,-0.5 1013.5,-0.5"/>
<text text-anchor="middle" x="1036" y="-7.5" font-family="Helvetica,sans-Serif" font-size="10.00">cstdlib</text>
</g>
<!-- Node1&#45;&gt;Node3 -->
<g id="edge2" class="edge"><title>Node1&#45;&gt;Node3</title>
<path fill="none" stroke="midnightblue" d="M876.739,-401.853C946.151,-402.149 1113,-392.321 1113,-291 1113,-291 1113,-291 1113,-121 1113,-80.9304 1078.29,-45.0774 1055.47,-25.8437"/>
<polygon fill="midnightblue" stroke="midnightblue" points="1057.67,-23.1148 1047.69,-19.5325 1053.26,-28.5508 1057.67,-23.1148"/>
</g>
<!-- Node4 -->
<g id="node4" class="node"><title>Node4</title>
<polygon fill="white" stroke="#bfbfbf" points="729,-56.5 729,-75.5 793,-75.5 793,-56.5 729,-56.5"/>
<text text-anchor="middle" x="761" y="-63.5" font-family="Helvetica,sans-Serif" font-size="10.00">wdlstring.h</text>
</g>
<!-- Node1&#45;&gt;Node4 -->
<g id="edge3" class="edge"><title>Node1&#45;&gt;Node4</title>
<path fill="none" stroke="midnightblue" d="M817.226,-399.356C742.299,-393.421 546.071,-366.341 464,-244 459.048,-236.618 458.889,-231.272 464,-224 491.162,-185.354 521.199,-207.984 564,-188 608.757,-167.103 617.888,-157.816 660,-132 687.749,-114.988 719.209,-94.5561 739.538,-81.1993"/>
<polygon fill="midnightblue" stroke="midnightblue" points="741.616,-84.0218 748.041,-75.598 737.765,-78.176 741.616,-84.0218"/>
</g>
<!-- Node5 -->
<g id="node5" class="node"><title>Node5</title>
<polygon fill="white" stroke="#bfbfbf" points="1141,-336.5 1141,-355.5 1197,-355.5 1197,-336.5 1141,-336.5"/>
<text text-anchor="middle" x="1169" y="-343.5" font-family="Helvetica,sans-Serif" font-size="10.00">dirscan.h</text>
</g>
<!-- Node1&#45;&gt;Node5 -->
<g id="edge4" class="edge"><title>Node1&#45;&gt;Node5</title>
<path fill="none" stroke="midnightblue" d="M876.515,-396.77C927.662,-389.325 1036.02,-373.047 1127,-356 1128.24,-355.768 1129.49,-355.528 1130.76,-355.281"/>
<polygon fill="midnightblue" stroke="midnightblue" points="1131.46,-358.71 1140.57,-353.3 1130.08,-351.848 1131.46,-358.71"/>
</g>
<!-- Node6 -->
<g id="node6" class="node"><title>Node6</title>
<polygon fill="white" stroke="#bfbfbf" points="941.5,-56.5 941.5,-75.5 990.5,-75.5 990.5,-56.5 941.5,-56.5"/>
<text text-anchor="middle" x="966" y="-63.5" font-family="Helvetica,sans-Serif" font-size="10.00">ptrlist.h</text>
</g>
<!-- Node1&#45;&gt;Node6 -->
<g id="edge5" class="edge"><title>Node1&#45;&gt;Node6</title>
<path fill="none" stroke="midnightblue" d="M876.807,-400.02C938.609,-396.233 1075,-378.02 1075,-291 1075,-291 1075,-291 1075,-177 1075,-131.119 1026.56,-97.5267 994.266,-80.2277"/>
<polygon fill="midnightblue" stroke="midnightblue" points="995.73,-77.0447 985.236,-75.5849 992.529,-83.2701 995.73,-77.0447"/>
</g>
<!-- Node7 -->
<g id="node7" class="node"><title>Node7</title>
<g id="a_node7"><a xlink:href="_i_plug_base_graphics_8h.html" target="_top" xlink:title="An IPlugBase class for an IPlug plug&#45;in that uses IGraphics for it&#39;s UI. ">
<polygon fill="white" stroke="black" points="243.5,-336.5 243.5,-355.5 352.5,-355.5 352.5,-336.5 243.5,-336.5"/>
<text text-anchor="middle" x="298" y="-343.5" font-family="Helvetica,sans-Serif" font-size="10.00">IPlugBaseGraphics.h</text>
</a>
</g>
</g>
<!-- Node1&#45;&gt;Node7 -->
<g id="edge6" class="edge"><title>Node1&#45;&gt;Node7</title>
<path fill="none" stroke="midnightblue" d="M817.483,-398.097C731.892,-389.678 482.123,-365.11 362.854,-353.379"/>
<polygon fill="midnightblue" stroke="midnightblue" points="363.06,-349.883 352.766,-352.387 362.375,-356.849 363.06,-349.883"/>
</g>
<!-- Node25 -->
<g id="node25" class="node"><title>Node25</title>
<g id="a_node25"><a xlink:href="_i_graphics_8h.html" target="_top" xlink:title="The lowest level base class of an IGraphics context. ">
<polygon fill="white" stroke="black" points="813.5,-336.5 813.5,-355.5 880.5,-355.5 880.5,-336.5 813.5,-336.5"/>
<text text-anchor="middle" x="847" y="-343.5" font-family="Helvetica,sans-Serif" font-size="10.00">IGraphics.h</text>
</a>
</g>
</g>
<!-- Node1&#45;&gt;Node25 -->
<g id="edge48" class="edge"><title>Node1&#45;&gt;Node25</title>
<path fill="none" stroke="midnightblue" d="M841.834,-392.083C840.324,-384.927 839.894,-374.635 840.542,-365.691"/>
<polygon fill="midnightblue" stroke="midnightblue" points="844.015,-366.126 841.869,-355.751 837.077,-365.2 844.015,-366.126"/>
</g>
<!-- Node8 -->
<g id="node8" class="node"><title>Node8</title>
<g id="a_node8"><a xlink:href="_i_plug_base_8h.html" target="_top" xlink:title="The lowest level base class of an IPlug plug&#45;in. ">
<polygon fill="white" stroke="black" points="230,-280.5 230,-299.5 300,-299.5 300,-280.5 230,-280.5"/>
<text text-anchor="middle" x="265" y="-287.5" font-family="Helvetica,sans-Serif" font-size="10.00">IPlugBase.h</text>
</a>
</g>
</g>
<!-- Node7&#45;&gt;Node8 -->
<g id="edge7" class="edge"><title>Node7&#45;&gt;Node8</title>
<path fill="none" stroke="midnightblue" d="M292.551,-336.083C287.986,-328.613 281.332,-317.724 275.707,-308.52"/>
<polygon fill="midnightblue" stroke="midnightblue" points="278.549,-306.459 270.348,-299.751 272.576,-310.109 278.549,-306.459"/>
</g>
<!-- Node8&#45;&gt;Node2 -->
<g id="edge8" class="edge"><title>Node8&#45;&gt;Node2</title>
<path fill="none" stroke="midnightblue" d="M245.155,-280.391C213.228,-265.043 154,-229.734 154,-179 154,-179 154,-179 154,-121 154,-90.9022 151.276,-76.8308 173,-56 194.087,-35.78 275.096,-21.79 321.618,-15.2355"/>
<polygon fill="midnightblue" stroke="midnightblue" points="322.384,-18.6634 331.817,-13.8397 321.435,-11.728 322.384,-18.6634"/>
</g>
<!-- Node8&#45;&gt;Node6 -->
<g id="edge10" class="edge"><title>Node8&#45;&gt;Node6</title>
<path fill="none" stroke="midnightblue" d="M300.473,-286.854C361.209,-282.578 488.661,-270.98 593,-244 726.366,-209.515 762.057,-199.745 882,-132 907.157,-117.791 932.987,-96.6253 949.241,-82.3418"/>
<polygon fill="midnightblue" stroke="midnightblue" points="951.691,-84.8467 956.814,-75.573 947.026,-79.6275 951.691,-84.8467"/>
</g>
<!-- Node9 -->
<g id="node9" class="node"><title>Node9</title>
<polygon fill="white" stroke="#bfbfbf" points="182,-56.5 182,-75.5 228,-75.5 228,-56.5 182,-56.5"/>
<text text-anchor="middle" x="205" y="-63.5" font-family="Helvetica,sans-Serif" font-size="10.00">cstdint</text>
</g>
<!-- Node8&#45;&gt;Node9 -->
<g id="edge9" class="edge"><title>Node8&#45;&gt;Node9</title>
<path fill="none" stroke="midnightblue" d="M251.956,-280.369C241.064,-272.361 226.197,-259.381 219,-244 194.225,-191.053 198.473,-119.42 202.34,-85.8407"/>
<polygon fill="midnightblue" stroke="midnightblue" points="205.847,-86.0065 203.644,-75.6433 198.904,-85.1187 205.847,-86.0065"/>
</g>
<!-- Node10 -->
<g id="node10" class="node"><title>Node10</title>
<polygon fill="white" stroke="#bfbfbf" points="74,-56.5 74,-75.5 126,-75.5 126,-56.5 74,-56.5"/>
<text text-anchor="middle" x="100" y="-63.5" font-family="Helvetica,sans-Serif" font-size="10.00">mutex.h</text>
</g>
<!-- Node8&#45;&gt;Node10 -->
<g id="edge11" class="edge"><title>Node8&#45;&gt;Node10</title>
<path fill="none" stroke="midnightblue" d="M229.954,-285.531C201.628,-280.845 162.834,-269.838 140,-244 99.8897,-198.612 97.4658,-121.562 98.745,-86.0102"/>
<polygon fill="midnightblue" stroke="midnightblue" points="102.259,-85.8149 99.2717,-75.65 95.2684,-85.4594 102.259,-85.8149"/>
</g>
<!-- Node11 -->
<g id="node11" class="node"><title>Node11</title>
<g id="a_node11"><a xlink:href="_i_plug_platform_8h.html" target="_top" xlink:title="Include to get consistently named preprocessor macros for different platforms and logging functionali...">
<polygon fill="white" stroke="black" points="377,-168.5 377,-187.5 461,-187.5 461,-168.5 377,-168.5"/>
<text text-anchor="middle" x="419" y="-175.5" font-family="Helvetica,sans-Serif" font-size="10.00">IPlugPlatform.h</text>
</a>
</g>
</g>
<!-- Node8&#45;&gt;Node11 -->
<g id="edge12" class="edge"><title>Node8&#45;&gt;Node11</title>
<path fill="none" stroke="midnightblue" d="M284.163,-280.472C301.739,-272.255 328.131,-258.902 349,-244 369.534,-229.338 390.385,-209.146 403.923,-195.175"/>
<polygon fill="midnightblue" stroke="midnightblue" points="406.627,-197.411 410.992,-187.757 401.559,-192.582 406.627,-197.411"/>
</g>
<!-- Node18 -->
<g id="node18" class="node"><title>Node18</title>
<g id="a_node18"><a xlink:href="_i_plug_constants_8h.html" target="_top" xlink:title="Constant definitions, magic numbers. ">
<polygon fill="white" stroke="black" points="0,-0.5 0,-19.5 92,-19.5 92,-0.5 0,-0.5"/>
<text text-anchor="middle" x="46" y="-7.5" font-family="Helvetica,sans-Serif" font-size="10.00">IPlugConstants.h</text>
</a>
</g>
</g>
<!-- Node8&#45;&gt;Node18 -->
<g id="edge32" class="edge"><title>Node8&#45;&gt;Node18</title>
<path fill="none" stroke="midnightblue" d="M229.788,-285.726C198.3,-281.136 152.537,-270.162 122,-244 58.7552,-189.815 57.9408,-157.1 39,-76 35.37,-60.4574 37.8403,-42.3767 40.8042,-29.2364"/>
<polygon fill="midnightblue" stroke="midnightblue" points="44.2011,-30.0799 43.287,-19.5246 37.4192,-28.3462 44.2011,-30.0799"/>
</g>
<!-- Node19 -->
<g id="node19" class="node"><title>Node19</title>
<g id="a_node19"><a xlink:href="_i_plug_utilities_8h.html" target="_top" xlink:title="Utility functions and macros. ">
<polygon fill="white" stroke="black" points="525,-56.5 525,-75.5 605,-75.5 605,-56.5 525,-56.5"/>
<text text-anchor="middle" x="565" y="-63.5" font-family="Helvetica,sans-Serif" font-size="10.00">IPlugUtilities.h</text>
</a>
</g>
</g>
<!-- Node8&#45;&gt;Node19 -->
<g id="edge43" class="edge"><title>Node8&#45;&gt;Node19</title>
<path fill="none" stroke="midnightblue" d="M259.892,-280.475C252.857,-267.529 242.117,-242.467 252,-224 273.172,-184.44 296.66,-189.578 336,-168 403.65,-130.894 487.629,-96.67 532.737,-79.1826"/>
<polygon fill="midnightblue" stroke="midnightblue" points="534.206,-82.3676 542.281,-75.5081 531.691,-75.8351 534.206,-82.3676"/>
</g>
<!-- Node21 -->
<g id="node21" class="node"><title>Node21</title>
<g id="a_node21"><a xlink:href="_i_plug_structs_8h_source.html" target="_top" xlink:title="IPlugStructs.h">
<polygon fill="white" stroke="black" points="261.5,-224.5 261.5,-243.5 340.5,-243.5 340.5,-224.5 261.5,-224.5"/>
<text text-anchor="middle" x="301" y="-231.5" font-family="Helvetica,sans-Serif" font-size="10.00">IPlugStructs.h</text>
</a>
</g>
</g>
<!-- Node8&#45;&gt;Node21 -->
<g id="edge33" class="edge"><title>Node8&#45;&gt;Node21</title>
<path fill="none" stroke="midnightblue" d="M270.945,-280.083C275.977,-272.534 283.337,-261.495 289.513,-252.23"/>
<polygon fill="midnightblue" stroke="midnightblue" points="292.531,-254.013 295.166,-243.751 286.707,-250.13 292.531,-254.013"/>
</g>
<!-- Node24 -->
<g id="node24" class="node"><title>Node24</title>
<g id="a_node24"><a xlink:href="_i_plug_parameter_8h_source.html" target="_top" xlink:title="IPlugParameter.h">
<polygon fill="white" stroke="black" points="519,-112.5 519,-131.5 611,-131.5 611,-112.5 519,-112.5"/>
<text text-anchor="middle" x="565" y="-119.5" font-family="Helvetica,sans-Serif" font-size="10.00">IPlugParameter.h</text>
</a>
</g>
</g>
<!-- Node8&#45;&gt;Node24 -->
<g id="edge44" class="edge"><title>Node8&#45;&gt;Node24</title>
<path fill="none" stroke="midnightblue" d="M285.548,-280.477C316.758,-267.641 378.081,-242.845 431,-224 480.256,-206.459 505.745,-224.687 543,-188 555.324,-175.863 560.746,-156.586 563.13,-142.171"/>
<polygon fill="midnightblue" stroke="midnightblue" points="566.649,-142.25 564.465,-131.883 559.707,-141.349 566.649,-142.25"/>
</g>
<!-- Node12 -->
<g id="node12" class="node"><title>Node12</title>
<g id="a_node12"><a xlink:href="_i_plug_logger_8h.html" target="_top" xlink:title="IPlug Logging functionailty To trace some arbitrary data: Trace(TRACELOC, &quot;%s:%d&quot;, myStr, myInt); To simply create a trace entry in the log: TRACE; No need to wrap tracer calls in #ifdef TRACER_BUILD because Trace is a no&#45;op unless TRACER_BUILD is defined. ">
<polygon fill="white" stroke="black" points="309.5,-112.5 309.5,-131.5 386.5,-131.5 386.5,-112.5 309.5,-112.5"/>
<text text-anchor="middle" x="348" y="-119.5" font-family="Helvetica,sans-Serif" font-size="10.00">IPlugLogger.h</text>
</a>
</g>
</g>
<!-- Node11&#45;&gt;Node12 -->
<g id="edge13" class="edge"><title>Node11&#45;&gt;Node12</title>
<path fill="none" stroke="midnightblue" d="M407.593,-168.324C396.891,-160.185 380.659,-147.839 367.837,-138.087"/>
<polygon fill="midnightblue" stroke="midnightblue" points="369.693,-135.102 359.615,-131.834 365.456,-140.673 369.693,-135.102"/>
</g>
<!-- Node12&#45;&gt;Node2 -->
<g id="edge18" class="edge"><title>Node12&#45;&gt;Node2</title>
<path fill="none" stroke="midnightblue" d="M337.902,-112.485C324.823,-100.359 304.634,-77.2244 313,-56 317.514,-44.5479 326.469,-34.291 334.955,-26.4724"/>
<polygon fill="midnightblue" stroke="midnightblue" points="337.469,-28.9275 342.786,-19.7638 332.915,-23.6113 337.469,-28.9275"/>
</g>
<!-- Node12&#45;&gt;Node4 -->
<g id="edge21" class="edge"><title>Node12&#45;&gt;Node4</title>
<path fill="none" stroke="midnightblue" d="M386.854,-115.92C464.492,-105.769 638.234,-83.0517 718.658,-72.5362"/>
<polygon fill="midnightblue" stroke="midnightblue" points="719.448,-75.9629 728.909,-71.1959 718.54,-69.022 719.448,-75.9629"/>
</g>
<!-- Node12&#45;&gt;Node9 -->
<g id="edge17" class="edge"><title>Node12&#45;&gt;Node9</title>
<path fill="none" stroke="midnightblue" d="M325.341,-112.444C301.598,-103.478 264.091,-89.314 237.262,-79.1827"/>
<polygon fill="midnightblue" stroke="midnightblue" points="238.144,-75.7749 227.553,-75.5164 235.671,-82.3235 238.144,-75.7749"/>
</g>
<!-- Node12&#45;&gt;Node10 -->
<g id="edge22" class="edge"><title>Node12&#45;&gt;Node10</title>
<path fill="none" stroke="midnightblue" d="M309.25,-112.562C261.882,-102.249 182.347,-84.9303 136.18,-74.8778"/>
<polygon fill="midnightblue" stroke="midnightblue" points="136.821,-71.4356 126.306,-72.7278 135.332,-78.2753 136.821,-71.4356"/>
</g>
<!-- Node13 -->
<g id="node13" class="node"><title>Node13</title>
<polygon fill="white" stroke="#bfbfbf" points="543.5,-0.5 543.5,-19.5 586.5,-19.5 586.5,-0.5 543.5,-0.5"/>
<text text-anchor="middle" x="565" y="-7.5" font-family="Helvetica,sans-Serif" font-size="10.00">cstdio</text>
</g>
<!-- Node12&#45;&gt;Node13 -->
<g id="edge14" class="edge"><title>Node12&#45;&gt;Node13</title>
<path fill="none" stroke="midnightblue" d="M373.498,-112.481C397,-104.27 432.587,-90.9205 462,-76 491.926,-60.8192 524.33,-39.4814 544.64,-25.4538"/>
<polygon fill="midnightblue" stroke="midnightblue" points="546.872,-28.1649 553.069,-19.5715 542.865,-22.4246 546.872,-28.1649"/>
</g>
<!-- Node14 -->
<g id="node14" class="node"><title>Node14</title>
<polygon fill="white" stroke="#bfbfbf" points="457,-0.5 457,-19.5 503,-19.5 503,-0.5 457,-0.5"/>
<text text-anchor="middle" x="480" y="-7.5" font-family="Helvetica,sans-Serif" font-size="10.00">cctype</text>
</g>
<!-- Node12&#45;&gt;Node14 -->
<g id="edge15" class="edge"><title>Node12&#45;&gt;Node14</title>
<path fill="none" stroke="midnightblue" d="M374.189,-112.455C393.713,-105.108 420.15,-92.9938 439,-76 453.672,-62.7726 465.088,-43.1026 472.105,-28.8672"/>
<polygon fill="midnightblue" stroke="midnightblue" points="475.358,-30.1732 476.422,-19.6318 469.017,-27.2092 475.358,-30.1732"/>
</g>
<!-- Node15 -->
<g id="node15" class="node"><title>Node15</title>
<polygon fill="white" stroke="#bfbfbf" points="322.5,-56.5 322.5,-75.5 371.5,-75.5 371.5,-56.5 322.5,-56.5"/>
<text text-anchor="middle" x="347" y="-63.5" font-family="Helvetica,sans-Serif" font-size="10.00">cstdarg</text>
</g>
<!-- Node12&#45;&gt;Node15 -->
<g id="edge16" class="edge"><title>Node12&#45;&gt;Node15</title>
<path fill="none" stroke="midnightblue" d="M347.835,-112.083C347.704,-105.006 347.516,-94.8611 347.352,-85.9865"/>
<polygon fill="midnightblue" stroke="midnightblue" points="350.847,-85.6845 347.162,-75.7511 343.848,-85.8142 350.847,-85.6845"/>
</g>
<!-- Node16 -->
<g id="node16" class="node"><title>Node16</title>
<polygon fill="white" stroke="#bfbfbf" points="389.5,-56.5 389.5,-75.5 430.5,-75.5 430.5,-56.5 389.5,-56.5"/>
<text text-anchor="middle" x="410" y="-63.5" font-family="Helvetica,sans-Serif" font-size="10.00">ctime</text>
</g>
<!-- Node12&#45;&gt;Node16 -->
<g id="edge19" class="edge"><title>Node12&#45;&gt;Node16</title>
<path fill="none" stroke="midnightblue" d="M357.961,-112.324C367.127,-104.341 380.937,-92.3128 392.028,-82.6529"/>
<polygon fill="midnightblue" stroke="midnightblue" points="394.615,-85.041 399.857,-75.8339 390.018,-79.7624 394.615,-85.041"/>
</g>
<!-- Node17 -->
<g id="node17" class="node"><title>Node17</title>
<polygon fill="white" stroke="#bfbfbf" points="623.5,-56.5 623.5,-75.5 672.5,-75.5 672.5,-56.5 623.5,-56.5"/>
<text text-anchor="middle" x="648" y="-63.5" font-family="Helvetica,sans-Serif" font-size="10.00">cassert</text>
</g>
<!-- Node12&#45;&gt;Node17 -->
<g id="edge20" class="edge"><title>Node12&#45;&gt;Node17</title>
<path fill="none" stroke="midnightblue" d="M386.534,-115.608C436.535,-108.365 526.656,-94.4713 613.194,-76.0047"/>
<polygon fill="midnightblue" stroke="midnightblue" points="614.144,-79.3803 623.181,-73.8494 612.667,-72.5378 614.144,-79.3803"/>
</g>
<!-- Node12&#45;&gt;Node18 -->
<g id="edge23" class="edge"><title>Node12&#45;&gt;Node18</title>
<path fill="none" stroke="midnightblue" d="M335.973,-112.315C316.244,-98.4573 275.358,-71.3459 237,-56 193.302,-38.5175 141.142,-26.7986 102.38,-19.7142"/>
<polygon fill="midnightblue" stroke="midnightblue" points="102.783,-16.2311 92.3246,-17.9251 101.557,-23.1228 102.783,-16.2311"/>
</g>
<!-- Node12&#45;&gt;Node19 -->
<g id="edge24" class="edge"><title>Node12&#45;&gt;Node19</title>
<path fill="none" stroke="midnightblue" d="M382.384,-112.444C419.922,-103.102 480.131,-88.1194 521.067,-77.9326"/>
<polygon fill="midnightblue" stroke="midnightblue" points="521.918,-81.3278 530.777,-75.5164 520.227,-74.5349 521.918,-81.3278"/>
</g>
<!-- Node19&#45;&gt;Node2 -->
<g id="edge28" class="edge"><title>Node19&#45;&gt;Node2</title>
<path fill="none" stroke="midnightblue" d="M531.725,-56.4435C492.337,-46.3153 427.157,-29.5546 387.923,-19.466"/>
<polygon fill="midnightblue" stroke="midnightblue" points="388.621,-16.0315 378.064,-16.9308 386.877,-22.811 388.621,-16.0315"/>
</g>
<!-- Node19&#45;&gt;Node3 -->
<g id="edge27" class="edge"><title>Node19&#45;&gt;Node3</title>
<path fill="none" stroke="midnightblue" d="M605.071,-57.3858C608.088,-56.8904 611.09,-56.4218 614,-56 758.262,-35.0901 931.589,-19.6229 1002.89,-13.6745"/>
<polygon fill="midnightblue" stroke="midnightblue" points="1003.37,-17.1469 1013.05,-12.8343 1002.8,-10.1707 1003.37,-17.1469"/>
</g>
<!-- Node19&#45;&gt;Node11 -->
<g id="edge31" class="edge"><title>Node19&#45;&gt;Node11</title>
<path fill="none" stroke="midnightblue" d="M553.597,-75.5914C528.805,-94.2699 469.743,-138.769 438.753,-162.118"/>
<polygon fill="midnightblue" stroke="midnightblue" points="436.337,-159.556 430.456,-168.368 440.549,-165.146 436.337,-159.556"/>
</g>
<!-- Node19&#45;&gt;Node13 -->
<g id="edge26" class="edge"><title>Node19&#45;&gt;Node13</title>
<path fill="none" stroke="midnightblue" d="M565,-56.083C565,-49.0059 565,-38.8611 565,-29.9865"/>
<polygon fill="midnightblue" stroke="midnightblue" points="568.5,-29.751 565,-19.7511 561.5,-29.7511 568.5,-29.751"/>
</g>
<!-- Node19&#45;&gt;Node14 -->
<g id="edge29" class="edge"><title>Node19&#45;&gt;Node14</title>
<path fill="none" stroke="midnightblue" d="M551.343,-56.324C538.084,-47.9002 517.732,-34.9709 502.154,-25.0741"/>
<polygon fill="midnightblue" stroke="midnightblue" points="503.94,-22.0626 493.623,-19.6545 500.187,-27.9711 503.94,-22.0626"/>
</g>
<!-- Node19&#45;&gt;Node18 -->
<g id="edge30" class="edge"><title>Node19&#45;&gt;Node18</title>
<path fill="none" stroke="midnightblue" d="M524.707,-60.8076C432.856,-51.2509 207.774,-27.8319 102.283,-16.856"/>
<polygon fill="midnightblue" stroke="midnightblue" points="102.46,-13.3557 92.1517,-15.8019 101.736,-20.3181 102.46,-13.3557"/>
</g>
<!-- Node20 -->
<g id="node20" class="node"><title>Node20</title>
<polygon fill="white" stroke="#bfbfbf" points="875,-0.5 875,-19.5 919,-19.5 919,-0.5 875,-0.5"/>
<text text-anchor="middle" x="897" y="-7.5" font-family="Helvetica,sans-Serif" font-size="10.00">cmath</text>
</g>
<!-- Node19&#45;&gt;Node20 -->
<g id="edge25" class="edge"><title>Node19&#45;&gt;Node20</title>
<path fill="none" stroke="midnightblue" d="M605.097,-57.5544C608.109,-57.02 611.101,-56.4966 614,-56 704.831,-40.4391 812.387,-23.8365 864.906,-15.8471"/>
<polygon fill="midnightblue" stroke="midnightblue" points="865.592,-19.2831 874.954,-14.3216 864.541,-12.3624 865.592,-19.2831"/>
</g>
<!-- Node21&#45;&gt;Node4 -->
<g id="edge35" class="edge"><title>Node21&#45;&gt;Node4</title>
<path fill="none" stroke="midnightblue" d="M307.219,-224.056C317.831,-209.573 340.937,-181.276 368,-168 469.573,-118.172 511.488,-164.019 620,-132 663.246,-119.239 710.178,-95.4021 737.515,-80.4122"/>
<polygon fill="midnightblue" stroke="midnightblue" points="739.289,-83.4302 746.328,-75.5117 735.888,-77.3122 739.289,-83.4302"/>
</g>
<!-- Node21&#45;&gt;Node11 -->
<g id="edge37" class="edge"><title>Node21&#45;&gt;Node11</title>
<path fill="none" stroke="midnightblue" d="M319.697,-224.444C338.944,-215.636 369.152,-201.812 391.2,-191.722"/>
<polygon fill="midnightblue" stroke="midnightblue" points="392.753,-194.86 400.39,-187.516 389.84,-188.495 392.753,-194.86"/>
</g>
<!-- Node21&#45;&gt;Node18 -->
<g id="edge36" class="edge"><title>Node21&#45;&gt;Node18</title>
<path fill="none" stroke="midnightblue" d="M271.004,-224.481C215.761,-207.011 99.0211,-161.397 49,-76 40.8816,-62.1401 40.856,-43.6244 42.4378,-29.9004"/>
<polygon fill="midnightblue" stroke="midnightblue" points="45.9447,-30.1219 44.0022,-19.7066 39.0257,-29.06 45.9447,-30.1219"/>
</g>
<!-- Node22 -->
<g id="node22" class="node"><title>Node22</title>
<polygon fill="white" stroke="#bfbfbf" points="479,-168.5 479,-187.5 535,-187.5 535,-168.5 479,-168.5"/>
<text text-anchor="middle" x="507" y="-175.5" font-family="Helvetica,sans-Serif" font-size="10.00">algorithm</text>
</g>
<!-- Node21&#45;&gt;Node22 -->
<g id="edge34" class="edge"><title>Node21&#45;&gt;Node22</title>
<path fill="none" stroke="midnightblue" d="M333.641,-224.444C370.404,-214.807 430.073,-199.165 468.928,-188.98"/>
<polygon fill="midnightblue" stroke="midnightblue" points="470.029,-192.31 478.815,-186.388 468.254,-185.539 470.029,-192.31"/>
</g>
<!-- Node23 -->
<g id="node23" class="node"><title>Node23</title>
<g id="a_node23"><a xlink:href="_i_plug_midi_8h_source.html" target="_top" xlink:title="IPlugMidi.h">
<polygon fill="white" stroke="black" points="226.5,-112.5 226.5,-131.5 291.5,-131.5 291.5,-112.5 226.5,-112.5"/>
<text text-anchor="middle" x="259" y="-119.5" font-family="Helvetica,sans-Serif" font-size="10.00">IPlugMidi.h</text>
</a>
</g>
</g>
<!-- Node21&#45;&gt;Node23 -->
<g id="edge38" class="edge"><title>Node21&#45;&gt;Node23</title>
<path fill="none" stroke="midnightblue" d="M297.704,-224.368C290.865,-206.456 275.007,-164.923 265.853,-140.948"/>
<polygon fill="midnightblue" stroke="midnightblue" points="269.117,-139.685 262.28,-131.591 262.578,-142.182 269.117,-139.685"/>
</g>
<!-- Node23&#45;&gt;Node9 -->
<g id="edge40" class="edge"><title>Node23&#45;&gt;Node9</title>
<path fill="none" stroke="midnightblue" d="M250.083,-112.083C242.22,-104.22 230.569,-92.5688 221.081,-83.0813"/>
<polygon fill="midnightblue" stroke="midnightblue" points="223.297,-80.3473 213.751,-75.7511 218.347,-85.2971 223.297,-80.3473"/>
</g>
<!-- Node23&#45;&gt;Node17 -->
<g id="edge39" class="edge"><title>Node23&#45;&gt;Node17</title>
<path fill="none" stroke="midnightblue" d="M291.616,-113.526C294.444,-112.974 297.268,-112.455 300,-112 435.312,-89.4523 474.156,-101.445 613.037,-75.9091"/>
<polygon fill="midnightblue" stroke="midnightblue" points="614.027,-79.2848 623.212,-74.0047 612.739,-72.4042 614.027,-79.2848"/>
</g>
<!-- Node23&#45;&gt;Node18 -->
<g id="edge41" class="edge"><title>Node23&#45;&gt;Node18</title>
<path fill="none" stroke="midnightblue" d="M226.281,-117.41C177.247,-111.388 87.9924,-97.7297 65,-76 52.4592,-64.148 48.0529,-44.5216 46.5759,-29.9305"/>
<polygon fill="midnightblue" stroke="midnightblue" points="50.0439,-29.3121 45.92,-19.5529 43.0579,-29.7538 50.0439,-29.3121"/>
</g>
<!-- Node23&#45;&gt;Node19 -->
<g id="edge42" class="edge"><title>Node23&#45;&gt;Node19</title>
<path fill="none" stroke="midnightblue" d="M291.644,-113.687C294.467,-113.099 297.282,-112.529 300,-112 374.663,-97.4747 461.677,-83.2035 515.048,-74.7512"/>
<polygon fill="midnightblue" stroke="midnightblue" points="515.603,-78.207 524.935,-73.191 514.512,-71.2925 515.603,-78.207"/>
</g>
<!-- Node24&#45;&gt;Node2 -->
<g id="edge45" class="edge"><title>Node24&#45;&gt;Node2</title>
<path fill="none" stroke="midnightblue" d="M610.763,-112.458C652.917,-102.62 705.494,-84.1073 681,-56 671.413,-44.9987 469.454,-22.8919 388.313,-14.4155"/>
<polygon fill="midnightblue" stroke="midnightblue" points="388.452,-10.9111 378.143,-13.3585 387.728,-17.8736 388.452,-10.9111"/>
</g>
<!-- Node24&#45;&gt;Node4 -->
<g id="edge46" class="edge"><title>Node24&#45;&gt;Node4</title>
<path fill="none" stroke="midnightblue" d="M596.057,-112.444C629.603,-103.201 683.197,-88.4356 720.141,-78.2572"/>
<polygon fill="midnightblue" stroke="midnightblue" points="721.377,-81.5469 730.089,-75.5164 719.518,-74.7984 721.377,-81.5469"/>
</g>
<!-- Node24&#45;&gt;Node19 -->
<g id="edge47" class="edge"><title>Node24&#45;&gt;Node19</title>
<path fill="none" stroke="midnightblue" d="M565,-112.083C565,-105.006 565,-94.8611 565,-85.9865"/>
<polygon fill="midnightblue" stroke="midnightblue" points="568.5,-85.751 565,-75.7511 561.5,-85.7511 568.5,-85.751"/>
</g>
<!-- Node25&#45;&gt;Node1 -->
<g id="edge70" class="edge"><title>Node25&#45;&gt;Node1</title>
<path fill="none" stroke="midnightblue" d="M852.131,-355.751C853.657,-362.858 854.104,-373.136 853.472,-382.101"/>
<polygon fill="midnightblue" stroke="midnightblue" points="849.993,-381.713 852.166,-392.083 856.934,-382.622 849.993,-381.713"/>
</g>
<!-- Node26 -->
<g id="node26" class="node"><title>Node26</title>
<polygon fill="white" stroke="#bfbfbf" points="875,-280.5 875,-299.5 931,-299.5 931,-280.5 875,-280.5"/>
<text text-anchor="middle" x="903" y="-287.5" font-family="Helvetica,sans-Serif" font-size="10.00">ft2build.h</text>
</g>
<!-- Node25&#45;&gt;Node26 -->
<g id="edge49" class="edge"><title>Node25&#45;&gt;Node26</title>
<path fill="none" stroke="midnightblue" d="M855.997,-336.324C864.194,-328.42 876.506,-316.548 886.472,-306.938"/>
<polygon fill="midnightblue" stroke="midnightblue" points="889.07,-309.295 893.839,-299.834 884.211,-304.256 889.07,-309.295"/>
</g>
<!-- Node27 -->
<g id="node27" class="node"><title>Node27</title>
<g id="a_node27"><a xlink:href="_i_graphics_constants_8h_source.html" target="_top" xlink:title="IGraphicsConstants.h">
<polygon fill="white" stroke="black" points="473,-224.5 473,-243.5 585,-243.5 585,-224.5 473,-224.5"/>
<text text-anchor="middle" x="529" y="-231.5" font-family="Helvetica,sans-Serif" font-size="10.00">IGraphicsConstants.h</text>
</a>
</g>
</g>
<!-- Node25&#45;&gt;Node27 -->
<g id="edge50" class="edge"><title>Node25&#45;&gt;Node27</title>
<path fill="none" stroke="midnightblue" d="M820.151,-336.421C792.477,-327.522 748.117,-313.102 710,-300 657.904,-282.094 597.778,-260.27 561.611,-247.015"/>
<polygon fill="midnightblue" stroke="midnightblue" points="562.665,-243.674 552.072,-243.514 560.254,-250.245 562.665,-243.674"/>
</g>
<!-- Node28 -->
<g id="node28" class="node"><title>Node28</title>
<g id="a_node28"><a xlink:href="_i_graphics_structs_8h_source.html" target="_top" xlink:title="IGraphicsStructs.h">
<polygon fill="white" stroke="black" points="719,-280.5 719,-299.5 817,-299.5 817,-280.5 719,-280.5"/>
<text text-anchor="middle" x="768" y="-287.5" font-family="Helvetica,sans-Serif" font-size="10.00">IGraphicsStructs.h</text>
</a>
</g>
</g>
<!-- Node25&#45;&gt;Node28 -->
<g id="edge52" class="edge"><title>Node25&#45;&gt;Node28</title>
<path fill="none" stroke="midnightblue" d="M834.307,-336.324C822.099,-327.979 803.422,-315.212 788.997,-305.352"/>
<polygon fill="midnightblue" stroke="midnightblue" points="790.892,-302.408 780.661,-299.655 786.942,-308.187 790.892,-302.408"/>
</g>
<!-- Node31 -->
<g id="node31" class="node"><title>Node31</title>
<g id="a_node31"><a xlink:href="_i_graphics_utilites_8h_source.html" target="_top" xlink:title="IGraphicsUtilites.h">
<polygon fill="white" stroke="black" points="949,-280.5 949,-299.5 1047,-299.5 1047,-280.5 949,-280.5"/>
<text text-anchor="middle" x="998" y="-287.5" font-family="Helvetica,sans-Serif" font-size="10.00">IGraphicsUtilites.h</text>
</a>
</g>
</g>
<!-- Node25&#45;&gt;Node31 -->
<g id="edge62" class="edge"><title>Node25&#45;&gt;Node31</title>
<path fill="none" stroke="midnightblue" d="M870.926,-336.444C896.219,-327.399 936.302,-313.064 964.68,-302.916"/>
<polygon fill="midnightblue" stroke="midnightblue" points="965.948,-306.179 974.186,-299.516 963.591,-299.588 965.948,-306.179"/>
</g>
<!-- Node32 -->
<g id="node32" class="node"><title>Node32</title>
<g id="a_node32"><a xlink:href="_i_popup_menu_8h.html" target="_top" xlink:title="A class for setting the contents of a pop up menu. ">
<polygon fill="white" stroke="black" points="793,-112.5 793,-131.5 873,-131.5 873,-112.5 793,-112.5"/>
<text text-anchor="middle" x="833" y="-119.5" font-family="Helvetica,sans-Serif" font-size="10.00">IPopupMenu.h</text>
</a>
</g>
</g>
<!-- Node25&#45;&gt;Node32 -->
<g id="edge63" class="edge"><title>Node25&#45;&gt;Node32</title>
<path fill="none" stroke="midnightblue" d="M847.341,-336.381C848.31,-322.856 852.001,-296.492 866,-280 889.928,-251.812 921.308,-275.295 941,-244 945.734,-236.477 944.539,-232.154 941,-224 923.996,-184.817 883.474,-153.903 857.188,-137.061"/>
<polygon fill="midnightblue" stroke="midnightblue" points="858.888,-133.997 848.545,-131.7 855.198,-139.945 858.888,-133.997"/>
</g>
<!-- Node27&#45;&gt;Node11 -->
<g id="edge51" class="edge"><title>Node27&#45;&gt;Node11</title>
<path fill="none" stroke="midnightblue" d="M511.327,-224.324C493.606,-215.625 466.097,-202.12 445.712,-192.113"/>
<polygon fill="midnightblue" stroke="midnightblue" points="447.149,-188.919 436.63,-187.655 444.064,-195.203 447.149,-188.919"/>
</g>
<!-- Node28&#45;&gt;Node4 -->
<g id="edge57" class="edge"><title>Node28&#45;&gt;Node4</title>
<path fill="none" stroke="midnightblue" d="M767.726,-280.297C766.696,-247.633 763.045,-131.866 761.598,-85.9573"/>
<polygon fill="midnightblue" stroke="midnightblue" points="765.094,-85.7684 761.28,-75.8837 758.097,-85.9891 765.094,-85.7684"/>
</g>
<!-- Node28&#45;&gt;Node6 -->
<g id="edge58" class="edge"><title>Node28&#45;&gt;Node6</title>
<path fill="none" stroke="midnightblue" d="M817.044,-282.377C862.213,-275.231 924.629,-262.355 941,-244 980.889,-199.276 974.825,-121.315 969.438,-85.7049"/>
<polygon fill="midnightblue" stroke="midnightblue" points="972.871,-85.014 967.772,-75.7271 965.967,-86.1671 972.871,-85.014"/>
</g>
<!-- Node28&#45;&gt;Node11 -->
<g id="edge60" class="edge"><title>Node28&#45;&gt;Node11</title>
<path fill="none" stroke="midnightblue" d="M734.175,-280.49C705.114,-272.644 662.423,-259.833 627,-244 610.994,-236.846 609.199,-230.704 593,-224 553.508,-207.656 506.462,-195.919 471.252,-188.538"/>
<polygon fill="midnightblue" stroke="midnightblue" points="471.688,-185.055 461.189,-186.479 470.285,-191.913 471.688,-185.055"/>
</g>
<!-- Node28&#45;&gt;Node17 -->
<g id="edge54" class="edge"><title>Node28&#45;&gt;Node17</title>
<path fill="none" stroke="midnightblue" d="M763.296,-280.297C745.49,-247.356 681.999,-129.898 657.624,-84.8052"/>
<polygon fill="midnightblue" stroke="midnightblue" points="660.636,-83.0165 652.802,-75.8837 654.478,-86.3451 660.636,-83.0165"/>
</g>
<!-- Node28&#45;&gt;Node20 -->
<g id="edge53" class="edge"><title>Node28&#45;&gt;Node20</title>
<path fill="none" stroke="midnightblue" d="M817.284,-284.239C857.905,-278.786 916.093,-267.377 962,-244 1001.31,-223.984 1037,-223.11 1037,-179 1037,-179 1037,-179 1037,-121 1037,-66.3151 970.14,-34.679 928.829,-20.3512"/>
<polygon fill="midnightblue" stroke="midnightblue" points="929.777,-16.9782 919.183,-17.1569 927.576,-23.6233 929.777,-16.9782"/>
</g>
<!-- Node28&#45;&gt;Node22 -->
<g id="edge56" class="edge"><title>Node28&#45;&gt;Node22</title>
<path fill="none" stroke="midnightblue" d="M750.378,-280.37C723.867,-267.503 672.025,-242.791 627,-224 598.305,-212.025 565.18,-199.714 541.012,-191.003"/>
<polygon fill="midnightblue" stroke="midnightblue" points="542.162,-187.697 531.567,-187.617 539.8,-194.286 542.162,-187.697"/>
</g>
<!-- Node28&#45;&gt;Node27 -->
<g id="edge61" class="edge"><title>Node28&#45;&gt;Node27</title>
<path fill="none" stroke="midnightblue" d="M730.13,-280.444C688.524,-271.043 621.631,-255.929 576.531,-245.739"/>
<polygon fill="midnightblue" stroke="midnightblue" points="577.219,-242.306 566.693,-243.516 575.676,-249.134 577.219,-242.306"/>
</g>
<!-- Node29 -->
<g id="node29" class="node"><title>Node29</title>
<polygon fill="white" stroke="#bfbfbf" points="793.5,-224.5 793.5,-243.5 852.5,-243.5 852.5,-224.5 793.5,-224.5"/>
<text text-anchor="middle" x="823" y="-231.5" font-family="Helvetica,sans-Serif" font-size="10.00">functional</text>
</g>
<!-- Node28&#45;&gt;Node29 -->
<g id="edge55" class="edge"><title>Node28&#45;&gt;Node29</title>
<path fill="none" stroke="midnightblue" d="M777.082,-280.083C785.171,-272.141 797.195,-260.335 806.91,-250.797"/>
<polygon fill="midnightblue" stroke="midnightblue" points="809.403,-253.254 814.087,-243.751 804.499,-248.26 809.403,-253.254"/>
</g>
<!-- Node30 -->
<g id="node30" class="node"><title>Node30</title>
<polygon fill="white" stroke="#bfbfbf" points="871,-224.5 871,-243.5 933,-243.5 933,-224.5 871,-224.5"/>
<text text-anchor="middle" x="902" y="-231.5" font-family="Helvetica,sans-Serif" font-size="10.00">nanosvg.h</text>
</g>
<!-- Node28&#45;&gt;Node30 -->
<g id="edge59" class="edge"><title>Node28&#45;&gt;Node30</title>
<path fill="none" stroke="midnightblue" d="M789.233,-280.444C811.384,-271.517 846.319,-257.439 871.436,-247.317"/>
<polygon fill="midnightblue" stroke="midnightblue" points="872.9,-250.501 880.867,-243.516 870.283,-244.008 872.9,-250.501"/>
</g>
<!-- Node32&#45;&gt;Node2 -->
<g id="edge65" class="edge"><title>Node32&#45;&gt;Node2</title>
<path fill="none" stroke="midnightblue" d="M831.58,-112.079C828.766,-97.6302 821.02,-69.3799 802,-56 799.877,-54.5067 491.945,-24.3562 388.471,-14.2611"/>
<polygon fill="midnightblue" stroke="midnightblue" points="388.569,-10.7541 378.277,-13.2668 387.89,-17.7211 388.569,-10.7541"/>
</g>
<!-- Node32&#45;&gt;Node4 -->
<g id="edge68" class="edge"><title>Node32&#45;&gt;Node4</title>
<path fill="none" stroke="midnightblue" d="M821.432,-112.324C810.58,-104.185 794.119,-91.8395 781.117,-82.0874"/>
<polygon fill="midnightblue" stroke="midnightblue" points="782.879,-79.0339 772.779,-75.8339 778.679,-84.6339 782.879,-79.0339"/>
</g>
<!-- Node32&#45;&gt;Node6 -->
<g id="edge69" class="edge"><title>Node32&#45;&gt;Node6</title>
<path fill="none" stroke="midnightblue" d="M854.074,-112.444C876.06,-103.517 910.734,-89.4387 935.664,-79.3168"/>
<polygon fill="midnightblue" stroke="midnightblue" points="937.076,-82.5213 945.024,-75.5164 934.442,-76.0355 937.076,-82.5213"/>
</g>
<!-- Node32&#45;&gt;Node13 -->
<g id="edge66" class="edge"><title>Node32&#45;&gt;Node13</title>
<path fill="none" stroke="midnightblue" d="M836.572,-112.229C841.52,-98.4952 848.428,-71.8508 835,-56 804.739,-20.2783 661.12,-12.8868 596.561,-11.3769"/>
<polygon fill="midnightblue" stroke="midnightblue" points="596.616,-7.87741 586.548,-11.1756 596.475,-14.876 596.616,-7.87741"/>
</g>
<!-- Node32&#45;&gt;Node17 -->
<g id="edge67" class="edge"><title>Node32&#45;&gt;Node17</title>
<path fill="none" stroke="midnightblue" d="M803.686,-112.444C770.767,-102.835 717.395,-87.2558 682.494,-77.0686"/>
<polygon fill="midnightblue" stroke="midnightblue" points="683.316,-73.6626 672.736,-74.2203 681.355,-80.3822 683.316,-73.6626"/>
</g>
<!-- Node32&#45;&gt;Node20 -->
<g id="edge64" class="edge"><title>Node32&#45;&gt;Node20</title>
<path fill="none" stroke="midnightblue" d="M842.363,-112.492C851.26,-103.986 864.506,-90.1639 873,-76 881.7,-61.4922 888.084,-43.3095 892.071,-29.867"/>
<polygon fill="midnightblue" stroke="midnightblue" points="895.542,-30.4473 894.855,-19.8749 888.799,-28.5687 895.542,-30.4473"/>
</g>
</g>
</svg>
        <g id="navigator" transform="translate(0 0)" fill="#404254">
                <rect fill="#f2f5e9" fill-opacity="0.5" stroke="#606060" stroke-width=".5" x="0" y="0" width="60" height="60"/>
                <use id="zoomplus" xlink:href="#zoomPlus" x="17" y="9" onmousedown="handleZoom(evt,'in')"/>
                <use id="zoomminus" xlink:href="#zoomMin" x="42" y="9" onmousedown="handleZoom(evt,'out')"/>
                <use id="reset" xlink:href="#resetDef" x="30" y="36" onmousedown="handleReset()"/>
                <g id="arrowUp" xlink:href="#dirArrow" transform="translate(30 24)" onmousedown="handlePan(0,-1)">
                  <use xlink:href="#rim" fill="#404040">
                        <set attributeName="fill" to="#808080" begin="arrowUp.mouseover" end="arrowUp.mouseout"/>
                  </use>
                  <path fill="none" stroke="white" stroke-width="1.5" d="M0,-3.0v7 M-2.5,-0.5L0,-3.0L2.5,-0.5"/>
                </g>
                <g id="arrowRight" xlink:href="#dirArrow" transform="rotate(90) translate(36 -43)" onmousedown="handlePan(1,0)">
                  <use xlink:href="#rim" fill="#404040">
                        <set attributeName="fill" to="#808080" begin="arrowRight.mouseover" end="arrowRight.mouseout"/>
                  </use>
                  <path fill="none" stroke="white" stroke-width="1.5" d="M0,-3.0v7 M-2.5,-0.5L0,-3.0L2.5,-0.5"/>
                </g>
                <g id="arrowDown" xlink:href="#dirArrow" transform="rotate(180) translate(-30 -48)" onmousedown="handlePan(0,1)">
                  <use xlink:href="#rim" fill="#404040">
                        <set attributeName="fill" to="#808080" begin="arrowDown.mouseover" end="arrowDown.mouseout"/>
                  </use>
                  <path fill="none" stroke="white" stroke-width="1.5" d="M0,-3.0v7 M-2.5,-0.5L0,-3.0L2.5,-0.5"/>
                </g>
                <g id="arrowLeft" xlink:href="#dirArrow" transform="rotate(270) translate(-36 17)" onmousedown="handlePan(-1,0)">
                  <use xlink:href="#rim" fill="#404040">
                        <set attributeName="fill" to="#808080" begin="arrowLeft.mouseover" end="arrowLeft.mouseout"/>
                  </use>
                  <path fill="none" stroke="white" stroke-width="1.5" d="M0,-3.0v7 M-2.5,-0.5L0,-3.0L2.5,-0.5"/>
                </g>
        </g>
        <svg viewBox="0 0 15 15" width="100%" height="30px" preserveAspectRatio="xMaxYMin meet">
         <g id="arrow_out" transform="scale(0.3 0.3)">
          <a xlink:href="_i_control_8h__incl_org.svg" target="_base">
           <rect id="button" ry="5" rx="5" y="6" x="6" height="38" width="38"
                fill="#f2f5e9" fill-opacity="0.5" stroke="#606060" stroke-width="1.0"/>
           <path id="arrow"
             d="M 11.500037,31.436501 C 11.940474,20.09759 22.043105,11.32322 32.158766,21.979434 L 37.068811,17.246167 C 37.068811,17.246167 37.088388,32 37.088388,32 L 22.160133,31.978069 C 22.160133,31.978069 26.997745,27.140456 26.997745,27.140456 C 18.528582,18.264221 13.291696,25.230495 11.500037,31.436501 z"
             style="fill:#404040;"/>
          </a>
         </g>
        </svg>
</svg>
