<?xml version="1.0" encoding="UTF-8" standalone="no"?>
<!DOCTYPE svg PUBLIC "-//W3C//DTD SVG 1.1//EN"
 "http://www.w3.org/Graphics/SVG/1.1/DTD/svg11.dtd">
<!-- Generated by graphviz version 2.36.0 (20140111.2315)
 -->
<!-- Title: IGraphics.h Pages: 1 -->
<svg width="1047pt" height="252pt"
 viewBox="0.00 0.00 1047.00 252.00" xmlns="http://www.w3.org/2000/svg" xmlns:xlink="http://www.w3.org/1999/xlink">
<g id="graph0" class="graph" transform="scale(1 1) rotate(0) translate(4 248)">
<title>IGraphics.h</title>
<polygon fill="white" stroke="none" points="-4,4 -4,-248 1043,-248 1043,4 -4,4"/>
<!-- Node1 -->
<g id="node1" class="node"><title>Node1</title>
<polygon fill="#bfbfbf" stroke="black" points="536.5,-224.5 536.5,-243.5 603.5,-243.5 603.5,-224.5 536.5,-224.5"/>
<text text-anchor="middle" x="570" y="-231.5" font-family="Helvetica,sans-Serif" font-size="10.00">IGraphics.h</text>
</g>
<!-- Node2 -->
<g id="node2" class="node"><title>Node2</title>
<g id="a_node2"><a xlink:href="_i_control_8h.html" target="_top" xlink:title="The lowest level base class of an IGraphics control. ">
<polygon fill="white" stroke="black" points="180.5,-168.5 180.5,-187.5 239.5,-187.5 239.5,-168.5 180.5,-168.5"/>
<text text-anchor="middle" x="210" y="-175.5" font-family="Helvetica,sans-Serif" font-size="10.00">IControl.h</text>
</a>
</g>
</g>
<!-- Node1&#45;&gt;Node2 -->
<g id="edge1" class="edge"><title>Node1&#45;&gt;Node2</title>
<path fill="none" stroke="midnightblue" d="M526.323,-227.109C451.955,-216.436 303.004,-194.08 239.556,-184.054"/>
<polygon fill="midnightblue" stroke="midnightblue" points="525.91,-230.586 536.305,-228.535 526.9,-223.656 525.91,-230.586"/>
</g>
<!-- Node7 -->
<g id="node7" class="node"><title>Node7</title>
<g id="a_node7"><a xlink:href="_i_graphics_8cpp_source.html" target="_top" xlink:title="IGraphics.cpp">
<polygon fill="white" stroke="black" points="250.5,-56.5 250.5,-75.5 327.5,-75.5 327.5,-56.5 250.5,-56.5"/>
<text text-anchor="middle" x="289" y="-63.5" font-family="Helvetica,sans-Serif" font-size="10.00">IGraphics.cpp</text>
</a>
</g>
</g>
<!-- Node1&#45;&gt;Node7 -->
<g id="edge9" class="edge"><title>Node1&#45;&gt;Node7</title>
<path fill="none" stroke="midnightblue" d="M536.301,-220.96C492.992,-204.599 416.536,-172.666 359,-132 334.352,-114.579 309.37,-89.0753 296.987,-75.7867"/>
<polygon fill="midnightblue" stroke="midnightblue" points="535.201,-224.285 545.794,-224.496 537.645,-217.726 535.201,-224.285"/>
</g>
<!-- Node9 -->
<g id="node9" class="node"><title>Node9</title>
<g id="a_node9"><a xlink:href="_i_graphics_a_g_g_8h_source.html" target="_top" xlink:title="IGraphicsAGG.h">
<polygon fill="white" stroke="black" points="578.5,-168.5 578.5,-187.5 667.5,-187.5 667.5,-168.5 578.5,-168.5"/>
<text text-anchor="middle" x="623" y="-175.5" font-family="Helvetica,sans-Serif" font-size="10.00">IGraphicsAGG.h</text>
</a>
</g>
</g>
<!-- Node1&#45;&gt;Node9 -->
<g id="edge10" class="edge"><title>Node1&#45;&gt;Node9</title>
<path fill="none" stroke="midnightblue" d="M585.981,-216.718C595.322,-207.2 606.746,-195.561 614.411,-187.751"/>
<polygon fill="midnightblue" stroke="midnightblue" points="583.259,-214.494 578.752,-224.083 588.254,-219.398 583.259,-214.494"/>
</g>
<!-- Node11 -->
<g id="node11" class="node"><title>Node11</title>
<g id="a_node11"><a xlink:href="_i_graphics_cairo_8h_source.html" target="_top" xlink:title="IGraphicsCairo.h">
<polygon fill="white" stroke="black" points="686,-168.5 686,-187.5 776,-187.5 776,-168.5 686,-168.5"/>
<text text-anchor="middle" x="731" y="-175.5" font-family="Helvetica,sans-Serif" font-size="10.00">IGraphicsCairo.h</text>
</a>
</g>
</g>
<!-- Node1&#45;&gt;Node11 -->
<g id="edge12" class="edge"><title>Node1&#45;&gt;Node11</title>
<path fill="none" stroke="midnightblue" d="M605.265,-221.172C635.581,-211.004 678.57,-196.585 705.608,-187.516"/>
<polygon fill="midnightblue" stroke="midnightblue" points="603.879,-217.945 595.511,-224.444 606.105,-224.582 603.879,-217.945"/>
</g>
<!-- Node13 -->
<g id="node13" class="node"><title>Node13</title>
<g id="a_node13"><a xlink:href="_i_graphics_lice_8h_source.html" target="_top" xlink:title="IGraphicsLice.h">
<polygon fill="white" stroke="black" points="475.5,-168.5 475.5,-187.5 560.5,-187.5 560.5,-168.5 475.5,-168.5"/>
<text text-anchor="middle" x="518" y="-175.5" font-family="Helvetica,sans-Serif" font-size="10.00">IGraphicsLice.h</text>
</a>
</g>
</g>
<!-- Node1&#45;&gt;Node13 -->
<g id="edge14" class="edge"><title>Node1&#45;&gt;Node13</title>
<path fill="none" stroke="midnightblue" d="M554.321,-216.718C545.155,-207.2 533.947,-195.561 526.427,-187.751"/>
<polygon fill="midnightblue" stroke="midnightblue" points="551.956,-219.308 561.413,-224.083 556.998,-214.452 551.956,-219.308"/>
</g>
<!-- Node20 -->
<g id="node20" class="node"><title>Node20</title>
<g id="a_node20"><a xlink:href="_i_graphics_nano_v_g_8h_source.html" target="_top" xlink:title="IGraphicsNanoVG.h">
<polygon fill="white" stroke="black" points="794,-168.5 794,-187.5 898,-187.5 898,-168.5 794,-168.5"/>
<text text-anchor="middle" x="846" y="-175.5" font-family="Helvetica,sans-Serif" font-size="10.00">IGraphicsNanoVG.h</text>
</a>
</g>
</g>
<!-- Node1&#45;&gt;Node20 -->
<g id="edge25" class="edge"><title>Node1&#45;&gt;Node20</title>
<path fill="none" stroke="midnightblue" d="M613.407,-224.507C664.972,-214.419 750.501,-197.685 802.226,-187.564"/>
<polygon fill="midnightblue" stroke="midnightblue" points="612.709,-221.077 603.567,-226.433 614.053,-227.947 612.709,-221.077"/>
</g>
<!-- Node22 -->
<g id="node22" class="node"><title>Node22</title>
<g id="a_node22"><a xlink:href="_i_plug_base_graphics_8cpp_source.html" target="_top" xlink:title="IPlugBaseGraphics.cpp">
<polygon fill="white" stroke="black" points="916.5,-168.5 916.5,-187.5 1035.5,-187.5 1035.5,-168.5 916.5,-168.5"/>
<text text-anchor="middle" x="976" y="-175.5" font-family="Helvetica,sans-Serif" font-size="10.00">IPlugBaseGraphics.cpp</text>
</a>
</g>
</g>
<!-- Node1&#45;&gt;Node22 -->
<g id="edge27" class="edge"><title>Node1&#45;&gt;Node22</title>
<path fill="none" stroke="midnightblue" d="M613.796,-227.175C686.847,-217.459 833.666,-197.931 916.182,-186.956"/>
<polygon fill="midnightblue" stroke="midnightblue" points="613.021,-223.747 603.57,-228.535 613.944,-230.686 613.021,-223.747"/>
</g>
<!-- Node2&#45;&gt;Node1 -->
<g id="edge3" class="edge"><title>Node2&#45;&gt;Node1</title>
<path fill="none" stroke="midnightblue" d="M249.466,-184.288C320.833,-194.492 469.719,-216.819 536.493,-227.323"/>
<polygon fill="midnightblue" stroke="midnightblue" points="249.911,-180.816 239.518,-182.873 248.925,-187.746 249.911,-180.816"/>
</g>
<!-- Node3 -->
<g id="node3" class="node"><title>Node3</title>
<g id="a_node3"><a xlink:href="_i_control_8cpp_source.html" target="_top" xlink:title="IControl.cpp">
<polygon fill="white" stroke="black" points="0,-112.5 0,-131.5 70,-131.5 70,-112.5 0,-112.5"/>
<text text-anchor="middle" x="35" y="-119.5" font-family="Helvetica,sans-Serif" font-size="10.00">IControl.cpp</text>
</a>
</g>
</g>
<!-- Node2&#45;&gt;Node3 -->
<g id="edge2" class="edge"><title>Node2&#45;&gt;Node3</title>
<path fill="none" stroke="midnightblue" d="M172.525,-165.436C139.53,-155.255 92.2445,-140.664 62.5995,-131.516"/>
<polygon fill="midnightblue" stroke="midnightblue" points="171.683,-168.839 182.271,-168.444 173.747,-162.151 171.683,-168.839"/>
</g>
<!-- Node4 -->
<g id="node4" class="node"><title>Node4</title>
<g id="a_node4"><a xlink:href="_i_controls_8h.html" target="_top" xlink:title="A collection of IControls for common UI widgets, such as knobs, sliders, switches. ">
<polygon fill="white" stroke="black" points="126.5,-112.5 126.5,-131.5 191.5,-131.5 191.5,-112.5 126.5,-112.5"/>
<text text-anchor="middle" x="159" y="-119.5" font-family="Helvetica,sans-Serif" font-size="10.00">IControls.h</text>
</a>
</g>
</g>
<!-- Node2&#45;&gt;Node4 -->
<g id="edge4" class="edge"><title>Node2&#45;&gt;Node4</title>
<path fill="none" stroke="midnightblue" d="M194.622,-160.718C185.633,-151.2 174.641,-139.561 167.265,-131.751"/>
<polygon fill="midnightblue" stroke="midnightblue" points="192.168,-163.216 201.578,-168.083 197.257,-158.41 192.168,-163.216"/>
</g>
<!-- Node6 -->
<g id="node6" class="node"><title>Node6</title>
<g id="a_node6"><a xlink:href="_i_graphics_live_edit_8h_source.html" target="_top" xlink:title="IGraphicsLiveEdit.h">
<polygon fill="white" stroke="black" points="210,-112.5 210,-131.5 312,-131.5 312,-112.5 210,-112.5"/>
<text text-anchor="middle" x="261" y="-119.5" font-family="Helvetica,sans-Serif" font-size="10.00">IGraphicsLiveEdit.h</text>
</a>
</g>
</g>
<!-- Node2&#45;&gt;Node6 -->
<g id="edge6" class="edge"><title>Node2&#45;&gt;Node6</title>
<path fill="none" stroke="midnightblue" d="M225.378,-160.718C234.367,-151.2 245.359,-139.561 252.735,-131.751"/>
<polygon fill="midnightblue" stroke="midnightblue" points="222.743,-158.41 218.422,-168.083 227.832,-163.216 222.743,-158.41"/>
</g>
<!-- Node8 -->
<g id="node8" class="node"><title>Node8</title>
<g id="a_node8"><a xlink:href="_i_graphics_mac_8mm_source.html" target="_top" xlink:title="IGraphicsMac.mm">
<polygon fill="white" stroke="black" points="462.5,-0.5 462.5,-19.5 559.5,-19.5 559.5,-0.5 462.5,-0.5"/>
<text text-anchor="middle" x="511" y="-7.5" font-family="Helvetica,sans-Serif" font-size="10.00">IGraphicsMac.mm</text>
</a>
</g>
</g>
<!-- Node2&#45;&gt;Node8 -->
<g id="edge8" class="edge"><title>Node2&#45;&gt;Node8</title>
<path fill="none" stroke="midnightblue" d="M170.357,-168.347C150.714,-161.844 128.738,-150.72 117,-132 99.0558,-103.383 94.5114,-81.2032 117,-56 139.632,-30.6358 361.848,-17.6243 462.225,-13.0021"/>
<polygon fill="midnightblue" stroke="midnightblue" points="169.468,-171.735 180.052,-171.262 171.484,-165.031 169.468,-171.735"/>
</g>
<!-- Node5 -->
<g id="node5" class="node"><title>Node5</title>
<g id="a_node5"><a xlink:href="_i_controls_8cpp_source.html" target="_top" xlink:title="IControls.cpp">
<polygon fill="white" stroke="black" points="126.5,-56.5 126.5,-75.5 201.5,-75.5 201.5,-56.5 126.5,-56.5"/>
<text text-anchor="middle" x="164" y="-63.5" font-family="Helvetica,sans-Serif" font-size="10.00">IControls.cpp</text>
</a>
</g>
</g>
<!-- Node4&#45;&gt;Node5 -->
<g id="edge5" class="edge"><title>Node4&#45;&gt;Node5</title>
<path fill="none" stroke="midnightblue" d="M160.75,-102.101C161.58,-93.1357 162.532,-82.8579 163.19,-75.7511"/>
<polygon fill="midnightblue" stroke="midnightblue" points="157.263,-101.803 159.826,-112.083 164.233,-102.448 157.263,-101.803"/>
</g>
<!-- Node6&#45;&gt;Node7 -->
<g id="edge7" class="edge"><title>Node6&#45;&gt;Node7</title>
<path fill="none" stroke="midnightblue" d="M270.342,-102.983C275.095,-93.8168 280.656,-83.0922 284.462,-75.7511"/>
<polygon fill="midnightblue" stroke="midnightblue" points="267.12,-101.594 265.624,-112.083 273.334,-104.817 267.12,-101.594"/>
</g>
<!-- Node10 -->
<g id="node10" class="node"><title>Node10</title>
<g id="a_node10"><a xlink:href="_i_graphics_a_g_g_8cpp_source.html" target="_top" xlink:title="IGraphicsAGG.cpp">
<polygon fill="white" stroke="black" points="688.5,-112.5 688.5,-131.5 787.5,-131.5 787.5,-112.5 688.5,-112.5"/>
<text text-anchor="middle" x="738" y="-119.5" font-family="Helvetica,sans-Serif" font-size="10.00">IGraphicsAGG.cpp</text>
</a>
</g>
</g>
<!-- Node9&#45;&gt;Node10 -->
<g id="edge11" class="edge"><title>Node9&#45;&gt;Node10</title>
<path fill="none" stroke="midnightblue" d="M650.481,-164.096C671.966,-154.007 701.222,-140.27 719.863,-131.516"/>
<polygon fill="midnightblue" stroke="midnightblue" points="648.786,-161.025 641.222,-168.444 651.762,-167.361 648.786,-161.025"/>
</g>
<!-- Node12 -->
<g id="node12" class="node"><title>Node12</title>
<g id="a_node12"><a xlink:href="_i_graphics_cairo_8cpp_source.html" target="_top" xlink:title="IGraphicsCairo.cpp">
<polygon fill="white" stroke="black" points="805.5,-112.5 805.5,-131.5 906.5,-131.5 906.5,-112.5 805.5,-112.5"/>
<text text-anchor="middle" x="856" y="-119.5" font-family="Helvetica,sans-Serif" font-size="10.00">IGraphicsCairo.cpp</text>
</a>
</g>
</g>
<!-- Node11&#45;&gt;Node12 -->
<g id="edge13" class="edge"><title>Node11&#45;&gt;Node12</title>
<path fill="none" stroke="midnightblue" d="M760.241,-164.368C783.65,-154.255 815.841,-140.349 836.286,-131.516"/>
<polygon fill="midnightblue" stroke="midnightblue" points="758.599,-161.265 750.807,-168.444 761.375,-167.691 758.599,-161.265"/>
</g>
<!-- Node14 -->
<g id="node14" class="node"><title>Node14</title>
<g id="a_node14"><a xlink:href="_i_graphics_lice_8cpp_source.html" target="_top" xlink:title="IGraphicsLice.cpp">
<polygon fill="white" stroke="black" points="470.5,-112.5 470.5,-131.5 565.5,-131.5 565.5,-112.5 470.5,-112.5"/>
<text text-anchor="middle" x="518" y="-119.5" font-family="Helvetica,sans-Serif" font-size="10.00">IGraphicsLice.cpp</text>
</a>
</g>
</g>
<!-- Node13&#45;&gt;Node14 -->
<g id="edge15" class="edge"><title>Node13&#45;&gt;Node14</title>
<path fill="none" stroke="midnightblue" d="M518,-157.805C518,-148.91 518,-138.78 518,-131.751"/>
<polygon fill="midnightblue" stroke="midnightblue" points="514.5,-158.083 518,-168.083 521.5,-158.083 514.5,-158.083"/>
</g>
<!-- Node16 -->
<g id="node16" class="node"><title>Node16</title>
<g id="a_node16"><a xlink:href="_i_graphics_mac_8h_source.html" target="_top" xlink:title="IGraphicsMac.h">
<polygon fill="white" stroke="black" points="584,-112.5 584,-131.5 670,-131.5 670,-112.5 584,-112.5"/>
<text text-anchor="middle" x="627" y="-119.5" font-family="Helvetica,sans-Serif" font-size="10.00">IGraphicsMac.h</text>
</a>
</g>
</g>
<!-- Node13&#45;&gt;Node16 -->
<g id="edge18" class="edge"><title>Node13&#45;&gt;Node16</title>
<path fill="none" stroke="midnightblue" d="M544.519,-163.862C564.73,-153.849 591.987,-140.346 609.531,-131.655"/>
<polygon fill="midnightblue" stroke="midnightblue" points="542.92,-160.748 535.513,-168.324 546.027,-167.021 542.92,-160.748"/>
</g>
<!-- Node19 -->
<g id="node19" class="node"><title>Node19</title>
<g id="a_node19"><a xlink:href="_i_graphics_win_8h_source.html" target="_top" xlink:title="IGraphicsWin.h">
<polygon fill="white" stroke="black" points="368,-112.5 368,-131.5 452,-131.5 452,-112.5 368,-112.5"/>
<text text-anchor="middle" x="410" y="-119.5" font-family="Helvetica,sans-Serif" font-size="10.00">IGraphicsWin.h</text>
</a>
</g>
</g>
<!-- Node13&#45;&gt;Node19 -->
<g id="edge23" class="edge"><title>Node13&#45;&gt;Node19</title>
<path fill="none" stroke="midnightblue" d="M491.452,-163.726C471.454,-153.727 444.613,-140.307 427.309,-131.655"/>
<polygon fill="midnightblue" stroke="midnightblue" points="490.138,-166.982 500.648,-168.324 493.269,-160.721 490.138,-166.982"/>
</g>
<!-- Node14&#45;&gt;Node8 -->
<g id="edge16" class="edge"><title>Node14&#45;&gt;Node8</title>
<path fill="none" stroke="midnightblue" d="M516.813,-102.348C515.28,-78.2538 512.674,-37.3079 511.547,-19.5914"/>
<polygon fill="midnightblue" stroke="midnightblue" points="513.323,-102.611 517.451,-112.368 520.308,-102.166 513.323,-102.611"/>
</g>
<!-- Node15 -->
<g id="node15" class="node"><title>Node15</title>
<g id="a_node15"><a xlink:href="_i_graphics_win_8cpp_source.html" target="_top" xlink:title="IGraphicsWin.cpp">
<polygon fill="white" stroke="black" points="374.5,-56.5 374.5,-75.5 469.5,-75.5 469.5,-56.5 374.5,-56.5"/>
<text text-anchor="middle" x="422" y="-63.5" font-family="Helvetica,sans-Serif" font-size="10.00">IGraphicsWin.cpp</text>
</a>
</g>
</g>
<!-- Node14&#45;&gt;Node15 -->
<g id="edge17" class="edge"><title>Node14&#45;&gt;Node15</title>
<path fill="none" stroke="midnightblue" d="M493.426,-107.177C475.761,-97.2407 452.487,-84.1492 437.386,-75.6545"/>
<polygon fill="midnightblue" stroke="midnightblue" points="492.144,-110.472 502.576,-112.324 495.576,-104.371 492.144,-110.472"/>
</g>
<!-- Node16&#45;&gt;Node8 -->
<g id="edge19" class="edge"><title>Node16&#45;&gt;Node8</title>
<path fill="none" stroke="midnightblue" d="M605.96,-106.525C594.319,-98.1367 579.854,-87.0706 568,-76 548.255,-57.5603 528.097,-32.9164 517.868,-19.9093"/>
<polygon fill="midnightblue" stroke="midnightblue" points="604.037,-109.452 614.221,-112.373 608.082,-103.738 604.037,-109.452"/>
</g>
<!-- Node17 -->
<g id="node17" class="node"><title>Node17</title>
<g id="a_node17"><a xlink:href="_i_graphics_mac__view_8h_source.html" target="_top" xlink:title="IGraphicsMac_view.h">
<polygon fill="white" stroke="black" points="577.5,-56.5 577.5,-75.5 688.5,-75.5 688.5,-56.5 577.5,-56.5"/>
<text text-anchor="middle" x="633" y="-63.5" font-family="Helvetica,sans-Serif" font-size="10.00">IGraphicsMac_view.h</text>
</a>
</g>
</g>
<!-- Node16&#45;&gt;Node17 -->
<g id="edge20" class="edge"><title>Node16&#45;&gt;Node17</title>
<path fill="none" stroke="midnightblue" d="M629.1,-102.101C630.096,-93.1357 631.238,-82.8579 632.028,-75.7511"/>
<polygon fill="midnightblue" stroke="midnightblue" points="625.617,-101.758 627.991,-112.083 632.574,-102.531 625.617,-101.758"/>
</g>
<!-- Node17&#45;&gt;Node8 -->
<g id="edge21" class="edge"><title>Node17&#45;&gt;Node8</title>
<path fill="none" stroke="midnightblue" d="M604.461,-52.3678C581.614,-42.2553 550.195,-28.3486 530.241,-19.5164"/>
<polygon fill="midnightblue" stroke="midnightblue" points="603.108,-55.5965 613.669,-56.4435 605.941,-49.1955 603.108,-55.5965"/>
</g>
<!-- Node18 -->
<g id="node18" class="node"><title>Node18</title>
<g id="a_node18"><a xlink:href="_i_graphics_mac__view_8mm_source.html" target="_top" xlink:title="IGraphicsMac_view.mm">
<polygon fill="white" stroke="black" points="578,-0.5 578,-19.5 700,-19.5 700,-0.5 578,-0.5"/>
<text text-anchor="middle" x="639" y="-7.5" font-family="Helvetica,sans-Serif" font-size="10.00">IGraphicsMac_view.mm</text>
</a>
</g>
</g>
<!-- Node17&#45;&gt;Node18 -->
<g id="edge22" class="edge"><title>Node17&#45;&gt;Node18</title>
<path fill="none" stroke="midnightblue" d="M635.1,-46.1005C636.096,-37.1357 637.238,-26.8579 638.028,-19.7511"/>
<polygon fill="midnightblue" stroke="midnightblue" points="631.617,-45.7576 633.991,-56.083 638.574,-46.5307 631.617,-45.7576"/>
</g>
<!-- Node19&#45;&gt;Node15 -->
<g id="edge24" class="edge"><title>Node19&#45;&gt;Node15</title>
<path fill="none" stroke="midnightblue" d="M414.2,-102.101C416.192,-93.1357 418.476,-82.8579 420.055,-75.7511"/>
<polygon fill="midnightblue" stroke="midnightblue" points="410.734,-101.562 411.982,-112.083 417.568,-103.08 410.734,-101.562"/>
</g>
<!-- Node21 -->
<g id="node21" class="node"><title>Node21</title>
<g id="a_node21"><a xlink:href="_i_graphics_nano_v_g_8cpp_source.html" target="_top" xlink:title="IGraphicsNanoVG.cpp">
<polygon fill="white" stroke="black" points="924.5,-112.5 924.5,-131.5 1039.5,-131.5 1039.5,-112.5 924.5,-112.5"/>
<text text-anchor="middle" x="982" y="-119.5" font-family="Helvetica,sans-Serif" font-size="10.00">IGraphicsNanoVG.cpp</text>
</a>
</g>
</g>
<!-- Node20&#45;&gt;Node21 -->
<g id="edge26" class="edge"><title>Node20&#45;&gt;Node21</title>
<path fill="none" stroke="midnightblue" d="M877.135,-164.638C902.657,-154.504 938.109,-140.427 960.551,-131.516"/>
<polygon fill="midnightblue" stroke="midnightblue" points="875.552,-161.5 867.55,-168.444 878.135,-168.006 875.552,-161.5"/>
</g>
</g>
</svg>
