<?xml version="1.0" encoding="UTF-8" standalone="no"?>
<!DOCTYPE svg PUBLIC "-//W3C//DTD SVG 1.1//EN"
 "http://www.w3.org/Graphics/SVG/1.1/DTD/svg11.dtd">
<!-- Generated by graphviz version 2.36.0 (20140111.2315)
 -->
<!-- Title: IGraphics.h Pages: 1 -->
<!--zoomable 476 -->
<svg id="main" version="1.1" xmlns="http://www.w3.org/2000/svg" xmlns:xlink="http://www.w3.org/1999/xlink" xml:space="preserve" onload="init(evt)">
<style type="text/css"><![CDATA[
.edge:hover path { stroke: red; }
.edge:hover polygon { stroke: red; fill: red; }
]]></style>
<script type="text/javascript"><![CDATA[
var edges = document.getElementsByTagName('g');
if (edges && edges.length) {
  for (var i=0;i<edges.length;i++) {
    if (edges[i].id.substr(0,4)=='edge') {
      edges[i].setAttribute('class','edge');
    }
  }
}
]]></script>
        <defs>
                <circle id="rim" cx="0" cy="0" r="7"/>
                <circle id="rim2" cx="0" cy="0" r="3.5"/>
                <g id="zoomPlus">
                        <use xlink:href="#rim" fill="#404040">
                                <set attributeName="fill" to="#808080" begin="zoomplus.mouseover" end="zoomplus.mouseout"/>
                        </use>
                        <path d="M-4,0h8M0,-4v8" fill="none" stroke="white" stroke-width="1.5" pointer-events="none"/>
                </g>
                <g id="zoomMin">
                        <use xlink:href="#rim" fill="#404040">
                                <set attributeName="fill" to="#808080" begin="zoomminus.mouseover" end="zoomminus.mouseout"/>
                        </use>
                        <path d="M-4,0h8" fill="none" stroke="white" stroke-width="1.5" pointer-events="none"/>
                </g>
                <g id="dirArrow">
                        <path fill="none" stroke="white" stroke-width="1.5" d="M0,-3.0v7 M-2.5,-0.5L0,-3.0L2.5,-0.5"/>
                </g>
               <g id="resetDef">
                       <use xlink:href="#rim2" fill="#404040">
                               <set attributeName="fill" to="#808080" begin="reset.mouseover" end="reset.mouseout"/>
                       </use>
               </g>
        </defs>

<script type="text/javascript">
var viewWidth = 1290;
var viewHeight = 476;
var sectionId = 'dynsection-0';
</script>
<script xlink:href="svgpan.js"/>
<svg id="graph" class="graph">
<g id="viewport">
<title>IGraphics.h</title>
<polygon fill="white" stroke="none" points="-4,4 -4,-472 1286,-472 1286,4 -4,4"/>
<!-- Node1 -->
<g id="node1" class="node"><title>Node1</title>
<polygon fill="#bfbfbf" stroke="black" points="393.5,-448.5 393.5,-467.5 460.5,-467.5 460.5,-448.5 393.5,-448.5"/>
<text text-anchor="middle" x="427" y="-455.5" font-family="Helvetica,sans-Serif" font-size="10.00">IGraphics.h</text>
</g>
<!-- Node2 -->
<g id="node2" class="node"><title>Node2</title>
<polygon fill="white" stroke="#bfbfbf" points="0,-392.5 0,-411.5 56,-411.5 56,-392.5 0,-392.5"/>
<text text-anchor="middle" x="28" y="-399.5" font-family="Helvetica,sans-Serif" font-size="10.00">ft2build.h</text>
</g>
<!-- Node1&#45;&gt;Node2 -->
<g id="edge1" class="edge"><title>Node1&#45;&gt;Node2</title>
<path fill="none" stroke="midnightblue" d="M393.39,-453.735C329.937,-447.355 188.248,-432.084 70,-412 68.7594,-411.789 67.4998,-411.567 66.2292,-411.336"/>
<polygon fill="midnightblue" stroke="midnightblue" points="66.8863,-407.899 56.4029,-409.431 65.5538,-414.771 66.8863,-407.899"/>
</g>
<!-- Node3 -->
<g id="node3" class="node"><title>Node3</title>
<g id="a_node3"><a xlink:href="_i_graphics_constants_8h_source.html" target="_top" xlink:title="IGraphicsConstants.h">
<polygon fill="white" stroke="black" points="536,-224.5 536,-243.5 648,-243.5 648,-224.5 536,-224.5"/>
<text text-anchor="middle" x="592" y="-231.5" font-family="Helvetica,sans-Serif" font-size="10.00">IGraphicsConstants.h</text>
</a>
</g>
</g>
<!-- Node1&#45;&gt;Node3 -->
<g id="edge2" class="edge"><title>Node1&#45;&gt;Node3</title>
<path fill="none" stroke="midnightblue" d="M428.497,-448.205C430.92,-435.34 436.423,-410.872 446,-392 477.255,-330.411 539.905,-275.621 572.018,-250.131"/>
<polygon fill="midnightblue" stroke="midnightblue" points="574.482,-252.648 580.214,-243.738 570.177,-247.129 574.482,-252.648"/>
</g>
<!-- Node19 -->
<g id="node19" class="node"><title>Node19</title>
<g id="a_node19"><a xlink:href="_i_graphics_structs_8h_source.html" target="_top" xlink:title="IGraphicsStructs.h">
<polygon fill="white" stroke="black" points="291,-280.5 291,-299.5 389,-299.5 389,-280.5 291,-280.5"/>
<text text-anchor="middle" x="340" y="-287.5" font-family="Helvetica,sans-Serif" font-size="10.00">IGraphicsStructs.h</text>
</a>
</g>
</g>
<!-- Node1&#45;&gt;Node19 -->
<g id="edge23" class="edge"><title>Node1&#45;&gt;Node19</title>
<path fill="none" stroke="midnightblue" d="M422.323,-448.075C408.509,-421.719 367.713,-343.878 349.256,-308.661"/>
<polygon fill="midnightblue" stroke="midnightblue" points="352.233,-306.801 344.491,-299.568 346.033,-310.05 352.233,-306.801"/>
</g>
<!-- Node24 -->
<g id="node24" class="node"><title>Node24</title>
<g id="a_node24"><a xlink:href="_i_graphics_utilites_8h_source.html" target="_top" xlink:title="IGraphicsUtilites.h">
<polygon fill="white" stroke="black" points="533,-392.5 533,-411.5 631,-411.5 631,-392.5 533,-392.5"/>
<text text-anchor="middle" x="582" y="-399.5" font-family="Helvetica,sans-Serif" font-size="10.00">IGraphicsUtilites.h</text>
</a>
</g>
</g>
<!-- Node1&#45;&gt;Node24 -->
<g id="edge33" class="edge"><title>Node1&#45;&gt;Node24</title>
<path fill="none" stroke="midnightblue" d="M451.56,-448.444C477.523,-439.399 518.668,-425.064 547.797,-414.916"/>
<polygon fill="midnightblue" stroke="midnightblue" points="549.263,-418.112 557.555,-411.516 546.96,-411.501 549.263,-418.112"/>
</g>
<!-- Node25 -->
<g id="node25" class="node"><title>Node25</title>
<g id="a_node25"><a xlink:href="_i_popup_menu_8h.html" target="_top" xlink:title="A class for setting the contents of a pop up menu. ">
<polygon fill="white" stroke="black" points="277,-112.5 277,-131.5 357,-131.5 357,-112.5 277,-112.5"/>
<text text-anchor="middle" x="317" y="-119.5" font-family="Helvetica,sans-Serif" font-size="10.00">IPopupMenu.h</text>
</a>
</g>
</g>
<!-- Node1&#45;&gt;Node25 -->
<g id="edge34" class="edge"><title>Node1&#45;&gt;Node25</title>
<path fill="none" stroke="midnightblue" d="M393.487,-453.495C307.18,-443.543 84,-411.568 84,-347 84,-347 84,-347 84,-289 84,-198.937 200.903,-153.175 269.097,-134.142"/>
<polygon fill="midnightblue" stroke="midnightblue" points="270.044,-137.512 278.786,-131.526 268.219,-130.754 270.044,-137.512"/>
</g>
<!-- Node26 -->
<g id="node26" class="node"><title>Node26</title>
<g id="a_node26"><a xlink:href="_i_control_8h.html" target="_top" xlink:title="The lowest level base class of an IGraphics control. ">
<polygon fill="white" stroke="black" points="455.5,-392.5 455.5,-411.5 514.5,-411.5 514.5,-392.5 455.5,-392.5"/>
<text text-anchor="middle" x="485" y="-399.5" font-family="Helvetica,sans-Serif" font-size="10.00">IControl.h</text>
</a>
</g>
</g>
<!-- Node1&#45;&gt;Node26 -->
<g id="edge41" class="edge"><title>Node1&#45;&gt;Node26</title>
<path fill="none" stroke="midnightblue" d="M431.411,-448.083C438.402,-439.984 451.091,-427.866 462.494,-418.233"/>
<polygon fill="midnightblue" stroke="midnightblue" points="464.917,-420.774 470.47,-411.751 460.502,-415.342 464.917,-420.774"/>
</g>
<!-- Node4 -->
<g id="node4" class="node"><title>Node4</title>
<g id="a_node4"><a xlink:href="_i_plug_platform_8h.html" target="_top" xlink:title="Include to get consistently named preprocessor macros for different platforms and logging functionali...">
<polygon fill="white" stroke="black" points="580,-168.5 580,-187.5 664,-187.5 664,-168.5 580,-168.5"/>
<text text-anchor="middle" x="622" y="-175.5" font-family="Helvetica,sans-Serif" font-size="10.00">IPlugPlatform.h</text>
</a>
</g>
</g>
<!-- Node3&#45;&gt;Node4 -->
<g id="edge3" class="edge"><title>Node3&#45;&gt;Node4</title>
<path fill="none" stroke="midnightblue" d="M596.954,-224.083C601.104,-216.613 607.153,-205.724 612.267,-196.52"/>
<polygon fill="midnightblue" stroke="midnightblue" points="615.341,-198.192 617.138,-187.751 609.222,-194.793 615.341,-198.192"/>
</g>
<!-- Node5 -->
<g id="node5" class="node"><title>Node5</title>
<g id="a_node5"><a xlink:href="_i_plug_logger_8h.html" target="_top" xlink:title="IPlug Logging functionailty To trace some arbitrary data: Trace(TRACELOC, &quot;%s:%d&quot;, myStr, myInt); To simply create a trace entry in the log: TRACE; No need to wrap tracer calls in #ifdef TRACER_BUILD because Trace is a no&#45;op unless TRACER_BUILD is defined. ">
<polygon fill="white" stroke="black" points="800.5,-112.5 800.5,-131.5 877.5,-131.5 877.5,-112.5 800.5,-112.5"/>
<text text-anchor="middle" x="839" y="-119.5" font-family="Helvetica,sans-Serif" font-size="10.00">IPlugLogger.h</text>
</a>
</g>
</g>
<!-- Node4&#45;&gt;Node5 -->
<g id="edge4" class="edge"><title>Node4&#45;&gt;Node5</title>
<path fill="none" stroke="midnightblue" d="M656.384,-168.444C693.922,-159.102 754.131,-144.119 795.067,-133.933"/>
<polygon fill="midnightblue" stroke="midnightblue" points="795.918,-137.328 804.777,-131.516 794.227,-130.535 795.918,-137.328"/>
</g>
<!-- Node6 -->
<g id="node6" class="node"><title>Node6</title>
<polygon fill="white" stroke="#bfbfbf" points="477.5,-0.5 477.5,-19.5 520.5,-19.5 520.5,-0.5 477.5,-0.5"/>
<text text-anchor="middle" x="499" y="-7.5" font-family="Helvetica,sans-Serif" font-size="10.00">cstdio</text>
</g>
<!-- Node5&#45;&gt;Node6 -->
<g id="edge5" class="edge"><title>Node5&#45;&gt;Node6</title>
<path fill="none" stroke="midnightblue" d="M800.233,-116.698C717.157,-107.324 528.603,-85.1662 518,-76 504.817,-64.6036 500.53,-44.6146 499.258,-29.8032"/>
<polygon fill="midnightblue" stroke="midnightblue" points="502.749,-29.5352 498.774,-19.7141 495.757,-29.8702 502.749,-29.5352"/>
</g>
<!-- Node7 -->
<g id="node7" class="node"><title>Node7</title>
<polygon fill="white" stroke="#bfbfbf" points="641,-0.5 641,-19.5 687,-19.5 687,-0.5 641,-0.5"/>
<text text-anchor="middle" x="664" y="-7.5" font-family="Helvetica,sans-Serif" font-size="10.00">cctype</text>
</g>
<!-- Node5&#45;&gt;Node7 -->
<g id="edge6" class="edge"><title>Node5&#45;&gt;Node7</title>
<path fill="none" stroke="midnightblue" d="M821.816,-112.438C804.794,-103.782 778.137,-89.7543 756,-76 730.162,-59.9461 701.757,-39.4041 683.444,-25.7548"/>
<polygon fill="midnightblue" stroke="midnightblue" points="685.42,-22.8611 675.321,-19.6579 681.218,-28.4598 685.42,-22.8611"/>
</g>
<!-- Node8 -->
<g id="node8" class="node"><title>Node8</title>
<polygon fill="white" stroke="#bfbfbf" points="765.5,-56.5 765.5,-75.5 814.5,-75.5 814.5,-56.5 765.5,-56.5"/>
<text text-anchor="middle" x="790" y="-63.5" font-family="Helvetica,sans-Serif" font-size="10.00">cstdarg</text>
</g>
<!-- Node5&#45;&gt;Node8 -->
<g id="edge7" class="edge"><title>Node5&#45;&gt;Node8</title>
<path fill="none" stroke="midnightblue" d="M830.909,-112.083C823.845,-104.298 813.412,-92.8015 804.851,-83.3665"/>
<polygon fill="midnightblue" stroke="midnightblue" points="807.253,-80.8047 797.941,-75.7511 802.069,-85.5087 807.253,-80.8047"/>
</g>
<!-- Node9 -->
<g id="node9" class="node"><title>Node9</title>
<polygon fill="white" stroke="#bfbfbf" points="625,-56.5 625,-75.5 671,-75.5 671,-56.5 625,-56.5"/>
<text text-anchor="middle" x="648" y="-63.5" font-family="Helvetica,sans-Serif" font-size="10.00">cstdint</text>
</g>
<!-- Node5&#45;&gt;Node9 -->
<g id="edge8" class="edge"><title>Node5&#45;&gt;Node9</title>
<path fill="none" stroke="midnightblue" d="M808.735,-112.444C773.982,-102.618 717.151,-86.5506 681.206,-76.3882"/>
<polygon fill="midnightblue" stroke="midnightblue" points="681.789,-72.9157 671.214,-73.5631 679.884,-79.6517 681.789,-72.9157"/>
</g>
<!-- Node10 -->
<g id="node10" class="node"><title>Node10</title>
<polygon fill="white" stroke="#bfbfbf" points="879,-0.5 879,-19.5 925,-19.5 925,-0.5 879,-0.5"/>
<text text-anchor="middle" x="902" y="-7.5" font-family="Helvetica,sans-Serif" font-size="10.00">cstring</text>
</g>
<!-- Node5&#45;&gt;Node10 -->
<g id="edge9" class="edge"><title>Node5&#45;&gt;Node10</title>
<path fill="none" stroke="midnightblue" d="M849.653,-112.421C859.368,-104.069 873.47,-90.5394 882,-76 890.495,-61.5203 895.724,-43.0733 898.693,-29.5329"/>
<polygon fill="midnightblue" stroke="midnightblue" points="902.169,-29.9972 900.679,-19.5078 895.302,-28.6373 902.169,-29.9972"/>
</g>
<!-- Node11 -->
<g id="node11" class="node"><title>Node11</title>
<polygon fill="white" stroke="#bfbfbf" points="832.5,-56.5 832.5,-75.5 873.5,-75.5 873.5,-56.5 832.5,-56.5"/>
<text text-anchor="middle" x="853" y="-63.5" font-family="Helvetica,sans-Serif" font-size="10.00">ctime</text>
</g>
<!-- Node5&#45;&gt;Node11 -->
<g id="edge10" class="edge"><title>Node5&#45;&gt;Node11</title>
<path fill="none" stroke="midnightblue" d="M841.312,-112.083C843.167,-104.927 845.835,-94.6353 848.154,-85.6911"/>
<polygon fill="midnightblue" stroke="midnightblue" points="851.609,-86.3094 850.731,-75.7511 844.834,-84.5527 851.609,-86.3094"/>
</g>
<!-- Node12 -->
<g id="node12" class="node"><title>Node12</title>
<polygon fill="white" stroke="#bfbfbf" points="421.5,-56.5 421.5,-75.5 470.5,-75.5 470.5,-56.5 421.5,-56.5"/>
<text text-anchor="middle" x="446" y="-63.5" font-family="Helvetica,sans-Serif" font-size="10.00">cassert</text>
</g>
<!-- Node5&#45;&gt;Node12 -->
<g id="edge11" class="edge"><title>Node5&#45;&gt;Node12</title>
<path fill="none" stroke="midnightblue" d="M800.231,-116.57C721.423,-107.484 544.922,-86.6948 485,-76 483.546,-75.7406 482.065,-75.4622 480.571,-75.1698"/>
<polygon fill="midnightblue" stroke="midnightblue" points="481.187,-71.7227 470.681,-73.0891 479.746,-78.5728 481.187,-71.7227"/>
</g>
<!-- Node13 -->
<g id="node13" class="node"><title>Node13</title>
<polygon fill="white" stroke="#bfbfbf" points="1076,-56.5 1076,-75.5 1140,-75.5 1140,-56.5 1076,-56.5"/>
<text text-anchor="middle" x="1108" y="-63.5" font-family="Helvetica,sans-Serif" font-size="10.00">wdlstring.h</text>
</g>
<!-- Node5&#45;&gt;Node13 -->
<g id="edge12" class="edge"><title>Node5&#45;&gt;Node13</title>
<path fill="none" stroke="midnightblue" d="M877.779,-113.606C921.148,-105.28 993.749,-91.1699 1065.65,-76.2494"/>
<polygon fill="midnightblue" stroke="midnightblue" points="1066.71,-79.6038 1075.78,-74.1392 1065.28,-72.7507 1066.71,-79.6038"/>
</g>
<!-- Node14 -->
<g id="node14" class="node"><title>Node14</title>
<polygon fill="white" stroke="#bfbfbf" points="1006,-56.5 1006,-75.5 1058,-75.5 1058,-56.5 1006,-56.5"/>
<text text-anchor="middle" x="1032" y="-63.5" font-family="Helvetica,sans-Serif" font-size="10.00">mutex.h</text>
</g>
<!-- Node5&#45;&gt;Node14 -->
<g id="edge13" class="edge"><title>Node5&#45;&gt;Node14</title>
<path fill="none" stroke="midnightblue" d="M869.581,-112.444C903.975,-102.821 959.767,-87.2102 996.174,-77.0239"/>
<polygon fill="midnightblue" stroke="midnightblue" points="997.207,-80.3693 1005.89,-74.3042 995.321,-73.6281 997.207,-80.3693"/>
</g>
<!-- Node15 -->
<g id="node15" class="node"><title>Node15</title>
<g id="a_node15"><a xlink:href="_i_plug_constants_8h.html" target="_top" xlink:title="Constant definitions, magic numbers. ">
<polygon fill="white" stroke="black" points="943,-0.5 943,-19.5 1035,-19.5 1035,-0.5 943,-0.5"/>
<text text-anchor="middle" x="989" y="-7.5" font-family="Helvetica,sans-Serif" font-size="10.00">IPlugConstants.h</text>
</a>
</g>
</g>
<!-- Node5&#45;&gt;Node15 -->
<g id="edge14" class="edge"><title>Node5&#45;&gt;Node15</title>
<path fill="none" stroke="midnightblue" d="M850.907,-112.403C863.405,-103.368 883.616,-88.729 901,-76 924.359,-58.8961 951.1,-39.1157 968.914,-25.9101"/>
<polygon fill="midnightblue" stroke="midnightblue" points="971.404,-28.4212 977.35,-19.6527 967.233,-22.7989 971.404,-28.4212"/>
</g>
<!-- Node16 -->
<g id="node16" class="node"><title>Node16</title>
<g id="a_node16"><a xlink:href="_i_plug_utilities_8h.html" target="_top" xlink:title="Utility functions and macros. ">
<polygon fill="white" stroke="black" points="527,-56.5 527,-75.5 607,-75.5 607,-56.5 527,-56.5"/>
<text text-anchor="middle" x="567" y="-63.5" font-family="Helvetica,sans-Serif" font-size="10.00">IPlugUtilities.h</text>
</a>
</g>
</g>
<!-- Node5&#45;&gt;Node16 -->
<g id="edge15" class="edge"><title>Node5&#45;&gt;Node16</title>
<path fill="none" stroke="midnightblue" d="M800.318,-113.32C752.23,-103.774 670.053,-87.459 617.165,-76.9593"/>
<polygon fill="midnightblue" stroke="midnightblue" points="617.812,-73.5194 607.322,-75.005 616.449,-80.3854 617.812,-73.5194"/>
</g>
<!-- Node16&#45;&gt;Node4 -->
<g id="edge22" class="edge"><title>Node16&#45;&gt;Node4</title>
<path fill="none" stroke="midnightblue" d="M571.296,-75.5914C580.274,-93.5484 601.185,-135.37 613.16,-159.32"/>
<polygon fill="midnightblue" stroke="midnightblue" points="610.082,-160.989 617.684,-168.368 616.343,-157.859 610.082,-160.989"/>
</g>
<!-- Node16&#45;&gt;Node6 -->
<g id="edge17" class="edge"><title>Node16&#45;&gt;Node6</title>
<path fill="none" stroke="midnightblue" d="M556.075,-56.324C545.825,-48.1849 530.279,-35.8395 517.999,-26.0874"/>
<polygon fill="midnightblue" stroke="midnightblue" points="520.132,-23.3119 510.124,-19.8339 515.779,-28.7937 520.132,-23.3119"/>
</g>
<!-- Node16&#45;&gt;Node7 -->
<g id="edge20" class="edge"><title>Node16&#45;&gt;Node7</title>
<path fill="none" stroke="midnightblue" d="M582.585,-56.324C597.999,-47.7428 621.812,-34.486 639.71,-24.5224"/>
<polygon fill="midnightblue" stroke="midnightblue" points="641.419,-27.5767 648.454,-19.6545 638.014,-21.4606 641.419,-27.5767"/>
</g>
<!-- Node16&#45;&gt;Node10 -->
<g id="edge19" class="edge"><title>Node16&#45;&gt;Node10</title>
<path fill="none" stroke="midnightblue" d="M607.097,-57.549C610.108,-57.0159 613.101,-56.4942 616,-56 707.51,-40.3994 815.837,-23.8873 869.088,-15.8986"/>
<polygon fill="midnightblue" stroke="midnightblue" points="869.611,-19.3594 878.983,-14.4172 868.575,-12.4365 869.611,-19.3594"/>
</g>
<!-- Node16&#45;&gt;Node15 -->
<g id="edge21" class="edge"><title>Node16&#45;&gt;Node15</title>
<path fill="none" stroke="midnightblue" d="M607.074,-57.4071C610.09,-56.9068 613.091,-56.4313 616,-56 753.538,-35.6086 791.418,-39.308 932.893,-20.0898"/>
<polygon fill="midnightblue" stroke="midnightblue" points="933.381,-23.5558 942.812,-18.7282 932.428,-16.6208 933.381,-23.5558"/>
</g>
<!-- Node17 -->
<g id="node17" class="node"><title>Node17</title>
<polygon fill="white" stroke="#bfbfbf" points="257,-0.5 257,-19.5 301,-19.5 301,-0.5 257,-0.5"/>
<text text-anchor="middle" x="279" y="-7.5" font-family="Helvetica,sans-Serif" font-size="10.00">cmath</text>
</g>
<!-- Node16&#45;&gt;Node17 -->
<g id="edge16" class="edge"><title>Node16&#45;&gt;Node17</title>
<path fill="none" stroke="midnightblue" d="M526.955,-57.4915C469.285,-46.6784 363.983,-26.9344 311.102,-17.0192"/>
<polygon fill="midnightblue" stroke="midnightblue" points="311.728,-13.5757 301.255,-15.1728 310.438,-20.4558 311.728,-13.5757"/>
</g>
<!-- Node18 -->
<g id="node18" class="node"><title>Node18</title>
<polygon fill="white" stroke="#bfbfbf" points="541.5,-0.5 541.5,-19.5 586.5,-19.5 586.5,-0.5 541.5,-0.5"/>
<text text-anchor="middle" x="564" y="-7.5" font-family="Helvetica,sans-Serif" font-size="10.00">cstdlib</text>
</g>
<!-- Node16&#45;&gt;Node18 -->
<g id="edge18" class="edge"><title>Node16&#45;&gt;Node18</title>
<path fill="none" stroke="midnightblue" d="M566.505,-56.083C566.111,-49.0059 565.548,-38.8611 565.055,-29.9865"/>
<polygon fill="midnightblue" stroke="midnightblue" points="568.536,-29.5415 564.486,-19.7511 561.546,-29.9299 568.536,-29.5415"/>
</g>
<!-- Node19&#45;&gt;Node3 -->
<g id="edge32" class="edge"><title>Node19&#45;&gt;Node3</title>
<path fill="none" stroke="midnightblue" d="M379.93,-280.444C423.891,-271.023 494.627,-255.866 542.183,-245.675"/>
<polygon fill="midnightblue" stroke="midnightblue" points="543.212,-249.034 552.257,-243.516 541.745,-242.189 543.212,-249.034"/>
</g>
<!-- Node19&#45;&gt;Node4 -->
<g id="edge31" class="edge"><title>Node19&#45;&gt;Node4</title>
<path fill="none" stroke="midnightblue" d="M362.128,-280.368C411.961,-260.93 533.107,-213.674 590.652,-191.228"/>
<polygon fill="midnightblue" stroke="midnightblue" points="591.93,-194.486 599.975,-187.591 589.386,-187.965 591.93,-194.486"/>
</g>
<!-- Node19&#45;&gt;Node12 -->
<g id="edge25" class="edge"><title>Node19&#45;&gt;Node12</title>
<path fill="none" stroke="midnightblue" d="M347.804,-280.196C355.251,-271.47 366.427,-257.491 374,-244 391.775,-212.334 390.361,-201.656 404,-168 415.789,-138.908 429.864,-105.278 438.358,-85.0976"/>
<polygon fill="midnightblue" stroke="midnightblue" points="441.692,-86.1993 442.351,-75.6249 435.242,-83.4801 441.692,-86.1993"/>
</g>
<!-- Node19&#45;&gt;Node13 -->
<g id="edge28" class="edge"><title>Node19&#45;&gt;Node13</title>
<path fill="none" stroke="midnightblue" d="M389.33,-288.056C503.093,-285.357 780.755,-275.637 868,-244 965.738,-208.558 1057.82,-119.807 1092.97,-83.1894"/>
<polygon fill="midnightblue" stroke="midnightblue" points="1095.62,-85.4887 1099.95,-75.8213 1090.54,-80.6752 1095.62,-85.4887"/>
</g>
<!-- Node19&#45;&gt;Node17 -->
<g id="edge24" class="edge"><title>Node19&#45;&gt;Node17</title>
<path fill="none" stroke="midnightblue" d="M290.74,-284.777C261.299,-279.673 225.386,-268.479 203,-244 185.757,-225.145 194.81,-213.094 190,-188 178.865,-129.906 140.353,-105.326 173,-56 189.22,-31.4927 221.764,-20.2927 246.536,-15.1982"/>
<polygon fill="midnightblue" stroke="midnightblue" points="247.394,-18.5998 256.606,-13.3677 246.142,-11.7126 247.394,-18.5998"/>
</g>
<!-- Node20 -->
<g id="node20" class="node"><title>Node20</title>
<polygon fill="white" stroke="#bfbfbf" points="226.5,-224.5 226.5,-243.5 285.5,-243.5 285.5,-224.5 226.5,-224.5"/>
<text text-anchor="middle" x="256" y="-231.5" font-family="Helvetica,sans-Serif" font-size="10.00">functional</text>
</g>
<!-- Node19&#45;&gt;Node20 -->
<g id="edge26" class="edge"><title>Node19&#45;&gt;Node20</title>
<path fill="none" stroke="midnightblue" d="M326.504,-280.324C313.4,-271.9 293.288,-258.971 277.893,-249.074"/>
<polygon fill="midnightblue" stroke="midnightblue" points="279.767,-246.118 269.463,-243.655 275.982,-252.006 279.767,-246.118"/>
</g>
<!-- Node21 -->
<g id="node21" class="node"><title>Node21</title>
<polygon fill="white" stroke="#bfbfbf" points="413,-168.5 413,-187.5 469,-187.5 469,-168.5 413,-168.5"/>
<text text-anchor="middle" x="441" y="-175.5" font-family="Helvetica,sans-Serif" font-size="10.00">algorithm</text>
</g>
<!-- Node19&#45;&gt;Node21 -->
<g id="edge27" class="edge"><title>Node19&#45;&gt;Node21</title>
<path fill="none" stroke="midnightblue" d="M358.054,-280.397C372.954,-272.577 393.871,-259.852 408,-244 420.213,-230.298 429.179,-211.259 434.658,-197.328"/>
<polygon fill="midnightblue" stroke="midnightblue" points="437.98,-198.437 438.164,-187.843 431.414,-196.01 437.98,-198.437"/>
</g>
<!-- Node22 -->
<g id="node22" class="node"><title>Node22</title>
<polygon fill="white" stroke="#bfbfbf" points="182.5,-56.5 182.5,-75.5 231.5,-75.5 231.5,-56.5 182.5,-56.5"/>
<text text-anchor="middle" x="207" y="-63.5" font-family="Helvetica,sans-Serif" font-size="10.00">ptrlist.h</text>
</g>
<!-- Node19&#45;&gt;Node22 -->
<g id="edge29" class="edge"><title>Node19&#45;&gt;Node22</title>
<path fill="none" stroke="midnightblue" d="M290.886,-283.904C264.611,-278.449 234.205,-267.193 217,-244 181.756,-196.49 193.796,-120.55 201.987,-85.6487"/>
<polygon fill="midnightblue" stroke="midnightblue" points="205.407,-86.3984 204.446,-75.8473 198.617,-84.6949 205.407,-86.3984"/>
</g>
<!-- Node23 -->
<g id="node23" class="node"><title>Node23</title>
<polygon fill="white" stroke="#bfbfbf" points="304,-224.5 304,-243.5 366,-243.5 366,-224.5 304,-224.5"/>
<text text-anchor="middle" x="335" y="-231.5" font-family="Helvetica,sans-Serif" font-size="10.00">nanosvg.h</text>
</g>
<!-- Node19&#45;&gt;Node23 -->
<g id="edge30" class="edge"><title>Node19&#45;&gt;Node23</title>
<path fill="none" stroke="midnightblue" d="M339.174,-280.083C338.519,-273.006 337.58,-262.861 336.758,-253.986"/>
<polygon fill="midnightblue" stroke="midnightblue" points="340.217,-253.386 335.81,-243.751 333.247,-254.031 340.217,-253.386"/>
</g>
<!-- Node25&#45;&gt;Node6 -->
<g id="edge37" class="edge"><title>Node25&#45;&gt;Node6</title>
<path fill="none" stroke="midnightblue" d="M317.721,-112.489C319.355,-98.6293 324.587,-71.2068 341,-56 375.792,-23.7643 432.055,-14.4201 467.212,-11.8296"/>
<polygon fill="midnightblue" stroke="midnightblue" points="467.623,-15.3114 477.398,-11.2246 467.208,-8.32374 467.623,-15.3114"/>
</g>
<!-- Node25&#45;&gt;Node10 -->
<g id="edge36" class="edge"><title>Node25&#45;&gt;Node10</title>
<path fill="none" stroke="midnightblue" d="M326.066,-112.373C341.988,-97.8204 376.654,-68.7349 412,-56 454.79,-40.5832 765.486,-19.6748 868.739,-13.0806"/>
<polygon fill="midnightblue" stroke="midnightblue" points="869.143,-16.5621 878.901,-12.4352 868.699,-9.57618 869.143,-16.5621"/>
</g>
<!-- Node25&#45;&gt;Node12 -->
<g id="edge38" class="edge"><title>Node25&#45;&gt;Node12</title>
<path fill="none" stroke="midnightblue" d="M337.44,-112.444C358.67,-103.557 392.099,-89.5632 416.255,-79.4514"/>
<polygon fill="midnightblue" stroke="midnightblue" points="417.782,-82.6064 425.655,-75.5164 415.079,-76.1493 417.782,-82.6064"/>
</g>
<!-- Node25&#45;&gt;Node13 -->
<g id="edge39" class="edge"><title>Node25&#45;&gt;Node13</title>
<path fill="none" stroke="midnightblue" d="M357.057,-120.792C468.159,-119.747 789.636,-113.568 1065.65,-75.9617"/>
<polygon fill="midnightblue" stroke="midnightblue" points="1066.43,-79.3868 1075.86,-74.553 1065.47,-72.4525 1066.43,-79.3868"/>
</g>
<!-- Node25&#45;&gt;Node17 -->
<g id="edge35" class="edge"><title>Node25&#45;&gt;Node17</title>
<path fill="none" stroke="midnightblue" d="M314.018,-112.368C307.858,-94.5366 293.611,-53.2953 285.312,-29.2717"/>
<polygon fill="midnightblue" stroke="midnightblue" points="288.541,-27.9005 281.968,-19.5914 281.925,-30.1862 288.541,-27.9005"/>
</g>
<!-- Node25&#45;&gt;Node22 -->
<g id="edge40" class="edge"><title>Node25&#45;&gt;Node22</title>
<path fill="none" stroke="midnightblue" d="M299.327,-112.324C281.606,-103.625 254.097,-90.1202 233.712,-80.113"/>
<polygon fill="midnightblue" stroke="midnightblue" points="235.149,-76.9195 224.63,-75.6545 232.064,-83.2031 235.149,-76.9195"/>
</g>
<!-- Node26&#45;&gt;Node1 -->
<g id="edge70" class="edge"><title>Node26&#45;&gt;Node1</title>
<path fill="none" stroke="midnightblue" d="M480.66,-411.834C473.672,-419.948 460.902,-432.145 449.444,-441.82"/>
<polygon fill="midnightblue" stroke="midnightblue" points="446.99,-439.303 441.434,-448.324 451.403,-444.737 446.99,-439.303"/>
</g>
<!-- Node26&#45;&gt;Node10 -->
<g id="edge42" class="edge"><title>Node26&#45;&gt;Node10</title>
<path fill="none" stroke="midnightblue" d="M514.74,-393.768C517.857,-393.121 520.986,-392.516 524,-392 664.631,-367.919 701.52,-374.452 843,-356 1038.58,-330.493 1282,-488.238 1282,-291 1282,-291 1282,-291 1282,-233 1282,-139.669 1247.21,-106.937 1169,-56 1083.14,-0.078156 1039.93,-39.7739 935.316,-19.9537"/>
<polygon fill="midnightblue" stroke="midnightblue" points="935.834,-16.4873 925.336,-17.9187 934.435,-23.3461 935.834,-16.4873"/>
</g>
<!-- Node26&#45;&gt;Node13 -->
<g id="edge44" class="edge"><title>Node26&#45;&gt;Node13</title>
<path fill="none" stroke="midnightblue" d="M514.748,-393.817C517.864,-393.16 520.991,-392.54 524,-392 647.062,-369.916 684.738,-396.572 803,-356 948.551,-306.067 970.776,-252.081 1067,-132 1079.08,-116.919 1090.62,-98.0957 1098.36,-84.5923"/>
<polygon fill="midnightblue" stroke="midnightblue" points="1101.43,-86.2632 1103.28,-75.8296 1095.33,-82.8373 1101.43,-86.2632"/>
</g>
<!-- Node26&#45;&gt;Node18 -->
<g id="edge43" class="edge"><title>Node26&#45;&gt;Node18</title>
<path fill="none" stroke="midnightblue" d="M485.363,-392.267C486.803,-355.178 491.365,-210.676 477,-168 458.639,-113.454 377.561,-102.112 412,-56 415.669,-51.088 487.891,-31.2072 531.443,-19.5789"/>
<polygon fill="midnightblue" stroke="midnightblue" points="532.55,-22.9061 541.315,-16.9533 530.751,-16.1413 532.55,-22.9061"/>
</g>
<!-- Node26&#45;&gt;Node22 -->
<g id="edge46" class="edge"><title>Node26&#45;&gt;Node22</title>
<path fill="none" stroke="midnightblue" d="M455.424,-394.079C396.317,-378.554 264.05,-334.959 203,-244 170.17,-195.087 180.469,-169.96 191,-112 192.649,-102.924 195.886,-93.2382 199.02,-85.1864"/>
<polygon fill="midnightblue" stroke="midnightblue" points="202.343,-86.3097 202.938,-75.7316 195.877,-83.6301 202.343,-86.3097"/>
</g>
<!-- Node27 -->
<g id="node27" class="node"><title>Node27</title>
<polygon fill="white" stroke="#bfbfbf" points="498,-336.5 498,-355.5 554,-355.5 554,-336.5 498,-336.5"/>
<text text-anchor="middle" x="526" y="-343.5" font-family="Helvetica,sans-Serif" font-size="10.00">dirscan.h</text>
</g>
<!-- Node26&#45;&gt;Node27 -->
<g id="edge45" class="edge"><title>Node26&#45;&gt;Node27</title>
<path fill="none" stroke="midnightblue" d="M491.77,-392.083C497.562,-384.455 506.058,-373.264 513.138,-363.941"/>
<polygon fill="midnightblue" stroke="midnightblue" points="516.096,-365.832 519.356,-355.751 510.521,-361.599 516.096,-365.832"/>
</g>
<!-- Node28 -->
<g id="node28" class="node"><title>Node28</title>
<g id="a_node28"><a xlink:href="_i_plug_base_graphics_8h.html" target="_top" xlink:title="An IPlugBase class for an IPlug plug&#45;in that uses IGraphics for it&#39;s UI. ">
<polygon fill="white" stroke="black" points="685.5,-336.5 685.5,-355.5 794.5,-355.5 794.5,-336.5 685.5,-336.5"/>
<text text-anchor="middle" x="740" y="-343.5" font-family="Helvetica,sans-Serif" font-size="10.00">IPlugBaseGraphics.h</text>
</a>
</g>
</g>
<!-- Node26&#45;&gt;Node28 -->
<g id="edge47" class="edge"><title>Node26&#45;&gt;Node28</title>
<path fill="none" stroke="midnightblue" d="M514.796,-394.055C517.902,-393.352 521.014,-392.656 524,-392 579.884,-379.732 644.087,-366.461 687.878,-357.533"/>
<polygon fill="midnightblue" stroke="midnightblue" points="688.625,-360.953 697.726,-355.529 687.229,-354.094 688.625,-360.953"/>
</g>
<!-- Node29 -->
<g id="node29" class="node"><title>Node29</title>
<g id="a_node29"><a xlink:href="_i_plug_base_8h.html" target="_top" xlink:title="The lowest level base class of an IPlug plug&#45;in. ">
<polygon fill="white" stroke="black" points="819,-280.5 819,-299.5 889,-299.5 889,-280.5 819,-280.5"/>
<text text-anchor="middle" x="854" y="-287.5" font-family="Helvetica,sans-Serif" font-size="10.00">IPlugBase.h</text>
</a>
</g>
</g>
<!-- Node28&#45;&gt;Node29 -->
<g id="edge48" class="edge"><title>Node28&#45;&gt;Node29</title>
<path fill="none" stroke="midnightblue" d="M758.064,-336.444C776.575,-327.675 805.581,-313.935 826.855,-303.858"/>
<polygon fill="midnightblue" stroke="midnightblue" points="828.482,-306.96 836.021,-299.516 825.485,-300.634 828.482,-306.96"/>
</g>
<!-- Node29&#45;&gt;Node4 -->
<g id="edge53" class="edge"><title>Node29&#45;&gt;Node4</title>
<path fill="none" stroke="midnightblue" d="M828.681,-280.341C804.89,-271.933 768.482,-258.366 738,-244 704.597,-228.258 667.647,-206.81 644.624,-192.934"/>
<polygon fill="midnightblue" stroke="midnightblue" points="646.311,-189.863 635.947,-187.664 642.678,-195.846 646.311,-189.863"/>
</g>
<!-- Node29&#45;&gt;Node9 -->
<g id="edge50" class="edge"><title>Node29&#45;&gt;Node9</title>
<path fill="none" stroke="midnightblue" d="M859.116,-280.272C865.9,-267.491 876.12,-243.126 868,-224 833.893,-143.658 733.2,-97.1806 680.692,-77.7726"/>
<polygon fill="midnightblue" stroke="midnightblue" points="681.765,-74.4393 671.17,-74.3556 679.4,-81.0279 681.765,-74.4393"/>
</g>
<!-- Node29&#45;&gt;Node10 -->
<g id="edge49" class="edge"><title>Node29&#45;&gt;Node10</title>
<path fill="none" stroke="midnightblue" d="M878.444,-280.476C938.285,-258.095 1091.43,-191.293 1149,-76 1204.6,35.3575 1249.97,-88.2918 935.243,-20.0635"/>
<polygon fill="midnightblue" stroke="midnightblue" points="935.864,-16.6164 925.345,-17.8807 934.356,-23.4522 935.864,-16.6164"/>
</g>
<!-- Node29&#45;&gt;Node14 -->
<g id="edge52" class="edge"><title>Node29&#45;&gt;Node14</title>
<path fill="none" stroke="midnightblue" d="M870.708,-280.426C885.353,-272.364 906.643,-259.274 922,-244 971.518,-194.752 1008.9,-119.138 1024.3,-84.9196"/>
<polygon fill="midnightblue" stroke="midnightblue" points="1027.53,-86.2665 1028.36,-75.7042 1021.12,-83.4437 1027.53,-86.2665"/>
</g>
<!-- Node29&#45;&gt;Node15 -->
<g id="edge54" class="edge"><title>Node29&#45;&gt;Node15</title>
<path fill="none" stroke="midnightblue" d="M889.264,-280.574C918.214,-272.977 959.854,-260.474 994,-244 1091.11,-197.152 1138.62,-179.447 1169,-76 1171.5,-67.4713 1174.47,-63.0063 1169,-56 1153.81,-36.5447 1092.3,-24.256 1045.37,-17.5258"/>
<polygon fill="midnightblue" stroke="midnightblue" points="1045.68,-14.0361 1035.3,-16.1335 1044.72,-20.9701 1045.68,-14.0361"/>
</g>
<!-- Node29&#45;&gt;Node16 -->
<g id="edge65" class="edge"><title>Node29&#45;&gt;Node16</title>
<path fill="none" stroke="midnightblue" d="M835.523,-280.43C818.244,-272.084 792.021,-258.559 771,-244 695.664,-191.824 616.46,-116.154 583.201,-83.2708"/>
<polygon fill="midnightblue" stroke="midnightblue" points="585.323,-80.445 575.765,-75.873 580.386,-85.4073 585.323,-80.445"/>
</g>
<!-- Node29&#45;&gt;Node22 -->
<g id="edge51" class="edge"><title>Node29&#45;&gt;Node22</title>
<path fill="none" stroke="midnightblue" d="M818.92,-281.191C786.259,-273.427 736.513,-260.332 695,-244 676.873,-236.868 674.028,-231.379 656,-224 578.855,-192.422 558.03,-187.562 477,-168 385.376,-145.88 350.994,-176.68 268,-132 247.011,-120.7 229.196,-99.4669 218.334,-84.3443"/>
<polygon fill="midnightblue" stroke="midnightblue" points="221.052,-82.1198 212.503,-75.8614 215.283,-86.085 221.052,-82.1198"/>
</g>
<!-- Node30 -->
<g id="node30" class="node"><title>Node30</title>
<g id="a_node30"><a xlink:href="_i_plug_structs_8h_source.html" target="_top" xlink:title="IPlugStructs.h">
<polygon fill="white" stroke="black" points="780.5,-224.5 780.5,-243.5 859.5,-243.5 859.5,-224.5 780.5,-224.5"/>
<text text-anchor="middle" x="820" y="-231.5" font-family="Helvetica,sans-Serif" font-size="10.00">IPlugStructs.h</text>
</a>
</g>
</g>
<!-- Node29&#45;&gt;Node30 -->
<g id="edge55" class="edge"><title>Node29&#45;&gt;Node30</title>
<path fill="none" stroke="midnightblue" d="M848.386,-280.083C843.633,-272.534 836.682,-261.495 830.848,-252.23"/>
<polygon fill="midnightblue" stroke="midnightblue" points="833.8,-250.349 825.51,-243.751 827.876,-254.078 833.8,-250.349"/>
</g>
<!-- Node32 -->
<g id="node32" class="node"><title>Node32</title>
<g id="a_node32"><a xlink:href="_i_plug_parameter_8h_source.html" target="_top" xlink:title="IPlugParameter.h">
<polygon fill="white" stroke="black" points="896,-112.5 896,-131.5 988,-131.5 988,-112.5 896,-112.5"/>
<text text-anchor="middle" x="942" y="-119.5" font-family="Helvetica,sans-Serif" font-size="10.00">IPlugParameter.h</text>
</a>
</g>
</g>
<!-- Node29&#45;&gt;Node32 -->
<g id="edge66" class="edge"><title>Node29&#45;&gt;Node32</title>
<path fill="none" stroke="midnightblue" d="M866.278,-280.321C877.084,-272.098 892.53,-258.825 902,-244 922.967,-211.177 934.013,-166.279 938.867,-141.433"/>
<polygon fill="midnightblue" stroke="midnightblue" points="942.32,-142.011 940.675,-131.544 935.434,-140.752 942.32,-142.011"/>
</g>
<!-- Node30&#45;&gt;Node4 -->
<g id="edge59" class="edge"><title>Node30&#45;&gt;Node4</title>
<path fill="none" stroke="midnightblue" d="M788.626,-224.444C754.737,-215.201 700.597,-200.436 663.276,-190.257"/>
<polygon fill="midnightblue" stroke="midnightblue" points="663.795,-186.771 653.227,-187.516 661.954,-193.524 663.795,-186.771"/>
</g>
<!-- Node30&#45;&gt;Node13 -->
<g id="edge57" class="edge"><title>Node30&#45;&gt;Node13</title>
<path fill="none" stroke="midnightblue" d="M835.186,-224.41C865.837,-207.057 937.271,-166.528 997,-132 1027.28,-114.495 1062.06,-94.0788 1084.5,-80.8663"/>
<polygon fill="midnightblue" stroke="midnightblue" points="1086.47,-83.7664 1093.31,-75.6743 1082.92,-77.7355 1086.47,-83.7664"/>
</g>
<!-- Node30&#45;&gt;Node15 -->
<g id="edge58" class="edge"><title>Node30&#45;&gt;Node15</title>
<path fill="none" stroke="midnightblue" d="M859.516,-227.904C932.231,-216.14 1085.59,-179.655 1149,-76 1174.78,-33.8645 1101.11,-19.0414 1045.32,-13.8276"/>
<polygon fill="midnightblue" stroke="midnightblue" points="1045.4,-10.3218 1035.14,-12.9615 1044.81,-17.2966 1045.4,-10.3218"/>
</g>
<!-- Node30&#45;&gt;Node21 -->
<g id="edge56" class="edge"><title>Node30&#45;&gt;Node21</title>
<path fill="none" stroke="midnightblue" d="M780.157,-227.323C706.794,-216.87 551.269,-194.711 479.173,-184.439"/>
<polygon fill="midnightblue" stroke="midnightblue" points="479.555,-180.958 469.161,-183.012 478.568,-187.888 479.555,-180.958"/>
</g>
<!-- Node31 -->
<g id="node31" class="node"><title>Node31</title>
<g id="a_node31"><a xlink:href="_i_plug_midi_8h_source.html" target="_top" xlink:title="IPlugMidi.h">
<polygon fill="white" stroke="black" points="678.5,-112.5 678.5,-131.5 743.5,-131.5 743.5,-112.5 678.5,-112.5"/>
<text text-anchor="middle" x="711" y="-119.5" font-family="Helvetica,sans-Serif" font-size="10.00">IPlugMidi.h</text>
</a>
</g>
</g>
<!-- Node30&#45;&gt;Node31 -->
<g id="edge60" class="edge"><title>Node30&#45;&gt;Node31</title>
<path fill="none" stroke="midnightblue" d="M811.447,-224.368C793.14,-205.894 749.935,-162.293 726.6,-138.744"/>
<polygon fill="midnightblue" stroke="midnightblue" points="729.038,-136.231 719.513,-131.591 724.066,-141.158 729.038,-136.231"/>
</g>
<!-- Node31&#45;&gt;Node9 -->
<g id="edge62" class="edge"><title>Node31&#45;&gt;Node9</title>
<path fill="none" stroke="midnightblue" d="M700.878,-112.324C691.474,-104.263 677.256,-92.0765 665.931,-82.3695"/>
<polygon fill="midnightblue" stroke="midnightblue" points="668.177,-79.6844 658.306,-75.8339 663.621,-84.9993 668.177,-79.6844"/>
</g>
<!-- Node31&#45;&gt;Node12 -->
<g id="edge61" class="edge"><title>Node31&#45;&gt;Node12</title>
<path fill="none" stroke="midnightblue" d="M678.376,-114.825C634.385,-106.426 553.644,-90.751 485,-76 483.556,-75.6898 482.084,-75.369 480.597,-75.0417"/>
<polygon fill="midnightblue" stroke="midnightblue" points="481.256,-71.6027 470.732,-72.8262 479.722,-78.4326 481.256,-71.6027"/>
</g>
<!-- Node31&#45;&gt;Node15 -->
<g id="edge63" class="edge"><title>Node31&#45;&gt;Node15</title>
<path fill="none" stroke="midnightblue" d="M714.458,-112.207C720.552,-97.9409 734.618,-69.948 756,-56 763.426,-51.1559 866.242,-32.4751 932.789,-20.7591"/>
<polygon fill="midnightblue" stroke="midnightblue" points="933.489,-24.1898 942.732,-19.0127 932.278,-17.2953 933.489,-24.1898"/>
</g>
<!-- Node31&#45;&gt;Node16 -->
<g id="edge64" class="edge"><title>Node31&#45;&gt;Node16</title>
<path fill="none" stroke="midnightblue" d="M688.183,-112.444C664.168,-103.438 626.171,-89.1891 599.131,-79.049"/>
<polygon fill="midnightblue" stroke="midnightblue" points="600.303,-75.7506 589.71,-75.5164 597.845,-82.3049 600.303,-75.7506"/>
</g>
<!-- Node32&#45;&gt;Node10 -->
<g id="edge67" class="edge"><title>Node32&#45;&gt;Node10</title>
<path fill="none" stroke="midnightblue" d="M938.861,-112.368C932.377,-94.5366 917.38,-53.2953 908.644,-29.2717"/>
<polygon fill="midnightblue" stroke="midnightblue" points="911.831,-27.7932 905.124,-19.5914 905.252,-30.1855 911.831,-27.7932"/>
</g>
<!-- Node32&#45;&gt;Node13 -->
<g id="edge68" class="edge"><title>Node32&#45;&gt;Node13</title>
<path fill="none" stroke="midnightblue" d="M968.303,-112.444C996.351,-103.32 1040.94,-88.8133 1072.18,-78.6509"/>
<polygon fill="midnightblue" stroke="midnightblue" points="1073.39,-81.9383 1081.82,-75.5164 1071.23,-75.2816 1073.39,-81.9383"/>
</g>
<!-- Node32&#45;&gt;Node16 -->
<g id="edge69" class="edge"><title>Node32&#45;&gt;Node16</title>
<path fill="none" stroke="midnightblue" d="M895.87,-113.486C892.532,-112.973 889.215,-112.473 886,-112 769.383,-94.8577 737.25,-94.9245 617.047,-76.0996"/>
<polygon fill="midnightblue" stroke="midnightblue" points="617.507,-72.629 607.084,-74.5279 616.416,-79.5435 617.507,-72.629"/>
</g>
</g>
</svg>
        <g id="navigator" transform="translate(0 0)" fill="#404254">
                <rect fill="#f2f5e9" fill-opacity="0.5" stroke="#606060" stroke-width=".5" x="0" y="0" width="60" height="60"/>
                <use id="zoomplus" xlink:href="#zoomPlus" x="17" y="9" onmousedown="handleZoom(evt,'in')"/>
                <use id="zoomminus" xlink:href="#zoomMin" x="42" y="9" onmousedown="handleZoom(evt,'out')"/>
                <use id="reset" xlink:href="#resetDef" x="30" y="36" onmousedown="handleReset()"/>
                <g id="arrowUp" xlink:href="#dirArrow" transform="translate(30 24)" onmousedown="handlePan(0,-1)">
                  <use xlink:href="#rim" fill="#404040">
                        <set attributeName="fill" to="#808080" begin="arrowUp.mouseover" end="arrowUp.mouseout"/>
                  </use>
                  <path fill="none" stroke="white" stroke-width="1.5" d="M0,-3.0v7 M-2.5,-0.5L0,-3.0L2.5,-0.5"/>
                </g>
                <g id="arrowRight" xlink:href="#dirArrow" transform="rotate(90) translate(36 -43)" onmousedown="handlePan(1,0)">
                  <use xlink:href="#rim" fill="#404040">
                        <set attributeName="fill" to="#808080" begin="arrowRight.mouseover" end="arrowRight.mouseout"/>
                  </use>
                  <path fill="none" stroke="white" stroke-width="1.5" d="M0,-3.0v7 M-2.5,-0.5L0,-3.0L2.5,-0.5"/>
                </g>
                <g id="arrowDown" xlink:href="#dirArrow" transform="rotate(180) translate(-30 -48)" onmousedown="handlePan(0,1)">
                  <use xlink:href="#rim" fill="#404040">
                        <set attributeName="fill" to="#808080" begin="arrowDown.mouseover" end="arrowDown.mouseout"/>
                  </use>
                  <path fill="none" stroke="white" stroke-width="1.5" d="M0,-3.0v7 M-2.5,-0.5L0,-3.0L2.5,-0.5"/>
                </g>
                <g id="arrowLeft" xlink:href="#dirArrow" transform="rotate(270) translate(-36 17)" onmousedown="handlePan(-1,0)">
                  <use xlink:href="#rim" fill="#404040">
                        <set attributeName="fill" to="#808080" begin="arrowLeft.mouseover" end="arrowLeft.mouseout"/>
                  </use>
                  <path fill="none" stroke="white" stroke-width="1.5" d="M0,-3.0v7 M-2.5,-0.5L0,-3.0L2.5,-0.5"/>
                </g>
        </g>
        <svg viewBox="0 0 15 15" width="100%" height="30px" preserveAspectRatio="xMaxYMin meet">
         <g id="arrow_out" transform="scale(0.3 0.3)">
          <a xlink:href="_i_graphics_8h__incl_org.svg" target="_base">
           <rect id="button" ry="5" rx="5" y="6" x="6" height="38" width="38"
                fill="#f2f5e9" fill-opacity="0.5" stroke="#606060" stroke-width="1.0"/>
           <path id="arrow"
             d="M 11.500037,31.436501 C 11.940474,20.09759 22.043105,11.32322 32.158766,21.979434 L 37.068811,17.246167 C 37.068811,17.246167 37.088388,32 37.088388,32 L 22.160133,31.978069 C 22.160133,31.978069 26.997745,27.140456 26.997745,27.140456 C 18.528582,18.264221 13.291696,25.230495 11.500037,31.436501 z"
             style="fill:#404040;"/>
          </a>
         </g>
        </svg>
</svg>
