<?xml version="1.0" encoding="UTF-8" standalone="no"?>
<!DOCTYPE svg PUBLIC "-//W3C//DTD SVG 1.1//EN"
 "http://www.w3.org/Graphics/SVG/1.1/DTD/svg11.dtd">
<!-- Generated by graphviz version 2.36.0 (20140111.2315)
 -->
<!-- Title: IPlugBaseGraphics.h Pages: 1 -->
<!--zoomable 364 -->
<svg id="main" version="1.1" xmlns="http://www.w3.org/2000/svg" xmlns:xlink="http://www.w3.org/1999/xlink" xml:space="preserve" onload="init(evt)">
<style type="text/css"><![CDATA[
.edge:hover path { stroke: red; }
.edge:hover polygon { stroke: red; fill: red; }
]]></style>
<script type="text/javascript"><![CDATA[
var edges = document.getElementsByTagName('g');
if (edges && edges.length) {
  for (var i=0;i<edges.length;i++) {
    if (edges[i].id.substr(0,4)=='edge') {
      edges[i].setAttribute('class','edge');
    }
  }
}
]]></script>
        <defs>
                <circle id="rim" cx="0" cy="0" r="7"/>
                <circle id="rim2" cx="0" cy="0" r="3.5"/>
                <g id="zoomPlus">
                        <use xlink:href="#rim" fill="#404040">
                                <set attributeName="fill" to="#808080" begin="zoomplus.mouseover" end="zoomplus.mouseout"/>
                        </use>
                        <path d="M-4,0h8M0,-4v8" fill="none" stroke="white" stroke-width="1.5" pointer-events="none"/>
                </g>
                <g id="zoomMin">
                        <use xlink:href="#rim" fill="#404040">
                                <set attributeName="fill" to="#808080" begin="zoomminus.mouseover" end="zoomminus.mouseout"/>
                        </use>
                        <path d="M-4,0h8" fill="none" stroke="white" stroke-width="1.5" pointer-events="none"/>
                </g>
                <g id="dirArrow">
                        <path fill="none" stroke="white" stroke-width="1.5" d="M0,-3.0v7 M-2.5,-0.5L0,-3.0L2.5,-0.5"/>
                </g>
               <g id="resetDef">
                       <use xlink:href="#rim2" fill="#404040">
                               <set attributeName="fill" to="#808080" begin="reset.mouseover" end="reset.mouseout"/>
                       </use>
               </g>
        </defs>

<script type="text/javascript">
var viewWidth = 1469;
var viewHeight = 364;
var sectionId = 'dynsection-1';
</script>
<script xlink:href="svgpan.js"/>
<svg id="graph" class="graph">
<g id="viewport">
<title>IPlugBaseGraphics.h</title>
<polygon fill="white" stroke="none" points="-4,4 -4,-360 1465,-360 1465,4 -4,4"/>
<!-- Node1 -->
<g id="node1" class="node"><title>Node1</title>
<polygon fill="#bfbfbf" stroke="black" points="691.5,-336.5 691.5,-355.5 800.5,-355.5 800.5,-336.5 691.5,-336.5"/>
<text text-anchor="middle" x="746" y="-343.5" font-family="Helvetica,sans-Serif" font-size="10.00">IPlugBaseGraphics.h</text>
</g>
<!-- Node2 -->
<g id="node2" class="node"><title>Node2</title>
<g id="a_node2"><a xlink:href="_i_control_8h.html" target="_top" xlink:title="The lowest level base class of an IGraphics control. ">
<polygon fill="white" stroke="black" points="233.5,-280.5 233.5,-299.5 292.5,-299.5 292.5,-280.5 233.5,-280.5"/>
<text text-anchor="middle" x="263" y="-287.5" font-family="Helvetica,sans-Serif" font-size="10.00">IControl.h</text>
</a>
</g>
</g>
<!-- Node1&#45;&gt;Node2 -->
<g id="edge1" class="edge"><title>Node1&#45;&gt;Node2</title>
<path fill="none" stroke="midnightblue" d="M680.807,-337.711C574.728,-325.852 368.931,-302.843 292.508,-294.299"/>
<polygon fill="midnightblue" stroke="midnightblue" points="680.737,-341.225 691.064,-338.858 681.515,-334.269 680.737,-341.225"/>
</g>
<!-- Node20 -->
<g id="node20" class="node"><title>Node20</title>
<g id="a_node20"><a xlink:href="_i_plug_base_graphics_8cpp_source.html" target="_top" xlink:title="IPlugBaseGraphics.cpp">
<polygon fill="white" stroke="black" points="686.5,-168.5 686.5,-187.5 805.5,-187.5 805.5,-168.5 686.5,-168.5"/>
<text text-anchor="middle" x="746" y="-175.5" font-family="Helvetica,sans-Serif" font-size="10.00">IPlugBaseGraphics.cpp</text>
</a>
</g>
</g>
<!-- Node1&#45;&gt;Node20 -->
<g id="edge43" class="edge"><title>Node1&#45;&gt;Node20</title>
<path fill="none" stroke="midnightblue" d="M746,-325.93C746,-289.92 746,-213.231 746,-187.568"/>
<polygon fill="midnightblue" stroke="midnightblue" points="742.5,-326.075 746,-336.075 749.5,-326.075 742.5,-326.075"/>
</g>
<!-- Node24 -->
<g id="node24" class="node"><title>Node24</title>
<g id="a_node24"><a xlink:href="_i_plug_base__select_8h_source.html" target="_top" xlink:title="IPlugBase_select.h">
<polygon fill="white" stroke="black" points="1047.5,-280.5 1047.5,-299.5 1148.5,-299.5 1148.5,-280.5 1047.5,-280.5"/>
<text text-anchor="middle" x="1098" y="-287.5" font-family="Helvetica,sans-Serif" font-size="10.00">IPlugBase_select.h</text>
</a>
</g>
</g>
<!-- Node1&#45;&gt;Node24 -->
<g id="edge29" class="edge"><title>Node1&#45;&gt;Node24</title>
<path fill="none" stroke="midnightblue" d="M810.806,-335.058C878.996,-324.597 984.902,-308.35 1047.26,-298.784"/>
<polygon fill="midnightblue" stroke="midnightblue" points="809.967,-331.646 800.614,-336.622 811.029,-338.565 809.967,-331.646"/>
</g>
<!-- Node3 -->
<g id="node3" class="node"><title>Node3</title>
<g id="a_node3"><a xlink:href="_i_control_8cpp_source.html" target="_top" xlink:title="IControl.cpp">
<polygon fill="white" stroke="black" points="40,-224.5 40,-243.5 110,-243.5 110,-224.5 40,-224.5"/>
<text text-anchor="middle" x="75" y="-231.5" font-family="Helvetica,sans-Serif" font-size="10.00">IControl.cpp</text>
</a>
</g>
</g>
<!-- Node2&#45;&gt;Node3 -->
<g id="edge2" class="edge"><title>Node2&#45;&gt;Node3</title>
<path fill="none" stroke="midnightblue" d="M223.199,-277.568C187.734,-267.381 136.634,-252.703 104.65,-243.516"/>
<polygon fill="midnightblue" stroke="midnightblue" points="222.633,-281.047 233.211,-280.444 224.566,-274.319 222.633,-281.047"/>
</g>
<!-- Node4 -->
<g id="node4" class="node"><title>Node4</title>
<g id="a_node4"><a xlink:href="_i_graphics_8h.html" target="_top" xlink:title="The lowest level base class of an IGraphics context. ">
<polygon fill="white" stroke="black" points="355.5,-224.5 355.5,-243.5 422.5,-243.5 422.5,-224.5 355.5,-224.5"/>
<text text-anchor="middle" x="389" y="-231.5" font-family="Helvetica,sans-Serif" font-size="10.00">IGraphics.h</text>
</a>
</g>
</g>
<!-- Node2&#45;&gt;Node4 -->
<g id="edge3" class="edge"><title>Node2&#45;&gt;Node4</title>
<path fill="none" stroke="midnightblue" d="M286.956,-276.232C309.092,-266.131 341.595,-252.309 364.048,-243.516"/>
<polygon fill="midnightblue" stroke="midnightblue" points="285.475,-273.061 277.876,-280.444 288.421,-279.411 285.475,-273.061"/>
</g>
<!-- Node12 -->
<g id="node12" class="node"><title>Node12</title>
<g id="a_node12"><a xlink:href="_i_graphics_mac_8mm_source.html" target="_top" xlink:title="IGraphicsMac.mm">
<polygon fill="white" stroke="black" points="122.5,-0.5 122.5,-19.5 219.5,-19.5 219.5,-0.5 122.5,-0.5"/>
<text text-anchor="middle" x="171" y="-7.5" font-family="Helvetica,sans-Serif" font-size="10.00">IGraphicsMac.mm</text>
</a>
</g>
</g>
<!-- Node2&#45;&gt;Node12 -->
<g id="edge28" class="edge"><title>Node2&#45;&gt;Node12</title>
<path fill="none" stroke="midnightblue" d="M223.156,-285.593C164.974,-279.912 60.4751,-266.814 31,-244 5.68956,-224.41 0,-211.006 0,-179 0,-179 0,-179 0,-121 0,-88.8 7.64819,-77.0672 32,-56 57.2253,-34.177 93.212,-22.9001 122.248,-17.093"/>
<polygon fill="midnightblue" stroke="midnightblue" points="223.167,-289.11 233.453,-286.568 223.827,-282.141 223.167,-289.11"/>
</g>
<!-- Node21 -->
<g id="node21" class="node"><title>Node21</title>
<g id="a_node21"><a xlink:href="_i_controls_8h.html" target="_top" xlink:title="A collection of IControls for common UI widgets, such as knobs, sliders, switches. ">
<polygon fill="white" stroke="black" points="128.5,-224.5 128.5,-243.5 193.5,-243.5 193.5,-224.5 128.5,-224.5"/>
<text text-anchor="middle" x="161" y="-231.5" font-family="Helvetica,sans-Serif" font-size="10.00">IControls.h</text>
</a>
</g>
</g>
<!-- Node2&#45;&gt;Node21 -->
<g id="edge24" class="edge"><title>Node2&#45;&gt;Node21</title>
<path fill="none" stroke="midnightblue" d="M237.669,-275.59C218.81,-265.605 193.616,-252.267 177.347,-243.655"/>
<polygon fill="midnightblue" stroke="midnightblue" points="236.136,-278.738 246.612,-280.324 239.412,-272.552 236.136,-278.738"/>
</g>
<!-- Node23 -->
<g id="node23" class="node"><title>Node23</title>
<g id="a_node23"><a xlink:href="_i_graphics_live_edit_8h_source.html" target="_top" xlink:title="IGraphicsLiveEdit.h">
<polygon fill="white" stroke="black" points="212,-224.5 212,-243.5 314,-243.5 314,-224.5 212,-224.5"/>
<text text-anchor="middle" x="263" y="-231.5" font-family="Helvetica,sans-Serif" font-size="10.00">IGraphicsLiveEdit.h</text>
</a>
</g>
</g>
<!-- Node2&#45;&gt;Node23 -->
<g id="edge26" class="edge"><title>Node2&#45;&gt;Node23</title>
<path fill="none" stroke="midnightblue" d="M263,-269.805C263,-260.91 263,-250.78 263,-243.751"/>
<polygon fill="midnightblue" stroke="midnightblue" points="259.5,-270.083 263,-280.083 266.5,-270.083 259.5,-270.083"/>
</g>
<!-- Node4&#45;&gt;Node2 -->
<g id="edge4" class="edge"><title>Node4&#45;&gt;Node2</title>
<path fill="none" stroke="midnightblue" d="M364.847,-247.858C342.749,-257.935 310.437,-271.675 288.054,-280.444"/>
<polygon fill="midnightblue" stroke="midnightblue" points="366.609,-250.899 374.208,-243.516 363.664,-244.548 366.609,-250.899"/>
</g>
<!-- Node5 -->
<g id="node5" class="node"><title>Node5</title>
<g id="a_node5"><a xlink:href="_i_graphics_8cpp_source.html" target="_top" xlink:title="IGraphics.cpp">
<polygon fill="white" stroke="black" points="149.5,-168.5 149.5,-187.5 226.5,-187.5 226.5,-168.5 149.5,-168.5"/>
<text text-anchor="middle" x="188" y="-175.5" font-family="Helvetica,sans-Serif" font-size="10.00">IGraphics.cpp</text>
</a>
</g>
</g>
<!-- Node4&#45;&gt;Node5 -->
<g id="edge5" class="edge"><title>Node4&#45;&gt;Node5</title>
<path fill="none" stroke="midnightblue" d="M347.419,-221.829C309.469,-211.633 254.19,-196.782 219.7,-187.516"/>
<polygon fill="midnightblue" stroke="midnightblue" points="346.585,-225.229 357.151,-224.444 348.402,-218.469 346.585,-225.229"/>
</g>
<!-- Node6 -->
<g id="node6" class="node"><title>Node6</title>
<g id="a_node6"><a xlink:href="_i_graphics_a_g_g_8h_source.html" target="_top" xlink:title="IGraphicsAGG.h">
<polygon fill="white" stroke="black" points="470.5,-168.5 470.5,-187.5 559.5,-187.5 559.5,-168.5 470.5,-168.5"/>
<text text-anchor="middle" x="515" y="-175.5" font-family="Helvetica,sans-Serif" font-size="10.00">IGraphicsAGG.h</text>
</a>
</g>
</g>
<!-- Node4&#45;&gt;Node6 -->
<g id="edge6" class="edge"><title>Node4&#45;&gt;Node6</title>
<path fill="none" stroke="midnightblue" d="M418.16,-220.503C441.781,-210.38 474.428,-196.388 495.128,-187.516"/>
<polygon fill="midnightblue" stroke="midnightblue" points="416.778,-217.287 408.965,-224.444 419.535,-223.721 416.778,-217.287"/>
</g>
<!-- Node8 -->
<g id="node8" class="node"><title>Node8</title>
<g id="a_node8"><a xlink:href="_i_graphics_cairo_8h_source.html" target="_top" xlink:title="IGraphicsCairo.h">
<polygon fill="white" stroke="black" points="578,-168.5 578,-187.5 668,-187.5 668,-168.5 578,-168.5"/>
<text text-anchor="middle" x="623" y="-175.5" font-family="Helvetica,sans-Serif" font-size="10.00">IGraphicsCairo.h</text>
</a>
</g>
</g>
<!-- Node4&#45;&gt;Node8 -->
<g id="edge8" class="edge"><title>Node4&#45;&gt;Node8</title>
<path fill="none" stroke="midnightblue" d="M432.4,-222.985C476.589,-212.787 544.361,-197.147 586.061,-187.524"/>
<polygon fill="midnightblue" stroke="midnightblue" points="431.483,-219.604 422.526,-225.263 433.057,-226.425 431.483,-219.604"/>
</g>
<!-- Node10 -->
<g id="node10" class="node"><title>Node10</title>
<g id="a_node10"><a xlink:href="_i_graphics_lice_8h_source.html" target="_top" xlink:title="IGraphicsLice.h">
<polygon fill="white" stroke="black" points="244.5,-168.5 244.5,-187.5 329.5,-187.5 329.5,-168.5 244.5,-168.5"/>
<text text-anchor="middle" x="287" y="-175.5" font-family="Helvetica,sans-Serif" font-size="10.00">IGraphicsLice.h</text>
</a>
</g>
</g>
<!-- Node4&#45;&gt;Node10 -->
<g id="edge10" class="edge"><title>Node4&#45;&gt;Node10</title>
<path fill="none" stroke="midnightblue" d="M363.669,-219.59C344.81,-209.605 319.616,-196.267 303.347,-187.655"/>
<polygon fill="midnightblue" stroke="midnightblue" points="362.136,-222.738 372.612,-224.324 365.412,-216.552 362.136,-222.738"/>
</g>
<!-- Node18 -->
<g id="node18" class="node"><title>Node18</title>
<g id="a_node18"><a xlink:href="_i_graphics_nano_v_g_8h_source.html" target="_top" xlink:title="IGraphicsNanoVG.h">
<polygon fill="white" stroke="black" points="348,-168.5 348,-187.5 452,-187.5 452,-168.5 348,-168.5"/>
<text text-anchor="middle" x="400" y="-175.5" font-family="Helvetica,sans-Serif" font-size="10.00">IGraphicsNanoVG.h</text>
</a>
</g>
</g>
<!-- Node4&#45;&gt;Node18 -->
<g id="edge21" class="edge"><title>Node4&#45;&gt;Node18</title>
<path fill="none" stroke="midnightblue" d="M392.85,-214.101C394.676,-205.136 396.77,-194.858 398.217,-187.751"/>
<polygon fill="midnightblue" stroke="midnightblue" points="389.383,-213.586 390.816,-224.083 396.242,-214.983 389.383,-213.586"/>
</g>
<!-- Node4&#45;&gt;Node20 -->
<g id="edge23" class="edge"><title>Node4&#45;&gt;Node20</title>
<path fill="none" stroke="midnightblue" d="M432.839,-226.369C497.469,-216.593 618.338,-198.31 689.529,-187.542"/>
<polygon fill="midnightblue" stroke="midnightblue" points="431.95,-222.964 422.586,-227.92 432.997,-229.885 431.95,-222.964"/>
</g>
<!-- Node7 -->
<g id="node7" class="node"><title>Node7</title>
<g id="a_node7"><a xlink:href="_i_graphics_a_g_g_8cpp_source.html" target="_top" xlink:title="IGraphicsAGG.cpp">
<polygon fill="white" stroke="black" points="481.5,-112.5 481.5,-131.5 580.5,-131.5 580.5,-112.5 481.5,-112.5"/>
<text text-anchor="middle" x="531" y="-119.5" font-family="Helvetica,sans-Serif" font-size="10.00">IGraphicsAGG.cpp</text>
</a>
</g>
</g>
<!-- Node6&#45;&gt;Node7 -->
<g id="edge7" class="edge"><title>Node6&#45;&gt;Node7</title>
<path fill="none" stroke="midnightblue" d="M520.512,-158.396C523.189,-149.362 526.278,-138.936 528.407,-131.751"/>
<polygon fill="midnightblue" stroke="midnightblue" points="517.127,-157.501 517.642,-168.083 523.839,-159.489 517.127,-157.501"/>
</g>
<!-- Node9 -->
<g id="node9" class="node"><title>Node9</title>
<g id="a_node9"><a xlink:href="_i_graphics_cairo_8cpp_source.html" target="_top" xlink:title="IGraphicsCairo.cpp">
<polygon fill="white" stroke="black" points="598.5,-112.5 598.5,-131.5 699.5,-131.5 699.5,-112.5 598.5,-112.5"/>
<text text-anchor="middle" x="649" y="-119.5" font-family="Helvetica,sans-Serif" font-size="10.00">IGraphicsCairo.cpp</text>
</a>
</g>
</g>
<!-- Node8&#45;&gt;Node9 -->
<g id="edge9" class="edge"><title>Node8&#45;&gt;Node9</title>
<path fill="none" stroke="midnightblue" d="M631.675,-158.983C636.088,-149.817 641.252,-139.092 644.787,-131.751"/>
<polygon fill="midnightblue" stroke="midnightblue" points="628.478,-157.555 627.293,-168.083 634.785,-160.591 628.478,-157.555"/>
</g>
<!-- Node11 -->
<g id="node11" class="node"><title>Node11</title>
<g id="a_node11"><a xlink:href="_i_graphics_lice_8cpp_source.html" target="_top" xlink:title="IGraphicsLice.cpp">
<polygon fill="white" stroke="black" points="130.5,-112.5 130.5,-131.5 225.5,-131.5 225.5,-112.5 130.5,-112.5"/>
<text text-anchor="middle" x="178" y="-119.5" font-family="Helvetica,sans-Serif" font-size="10.00">IGraphicsLice.cpp</text>
</a>
</g>
</g>
<!-- Node10&#45;&gt;Node11 -->
<g id="edge11" class="edge"><title>Node10&#45;&gt;Node11</title>
<path fill="none" stroke="midnightblue" d="M260.481,-163.862C240.27,-153.849 213.013,-140.346 195.469,-131.655"/>
<polygon fill="midnightblue" stroke="midnightblue" points="258.973,-167.021 269.487,-168.324 262.08,-160.748 258.973,-167.021"/>
</g>
<!-- Node14 -->
<g id="node14" class="node"><title>Node14</title>
<g id="a_node14"><a xlink:href="_i_graphics_mac_8h_source.html" target="_top" xlink:title="IGraphicsMac.h">
<polygon fill="white" stroke="black" points="244,-112.5 244,-131.5 330,-131.5 330,-112.5 244,-112.5"/>
<text text-anchor="middle" x="287" y="-119.5" font-family="Helvetica,sans-Serif" font-size="10.00">IGraphicsMac.h</text>
</a>
</g>
</g>
<!-- Node10&#45;&gt;Node14 -->
<g id="edge14" class="edge"><title>Node10&#45;&gt;Node14</title>
<path fill="none" stroke="midnightblue" d="M287,-157.805C287,-148.91 287,-138.78 287,-131.751"/>
<polygon fill="midnightblue" stroke="midnightblue" points="283.5,-158.083 287,-168.083 290.5,-158.083 283.5,-158.083"/>
</g>
<!-- Node17 -->
<g id="node17" class="node"><title>Node17</title>
<g id="a_node17"><a xlink:href="_i_graphics_win_8h_source.html" target="_top" xlink:title="IGraphicsWin.h">
<polygon fill="white" stroke="black" points="28,-112.5 28,-131.5 112,-131.5 112,-112.5 28,-112.5"/>
<text text-anchor="middle" x="70" y="-119.5" font-family="Helvetica,sans-Serif" font-size="10.00">IGraphicsWin.h</text>
</a>
</g>
</g>
<!-- Node10&#45;&gt;Node17 -->
<g id="edge19" class="edge"><title>Node10&#45;&gt;Node17</title>
<path fill="none" stroke="midnightblue" d="M242.892,-166.024C201.9,-155.823 141.696,-140.841 104.223,-131.516"/>
<polygon fill="midnightblue" stroke="midnightblue" points="242.066,-169.425 252.616,-168.444 243.757,-162.632 242.066,-169.425"/>
</g>
<!-- Node11&#45;&gt;Node12 -->
<g id="edge12" class="edge"><title>Node11&#45;&gt;Node12</title>
<path fill="none" stroke="midnightblue" d="M176.813,-102.348C175.28,-78.2538 172.674,-37.3079 171.547,-19.5914"/>
<polygon fill="midnightblue" stroke="midnightblue" points="173.323,-102.611 177.451,-112.368 180.308,-102.166 173.323,-102.611"/>
</g>
<!-- Node13 -->
<g id="node13" class="node"><title>Node13</title>
<g id="a_node13"><a xlink:href="_i_graphics_win_8cpp_source.html" target="_top" xlink:title="IGraphicsWin.cpp">
<polygon fill="white" stroke="black" points="41.5,-56.5 41.5,-75.5 136.5,-75.5 136.5,-56.5 41.5,-56.5"/>
<text text-anchor="middle" x="89" y="-63.5" font-family="Helvetica,sans-Serif" font-size="10.00">IGraphicsWin.cpp</text>
</a>
</g>
</g>
<!-- Node11&#45;&gt;Node13 -->
<g id="edge13" class="edge"><title>Node11&#45;&gt;Node13</title>
<path fill="none" stroke="midnightblue" d="M154.762,-106.901C138.442,-96.9986 117.135,-84.0705 103.264,-75.6545"/>
<polygon fill="midnightblue" stroke="midnightblue" points="153.336,-110.129 163.701,-112.324 156.967,-104.144 153.336,-110.129"/>
</g>
<!-- Node14&#45;&gt;Node12 -->
<g id="edge15" class="edge"><title>Node14&#45;&gt;Node12</title>
<path fill="none" stroke="midnightblue" d="M265.96,-106.525C254.319,-98.1367 239.854,-87.0706 228,-76 208.255,-57.5603 188.097,-32.9164 177.868,-19.9093"/>
<polygon fill="midnightblue" stroke="midnightblue" points="264.037,-109.452 274.221,-112.373 268.082,-103.738 264.037,-109.452"/>
</g>
<!-- Node15 -->
<g id="node15" class="node"><title>Node15</title>
<g id="a_node15"><a xlink:href="_i_graphics_mac__view_8h_source.html" target="_top" xlink:title="IGraphicsMac_view.h">
<polygon fill="white" stroke="black" points="237.5,-56.5 237.5,-75.5 348.5,-75.5 348.5,-56.5 237.5,-56.5"/>
<text text-anchor="middle" x="293" y="-63.5" font-family="Helvetica,sans-Serif" font-size="10.00">IGraphicsMac_view.h</text>
</a>
</g>
</g>
<!-- Node14&#45;&gt;Node15 -->
<g id="edge16" class="edge"><title>Node14&#45;&gt;Node15</title>
<path fill="none" stroke="midnightblue" d="M289.1,-102.101C290.096,-93.1357 291.238,-82.8579 292.028,-75.7511"/>
<polygon fill="midnightblue" stroke="midnightblue" points="285.617,-101.758 287.991,-112.083 292.574,-102.531 285.617,-101.758"/>
</g>
<!-- Node15&#45;&gt;Node12 -->
<g id="edge17" class="edge"><title>Node15&#45;&gt;Node12</title>
<path fill="none" stroke="midnightblue" d="M264.461,-52.3678C241.614,-42.2553 210.195,-28.3486 190.241,-19.5164"/>
<polygon fill="midnightblue" stroke="midnightblue" points="263.108,-55.5965 273.669,-56.4435 265.941,-49.1955 263.108,-55.5965"/>
</g>
<!-- Node16 -->
<g id="node16" class="node"><title>Node16</title>
<g id="a_node16"><a xlink:href="_i_graphics_mac__view_8mm_source.html" target="_top" xlink:title="IGraphicsMac_view.mm">
<polygon fill="white" stroke="black" points="238,-0.5 238,-19.5 360,-19.5 360,-0.5 238,-0.5"/>
<text text-anchor="middle" x="299" y="-7.5" font-family="Helvetica,sans-Serif" font-size="10.00">IGraphicsMac_view.mm</text>
</a>
</g>
</g>
<!-- Node15&#45;&gt;Node16 -->
<g id="edge18" class="edge"><title>Node15&#45;&gt;Node16</title>
<path fill="none" stroke="midnightblue" d="M295.1,-46.1005C296.096,-37.1357 297.238,-26.8579 298.028,-19.7511"/>
<polygon fill="midnightblue" stroke="midnightblue" points="291.617,-45.7576 293.991,-56.083 298.574,-46.5307 291.617,-45.7576"/>
</g>
<!-- Node17&#45;&gt;Node13 -->
<g id="edge20" class="edge"><title>Node17&#45;&gt;Node13</title>
<path fill="none" stroke="midnightblue" d="M76.546,-102.396C79.7245,-93.362 83.3929,-82.936 85.9209,-75.7511"/>
<polygon fill="midnightblue" stroke="midnightblue" points="73.155,-101.488 73.1375,-112.083 79.7582,-103.812 73.155,-101.488"/>
</g>
<!-- Node19 -->
<g id="node19" class="node"><title>Node19</title>
<g id="a_node19"><a xlink:href="_i_graphics_nano_v_g_8cpp_source.html" target="_top" xlink:title="IGraphicsNanoVG.cpp">
<polygon fill="white" stroke="black" points="348.5,-112.5 348.5,-131.5 463.5,-131.5 463.5,-112.5 348.5,-112.5"/>
<text text-anchor="middle" x="406" y="-119.5" font-family="Helvetica,sans-Serif" font-size="10.00">IGraphicsNanoVG.cpp</text>
</a>
</g>
</g>
<!-- Node18&#45;&gt;Node19 -->
<g id="edge22" class="edge"><title>Node18&#45;&gt;Node19</title>
<path fill="none" stroke="midnightblue" d="M402.1,-158.101C403.096,-149.136 404.238,-138.858 405.028,-131.751"/>
<polygon fill="midnightblue" stroke="midnightblue" points="398.617,-157.758 400.991,-168.083 405.574,-158.531 398.617,-157.758"/>
</g>
<!-- Node22 -->
<g id="node22" class="node"><title>Node22</title>
<g id="a_node22"><a xlink:href="_i_controls_8cpp_source.html" target="_top" xlink:title="IControls.cpp">
<polygon fill="white" stroke="black" points="56.5,-168.5 56.5,-187.5 131.5,-187.5 131.5,-168.5 56.5,-168.5"/>
<text text-anchor="middle" x="94" y="-175.5" font-family="Helvetica,sans-Serif" font-size="10.00">IControls.cpp</text>
</a>
</g>
</g>
<!-- Node21&#45;&gt;Node22 -->
<g id="edge25" class="edge"><title>Node21&#45;&gt;Node22</title>
<path fill="none" stroke="midnightblue" d="M142.165,-217.82C130.162,-208.145 115.028,-195.948 104.961,-187.834"/>
<polygon fill="midnightblue" stroke="midnightblue" points="140.253,-220.774 150.235,-224.324 144.646,-215.324 140.253,-220.774"/>
</g>
<!-- Node23&#45;&gt;Node5 -->
<g id="edge27" class="edge"><title>Node23&#45;&gt;Node5</title>
<path fill="none" stroke="midnightblue" d="M242.695,-218.38C229.139,-208.62 211.758,-196.106 200.269,-187.834"/>
<polygon fill="midnightblue" stroke="midnightblue" points="240.79,-221.321 250.95,-224.324 244.88,-215.641 240.79,-221.321"/>
</g>
<!-- Node25 -->
<g id="node25" class="node"><title>Node25</title>
<g id="a_node25"><a xlink:href="_i_plug_a_a_x_8h.html" target="_top" xlink:title="AAX API base class for an IPlug plug&#45;in, inherits from IPlugBase or IPlugBaseGraphics. ">
<polygon fill="white" stroke="black" points="932,-224.5 932,-243.5 1000,-243.5 1000,-224.5 932,-224.5"/>
<text text-anchor="middle" x="966" y="-231.5" font-family="Helvetica,sans-Serif" font-size="10.00">IPlugAAX.h</text>
</a>
</g>
</g>
<!-- Node24&#45;&gt;Node25 -->
<g id="edge30" class="edge"><title>Node24&#45;&gt;Node25</title>
<path fill="none" stroke="midnightblue" d="M1067.78,-276.638C1043.01,-266.504 1008.6,-252.427 986.818,-243.516"/>
<polygon fill="midnightblue" stroke="midnightblue" points="1066.5,-279.897 1077.08,-280.444 1069.15,-273.418 1066.5,-279.897"/>
</g>
<!-- Node27 -->
<g id="node27" class="node"><title>Node27</title>
<g id="a_node27"><a xlink:href="_i_plug_a_p_p_8h.html" target="_top" xlink:title="Standalone application base class for an IPlug plug&#45;in, inherits from IPlugBase or IPlugBaseGraphics...">
<polygon fill="white" stroke="black" points="1023,-224.5 1023,-243.5 1091,-243.5 1091,-224.5 1023,-224.5"/>
<text text-anchor="middle" x="1057" y="-231.5" font-family="Helvetica,sans-Serif" font-size="10.00">IPlugAPP.h</text>
</a>
</g>
</g>
<!-- Node24&#45;&gt;Node27 -->
<g id="edge32" class="edge"><title>Node24&#45;&gt;Node27</title>
<path fill="none" stroke="midnightblue" d="M1084.98,-271.855C1077.88,-262.505 1069.4,-251.327 1063.64,-243.751"/>
<polygon fill="midnightblue" stroke="midnightblue" points="1082.39,-274.235 1091.23,-280.083 1087.97,-270.002 1082.39,-274.235"/>
</g>
<!-- Node29 -->
<g id="node29" class="node"><title>Node29</title>
<g id="a_node29"><a xlink:href="_i_plug_a_u_8h.html" target="_top" xlink:title="AudioUnit v2 API base class for an IPlug plug&#45;in, inherits from IPlugBase or IPlugBaseGraphics. ">
<polygon fill="white" stroke="black" points="1109,-224.5 1109,-243.5 1171,-243.5 1171,-224.5 1109,-224.5"/>
<text text-anchor="middle" x="1140" y="-231.5" font-family="Helvetica,sans-Serif" font-size="10.00">IPlugAU.h</text>
</a>
</g>
</g>
<!-- Node24&#45;&gt;Node29 -->
<g id="edge34" class="edge"><title>Node24&#45;&gt;Node29</title>
<path fill="none" stroke="midnightblue" d="M1111.11,-272.144C1118.43,-262.736 1127.24,-251.405 1133.19,-243.751"/>
<polygon fill="midnightblue" stroke="midnightblue" points="1108.31,-270.041 1104.94,-280.083 1113.84,-274.338 1108.31,-270.041"/>
</g>
<!-- Node31 -->
<g id="node31" class="node"><title>Node31</title>
<g id="a_node31"><a xlink:href="_i_plug_a_uv3_8h_source.html" target="_top" xlink:title="IPlugAUv3.h">
<polygon fill="white" stroke="black" points="1189,-224.5 1189,-243.5 1261,-243.5 1261,-224.5 1189,-224.5"/>
<text text-anchor="middle" x="1225" y="-231.5" font-family="Helvetica,sans-Serif" font-size="10.00">IPlugAUv3.h</text>
</a>
</g>
</g>
<!-- Node24&#45;&gt;Node31 -->
<g id="edge36" class="edge"><title>Node24&#45;&gt;Node31</title>
<path fill="none" stroke="midnightblue" d="M1127.39,-276.503C1151.2,-266.38 1184.11,-252.388 1204.97,-243.516"/>
<polygon fill="midnightblue" stroke="midnightblue" points="1125.96,-273.31 1118.12,-280.444 1128.7,-279.751 1125.96,-273.31"/>
</g>
<!-- Node33 -->
<g id="node33" class="node"><title>Node33</title>
<g id="a_node33"><a xlink:href="_i_plug_presets_8cpp_source.html" target="_top" xlink:title="IPlugPresets.cpp">
<polygon fill="white" stroke="black" points="1279,-224.5 1279,-243.5 1371,-243.5 1371,-224.5 1279,-224.5"/>
<text text-anchor="middle" x="1325" y="-231.5" font-family="Helvetica,sans-Serif" font-size="10.00">IPlugPresets.cpp</text>
</a>
</g>
</g>
<!-- Node24&#45;&gt;Node33 -->
<g id="edge38" class="edge"><title>Node24&#45;&gt;Node33</title>
<path fill="none" stroke="midnightblue" d="M1143.87,-278.088C1186.75,-267.887 1249.92,-252.861 1289.2,-243.516"/>
<polygon fill="midnightblue" stroke="midnightblue" points="1142.89,-274.724 1133.97,-280.444 1144.51,-281.534 1142.89,-274.724"/>
</g>
<!-- Node34 -->
<g id="node34" class="node"><title>Node34</title>
<g id="a_node34"><a xlink:href="_i_plug_v_s_t_8h.html" target="_top" xlink:title="VST2.4 API base class for an IPlug plug&#45;in, inherits from IPlugBase or IPlugBaseGraphics. ">
<polygon fill="white" stroke="black" points="1389.5,-224.5 1389.5,-243.5 1456.5,-243.5 1456.5,-224.5 1389.5,-224.5"/>
<text text-anchor="middle" x="1423" y="-231.5" font-family="Helvetica,sans-Serif" font-size="10.00">IPlugVST.h</text>
</a>
</g>
</g>
<!-- Node24&#45;&gt;Node34 -->
<g id="edge39" class="edge"><title>Node24&#45;&gt;Node34</title>
<path fill="none" stroke="midnightblue" d="M1158.52,-280.204C1215.72,-271.685 1303.88,-258.031 1380,-244 1383,-243.447 1386.11,-242.847 1389.23,-242.228"/>
<polygon fill="midnightblue" stroke="midnightblue" points="1157.93,-276.751 1148.56,-281.681 1158.96,-283.676 1157.93,-276.751"/>
</g>
<!-- Node36 -->
<g id="node36" class="node"><title>Node36</title>
<g id="a_node36"><a xlink:href="_i_plug_v_s_t3_8h.html" target="_top" xlink:title="VST3 base class for an IPlug plug&#45;in, inherits from IPlugBase or IPlugBaseGraphics. ">
<polygon fill="white" stroke="black" points="837,-224.5 837,-243.5 909,-243.5 909,-224.5 837,-224.5"/>
<text text-anchor="middle" x="873" y="-231.5" font-family="Helvetica,sans-Serif" font-size="10.00">IPlugVST3.h</text>
</a>
</g>
</g>
<!-- Node24&#45;&gt;Node36 -->
<g id="edge41" class="edge"><title>Node24&#45;&gt;Node36</title>
<path fill="none" stroke="midnightblue" d="M1052.53,-278.088C1010.03,-267.887 947.421,-252.861 908.485,-243.516"/>
<polygon fill="midnightblue" stroke="midnightblue" points="1051.81,-281.513 1062.35,-280.444 1053.44,-274.706 1051.81,-281.513"/>
</g>
<!-- Node26 -->
<g id="node26" class="node"><title>Node26</title>
<g id="a_node26"><a xlink:href="_i_plug_a_a_x_8cpp_source.html" target="_top" xlink:title="IPlugAAX.cpp">
<polygon fill="white" stroke="black" points="925,-168.5 925,-187.5 1003,-187.5 1003,-168.5 925,-168.5"/>
<text text-anchor="middle" x="964" y="-175.5" font-family="Helvetica,sans-Serif" font-size="10.00">IPlugAAX.cpp</text>
</a>
</g>
</g>
<!-- Node25&#45;&gt;Node26 -->
<g id="edge31" class="edge"><title>Node25&#45;&gt;Node26</title>
<path fill="none" stroke="midnightblue" d="M965.289,-213.805C964.96,-204.91 964.584,-194.78 964.324,-187.751"/>
<polygon fill="midnightblue" stroke="midnightblue" points="961.802,-214.219 965.67,-224.083 968.797,-213.96 961.802,-214.219"/>
</g>
<!-- Node28 -->
<g id="node28" class="node"><title>Node28</title>
<g id="a_node28"><a xlink:href="_i_plug_a_p_p_8cpp_source.html" target="_top" xlink:title="IPlugAPP.cpp">
<polygon fill="white" stroke="black" points="1021,-168.5 1021,-187.5 1099,-187.5 1099,-168.5 1021,-168.5"/>
<text text-anchor="middle" x="1060" y="-175.5" font-family="Helvetica,sans-Serif" font-size="10.00">IPlugAPP.cpp</text>
</a>
</g>
</g>
<!-- Node27&#45;&gt;Node28 -->
<g id="edge33" class="edge"><title>Node27&#45;&gt;Node28</title>
<path fill="none" stroke="midnightblue" d="M1058.07,-213.805C1058.56,-204.91 1059.12,-194.78 1059.51,-187.751"/>
<polygon fill="midnightblue" stroke="midnightblue" points="1054.56,-213.904 1057.5,-224.083 1061.54,-214.293 1054.56,-213.904"/>
</g>
<!-- Node30 -->
<g id="node30" class="node"><title>Node30</title>
<g id="a_node30"><a xlink:href="_i_plug_a_u_8cpp_source.html" target="_top" xlink:title="IPlugAU.cpp">
<polygon fill="white" stroke="black" points="1117,-168.5 1117,-187.5 1189,-187.5 1189,-168.5 1117,-168.5"/>
<text text-anchor="middle" x="1153" y="-175.5" font-family="Helvetica,sans-Serif" font-size="10.00">IPlugAU.cpp</text>
</a>
</g>
</g>
<!-- Node29&#45;&gt;Node30 -->
<g id="edge35" class="edge"><title>Node29&#45;&gt;Node30</title>
<path fill="none" stroke="midnightblue" d="M1144.55,-214.101C1146.71,-205.136 1149.18,-194.858 1150.89,-187.751"/>
<polygon fill="midnightblue" stroke="midnightblue" points="1141.08,-213.542 1142.15,-224.083 1147.89,-215.18 1141.08,-213.542"/>
</g>
<!-- Node32 -->
<g id="node32" class="node"><title>Node32</title>
<g id="a_node32"><a xlink:href="_i_plug_a_uv3_8mm_source.html" target="_top" xlink:title="IPlugAUv3.mm">
<polygon fill="white" stroke="black" points="1207.5,-168.5 1207.5,-187.5 1290.5,-187.5 1290.5,-168.5 1207.5,-168.5"/>
<text text-anchor="middle" x="1249" y="-175.5" font-family="Helvetica,sans-Serif" font-size="10.00">IPlugAUv3.mm</text>
</a>
</g>
</g>
<!-- Node31&#45;&gt;Node32 -->
<g id="edge37" class="edge"><title>Node31&#45;&gt;Node32</title>
<path fill="none" stroke="midnightblue" d="M1233.14,-214.69C1237.18,-205.589 1241.88,-195.014 1245.11,-187.751"/>
<polygon fill="midnightblue" stroke="midnightblue" points="1229.83,-213.523 1228.96,-224.083 1236.22,-216.366 1229.83,-213.523"/>
</g>
<!-- Node35 -->
<g id="node35" class="node"><title>Node35</title>
<g id="a_node35"><a xlink:href="_i_plug_v_s_t_8cpp_source.html" target="_top" xlink:title="IPlugVST.cpp">
<polygon fill="white" stroke="black" points="1384.5,-168.5 1384.5,-187.5 1461.5,-187.5 1461.5,-168.5 1384.5,-168.5"/>
<text text-anchor="middle" x="1423" y="-175.5" font-family="Helvetica,sans-Serif" font-size="10.00">IPlugVST.cpp</text>
</a>
</g>
</g>
<!-- Node34&#45;&gt;Node35 -->
<g id="edge40" class="edge"><title>Node34&#45;&gt;Node35</title>
<path fill="none" stroke="midnightblue" d="M1423,-213.805C1423,-204.91 1423,-194.78 1423,-187.751"/>
<polygon fill="midnightblue" stroke="midnightblue" points="1419.5,-214.083 1423,-224.083 1426.5,-214.083 1419.5,-214.083"/>
</g>
<!-- Node37 -->
<g id="node37" class="node"><title>Node37</title>
<g id="a_node37"><a xlink:href="_i_plug_v_s_t3_8cpp_source.html" target="_top" xlink:title="IPlugVST3.cpp">
<polygon fill="white" stroke="black" points="823.5,-168.5 823.5,-187.5 906.5,-187.5 906.5,-168.5 823.5,-168.5"/>
<text text-anchor="middle" x="865" y="-175.5" font-family="Helvetica,sans-Serif" font-size="10.00">IPlugVST3.cpp</text>
</a>
</g>
</g>
<!-- Node36&#45;&gt;Node37 -->
<g id="edge42" class="edge"><title>Node36&#45;&gt;Node37</title>
<path fill="none" stroke="midnightblue" d="M870.2,-214.101C868.872,-205.136 867.349,-194.858 866.296,-187.751"/>
<polygon fill="midnightblue" stroke="midnightblue" points="866.751,-214.704 871.679,-224.083 873.676,-213.678 866.751,-214.704"/>
</g>
</g>
</svg>
        <g id="navigator" transform="translate(0 0)" fill="#404254">
                <rect fill="#f2f5e9" fill-opacity="0.5" stroke="#606060" stroke-width=".5" x="0" y="0" width="60" height="60"/>
                <use id="zoomplus" xlink:href="#zoomPlus" x="17" y="9" onmousedown="handleZoom(evt,'in')"/>
                <use id="zoomminus" xlink:href="#zoomMin" x="42" y="9" onmousedown="handleZoom(evt,'out')"/>
                <use id="reset" xlink:href="#resetDef" x="30" y="36" onmousedown="handleReset()"/>
                <g id="arrowUp" xlink:href="#dirArrow" transform="translate(30 24)" onmousedown="handlePan(0,-1)">
                  <use xlink:href="#rim" fill="#404040">
                        <set attributeName="fill" to="#808080" begin="arrowUp.mouseover" end="arrowUp.mouseout"/>
                  </use>
                  <path fill="none" stroke="white" stroke-width="1.5" d="M0,-3.0v7 M-2.5,-0.5L0,-3.0L2.5,-0.5"/>
                </g>
                <g id="arrowRight" xlink:href="#dirArrow" transform="rotate(90) translate(36 -43)" onmousedown="handlePan(1,0)">
                  <use xlink:href="#rim" fill="#404040">
                        <set attributeName="fill" to="#808080" begin="arrowRight.mouseover" end="arrowRight.mouseout"/>
                  </use>
                  <path fill="none" stroke="white" stroke-width="1.5" d="M0,-3.0v7 M-2.5,-0.5L0,-3.0L2.5,-0.5"/>
                </g>
                <g id="arrowDown" xlink:href="#dirArrow" transform="rotate(180) translate(-30 -48)" onmousedown="handlePan(0,1)">
                  <use xlink:href="#rim" fill="#404040">
                        <set attributeName="fill" to="#808080" begin="arrowDown.mouseover" end="arrowDown.mouseout"/>
                  </use>
                  <path fill="none" stroke="white" stroke-width="1.5" d="M0,-3.0v7 M-2.5,-0.5L0,-3.0L2.5,-0.5"/>
                </g>
                <g id="arrowLeft" xlink:href="#dirArrow" transform="rotate(270) translate(-36 17)" onmousedown="handlePan(-1,0)">
                  <use xlink:href="#rim" fill="#404040">
                        <set attributeName="fill" to="#808080" begin="arrowLeft.mouseover" end="arrowLeft.mouseout"/>
                  </use>
                  <path fill="none" stroke="white" stroke-width="1.5" d="M0,-3.0v7 M-2.5,-0.5L0,-3.0L2.5,-0.5"/>
                </g>
        </g>
        <svg viewBox="0 0 15 15" width="100%" height="30px" preserveAspectRatio="xMaxYMin meet">
         <g id="arrow_out" transform="scale(0.3 0.3)">
          <a xlink:href="_i_plug_base_graphics_8h__dep__incl_org.svg" target="_base">
           <rect id="button" ry="5" rx="5" y="6" x="6" height="38" width="38"
                fill="#f2f5e9" fill-opacity="0.5" stroke="#606060" stroke-width="1.0"/>
           <path id="arrow"
             d="M 11.500037,31.436501 C 11.940474,20.09759 22.043105,11.32322 32.158766,21.979434 L 37.068811,17.246167 C 37.068811,17.246167 37.088388,32 37.088388,32 L 22.160133,31.978069 C 22.160133,31.978069 26.997745,27.140456 26.997745,27.140456 C 18.528582,18.264221 13.291696,25.230495 11.500037,31.436501 z"
             style="fill:#404040;"/>
          </a>
         </g>
        </svg>
</svg>
