<?xml version="1.0" encoding="UTF-8" standalone="no"?>
<!DOCTYPE svg PUBLIC "-//W3C//DTD SVG 1.1//EN"
 "http://www.w3.org/Graphics/SVG/1.1/DTD/svg11.dtd">
<!-- Generated by graphviz version 2.36.0 (20140111.2315)
 -->
<!-- Title: IPlugLogger.h Pages: 1 -->
<svg width="749pt" height="140pt"
 viewBox="0.00 0.00 749.00 140.00" xmlns="http://www.w3.org/2000/svg" xmlns:xlink="http://www.w3.org/1999/xlink">
<g id="graph0" class="graph" transform="scale(1 1) rotate(0) translate(4 136)">
<title>IPlugLogger.h</title>
<polygon fill="white" stroke="none" points="-4,4 -4,-136 745,-136 745,4 -4,4"/>
<!-- Node1 -->
<g id="node1" class="node"><title>Node1</title>
<polygon fill="#bfbfbf" stroke="black" points="307.5,-112.5 307.5,-131.5 384.5,-131.5 384.5,-112.5 307.5,-112.5"/>
<text text-anchor="middle" x="346" y="-119.5" font-family="Helvetica,sans-Serif" font-size="10.00">IPlugLogger.h</text>
</g>
<!-- Node2 -->
<g id="node2" class="node"><title>Node2</title>
<polygon fill="white" stroke="#bfbfbf" points="-0.5,-0.5 -0.5,-19.5 42.5,-19.5 42.5,-0.5 -0.5,-0.5"/>
<text text-anchor="middle" x="21" y="-7.5" font-family="Helvetica,sans-Serif" font-size="10.00">cstdio</text>
</g>
<!-- Node1&#45;&gt;Node2 -->
<g id="edge1" class="edge"><title>Node1&#45;&gt;Node2</title>
<path fill="none" stroke="midnightblue" d="M307.114,-117.82C261.017,-113.03 182.566,-101.627 120,-76 89.3105,-63.4294 57.9925,-40.8955 39.0212,-25.9437"/>
<polygon fill="midnightblue" stroke="midnightblue" points="41.2063,-23.2096 31.2201,-19.6705 36.8197,-28.6647 41.2063,-23.2096"/>
</g>
<!-- Node3 -->
<g id="node3" class="node"><title>Node3</title>
<polygon fill="white" stroke="#bfbfbf" points="61,-0.5 61,-19.5 107,-19.5 107,-0.5 61,-0.5"/>
<text text-anchor="middle" x="84" y="-7.5" font-family="Helvetica,sans-Serif" font-size="10.00">cctype</text>
</g>
<!-- Node1&#45;&gt;Node3 -->
<g id="edge2" class="edge"><title>Node1&#45;&gt;Node3</title>
<path fill="none" stroke="midnightblue" d="M307.327,-118.373C266.116,-114.195 200.048,-103.453 150,-76 128.076,-63.974 108.437,-42.5786 96.395,-27.6312"/>
<polygon fill="midnightblue" stroke="midnightblue" points="99.1248,-25.44 90.2227,-19.6951 93.5993,-29.7375 99.1248,-25.44"/>
</g>
<!-- Node4 -->
<g id="node4" class="node"><title>Node4</title>
<polygon fill="white" stroke="#bfbfbf" points="348.5,-56.5 348.5,-75.5 397.5,-75.5 397.5,-56.5 348.5,-56.5"/>
<text text-anchor="middle" x="373" y="-63.5" font-family="Helvetica,sans-Serif" font-size="10.00">cstdarg</text>
</g>
<!-- Node1&#45;&gt;Node4 -->
<g id="edge3" class="edge"><title>Node1&#45;&gt;Node4</title>
<path fill="none" stroke="midnightblue" d="M350.459,-112.083C354.154,-104.691 359.523,-93.9533 364.094,-84.8111"/>
<polygon fill="midnightblue" stroke="midnightblue" points="367.283,-86.2606 368.624,-75.7511 361.022,-83.1301 367.283,-86.2606"/>
</g>
<!-- Node5 -->
<g id="node5" class="node"><title>Node5</title>
<polygon fill="white" stroke="#bfbfbf" points="416,-56.5 416,-75.5 462,-75.5 462,-56.5 416,-56.5"/>
<text text-anchor="middle" x="439" y="-63.5" font-family="Helvetica,sans-Serif" font-size="10.00">cstdint</text>
</g>
<!-- Node1&#45;&gt;Node5 -->
<g id="edge4" class="edge"><title>Node1&#45;&gt;Node5</title>
<path fill="none" stroke="midnightblue" d="M360.942,-112.324C375.585,-103.822 398.134,-90.7288 415.238,-80.7975"/>
<polygon fill="midnightblue" stroke="midnightblue" points="417.205,-83.7027 424.095,-75.6545 413.69,-77.6491 417.205,-83.7027"/>
</g>
<!-- Node6 -->
<g id="node6" class="node"><title>Node6</title>
<polygon fill="white" stroke="#bfbfbf" points="125,-0.5 125,-19.5 171,-19.5 171,-0.5 125,-0.5"/>
<text text-anchor="middle" x="148" y="-7.5" font-family="Helvetica,sans-Serif" font-size="10.00">cstring</text>
</g>
<!-- Node1&#45;&gt;Node6 -->
<g id="edge5" class="edge"><title>Node1&#45;&gt;Node6</title>
<path fill="none" stroke="midnightblue" d="M307.134,-116.025C260.142,-109.236 184.867,-95.6279 165,-76 152.822,-63.9686 149.02,-44.3685 147.992,-29.8324"/>
<polygon fill="midnightblue" stroke="midnightblue" points="151.48,-29.3827 147.656,-19.5019 144.483,-29.6104 151.48,-29.3827"/>
</g>
<!-- Node7 -->
<g id="node7" class="node"><title>Node7</title>
<polygon fill="white" stroke="#bfbfbf" points="480.5,-56.5 480.5,-75.5 521.5,-75.5 521.5,-56.5 480.5,-56.5"/>
<text text-anchor="middle" x="501" y="-63.5" font-family="Helvetica,sans-Serif" font-size="10.00">ctime</text>
</g>
<!-- Node1&#45;&gt;Node7 -->
<g id="edge6" class="edge"><title>Node1&#45;&gt;Node7</title>
<path fill="none" stroke="midnightblue" d="M370.56,-112.444C397.592,-103.026 441.082,-87.8746 470.332,-77.6842"/>
<polygon fill="midnightblue" stroke="midnightblue" points="471.742,-80.8993 480.034,-74.3042 469.439,-74.289 471.742,-80.8993"/>
</g>
<!-- Node8 -->
<g id="node8" class="node"><title>Node8</title>
<polygon fill="white" stroke="#bfbfbf" points="539.5,-56.5 539.5,-75.5 588.5,-75.5 588.5,-56.5 539.5,-56.5"/>
<text text-anchor="middle" x="564" y="-63.5" font-family="Helvetica,sans-Serif" font-size="10.00">cassert</text>
</g>
<!-- Node1&#45;&gt;Node8 -->
<g id="edge7" class="edge"><title>Node1&#45;&gt;Node8</title>
<path fill="none" stroke="midnightblue" d="M381.667,-112.488C416.743,-104.071 472.063,-90.6715 529.201,-76.1682"/>
<polygon fill="midnightblue" stroke="midnightblue" points="530.304,-79.4991 539.132,-73.6408 528.577,-72.7153 530.304,-79.4991"/>
</g>
<!-- Node9 -->
<g id="node9" class="node"><title>Node9</title>
<polygon fill="white" stroke="#bfbfbf" points="607,-56.5 607,-75.5 671,-75.5 671,-56.5 607,-56.5"/>
<text text-anchor="middle" x="639" y="-63.5" font-family="Helvetica,sans-Serif" font-size="10.00">wdlstring.h</text>
</g>
<!-- Node1&#45;&gt;Node9 -->
<g id="edge8" class="edge"><title>Node1&#45;&gt;Node9</title>
<path fill="none" stroke="midnightblue" d="M384.775,-114.465C434.154,-106.048 522.068,-90.741 597,-76 597.101,-75.9802 597.201,-75.9604 597.302,-75.9405"/>
<polygon fill="midnightblue" stroke="midnightblue" points="597.814,-79.408 606.919,-73.9907 596.423,-72.5476 597.814,-79.408"/>
</g>
<!-- Node10 -->
<g id="node10" class="node"><title>Node10</title>
<polygon fill="white" stroke="#bfbfbf" points="689,-56.5 689,-75.5 741,-75.5 741,-56.5 689,-56.5"/>
<text text-anchor="middle" x="715" y="-63.5" font-family="Helvetica,sans-Serif" font-size="10.00">mutex.h</text>
</g>
<!-- Node1&#45;&gt;Node10 -->
<g id="edge9" class="edge"><title>Node1&#45;&gt;Node10</title>
<path fill="none" stroke="midnightblue" d="M384.561,-117.296C445.16,-111.152 566.525,-97.5414 678.584,-76.0808"/>
<polygon fill="midnightblue" stroke="midnightblue" points="679.553,-79.4581 688.702,-74.1163 678.219,-72.5864 679.553,-79.4581"/>
</g>
<!-- Node11 -->
<g id="node11" class="node"><title>Node11</title>
<g id="a_node11"><a xlink:href="_i_plug_constants_8h.html" target="_top" xlink:title="Constant definitions, magic numbers. ">
<polygon fill="white" stroke="black" points="315,-0.5 315,-19.5 407,-19.5 407,-0.5 315,-0.5"/>
<text text-anchor="middle" x="361" y="-7.5" font-family="Helvetica,sans-Serif" font-size="10.00">IPlugConstants.h</text>
</a>
</g>
</g>
<!-- Node1&#45;&gt;Node11 -->
<g id="edge10" class="edge"><title>Node1&#45;&gt;Node11</title>
<path fill="none" stroke="midnightblue" d="M334.054,-112.305C318.923,-100.153 295.957,-77.1938 306,-56 312.128,-43.0681 323.994,-32.6167 335.141,-25.0528"/>
<polygon fill="midnightblue" stroke="midnightblue" points="337.195,-27.8958 343.802,-19.6136 333.472,-21.9678 337.195,-27.8958"/>
</g>
<!-- Node12 -->
<g id="node12" class="node"><title>Node12</title>
<g id="a_node12"><a xlink:href="_i_plug_utilities_8h.html" target="_top" xlink:title="Utility functions and macros. ">
<polygon fill="white" stroke="black" points="174,-56.5 174,-75.5 254,-75.5 254,-56.5 174,-56.5"/>
<text text-anchor="middle" x="214" y="-63.5" font-family="Helvetica,sans-Serif" font-size="10.00">IPlugUtilities.h</text>
</a>
</g>
</g>
<!-- Node1&#45;&gt;Node12 -->
<g id="edge11" class="edge"><title>Node1&#45;&gt;Node12</title>
<path fill="none" stroke="midnightblue" d="M325.084,-112.444C303.264,-103.517 268.85,-89.4387 244.108,-79.3168"/>
<polygon fill="midnightblue" stroke="midnightblue" points="245.399,-76.0634 234.818,-75.5164 242.748,-82.5422 245.399,-76.0634"/>
</g>
<!-- Node12&#45;&gt;Node2 -->
<g id="edge13" class="edge"><title>Node12&#45;&gt;Node2</title>
<path fill="none" stroke="midnightblue" d="M182.913,-56.4801C152.255,-48.052 103.807,-34.6664 52.6017,-20.1468"/>
<polygon fill="midnightblue" stroke="midnightblue" points="53.2468,-16.6916 42.671,-17.3263 51.3343,-23.4253 53.2468,-16.6916"/>
</g>
<!-- Node12&#45;&gt;Node3 -->
<g id="edge16" class="edge"><title>Node12&#45;&gt;Node3</title>
<path fill="none" stroke="midnightblue" d="M193.401,-56.4435C172.007,-47.5566 138.319,-33.5632 113.976,-23.4514"/>
<polygon fill="midnightblue" stroke="midnightblue" points="115.08,-20.1203 104.503,-19.5164 112.395,-26.5848 115.08,-20.1203"/>
</g>
<!-- Node12&#45;&gt;Node6 -->
<g id="edge15" class="edge"><title>Node12&#45;&gt;Node6</title>
<path fill="none" stroke="midnightblue" d="M203.396,-56.324C193.544,-48.2631 178.649,-36.0765 166.785,-26.3695"/>
<polygon fill="midnightblue" stroke="midnightblue" points="168.753,-23.4575 158.797,-19.8339 164.32,-28.8752 168.753,-23.4575"/>
</g>
<!-- Node12&#45;&gt;Node11 -->
<g id="edge17" class="edge"><title>Node12&#45;&gt;Node11</title>
<path fill="none" stroke="midnightblue" d="M237.293,-56.4435C261.807,-47.4381 300.596,-33.1891 328.2,-23.049"/>
<polygon fill="midnightblue" stroke="midnightblue" points="329.637,-26.25 337.816,-19.5164 327.223,-19.6793 329.637,-26.25"/>
</g>
<!-- Node13 -->
<g id="node13" class="node"><title>Node13</title>
<polygon fill="white" stroke="#bfbfbf" points="253,-0.5 253,-19.5 297,-19.5 297,-0.5 253,-0.5"/>
<text text-anchor="middle" x="275" y="-7.5" font-family="Helvetica,sans-Serif" font-size="10.00">cmath</text>
</g>
<!-- Node12&#45;&gt;Node13 -->
<g id="edge12" class="edge"><title>Node12&#45;&gt;Node13</title>
<path fill="none" stroke="midnightblue" d="M223.801,-56.324C232.818,-48.3414 246.406,-36.3128 257.318,-26.6529"/>
<polygon fill="midnightblue" stroke="midnightblue" points="259.853,-29.083 265.021,-19.8339 255.213,-23.8416 259.853,-29.083"/>
</g>
<!-- Node14 -->
<g id="node14" class="node"><title>Node14</title>
<polygon fill="white" stroke="#bfbfbf" points="189.5,-0.5 189.5,-19.5 234.5,-19.5 234.5,-0.5 189.5,-0.5"/>
<text text-anchor="middle" x="212" y="-7.5" font-family="Helvetica,sans-Serif" font-size="10.00">cstdlib</text>
</g>
<!-- Node12&#45;&gt;Node14 -->
<g id="edge14" class="edge"><title>Node12&#45;&gt;Node14</title>
<path fill="none" stroke="midnightblue" d="M213.67,-56.083C213.408,-49.0059 213.032,-38.8611 212.703,-29.9865"/>
<polygon fill="midnightblue" stroke="midnightblue" points="216.192,-29.6147 212.324,-19.7511 209.197,-29.8738 216.192,-29.6147"/>
</g>
<!-- Node15 -->
<g id="node15" class="node"><title>Node15</title>
<g id="a_node15"><a xlink:href="_i_plug_platform_8h.html" target="_top" xlink:title="Include to get consistently named preprocessor macros for different platforms and logging functionali...">
<polygon fill="white" stroke="black" points="425,-0.5 425,-19.5 509,-19.5 509,-0.5 425,-0.5"/>
<text text-anchor="middle" x="467" y="-7.5" font-family="Helvetica,sans-Serif" font-size="10.00">IPlugPlatform.h</text>
</a>
</g>
</g>
<!-- Node12&#45;&gt;Node15 -->
<g id="edge18" class="edge"><title>Node12&#45;&gt;Node15</title>
<path fill="none" stroke="midnightblue" d="M254.089,-56.4435C298.316,-47.0036 369.539,-31.802 417.285,-21.6111"/>
<polygon fill="midnightblue" stroke="midnightblue" points="418.05,-25.0268 427.099,-19.5164 416.589,-18.181 418.05,-25.0268"/>
</g>
<!-- Node15&#45;&gt;Node1 -->
<g id="edge19" class="edge"><title>Node15&#45;&gt;Node1</title>
<path fill="none" stroke="midnightblue" d="M428.179,-19.5728C394.812,-27.8208 350.461,-41.1944 340,-56 330.515,-69.4232 333.703,-88.4992 338.249,-102.515"/>
<polygon fill="midnightblue" stroke="midnightblue" points="335.036,-103.916 341.802,-112.069 341.597,-101.476 335.036,-103.916"/>
</g>
</g>
</svg>
