<?xml version="1.0" encoding="UTF-8" standalone="no"?>
<!DOCTYPE svg PUBLIC "-//W3C//DTD SVG 1.1//EN"
 "http://www.w3.org/Graphics/SVG/1.1/DTD/svg11.dtd">
<!-- Generated by graphviz version 2.36.0 (20140111.2315)
 -->
<!-- Title: IPlugBase.h Pages: 1 -->
<svg width="899pt" height="308pt"
 viewBox="0.00 0.00 899.00 308.00" xmlns="http://www.w3.org/2000/svg" xmlns:xlink="http://www.w3.org/1999/xlink">
<g id="graph0" class="graph" transform="scale(1 1) rotate(0) translate(4 304)">
<title>IPlugBase.h</title>
<polygon fill="white" stroke="none" points="-4,4 -4,-304 895,-304 895,4 -4,4"/>
<!-- Node1 -->
<g id="node1" class="node"><title>Node1</title>
<polygon fill="#bfbfbf" stroke="black" points="459,-280.5 459,-299.5 529,-299.5 529,-280.5 459,-280.5"/>
<text text-anchor="middle" x="494" y="-287.5" font-family="Helvetica,sans-Serif" font-size="10.00">IPlugBase.h</text>
</g>
<!-- Node2 -->
<g id="node2" class="node"><title>Node2</title>
<polygon fill="white" stroke="#bfbfbf" points="52,-0.5 52,-19.5 98,-19.5 98,-0.5 52,-0.5"/>
<text text-anchor="middle" x="75" y="-7.5" font-family="Helvetica,sans-Serif" font-size="10.00">cstring</text>
</g>
<!-- Node1&#45;&gt;Node2 -->
<g id="edge1" class="edge"><title>Node1&#45;&gt;Node2</title>
<path fill="none" stroke="midnightblue" d="M458.869,-288.688C346.01,-286.748 0,-273.125 0,-179 0,-179 0,-179 0,-121 0,-81.4439 33.5172,-45.6159 55.7389,-26.2091"/>
<polygon fill="midnightblue" stroke="midnightblue" points="58.2008,-28.7122 63.6091,-19.6017 53.6999,-23.351 58.2008,-28.7122"/>
</g>
<!-- Node3 -->
<g id="node3" class="node"><title>Node3</title>
<polygon fill="white" stroke="#bfbfbf" points="663,-56.5 663,-75.5 709,-75.5 709,-56.5 663,-56.5"/>
<text text-anchor="middle" x="686" y="-63.5" font-family="Helvetica,sans-Serif" font-size="10.00">cstdint</text>
</g>
<!-- Node1&#45;&gt;Node3 -->
<g id="edge2" class="edge"><title>Node1&#45;&gt;Node3</title>
<path fill="none" stroke="midnightblue" d="M529.255,-282.705C554.447,-276.602 587.699,-265.06 610,-244 656.951,-199.662 676.313,-121.505 682.994,-85.7748"/>
<polygon fill="midnightblue" stroke="midnightblue" points="686.47,-86.2137 684.736,-75.7617 679.573,-85.0137 686.47,-86.2137"/>
</g>
<!-- Node4 -->
<g id="node4" class="node"><title>Node4</title>
<polygon fill="white" stroke="#bfbfbf" points="841.5,-224.5 841.5,-243.5 890.5,-243.5 890.5,-224.5 841.5,-224.5"/>
<text text-anchor="middle" x="866" y="-231.5" font-family="Helvetica,sans-Serif" font-size="10.00">ptrlist.h</text>
</g>
<!-- Node1&#45;&gt;Node4 -->
<g id="edge3" class="edge"><title>Node1&#45;&gt;Node4</title>
<path fill="none" stroke="midnightblue" d="M529.167,-285.331C590.093,-278.732 719.108,-263.696 827,-244 828.453,-243.735 829.933,-243.452 831.426,-243.155"/>
<polygon fill="midnightblue" stroke="midnightblue" points="832.257,-246.557 841.314,-241.059 830.806,-239.709 832.257,-246.557"/>
</g>
<!-- Node5 -->
<g id="node5" class="node"><title>Node5</title>
<polygon fill="white" stroke="#bfbfbf" points="525,-56.5 525,-75.5 577,-75.5 577,-56.5 525,-56.5"/>
<text text-anchor="middle" x="551" y="-63.5" font-family="Helvetica,sans-Serif" font-size="10.00">mutex.h</text>
</g>
<!-- Node1&#45;&gt;Node5 -->
<g id="edge4" class="edge"><title>Node1&#45;&gt;Node5</title>
<path fill="none" stroke="midnightblue" d="M496.177,-280.491C501.231,-260.733 514.158,-210.218 525,-168 532.41,-139.146 541.035,-105.661 546.252,-85.417"/>
<polygon fill="midnightblue" stroke="midnightblue" points="549.664,-86.2029 548.771,-75.6458 542.886,-84.4557 549.664,-86.2029"/>
</g>
<!-- Node6 -->
<g id="node6" class="node"><title>Node6</title>
<g id="a_node6"><a xlink:href="_i_plug_platform_8h.html" target="_top" xlink:title="Include to get consistently named preprocessor macros for different platforms and logging functionali...">
<polygon fill="white" stroke="black" points="380,-168.5 380,-187.5 464,-187.5 464,-168.5 380,-168.5"/>
<text text-anchor="middle" x="422" y="-175.5" font-family="Helvetica,sans-Serif" font-size="10.00">IPlugPlatform.h</text>
</a>
</g>
</g>
<!-- Node1&#45;&gt;Node6 -->
<g id="edge5" class="edge"><title>Node1&#45;&gt;Node6</title>
<path fill="none" stroke="midnightblue" d="M488.35,-280.368C476.468,-262.215 448.706,-219.802 433.121,-195.99"/>
<polygon fill="midnightblue" stroke="midnightblue" points="436.029,-194.042 427.623,-187.591 430.172,-197.875 436.029,-194.042"/>
</g>
<!-- Node14 -->
<g id="node14" class="node"><title>Node14</title>
<g id="a_node14"><a xlink:href="_i_plug_constants_8h.html" target="_top" xlink:title="Constant definitions, magic numbers. ">
<polygon fill="white" stroke="black" points="691,-0.5 691,-19.5 783,-19.5 783,-0.5 691,-0.5"/>
<text text-anchor="middle" x="737" y="-7.5" font-family="Helvetica,sans-Serif" font-size="10.00">IPlugConstants.h</text>
</a>
</g>
</g>
<!-- Node1&#45;&gt;Node14 -->
<g id="edge25" class="edge"><title>Node1&#45;&gt;Node14</title>
<path fill="none" stroke="midnightblue" d="M529.051,-284.497C611.919,-272.873 813,-238.534 813,-179 813,-179 813,-179 813,-121 813,-81.2757 779.036,-45.5045 756.518,-26.1536"/>
<polygon fill="midnightblue" stroke="midnightblue" points="758.482,-23.2364 748.543,-19.5672 754.024,-28.6337 758.482,-23.2364"/>
</g>
<!-- Node15 -->
<g id="node15" class="node"><title>Node15</title>
<g id="a_node15"><a xlink:href="_i_plug_utilities_8h.html" target="_top" xlink:title="Utility functions and macros. ">
<polygon fill="white" stroke="black" points="186,-56.5 186,-75.5 266,-75.5 266,-56.5 186,-56.5"/>
<text text-anchor="middle" x="226" y="-63.5" font-family="Helvetica,sans-Serif" font-size="10.00">IPlugUtilities.h</text>
</a>
</g>
</g>
<!-- Node1&#45;&gt;Node15 -->
<g id="edge36" class="edge"><title>Node1&#45;&gt;Node15</title>
<path fill="none" stroke="midnightblue" d="M483.187,-280.2C454.005,-256.433 371.244,-188.901 303,-132 282.82,-115.174 259.816,-95.719 244.247,-82.5107"/>
<polygon fill="midnightblue" stroke="midnightblue" points="246.316,-79.676 236.428,-75.8718 241.786,-85.0121 246.316,-79.676"/>
</g>
<!-- Node18 -->
<g id="node18" class="node"><title>Node18</title>
<g id="a_node18"><a xlink:href="_i_plug_structs_8h_source.html" target="_top" xlink:title="IPlugStructs.h">
<polygon fill="white" stroke="black" points="522.5,-224.5 522.5,-243.5 601.5,-243.5 601.5,-224.5 522.5,-224.5"/>
<text text-anchor="middle" x="562" y="-231.5" font-family="Helvetica,sans-Serif" font-size="10.00">IPlugStructs.h</text>
</a>
</g>
</g>
<!-- Node1&#45;&gt;Node18 -->
<g id="edge26" class="edge"><title>Node1&#45;&gt;Node18</title>
<path fill="none" stroke="midnightblue" d="M504.925,-280.324C515.175,-272.185 530.721,-259.839 543.001,-250.087"/>
<polygon fill="midnightblue" stroke="midnightblue" points="545.221,-252.794 550.876,-243.834 540.868,-247.312 545.221,-252.794"/>
</g>
<!-- Node21 -->
<g id="node21" class="node"><title>Node21</title>
<g id="a_node21"><a xlink:href="_i_plug_parameter_8h_source.html" target="_top" xlink:title="IPlugParameter.h">
<polygon fill="white" stroke="black" points="71,-112.5 71,-131.5 163,-131.5 163,-112.5 71,-112.5"/>
<text text-anchor="middle" x="117" y="-119.5" font-family="Helvetica,sans-Serif" font-size="10.00">IPlugParameter.h</text>
</a>
</g>
</g>
<!-- Node1&#45;&gt;Node21 -->
<g id="edge37" class="edge"><title>Node1&#45;&gt;Node21</title>
<path fill="none" stroke="midnightblue" d="M458.998,-289.663C406.912,-289.222 307.284,-282.787 234,-244 186.408,-218.811 146.709,-167.19 128.199,-140.241"/>
<polygon fill="midnightblue" stroke="midnightblue" points="131.032,-138.181 122.557,-131.822 125.216,-142.077 131.032,-138.181"/>
</g>
<!-- Node7 -->
<g id="node7" class="node"><title>Node7</title>
<g id="a_node7"><a xlink:href="_i_plug_logger_8h.html" target="_top" xlink:title="IPlug Logging functionailty To trace some arbitrary data: Trace(TRACELOC, &quot;%s:%d&quot;, myStr, myInt); To simply create a trace entry in the log: TRACE; No need to wrap tracer calls in #ifdef TRACER_BUILD because Trace is a no&#45;op unless TRACER_BUILD is defined. ">
<polygon fill="white" stroke="black" points="382.5,-112.5 382.5,-131.5 459.5,-131.5 459.5,-112.5 382.5,-112.5"/>
<text text-anchor="middle" x="421" y="-119.5" font-family="Helvetica,sans-Serif" font-size="10.00">IPlugLogger.h</text>
</a>
</g>
</g>
<!-- Node6&#45;&gt;Node7 -->
<g id="edge6" class="edge"><title>Node6&#45;&gt;Node7</title>
<path fill="none" stroke="midnightblue" d="M421.835,-168.083C421.704,-161.006 421.516,-150.861 421.352,-141.986"/>
<polygon fill="midnightblue" stroke="midnightblue" points="424.847,-141.685 421.162,-131.751 417.848,-141.814 424.847,-141.685"/>
</g>
<!-- Node7&#45;&gt;Node2 -->
<g id="edge11" class="edge"><title>Node7&#45;&gt;Node2</title>
<path fill="none" stroke="midnightblue" d="M382.127,-118.444C332.893,-114.18 246.145,-103.207 177,-76 160.206,-69.392 119.979,-42.3531 95.3581,-25.2991"/>
<polygon fill="midnightblue" stroke="midnightblue" points="97.272,-22.3669 87.0657,-19.5241 93.2716,-28.1112 97.272,-22.3669"/>
</g>
<!-- Node7&#45;&gt;Node3 -->
<g id="edge10" class="edge"><title>Node7&#45;&gt;Node3</title>
<path fill="none" stroke="midnightblue" d="M459.774,-114.393C505.994,-106.306 585.471,-91.7346 653,-76 653.101,-75.9764 653.203,-75.9527 653.304,-75.929"/>
<polygon fill="midnightblue" stroke="midnightblue" points="654.122,-79.3323 662.977,-73.5146 652.427,-72.5406 654.122,-79.3323"/>
</g>
<!-- Node7&#45;&gt;Node5 -->
<g id="edge15" class="edge"><title>Node7&#45;&gt;Node5</title>
<path fill="none" stroke="midnightblue" d="M441.599,-112.444C462.993,-103.557 496.681,-89.5632 521.024,-79.4514"/>
<polygon fill="midnightblue" stroke="midnightblue" points="522.605,-82.5848 530.497,-75.5164 519.92,-76.1203 522.605,-82.5848"/>
</g>
<!-- Node8 -->
<g id="node8" class="node"><title>Node8</title>
<polygon fill="white" stroke="#bfbfbf" points="293.5,-0.5 293.5,-19.5 336.5,-19.5 336.5,-0.5 293.5,-0.5"/>
<text text-anchor="middle" x="315" y="-7.5" font-family="Helvetica,sans-Serif" font-size="10.00">cstdio</text>
</g>
<!-- Node7&#45;&gt;Node8 -->
<g id="edge7" class="edge"><title>Node7&#45;&gt;Node8</title>
<path fill="none" stroke="midnightblue" d="M420.44,-112.432C419.145,-98.9757 414.889,-72.705 401,-56 386.846,-38.9756 364.567,-27.5728 346.232,-20.5056"/>
<polygon fill="midnightblue" stroke="midnightblue" points="347.393,-17.2037 336.799,-17.1079 345.021,-23.7896 347.393,-17.2037"/>
</g>
<!-- Node9 -->
<g id="node9" class="node"><title>Node9</title>
<polygon fill="white" stroke="#bfbfbf" points="409,-0.5 409,-19.5 455,-19.5 455,-0.5 409,-0.5"/>
<text text-anchor="middle" x="432" y="-7.5" font-family="Helvetica,sans-Serif" font-size="10.00">cctype</text>
</g>
<!-- Node7&#45;&gt;Node9 -->
<g id="edge8" class="edge"><title>Node7&#45;&gt;Node9</title>
<path fill="none" stroke="midnightblue" d="M424.6,-112.222C428.056,-103.285 433.033,-88.9424 435,-76 437.337,-60.6241 436.292,-42.9874 434.828,-29.9684"/>
<polygon fill="midnightblue" stroke="midnightblue" points="438.277,-29.3494 433.507,-19.889 431.336,-30.259 438.277,-29.3494"/>
</g>
<!-- Node10 -->
<g id="node10" class="node"><title>Node10</title>
<polygon fill="white" stroke="#bfbfbf" points="284.5,-56.5 284.5,-75.5 333.5,-75.5 333.5,-56.5 284.5,-56.5"/>
<text text-anchor="middle" x="309" y="-63.5" font-family="Helvetica,sans-Serif" font-size="10.00">cstdarg</text>
</g>
<!-- Node7&#45;&gt;Node10 -->
<g id="edge9" class="edge"><title>Node7&#45;&gt;Node10</title>
<path fill="none" stroke="midnightblue" d="M403.005,-112.324C384.962,-103.625 356.953,-90.1202 336.197,-80.113"/>
<polygon fill="midnightblue" stroke="midnightblue" points="337.478,-76.8449 326.95,-75.6545 334.438,-83.1502 337.478,-76.8449"/>
</g>
<!-- Node11 -->
<g id="node11" class="node"><title>Node11</title>
<polygon fill="white" stroke="#bfbfbf" points="351.5,-56.5 351.5,-75.5 392.5,-75.5 392.5,-56.5 351.5,-56.5"/>
<text text-anchor="middle" x="372" y="-63.5" font-family="Helvetica,sans-Serif" font-size="10.00">ctime</text>
</g>
<!-- Node7&#45;&gt;Node11 -->
<g id="edge12" class="edge"><title>Node7&#45;&gt;Node11</title>
<path fill="none" stroke="midnightblue" d="M412.909,-112.083C405.845,-104.298 395.412,-92.8015 386.851,-83.3665"/>
<polygon fill="midnightblue" stroke="midnightblue" points="389.253,-80.8047 379.941,-75.7511 384.069,-85.5087 389.253,-80.8047"/>
</g>
<!-- Node12 -->
<g id="node12" class="node"><title>Node12</title>
<polygon fill="white" stroke="#bfbfbf" points="595.5,-56.5 595.5,-75.5 644.5,-75.5 644.5,-56.5 595.5,-56.5"/>
<text text-anchor="middle" x="620" y="-63.5" font-family="Helvetica,sans-Serif" font-size="10.00">cassert</text>
</g>
<!-- Node7&#45;&gt;Node12 -->
<g id="edge13" class="edge"><title>Node7&#45;&gt;Node12</title>
<path fill="none" stroke="midnightblue" d="M452.532,-112.444C488.696,-102.63 547.805,-86.5905 585.263,-76.4261"/>
<polygon fill="midnightblue" stroke="midnightblue" points="586.483,-79.7218 595.217,-73.7251 584.649,-72.9662 586.483,-79.7218"/>
</g>
<!-- Node13 -->
<g id="node13" class="node"><title>Node13</title>
<polygon fill="white" stroke="#bfbfbf" points="66,-56.5 66,-75.5 130,-75.5 130,-56.5 66,-56.5"/>
<text text-anchor="middle" x="98" y="-63.5" font-family="Helvetica,sans-Serif" font-size="10.00">wdlstring.h</text>
</g>
<!-- Node7&#45;&gt;Node13 -->
<g id="edge14" class="edge"><title>Node7&#45;&gt;Node13</title>
<path fill="none" stroke="midnightblue" d="M382.396,-115.13C328.809,-106.89 228.886,-91.1952 144,-76 142.738,-75.7742 141.458,-75.5421 140.166,-75.3053"/>
<polygon fill="midnightblue" stroke="midnightblue" points="140.62,-71.8295 130.146,-73.4261 139.329,-78.7096 140.62,-71.8295"/>
</g>
<!-- Node7&#45;&gt;Node14 -->
<g id="edge16" class="edge"><title>Node7&#45;&gt;Node14</title>
<path fill="none" stroke="midnightblue" d="M430.747,-112.328C447.131,-98.2376 481.77,-70.4907 516,-56 569.468,-33.365 635.144,-21.8539 680.946,-16.1743"/>
<polygon fill="midnightblue" stroke="midnightblue" points="681.465,-19.6373 690.983,-14.9834 680.64,-12.6861 681.465,-19.6373"/>
</g>
<!-- Node7&#45;&gt;Node15 -->
<g id="edge17" class="edge"><title>Node7&#45;&gt;Node15</title>
<path fill="none" stroke="midnightblue" d="M390.102,-112.444C356.726,-103.201 303.406,-88.4356 266.651,-78.2572"/>
<polygon fill="midnightblue" stroke="midnightblue" points="267.325,-74.8122 256.754,-75.5164 265.457,-81.5583 267.325,-74.8122"/>
</g>
<!-- Node15&#45;&gt;Node2 -->
<g id="edge21" class="edge"><title>Node15&#45;&gt;Node2</title>
<path fill="none" stroke="midnightblue" d="M202.074,-56.4435C176.632,-47.3454 136.226,-32.8952 107.821,-22.7372"/>
<polygon fill="midnightblue" stroke="midnightblue" points="108.913,-19.4108 98.3183,-19.339 106.556,-26.002 108.913,-19.4108"/>
</g>
<!-- Node15&#45;&gt;Node6 -->
<g id="edge24" class="edge"><title>Node15&#45;&gt;Node6</title>
<path fill="none" stroke="midnightblue" d="M241.308,-75.5914C275.233,-94.6307 356.959,-140.497 397.85,-163.446"/>
<polygon fill="midnightblue" stroke="midnightblue" points="396.187,-166.526 406.62,-168.368 399.613,-160.422 396.187,-166.526"/>
</g>
<!-- Node15&#45;&gt;Node8 -->
<g id="edge19" class="edge"><title>Node15&#45;&gt;Node8</title>
<path fill="none" stroke="midnightblue" d="M240.299,-56.324C254.183,-47.9002 275.492,-34.9709 291.804,-25.0741"/>
<polygon fill="midnightblue" stroke="midnightblue" points="294.002,-27.8341 300.736,-19.6545 290.371,-21.8495 294.002,-27.8341"/>
</g>
<!-- Node15&#45;&gt;Node9 -->
<g id="edge22" class="edge"><title>Node15&#45;&gt;Node9</title>
<path fill="none" stroke="midnightblue" d="M258.641,-56.4435C297.07,-46.3699 360.529,-29.7351 399.079,-19.6298"/>
<polygon fill="midnightblue" stroke="midnightblue" points="399.996,-23.0078 408.781,-17.0865 398.221,-16.2366 399.996,-23.0078"/>
</g>
<!-- Node15&#45;&gt;Node14 -->
<g id="edge23" class="edge"><title>Node15&#45;&gt;Node14</title>
<path fill="none" stroke="midnightblue" d="M266.067,-57.3558C269.085,-56.8673 272.088,-56.4085 275,-56 420.709,-35.5596 593.575,-21.3861 680.748,-14.9373"/>
<polygon fill="midnightblue" stroke="midnightblue" points="681.229,-18.4115 690.946,-14.1893 680.717,-11.4303 681.229,-18.4115"/>
</g>
<!-- Node16 -->
<g id="node16" class="node"><title>Node16</title>
<polygon fill="white" stroke="#bfbfbf" points="154,-0.5 154,-19.5 198,-19.5 198,-0.5 154,-0.5"/>
<text text-anchor="middle" x="176" y="-7.5" font-family="Helvetica,sans-Serif" font-size="10.00">cmath</text>
</g>
<!-- Node15&#45;&gt;Node16 -->
<g id="edge18" class="edge"><title>Node15&#45;&gt;Node16</title>
<path fill="none" stroke="midnightblue" d="M217.744,-56.083C210.535,-48.2982 199.89,-36.8015 191.154,-27.3665"/>
<polygon fill="midnightblue" stroke="midnightblue" points="193.465,-24.7108 184.103,-19.7511 188.329,-29.4666 193.465,-24.7108"/>
</g>
<!-- Node17 -->
<g id="node17" class="node"><title>Node17</title>
<polygon fill="white" stroke="#bfbfbf" points="216.5,-0.5 216.5,-19.5 261.5,-19.5 261.5,-0.5 216.5,-0.5"/>
<text text-anchor="middle" x="239" y="-7.5" font-family="Helvetica,sans-Serif" font-size="10.00">cstdlib</text>
</g>
<!-- Node15&#45;&gt;Node17 -->
<g id="edge20" class="edge"><title>Node15&#45;&gt;Node17</title>
<path fill="none" stroke="midnightblue" d="M228.147,-56.083C229.869,-48.9272 232.347,-38.6353 234.5,-29.6911"/>
<polygon fill="midnightblue" stroke="midnightblue" points="237.955,-30.2925 236.893,-19.7511 231.15,-28.6541 237.955,-30.2925"/>
</g>
<!-- Node18&#45;&gt;Node6 -->
<g id="edge30" class="edge"><title>Node18&#45;&gt;Node6</title>
<path fill="none" stroke="midnightblue" d="M539.817,-224.444C516.572,-215.478 479.851,-201.314 453.585,-191.183"/>
<polygon fill="midnightblue" stroke="midnightblue" points="454.669,-187.85 444.08,-187.516 452.15,-194.381 454.669,-187.85"/>
</g>
<!-- Node18&#45;&gt;Node13 -->
<g id="edge28" class="edge"><title>Node18&#45;&gt;Node13</title>
<path fill="none" stroke="midnightblue" d="M522.26,-225.877C483.204,-218.356 422.183,-205.206 371,-188 276.985,-156.396 171.017,-104.449 123.471,-80.217"/>
<polygon fill="midnightblue" stroke="midnightblue" points="124.995,-77.065 114.499,-75.619 121.802,-83.2946 124.995,-77.065"/>
</g>
<!-- Node18&#45;&gt;Node14 -->
<g id="edge29" class="edge"><title>Node18&#45;&gt;Node14</title>
<path fill="none" stroke="midnightblue" d="M579.155,-224.371C616.676,-204.387 705.289,-150.852 738,-76 744.355,-61.4571 743.427,-43.2778 741.299,-29.8455"/>
<polygon fill="midnightblue" stroke="midnightblue" points="744.703,-29.0137 739.363,-19.863 737.831,-30.3464 744.703,-29.0137"/>
</g>
<!-- Node19 -->
<g id="node19" class="node"><title>Node19</title>
<polygon fill="white" stroke="#bfbfbf" points="534,-168.5 534,-187.5 590,-187.5 590,-168.5 534,-168.5"/>
<text text-anchor="middle" x="562" y="-175.5" font-family="Helvetica,sans-Serif" font-size="10.00">algorithm</text>
</g>
<!-- Node18&#45;&gt;Node19 -->
<g id="edge27" class="edge"><title>Node18&#45;&gt;Node19</title>
<path fill="none" stroke="midnightblue" d="M562,-224.083C562,-217.006 562,-206.861 562,-197.986"/>
<polygon fill="midnightblue" stroke="midnightblue" points="565.5,-197.751 562,-187.751 558.5,-197.751 565.5,-197.751"/>
</g>
<!-- Node20 -->
<g id="node20" class="node"><title>Node20</title>
<g id="a_node20"><a xlink:href="_i_plug_midi_8h_source.html" target="_top" xlink:title="IPlugMidi.h">
<polygon fill="white" stroke="black" points="587.5,-112.5 587.5,-131.5 652.5,-131.5 652.5,-112.5 587.5,-112.5"/>
<text text-anchor="middle" x="620" y="-119.5" font-family="Helvetica,sans-Serif" font-size="10.00">IPlugMidi.h</text>
</a>
</g>
</g>
<!-- Node18&#45;&gt;Node20 -->
<g id="edge31" class="edge"><title>Node18&#45;&gt;Node20</title>
<path fill="none" stroke="midnightblue" d="M570.453,-224.362C578.479,-215.759 590.414,-201.868 598,-188 606.04,-173.302 611.886,-155.138 615.521,-141.751"/>
<polygon fill="midnightblue" stroke="midnightblue" points="618.977,-142.365 618.055,-131.81 612.194,-140.636 618.977,-142.365"/>
</g>
<!-- Node20&#45;&gt;Node3 -->
<g id="edge33" class="edge"><title>Node20&#45;&gt;Node3</title>
<path fill="none" stroke="midnightblue" d="M630.604,-112.324C640.456,-104.263 655.351,-92.0765 667.215,-82.3695"/>
<polygon fill="midnightblue" stroke="midnightblue" points="669.68,-84.8752 675.203,-75.8339 665.247,-79.4575 669.68,-84.8752"/>
</g>
<!-- Node20&#45;&gt;Node12 -->
<g id="edge32" class="edge"><title>Node20&#45;&gt;Node12</title>
<path fill="none" stroke="midnightblue" d="M620,-112.083C620,-105.006 620,-94.8611 620,-85.9865"/>
<polygon fill="midnightblue" stroke="midnightblue" points="623.5,-85.751 620,-75.7511 616.5,-85.7511 623.5,-85.751"/>
</g>
<!-- Node20&#45;&gt;Node14 -->
<g id="edge34" class="edge"><title>Node20&#45;&gt;Node14</title>
<path fill="none" stroke="midnightblue" d="M652.506,-113.594C673.955,-107.102 701.113,-95.5534 718,-76 729.157,-63.0813 733.77,-43.909 735.673,-29.7316"/>
<polygon fill="midnightblue" stroke="midnightblue" points="739.169,-29.9486 736.692,-19.6475 732.205,-29.2451 739.169,-29.9486"/>
</g>
<!-- Node20&#45;&gt;Node15 -->
<g id="edge35" class="edge"><title>Node20&#45;&gt;Node15</title>
<path fill="none" stroke="midnightblue" d="M587.096,-117.285C527.317,-110.411 396.675,-94.8183 276.216,-76.1213"/>
<polygon fill="midnightblue" stroke="midnightblue" points="276.503,-72.6238 266.082,-74.5373 275.422,-79.5398 276.503,-72.6238"/>
</g>
<!-- Node21&#45;&gt;Node2 -->
<g id="edge38" class="edge"><title>Node21&#45;&gt;Node2</title>
<path fill="none" stroke="midnightblue" d="M97.7036,-112.48C83.571,-105.081 65.4435,-92.887 57,-76 49.4151,-60.8302 56.1755,-42.0183 63.4762,-28.5419"/>
<polygon fill="midnightblue" stroke="midnightblue" points="66.5735,-30.1815 68.6904,-19.8003 60.5617,-26.5956 66.5735,-30.1815"/>
</g>
<!-- Node21&#45;&gt;Node13 -->
<g id="edge39" class="edge"><title>Node21&#45;&gt;Node13</title>
<path fill="none" stroke="midnightblue" d="M113.863,-112.083C111.317,-104.849 107.644,-94.4087 104.473,-85.3968"/>
<polygon fill="midnightblue" stroke="midnightblue" points="107.7,-84.0225 101.079,-75.7511 101.097,-86.3459 107.7,-84.0225"/>
</g>
<!-- Node21&#45;&gt;Node15 -->
<g id="edge40" class="edge"><title>Node21&#45;&gt;Node15</title>
<path fill="none" stroke="midnightblue" d="M134.513,-112.324C152.072,-103.625 179.331,-90.1202 199.531,-80.113"/>
<polygon fill="midnightblue" stroke="midnightblue" points="201.124,-83.23 208.531,-75.6545 198.016,-76.9575 201.124,-83.23"/>
</g>
</g>
</svg>
