<?xml version="1.0" encoding="UTF-8" standalone="no"?>
<!DOCTYPE svg PUBLIC "-//W3C//DTD SVG 1.1//EN"
 "http://www.w3.org/Graphics/SVG/1.1/DTD/svg11.dtd">
<!-- Generated by graphviz version 2.36.0 (20140111.2315)
 -->
<!-- Title: IPlugVST3.h Pages: 1 -->
<!--zoomable 488 -->
<svg id="main" version="1.1" xmlns="http://www.w3.org/2000/svg" xmlns:xlink="http://www.w3.org/1999/xlink" xml:space="preserve" onload="init(evt)">
<style type="text/css"><![CDATA[
.edge:hover path { stroke: red; }
.edge:hover polygon { stroke: red; fill: red; }
]]></style>
<script type="text/javascript"><![CDATA[
var edges = document.getElementsByTagName('g');
if (edges && edges.length) {
  for (var i=0;i<edges.length;i++) {
    if (edges[i].id.substr(0,4)=='edge') {
      edges[i].setAttribute('class','edge');
    }
  }
}
]]></script>
        <defs>
                <circle id="rim" cx="0" cy="0" r="7"/>
                <circle id="rim2" cx="0" cy="0" r="3.5"/>
                <g id="zoomPlus">
                        <use xlink:href="#rim" fill="#404040">
                                <set attributeName="fill" to="#808080" begin="zoomplus.mouseover" end="zoomplus.mouseout"/>
                        </use>
                        <path d="M-4,0h8M0,-4v8" fill="none" stroke="white" stroke-width="1.5" pointer-events="none"/>
                </g>
                <g id="zoomMin">
                        <use xlink:href="#rim" fill="#404040">
                                <set attributeName="fill" to="#808080" begin="zoomminus.mouseover" end="zoomminus.mouseout"/>
                        </use>
                        <path d="M-4,0h8" fill="none" stroke="white" stroke-width="1.5" pointer-events="none"/>
                </g>
                <g id="dirArrow">
                        <path fill="none" stroke="white" stroke-width="1.5" d="M0,-3.0v7 M-2.5,-0.5L0,-3.0L2.5,-0.5"/>
                </g>
               <g id="resetDef">
                       <use xlink:href="#rim2" fill="#404040">
                               <set attributeName="fill" to="#808080" begin="reset.mouseover" end="reset.mouseout"/>
                       </use>
               </g>
        </defs>

<script type="text/javascript">
var viewWidth = 1405;
var viewHeight = 488;
var sectionId = 'dynsection-0';
</script>
<script xlink:href="svgpan.js"/>
<svg id="graph" class="graph">
<g id="viewport">
<title>IPlugVST3.h</title>
<polygon fill="white" stroke="none" points="-4,4 -4,-484 1400.94,-484 1400.94,4 -4,4"/>
<!-- Node1 -->
<g id="node1" class="node"><title>Node1</title>
<polygon fill="#bfbfbf" stroke="black" points="299,-460.5 299,-479.5 371,-479.5 371,-460.5 299,-460.5"/>
<text text-anchor="middle" x="335" y="-467.5" font-family="Helvetica,sans-Serif" font-size="10.00">IPlugVST3.h</text>
</g>
<!-- Node2 -->
<g id="node2" class="node"><title>Node2</title>
<polygon fill="white" stroke="#bfbfbf" points="0,-398.5 0,-417.5 44,-417.5 44,-398.5 0,-398.5"/>
<text text-anchor="middle" x="22" y="-405.5" font-family="Helvetica,sans-Serif" font-size="10.00">vector</text>
</g>
<!-- Node1&#45;&gt;Node2 -->
<g id="edge1" class="edge"><title>Node1&#45;&gt;Node2</title>
<path fill="none" stroke="midnightblue" d="M298.613,-466.603C244.131,-462.257 138.609,-450.9 53,-424 50.8682,-423.33 48.698,-422.536 46.5463,-421.669"/>
<polygon fill="midnightblue" stroke="midnightblue" points="47.9609,-418.467 37.4058,-417.551 45.0855,-424.849 47.9609,-418.467"/>
</g>
<!-- Node3 -->
<g id="node3" class="node"><title>Node3</title>
<polygon fill="white" stroke="#bfbfbf" points="62,-393 62,-423 202,-423 202,-393 62,-393"/>
<text text-anchor="start" x="70" y="-411" font-family="Helvetica,sans-Serif" font-size="10.00">public.sdk/source/vst</text>
<text text-anchor="middle" x="132" y="-400" font-family="Helvetica,sans-Serif" font-size="10.00">/vstsinglecomponenteffect.h</text>
</g>
<!-- Node1&#45;&gt;Node3 -->
<g id="edge2" class="edge"><title>Node1&#45;&gt;Node3</title>
<path fill="none" stroke="midnightblue" d="M305.915,-460.403C275.623,-451.45 227.375,-437.19 189.374,-425.958"/>
<polygon fill="midnightblue" stroke="midnightblue" points="190.034,-422.503 179.452,-423.025 188.05,-429.216 190.034,-422.503"/>
</g>
<!-- Node4 -->
<g id="node4" class="node"><title>Node4</title>
<polygon fill="white" stroke="#bfbfbf" points="220,-393 220,-423 330,-423 330,-393 220,-393"/>
<text text-anchor="start" x="228" y="-411" font-family="Helvetica,sans-Serif" font-size="10.00">pluginterfaces/vst</text>
<text text-anchor="middle" x="275" y="-400" font-family="Helvetica,sans-Serif" font-size="10.00">/ivstprocesscontext.h</text>
</g>
<!-- Node1&#45;&gt;Node4 -->
<g id="edge3" class="edge"><title>Node1&#45;&gt;Node4</title>
<path fill="none" stroke="midnightblue" d="M326.403,-460.403C318.581,-452.581 306.708,-440.708 296.342,-430.342"/>
<polygon fill="midnightblue" stroke="midnightblue" points="298.687,-427.737 289.141,-423.141 293.737,-432.687 298.687,-427.737"/>
</g>
<!-- Node5 -->
<g id="node5" class="node"><title>Node5</title>
<polygon fill="white" stroke="#bfbfbf" points="348,-393 348,-423 442,-423 442,-393 348,-393"/>
<text text-anchor="start" x="356" y="-411" font-family="Helvetica,sans-Serif" font-size="10.00">pluginterfaces/vst</text>
<text text-anchor="middle" x="395" y="-400" font-family="Helvetica,sans-Serif" font-size="10.00">/vsttypes.h</text>
</g>
<!-- Node1&#45;&gt;Node5 -->
<g id="edge4" class="edge"><title>Node1&#45;&gt;Node5</title>
<path fill="none" stroke="midnightblue" d="M343.597,-460.403C351.419,-452.581 363.292,-440.708 373.658,-430.342"/>
<polygon fill="midnightblue" stroke="midnightblue" points="376.263,-432.687 380.859,-423.141 371.313,-427.737 376.263,-432.687"/>
</g>
<!-- Node6 -->
<g id="node6" class="node"><title>Node6</title>
<polygon fill="white" stroke="#bfbfbf" points="460,-393 460,-423 560,-423 560,-393 460,-393"/>
<text text-anchor="start" x="468" y="-411" font-family="Helvetica,sans-Serif" font-size="10.00">pluginterfaces/vst</text>
<text text-anchor="middle" x="510" y="-400" font-family="Helvetica,sans-Serif" font-size="10.00">/ivstcontextmenu.h</text>
</g>
<!-- Node1&#45;&gt;Node6 -->
<g id="edge5" class="edge"><title>Node1&#45;&gt;Node6</title>
<path fill="none" stroke="midnightblue" d="M360.073,-460.403C385.854,-451.564 426.721,-437.553 459.281,-426.39"/>
<polygon fill="midnightblue" stroke="midnightblue" points="460.769,-429.579 469.093,-423.025 458.498,-422.958 460.769,-429.579"/>
</g>
<!-- Node7 -->
<g id="node7" class="node"><title>Node7</title>
<g id="a_node7"><a xlink:href="_i_plug_base__select_8h_source.html" target="_top" xlink:title="IPlugBase_select.h">
<polygon fill="white" stroke="black" points="578.5,-398.5 578.5,-417.5 679.5,-417.5 679.5,-398.5 578.5,-398.5"/>
<text text-anchor="middle" x="629" y="-405.5" font-family="Helvetica,sans-Serif" font-size="10.00">IPlugBase_select.h</text>
</a>
</g>
</g>
<!-- Node1&#45;&gt;Node7 -->
<g id="edge6" class="edge"><title>Node1&#45;&gt;Node7</title>
<path fill="none" stroke="midnightblue" d="M371.205,-462.675C417.298,-454.477 499.319,-439.398 569,-424 574.709,-422.738 580.704,-421.335 586.605,-419.907"/>
<polygon fill="midnightblue" stroke="midnightblue" points="587.506,-423.29 596.38,-417.501 585.833,-416.492 587.506,-423.29"/>
</g>
<!-- Node8 -->
<g id="node8" class="node"><title>Node8</title>
<g id="a_node8"><a xlink:href="_i_plug_base_graphics_8h.html" target="_top" xlink:title="An IPlugBase class for an IPlug plug&#45;in that uses IGraphics for it&#39;s UI. ">
<polygon fill="white" stroke="black" points="574.5,-336.5 574.5,-355.5 683.5,-355.5 683.5,-336.5 574.5,-336.5"/>
<text text-anchor="middle" x="629" y="-343.5" font-family="Helvetica,sans-Serif" font-size="10.00">IPlugBaseGraphics.h</text>
</a>
</g>
</g>
<!-- Node7&#45;&gt;Node8 -->
<g id="edge7" class="edge"><title>Node7&#45;&gt;Node8</title>
<path fill="none" stroke="midnightblue" d="M629,-398.403C629,-389.938 629,-376.728 629,-365.82"/>
<polygon fill="midnightblue" stroke="midnightblue" points="632.5,-365.581 629,-355.581 625.5,-365.581 632.5,-365.581"/>
</g>
<!-- Node30 -->
<g id="node30" class="node"><title>Node30</title>
<g id="a_node30"><a xlink:href="_i_plug_processor_8h.html" target="_top" xlink:title="The base class for IPlug Audio Processing. ">
<polygon fill="white" stroke="black" points="945,-280.5 945,-299.5 1037,-299.5 1037,-280.5 945,-280.5"/>
<text text-anchor="middle" x="991" y="-287.5" font-family="Helvetica,sans-Serif" font-size="10.00">IPlugProcessor.h</text>
</a>
</g>
</g>
<!-- Node7&#45;&gt;Node30 -->
<g id="edge49" class="edge"><title>Node7&#45;&gt;Node30</title>
<path fill="none" stroke="midnightblue" d="M655.619,-398.47C719.556,-377.982 881.869,-325.97 954.682,-302.638"/>
<polygon fill="midnightblue" stroke="midnightblue" points="955.887,-305.927 964.342,-299.542 953.751,-299.261 955.887,-305.927"/>
</g>
<!-- Node35 -->
<g id="node35" class="node"><title>Node35</title>
<g id="a_node35"><a xlink:href="_i_plug_presets_8h.html" target="_top" xlink:title="IPlugPresets.h">
<polygon fill="white" stroke="black" points="341.5,-280.5 341.5,-299.5 422.5,-299.5 422.5,-280.5 341.5,-280.5"/>
<text text-anchor="middle" x="382" y="-287.5" font-family="Helvetica,sans-Serif" font-size="10.00">IPlugPresets.h</text>
</a>
</g>
</g>
<!-- Node7&#45;&gt;Node35 -->
<g id="edge66" class="edge"><title>Node7&#45;&gt;Node35</title>
<path fill="none" stroke="midnightblue" d="M610.838,-398.47C567.925,-378.317 460.068,-327.663 409.268,-303.806"/>
<polygon fill="midnightblue" stroke="midnightblue" points="410.728,-300.625 400.189,-299.542 407.753,-306.961 410.728,-300.625"/>
</g>
<!-- Node9 -->
<g id="node9" class="node"><title>Node9</title>
<g id="a_node9"><a xlink:href="_i_plug_base_8h.html" target="_top" xlink:title="The lowest level base class of an IPlug plug&#45;in. ">
<polygon fill="white" stroke="black" points="594,-280.5 594,-299.5 664,-299.5 664,-280.5 594,-280.5"/>
<text text-anchor="middle" x="629" y="-287.5" font-family="Helvetica,sans-Serif" font-size="10.00">IPlugBase.h</text>
</a>
</g>
</g>
<!-- Node8&#45;&gt;Node9 -->
<g id="edge8" class="edge"><title>Node8&#45;&gt;Node9</title>
<path fill="none" stroke="midnightblue" d="M629,-336.083C629,-329.006 629,-318.861 629,-309.986"/>
<polygon fill="midnightblue" stroke="midnightblue" points="632.5,-309.751 629,-299.751 625.5,-309.751 632.5,-309.751"/>
</g>
<!-- Node10 -->
<g id="node10" class="node"><title>Node10</title>
<polygon fill="white" stroke="#bfbfbf" points="432,-0.5 432,-19.5 478,-19.5 478,-0.5 432,-0.5"/>
<text text-anchor="middle" x="455" y="-7.5" font-family="Helvetica,sans-Serif" font-size="10.00">cstring</text>
</g>
<!-- Node9&#45;&gt;Node10 -->
<g id="edge9" class="edge"><title>Node9&#45;&gt;Node10</title>
<path fill="none" stroke="midnightblue" d="M597.684,-280.425C574.559,-273.126 543.055,-261.087 519,-244 464.837,-205.526 450.442,-191.052 420,-132 404.298,-101.541 393.377,-87.4443 407,-56 412.268,-43.8399 422.62,-33.4594 432.365,-25.7429"/>
<polygon fill="midnightblue" stroke="midnightblue" points="434.644,-28.4116 440.63,-19.6698 430.499,-22.7707 434.644,-28.4116"/>
</g>
<!-- Node11 -->
<g id="node11" class="node"><title>Node11</title>
<polygon fill="white" stroke="#bfbfbf" points="823,-56.5 823,-75.5 869,-75.5 869,-56.5 823,-56.5"/>
<text text-anchor="middle" x="846" y="-63.5" font-family="Helvetica,sans-Serif" font-size="10.00">cstdint</text>
</g>
<!-- Node9&#45;&gt;Node11 -->
<g id="edge10" class="edge"><title>Node9&#45;&gt;Node11</title>
<path fill="none" stroke="midnightblue" d="M664.07,-287.128C720.573,-283.298 827.788,-272.389 851,-244 870.387,-220.288 856.564,-126.25 849.484,-85.733"/>
<polygon fill="midnightblue" stroke="midnightblue" points="852.918,-85.0483 847.7,-75.8274 846.028,-86.2895 852.918,-85.0483"/>
</g>
<!-- Node12 -->
<g id="node12" class="node"><title>Node12</title>
<polygon fill="white" stroke="#bfbfbf" points="657.5,-224.5 657.5,-243.5 706.5,-243.5 706.5,-224.5 657.5,-224.5"/>
<text text-anchor="middle" x="682" y="-231.5" font-family="Helvetica,sans-Serif" font-size="10.00">ptrlist.h</text>
</g>
<!-- Node9&#45;&gt;Node12 -->
<g id="edge11" class="edge"><title>Node9&#45;&gt;Node12</title>
<path fill="none" stroke="midnightblue" d="M637.752,-280.083C645.47,-272.22 656.905,-260.569 666.217,-251.081"/>
<polygon fill="midnightblue" stroke="midnightblue" points="668.904,-253.34 673.411,-243.751 663.908,-248.436 668.904,-253.34"/>
</g>
<!-- Node13 -->
<g id="node13" class="node"><title>Node13</title>
<polygon fill="white" stroke="#bfbfbf" points="277,-56.5 277,-75.5 329,-75.5 329,-56.5 277,-56.5"/>
<text text-anchor="middle" x="303" y="-63.5" font-family="Helvetica,sans-Serif" font-size="10.00">mutex.h</text>
</g>
<!-- Node9&#45;&gt;Node13 -->
<g id="edge12" class="edge"><title>Node9&#45;&gt;Node13</title>
<path fill="none" stroke="midnightblue" d="M593.977,-283.406C559.434,-277.004 505.753,-264.645 463,-244 425.218,-225.755 416.247,-218.083 387,-188 355.195,-155.286 326.921,-109.398 312.705,-84.5894"/>
<polygon fill="midnightblue" stroke="midnightblue" points="315.614,-82.6214 307.657,-75.6253 309.514,-86.0561 315.614,-82.6214"/>
</g>
<!-- Node14 -->
<g id="node14" class="node"><title>Node14</title>
<g id="a_node14"><a xlink:href="_i_plug_platform_8h.html" target="_top" xlink:title="Include to get consistently named preprocessor macros for different platforms and logging functionali...">
<polygon fill="white" stroke="black" points="587,-168.5 587,-187.5 671,-187.5 671,-168.5 587,-168.5"/>
<text text-anchor="middle" x="629" y="-175.5" font-family="Helvetica,sans-Serif" font-size="10.00">IPlugPlatform.h</text>
</a>
</g>
</g>
<!-- Node9&#45;&gt;Node14 -->
<g id="edge13" class="edge"><title>Node9&#45;&gt;Node14</title>
<path fill="none" stroke="midnightblue" d="M629,-280.368C629,-262.617 629,-221.666 629,-197.597"/>
<polygon fill="midnightblue" stroke="midnightblue" points="632.5,-197.591 629,-187.591 625.5,-197.591 632.5,-197.591"/>
</g>
<!-- Node22 -->
<g id="node22" class="node"><title>Node22</title>
<g id="a_node22"><a xlink:href="_i_plug_constants_8h.html" target="_top" xlink:title="Constant definitions, magic numbers. ">
<polygon fill="white" stroke="black" points="1016,-0.5 1016,-19.5 1108,-19.5 1108,-0.5 1016,-0.5"/>
<text text-anchor="middle" x="1062" y="-7.5" font-family="Helvetica,sans-Serif" font-size="10.00">IPlugConstants.h</text>
</a>
</g>
</g>
<!-- Node9&#45;&gt;Node22 -->
<g id="edge33" class="edge"><title>Node9&#45;&gt;Node22</title>
<path fill="none" stroke="midnightblue" d="M664.067,-288.198C712.344,-285.839 800.915,-276.935 868,-244 966.523,-195.631 997.647,-173.002 1049,-76 1056.66,-61.5383 1059.82,-43.0893 1061.12,-29.5436"/>
<polygon fill="midnightblue" stroke="midnightblue" points="1064.61,-29.7357 1061.83,-19.5136 1057.63,-29.2415 1064.61,-29.7357"/>
</g>
<!-- Node23 -->
<g id="node23" class="node"><title>Node23</title>
<g id="a_node23"><a xlink:href="_i_plug_utilities_8h.html" target="_top" xlink:title="Utility functions and macros. ">
<polygon fill="white" stroke="black" points="543,-56.5 543,-75.5 623,-75.5 623,-56.5 543,-56.5"/>
<text text-anchor="middle" x="583" y="-63.5" font-family="Helvetica,sans-Serif" font-size="10.00">IPlugUtilities.h</text>
</a>
</g>
</g>
<!-- Node9&#45;&gt;Node23 -->
<g id="edge44" class="edge"><title>Node9&#45;&gt;Node23</title>
<path fill="none" stroke="midnightblue" d="M622.85,-280.361C611.31,-263.558 586.783,-224.88 578,-188 569.548,-152.51 574.851,-109.54 579.145,-85.5357"/>
<polygon fill="midnightblue" stroke="midnightblue" points="582.592,-86.1449 581.051,-75.6628 575.719,-84.8181 582.592,-86.1449"/>
</g>
<!-- Node26 -->
<g id="node26" class="node"><title>Node26</title>
<g id="a_node26"><a xlink:href="_i_plug_structs_8h_source.html" target="_top" xlink:title="IPlugStructs.h">
<polygon fill="white" stroke="black" points="763.5,-224.5 763.5,-243.5 842.5,-243.5 842.5,-224.5 763.5,-224.5"/>
<text text-anchor="middle" x="803" y="-231.5" font-family="Helvetica,sans-Serif" font-size="10.00">IPlugStructs.h</text>
</a>
</g>
</g>
<!-- Node9&#45;&gt;Node26 -->
<g id="edge34" class="edge"><title>Node9&#45;&gt;Node26</title>
<path fill="none" stroke="midnightblue" d="M656.571,-280.444C686.097,-271.28 733.118,-256.688 765.883,-246.519"/>
<polygon fill="midnightblue" stroke="midnightblue" points="767.045,-249.823 775.558,-243.516 764.97,-243.138 767.045,-249.823"/>
</g>
<!-- Node29 -->
<g id="node29" class="node"><title>Node29</title>
<g id="a_node29"><a xlink:href="_i_plug_parameter_8h_source.html" target="_top" xlink:title="IPlugParameter.h">
<polygon fill="white" stroke="black" points="429,-112.5 429,-131.5 521,-131.5 521,-112.5 429,-112.5"/>
<text text-anchor="middle" x="475" y="-119.5" font-family="Helvetica,sans-Serif" font-size="10.00">IPlugParameter.h</text>
</a>
</g>
</g>
<!-- Node9&#45;&gt;Node29 -->
<g id="edge45" class="edge"><title>Node9&#45;&gt;Node29</title>
<path fill="none" stroke="midnightblue" d="M601.907,-280.492C582.491,-273.288 556.74,-261.339 539,-244 508.664,-214.35 489.517,-167.22 480.704,-141.402"/>
<polygon fill="midnightblue" stroke="midnightblue" points="483.986,-140.176 477.558,-131.755 477.331,-142.347 483.986,-140.176"/>
</g>
<!-- Node15 -->
<g id="node15" class="node"><title>Node15</title>
<g id="a_node15"><a xlink:href="_i_plug_logger_8h.html" target="_top" xlink:title="IPlug Logging functionailty To trace some arbitrary data: Trace(TRACELOC, &quot;%s:%d&quot;, myStr, myInt); To simply create a trace entry in the log: TRACE; No need to wrap tracer calls in #ifdef TRACER_BUILD because Trace is a no&#45;op unless TRACER_BUILD is defined. ">
<polygon fill="white" stroke="black" points="695.5,-112.5 695.5,-131.5 772.5,-131.5 772.5,-112.5 695.5,-112.5"/>
<text text-anchor="middle" x="734" y="-119.5" font-family="Helvetica,sans-Serif" font-size="10.00">IPlugLogger.h</text>
</a>
</g>
</g>
<!-- Node14&#45;&gt;Node15 -->
<g id="edge14" class="edge"><title>Node14&#45;&gt;Node15</title>
<path fill="none" stroke="midnightblue" d="M645.87,-168.324C662.709,-159.664 688.807,-146.242 708.238,-136.249"/>
<polygon fill="midnightblue" stroke="midnightblue" points="709.88,-139.341 717.172,-131.655 706.678,-133.116 709.88,-139.341"/>
</g>
<!-- Node15&#45;&gt;Node10 -->
<g id="edge19" class="edge"><title>Node15&#45;&gt;Node10</title>
<path fill="none" stroke="midnightblue" d="M695.39,-117.678C653.766,-112.9 586.432,-101.645 534,-76 508.961,-63.7531 484.932,-42.0939 470.085,-27.1651"/>
<polygon fill="midnightblue" stroke="midnightblue" points="472.301,-24.4216 462.833,-19.6663 467.269,-29.2879 472.301,-24.4216"/>
</g>
<!-- Node15&#45;&gt;Node11 -->
<g id="edge18" class="edge"><title>Node15&#45;&gt;Node11</title>
<path fill="none" stroke="midnightblue" d="M751.995,-112.324C770.038,-103.625 798.047,-90.1202 818.803,-80.113"/>
<polygon fill="midnightblue" stroke="midnightblue" points="820.562,-83.1502 828.05,-75.6545 817.522,-76.8449 820.562,-83.1502"/>
</g>
<!-- Node15&#45;&gt;Node13 -->
<g id="edge23" class="edge"><title>Node15&#45;&gt;Node13</title>
<path fill="none" stroke="midnightblue" d="M695.372,-116.16C612.716,-105.804 419.691,-81.6202 339.224,-71.5386"/>
<polygon fill="midnightblue" stroke="midnightblue" points="339.445,-68.0389 329.087,-70.2684 338.574,-74.9846 339.445,-68.0389"/>
</g>
<!-- Node16 -->
<g id="node16" class="node"><title>Node16</title>
<polygon fill="white" stroke="#bfbfbf" points="735.5,-0.5 735.5,-19.5 778.5,-19.5 778.5,-0.5 735.5,-0.5"/>
<text text-anchor="middle" x="757" y="-7.5" font-family="Helvetica,sans-Serif" font-size="10.00">cstdio</text>
</g>
<!-- Node15&#45;&gt;Node16 -->
<g id="edge15" class="edge"><title>Node15&#45;&gt;Node16</title>
<path fill="none" stroke="midnightblue" d="M735.805,-112.368C739.516,-94.617 748.079,-53.6664 753.111,-29.5974"/>
<polygon fill="midnightblue" stroke="midnightblue" points="756.583,-30.0961 755.204,-19.5914 749.731,-28.6634 756.583,-30.0961"/>
</g>
<!-- Node17 -->
<g id="node17" class="node"><title>Node17</title>
<polygon fill="white" stroke="#bfbfbf" points="626,-0.5 626,-19.5 672,-19.5 672,-0.5 626,-0.5"/>
<text text-anchor="middle" x="649" y="-7.5" font-family="Helvetica,sans-Serif" font-size="10.00">cctype</text>
</g>
<!-- Node15&#45;&gt;Node17 -->
<g id="edge16" class="edge"><title>Node15&#45;&gt;Node17</title>
<path fill="none" stroke="midnightblue" d="M716.438,-112.416C702.319,-104.688 682.935,-92.0823 671,-76 660.804,-62.2612 655.124,-43.4816 652.102,-29.6403"/>
<polygon fill="midnightblue" stroke="midnightblue" points="655.534,-28.9509 650.213,-19.7891 648.659,-30.2694 655.534,-28.9509"/>
</g>
<!-- Node18 -->
<g id="node18" class="node"><title>Node18</title>
<polygon fill="white" stroke="#bfbfbf" points="679.5,-56.5 679.5,-75.5 728.5,-75.5 728.5,-56.5 679.5,-56.5"/>
<text text-anchor="middle" x="704" y="-63.5" font-family="Helvetica,sans-Serif" font-size="10.00">cstdarg</text>
</g>
<!-- Node15&#45;&gt;Node18 -->
<g id="edge17" class="edge"><title>Node15&#45;&gt;Node18</title>
<path fill="none" stroke="midnightblue" d="M729.046,-112.083C724.896,-104.613 718.847,-93.7244 713.733,-84.5199"/>
<polygon fill="midnightblue" stroke="midnightblue" points="716.778,-82.7929 708.862,-75.7511 710.659,-86.1924 716.778,-82.7929"/>
</g>
<!-- Node19 -->
<g id="node19" class="node"><title>Node19</title>
<polygon fill="white" stroke="#bfbfbf" points="954.5,-56.5 954.5,-75.5 995.5,-75.5 995.5,-56.5 954.5,-56.5"/>
<text text-anchor="middle" x="975" y="-63.5" font-family="Helvetica,sans-Serif" font-size="10.00">ctime</text>
</g>
<!-- Node15&#45;&gt;Node19 -->
<g id="edge20" class="edge"><title>Node15&#45;&gt;Node19</title>
<path fill="none" stroke="midnightblue" d="M772.722,-113.723C813.218,-105.896 878.801,-92.6108 944.685,-75.9077"/>
<polygon fill="midnightblue" stroke="midnightblue" points="945.586,-79.2901 954.405,-73.4188 943.849,-72.5089 945.586,-79.2901"/>
</g>
<!-- Node20 -->
<g id="node20" class="node"><title>Node20</title>
<polygon fill="white" stroke="#bfbfbf" points="887.5,-56.5 887.5,-75.5 936.5,-75.5 936.5,-56.5 887.5,-56.5"/>
<text text-anchor="middle" x="912" y="-63.5" font-family="Helvetica,sans-Serif" font-size="10.00">cassert</text>
</g>
<!-- Node15&#45;&gt;Node20 -->
<g id="edge21" class="edge"><title>Node15&#45;&gt;Node20</title>
<path fill="none" stroke="midnightblue" d="M762.205,-112.444C793.476,-102.957 843.929,-87.6507 877.522,-77.4595"/>
<polygon fill="midnightblue" stroke="midnightblue" points="878.813,-80.7254 887.367,-74.473 876.781,-74.0269 878.813,-80.7254"/>
</g>
<!-- Node21 -->
<g id="node21" class="node"><title>Node21</title>
<polygon fill="white" stroke="#bfbfbf" points="423,-56.5 423,-75.5 487,-75.5 487,-56.5 423,-56.5"/>
<text text-anchor="middle" x="455" y="-63.5" font-family="Helvetica,sans-Serif" font-size="10.00">wdlstring.h</text>
</g>
<!-- Node15&#45;&gt;Node21 -->
<g id="edge22" class="edge"><title>Node15&#45;&gt;Node21</title>
<path fill="none" stroke="midnightblue" d="M695.241,-113.544C648.997,-104.642 569.347,-89.2861 501,-76 499.742,-75.7554 498.464,-75.5069 497.175,-75.2558"/>
<polygon fill="midnightblue" stroke="midnightblue" points="497.654,-71.7833 487.169,-73.3042 496.314,-78.6539 497.654,-71.7833"/>
</g>
<!-- Node15&#45;&gt;Node22 -->
<g id="edge24" class="edge"><title>Node15&#45;&gt;Node22</title>
<path fill="none" stroke="midnightblue" d="M741.89,-112.197C755.23,-97.9164 783.757,-69.9032 814,-56 875.688,-27.6409 953.699,-17.1276 1005.59,-13.2453"/>
<polygon fill="midnightblue" stroke="midnightblue" points="1005.87,-16.7343 1015.6,-12.554 1005.39,-9.75094 1005.87,-16.7343"/>
</g>
<!-- Node15&#45;&gt;Node23 -->
<g id="edge25" class="edge"><title>Node15&#45;&gt;Node23</title>
<path fill="none" stroke="midnightblue" d="M710.074,-112.444C684.781,-103.399 644.698,-89.064 616.32,-78.9158"/>
<polygon fill="midnightblue" stroke="midnightblue" points="617.409,-75.5882 606.814,-75.5164 615.052,-82.1794 617.409,-75.5882"/>
</g>
<!-- Node23&#45;&gt;Node10 -->
<g id="edge29" class="edge"><title>Node23&#45;&gt;Node10</title>
<path fill="none" stroke="midnightblue" d="M562.718,-56.4435C541.653,-47.5566 508.483,-33.5632 484.514,-23.4514"/>
<polygon fill="midnightblue" stroke="midnightblue" points="485.761,-20.1787 475.187,-19.5164 483.04,-26.6283 485.761,-20.1787"/>
</g>
<!-- Node23&#45;&gt;Node14 -->
<g id="edge32" class="edge"><title>Node23&#45;&gt;Node14</title>
<path fill="none" stroke="midnightblue" d="M586.593,-75.5914C594.069,-93.4683 611.435,-134.997 621.472,-158.998"/>
<polygon fill="midnightblue" stroke="midnightblue" points="618.303,-160.493 625.39,-168.368 624.761,-157.792 618.303,-160.493"/>
</g>
<!-- Node23&#45;&gt;Node16 -->
<g id="edge27" class="edge"><title>Node23&#45;&gt;Node16</title>
<path fill="none" stroke="midnightblue" d="M610.571,-56.4435C641.786,-46.7561 692.553,-31.0008 725.358,-20.8199"/>
<polygon fill="midnightblue" stroke="midnightblue" points="726.817,-24.0319 735.33,-17.7251 724.742,-17.3464 726.817,-24.0319"/>
</g>
<!-- Node23&#45;&gt;Node17 -->
<g id="edge30" class="edge"><title>Node23&#45;&gt;Node17</title>
<path fill="none" stroke="midnightblue" d="M593.604,-56.324C603.456,-48.2631 618.351,-36.0765 630.215,-26.3695"/>
<polygon fill="midnightblue" stroke="midnightblue" points="632.68,-28.8752 638.203,-19.8339 628.247,-23.4575 632.68,-28.8752"/>
</g>
<!-- Node23&#45;&gt;Node22 -->
<g id="edge31" class="edge"><title>Node23&#45;&gt;Node22</title>
<path fill="none" stroke="midnightblue" d="M623.015,-60.4889C708.252,-50.8797 907.918,-28.3704 1005.84,-17.3312"/>
<polygon fill="midnightblue" stroke="midnightblue" points="1006.3,-20.8016 1015.84,-16.2033 1005.52,-13.8457 1006.3,-20.8016"/>
</g>
<!-- Node24 -->
<g id="node24" class="node"><title>Node24</title>
<polygon fill="white" stroke="#bfbfbf" points="1269,-0.5 1269,-19.5 1313,-19.5 1313,-0.5 1269,-0.5"/>
<text text-anchor="middle" x="1291" y="-7.5" font-family="Helvetica,sans-Serif" font-size="10.00">cmath</text>
</g>
<!-- Node23&#45;&gt;Node24 -->
<g id="edge26" class="edge"><title>Node23&#45;&gt;Node24</title>
<path fill="none" stroke="midnightblue" d="M623.28,-60.6286C638.255,-59.0698 655.395,-57.364 671,-56 895.674,-36.3618 1166.69,-18.799 1258.67,-13.0094"/>
<polygon fill="midnightblue" stroke="midnightblue" points="1258.98,-16.497 1268.74,-12.3777 1258.54,-9.51076 1258.98,-16.497"/>
</g>
<!-- Node25 -->
<g id="node25" class="node"><title>Node25</title>
<polygon fill="white" stroke="#bfbfbf" points="560.5,-0.5 560.5,-19.5 605.5,-19.5 605.5,-0.5 560.5,-0.5"/>
<text text-anchor="middle" x="583" y="-7.5" font-family="Helvetica,sans-Serif" font-size="10.00">cstdlib</text>
</g>
<!-- Node23&#45;&gt;Node25 -->
<g id="edge28" class="edge"><title>Node23&#45;&gt;Node25</title>
<path fill="none" stroke="midnightblue" d="M583,-56.083C583,-49.0059 583,-38.8611 583,-29.9865"/>
<polygon fill="midnightblue" stroke="midnightblue" points="586.5,-29.751 583,-19.7511 579.5,-29.7511 586.5,-29.751"/>
</g>
<!-- Node26&#45;&gt;Node14 -->
<g id="edge38" class="edge"><title>Node26&#45;&gt;Node14</title>
<path fill="none" stroke="midnightblue" d="M775.429,-224.444C745.903,-215.28 698.882,-200.688 666.117,-190.519"/>
<polygon fill="midnightblue" stroke="midnightblue" points="667.03,-187.138 656.442,-187.516 664.955,-193.823 667.03,-187.138"/>
</g>
<!-- Node26&#45;&gt;Node21 -->
<g id="edge36" class="edge"><title>Node26&#45;&gt;Node21</title>
<path fill="none" stroke="midnightblue" d="M798.416,-224.084C790.815,-210.152 774.306,-183.241 753,-168 747.446,-164.027 568.651,-104.605 490.721,-78.8067"/>
<polygon fill="midnightblue" stroke="midnightblue" points="491.452,-75.3621 480.859,-75.5433 489.253,-82.0077 491.452,-75.3621"/>
</g>
<!-- Node26&#45;&gt;Node22 -->
<g id="edge37" class="edge"><title>Node26&#45;&gt;Node22</title>
<path fill="none" stroke="midnightblue" d="M820.629,-224.479C861.603,-203.944 964.587,-148.046 1028,-76 1040.2,-62.1354 1049.49,-43.1181 1055.25,-29.2364"/>
<polygon fill="midnightblue" stroke="midnightblue" points="1058.56,-30.3798 1058.96,-19.7924 1052.05,-27.8224 1058.56,-30.3798"/>
</g>
<!-- Node27 -->
<g id="node27" class="node"><title>Node27</title>
<polygon fill="white" stroke="#bfbfbf" points="689,-168.5 689,-187.5 745,-187.5 745,-168.5 689,-168.5"/>
<text text-anchor="middle" x="717" y="-175.5" font-family="Helvetica,sans-Serif" font-size="10.00">algorithm</text>
</g>
<!-- Node26&#45;&gt;Node27 -->
<g id="edge35" class="edge"><title>Node26&#45;&gt;Node27</title>
<path fill="none" stroke="midnightblue" d="M789.183,-224.324C775.767,-215.9 755.176,-202.971 739.414,-193.074"/>
<polygon fill="midnightblue" stroke="midnightblue" points="741.113,-190.008 730.783,-187.655 737.391,-195.936 741.113,-190.008"/>
</g>
<!-- Node28 -->
<g id="node28" class="node"><title>Node28</title>
<g id="a_node28"><a xlink:href="_i_plug_midi_8h_source.html" target="_top" xlink:title="IPlugMidi.h">
<polygon fill="white" stroke="black" points="867.5,-112.5 867.5,-131.5 932.5,-131.5 932.5,-112.5 867.5,-112.5"/>
<text text-anchor="middle" x="900" y="-119.5" font-family="Helvetica,sans-Serif" font-size="10.00">IPlugMidi.h</text>
</a>
</g>
</g>
<!-- Node26&#45;&gt;Node28 -->
<g id="edge39" class="edge"><title>Node26&#45;&gt;Node28</title>
<path fill="none" stroke="midnightblue" d="M810.611,-224.368C826.761,-206.055 864.684,-163.049 885.571,-139.362"/>
<polygon fill="midnightblue" stroke="midnightblue" points="888.435,-141.407 892.424,-131.591 883.185,-136.777 888.435,-141.407"/>
</g>
<!-- Node28&#45;&gt;Node11 -->
<g id="edge41" class="edge"><title>Node28&#45;&gt;Node11</title>
<path fill="none" stroke="midnightblue" d="M891.083,-112.083C883.22,-104.22 871.569,-92.5688 862.081,-83.0813"/>
<polygon fill="midnightblue" stroke="midnightblue" points="864.297,-80.3473 854.751,-75.7511 859.347,-85.2971 864.297,-80.3473"/>
</g>
<!-- Node28&#45;&gt;Node20 -->
<g id="edge40" class="edge"><title>Node28&#45;&gt;Node20</title>
<path fill="none" stroke="midnightblue" d="M901.982,-112.083C903.572,-104.927 905.859,-94.6353 907.846,-85.6911"/>
<polygon fill="midnightblue" stroke="midnightblue" points="911.303,-86.2722 910.055,-75.7511 904.469,-84.7537 911.303,-86.2722"/>
</g>
<!-- Node28&#45;&gt;Node22 -->
<g id="edge42" class="edge"><title>Node28&#45;&gt;Node22</title>
<path fill="none" stroke="midnightblue" d="M928.657,-112.374C950.578,-104.917 980.871,-92.6978 1004,-76 1022.51,-62.6377 1039.35,-42.4364 1050.06,-28.1058"/>
<polygon fill="midnightblue" stroke="midnightblue" points="1053.14,-29.8202 1056.17,-19.6671 1047.47,-25.716 1053.14,-29.8202"/>
</g>
<!-- Node28&#45;&gt;Node23 -->
<g id="edge43" class="edge"><title>Node28&#45;&gt;Node23</title>
<path fill="none" stroke="midnightblue" d="M867.269,-115.424C811.787,-105.973 698.92,-86.7466 633.325,-75.5728"/>
<polygon fill="midnightblue" stroke="midnightblue" points="633.666,-72.0804 623.22,-73.8513 632.49,-78.981 633.666,-72.0804"/>
</g>
<!-- Node29&#45;&gt;Node10 -->
<g id="edge46" class="edge"><title>Node29&#45;&gt;Node10</title>
<path fill="none" stroke="midnightblue" d="M455.094,-112.41C440.775,-105.04 422.542,-92.9163 414,-76 404.968,-58.1129 420.645,-38.8417 435.148,-25.9667"/>
<polygon fill="midnightblue" stroke="midnightblue" points="437.456,-28.5992 442.919,-19.5215 432.988,-23.2109 437.456,-28.5992"/>
</g>
<!-- Node29&#45;&gt;Node21 -->
<g id="edge47" class="edge"><title>Node29&#45;&gt;Node21</title>
<path fill="none" stroke="midnightblue" d="M471.697,-112.083C469.018,-104.849 465.151,-94.4087 461.814,-85.3968"/>
<polygon fill="midnightblue" stroke="midnightblue" points="464.996,-83.9129 458.241,-75.7511 458.432,-86.3442 464.996,-83.9129"/>
</g>
<!-- Node29&#45;&gt;Node23 -->
<g id="edge48" class="edge"><title>Node29&#45;&gt;Node23</title>
<path fill="none" stroke="midnightblue" d="M492.352,-112.324C509.672,-103.664 536.515,-90.2424 556.502,-80.249"/>
<polygon fill="midnightblue" stroke="midnightblue" points="558.312,-83.2572 565.691,-75.6545 555.181,-76.9962 558.312,-83.2572"/>
</g>
<!-- Node30&#45;&gt;Node10 -->
<g id="edge50" class="edge"><title>Node30&#45;&gt;Node10</title>
<path fill="none" stroke="midnightblue" d="M995.286,-280.358C1011.41,-246.493 1064.47,-121.48 1004,-56 969.819,-18.9879 602.195,-24.3274 552,-20 530.773,-18.17 506.948,-15.9616 488.222,-14.1904"/>
<polygon fill="midnightblue" stroke="midnightblue" points="488.405,-10.6922 478.119,-13.2305 487.743,-17.6608 488.405,-10.6922"/>
</g>
<!-- Node30&#45;&gt;Node11 -->
<g id="edge51" class="edge"><title>Node30&#45;&gt;Node11</title>
<path fill="none" stroke="midnightblue" d="M991.291,-280.187C991.733,-251.602 989.133,-160.505 941,-112 923.955,-94.8231 899.08,-83.3673 879.06,-76.3144"/>
<polygon fill="midnightblue" stroke="midnightblue" points="879.983,-72.9331 869.389,-73.1103 877.781,-79.5779 879.983,-72.9331"/>
</g>
<!-- Node30&#45;&gt;Node12 -->
<g id="edge52" class="edge"><title>Node30&#45;&gt;Node12</title>
<path fill="none" stroke="midnightblue" d="M944.981,-282.214C891.116,-274.068 799.308,-259.546 721,-244 719.552,-243.712 718.075,-243.411 716.585,-243.099"/>
<polygon fill="midnightblue" stroke="midnightblue" points="717.224,-239.656 706.708,-240.944 715.732,-246.495 717.224,-239.656"/>
</g>
<!-- Node30&#45;&gt;Node14 -->
<g id="edge53" class="edge"><title>Node30&#45;&gt;Node14</title>
<path fill="none" stroke="midnightblue" d="M944.745,-284.171C896.414,-278.21 818.873,-266.045 755,-244 749.789,-242.202 690.162,-211.086 654.835,-192.568"/>
<polygon fill="midnightblue" stroke="midnightblue" points="656.062,-189.259 645.58,-187.714 652.81,-195.458 656.062,-189.259"/>
</g>
<!-- Node30&#45;&gt;Node22 -->
<g id="edge54" class="edge"><title>Node30&#45;&gt;Node22</title>
<path fill="none" stroke="midnightblue" d="M1037.06,-286.233C1143.21,-278.597 1396,-252.679 1396,-179 1396,-179 1396,-179 1396,-121 1396,-90.9022 1399.74,-75.7134 1377,-56 1339.4,-23.4063 1198.71,-14.4014 1118.65,-11.9265"/>
<polygon fill="midnightblue" stroke="midnightblue" points="1118.35,-8.41648 1108.25,-11.6311 1118.15,-15.4137 1118.35,-8.41648"/>
</g>
<!-- Node30&#45;&gt;Node23 -->
<g id="edge56" class="edge"><title>Node30&#45;&gt;Node23</title>
<path fill="none" stroke="midnightblue" d="M977.324,-280.41C943.905,-259.61 855.108,-205.495 777,-168 738.162,-149.356 725.419,-151.494 687,-132 656.732,-116.642 623.833,-95.2069 603.317,-81.2182"/>
<polygon fill="midnightblue" stroke="midnightblue" points="605.292,-78.3289 595.071,-75.541 601.323,-84.0946 605.292,-78.3289"/>
</g>
<!-- Node30&#45;&gt;Node26 -->
<g id="edge55" class="edge"><title>Node30&#45;&gt;Node26</title>
<path fill="none" stroke="midnightblue" d="M961.211,-280.444C929.171,-271.241 878.067,-256.562 842.647,-246.388"/>
<polygon fill="midnightblue" stroke="midnightblue" points="843.227,-242.913 832.65,-243.516 841.295,-249.641 843.227,-242.913"/>
</g>
<!-- Node31 -->
<g id="node31" class="node"><title>Node31</title>
<g id="a_node31"><a xlink:href="_n_chan_delay_8h_source.html" target="_top" xlink:title="NChanDelay.h">
<polygon fill="white" stroke="black" points="1095.5,-224.5 1095.5,-243.5 1176.5,-243.5 1176.5,-224.5 1095.5,-224.5"/>
<text text-anchor="middle" x="1136" y="-231.5" font-family="Helvetica,sans-Serif" font-size="10.00">NChanDelay.h</text>
</a>
</g>
</g>
<!-- Node30&#45;&gt;Node31 -->
<g id="edge57" class="edge"><title>Node30&#45;&gt;Node31</title>
<path fill="none" stroke="midnightblue" d="M1013.98,-280.444C1038.16,-271.438 1076.42,-257.189 1103.65,-247.049"/>
<polygon fill="midnightblue" stroke="midnightblue" points="1104.98,-250.286 1113.13,-243.516 1102.54,-243.727 1104.98,-250.286"/>
</g>
<!-- Node32 -->
<g id="node32" class="node"><title>Node32</title>
<g id="a_node32"><a xlink:href="_i_plug_processor_8cpp_source.html" target="_top" xlink:title="IPlugProcessor.cpp">
<polygon fill="white" stroke="black" points="1163,-112.5 1163,-131.5 1265,-131.5 1265,-112.5 1163,-112.5"/>
<text text-anchor="middle" x="1214" y="-119.5" font-family="Helvetica,sans-Serif" font-size="10.00">IPlugProcessor.cpp</text>
</a>
</g>
</g>
<!-- Node30&#45;&gt;Node32 -->
<g id="edge58" class="edge"><title>Node30&#45;&gt;Node32</title>
<path fill="none" stroke="midnightblue" d="M1037.3,-282.983C1085.5,-276.193 1156.37,-263.487 1176,-244 1203.38,-216.823 1206.67,-168.684 1209.21,-142.052"/>
<polygon fill="midnightblue" stroke="midnightblue" points="1212.73,-142.107 1210.37,-131.779 1205.77,-141.325 1212.73,-142.107"/>
</g>
<!-- Node32&#45;&gt;Node16 -->
<g id="edge60" class="edge"><title>Node32&#45;&gt;Node16</title>
<path fill="none" stroke="midnightblue" d="M1194.61,-112.411C1162.6,-98.5649 1096.45,-71.3165 1038,-56 949.246,-32.7421 841.39,-19.5473 788.849,-14.0546"/>
<polygon fill="midnightblue" stroke="midnightblue" points="789.106,-10.5627 778.802,-13.0283 788.395,-17.5265 789.106,-10.5627"/>
</g>
<!-- Node32&#45;&gt;Node19 -->
<g id="edge61" class="edge"><title>Node32&#45;&gt;Node19</title>
<path fill="none" stroke="midnightblue" d="M1176.13,-112.444C1128.95,-101.784 1049.25,-83.7765 1005.69,-73.9343"/>
<polygon fill="midnightblue" stroke="midnightblue" points="1006.22,-70.4649 995.691,-71.6749 1004.67,-77.2928 1006.22,-70.4649"/>
</g>
<!-- Node32&#45;&gt;Node20 -->
<g id="edge62" class="edge"><title>Node32&#45;&gt;Node20</title>
<path fill="none" stroke="midnightblue" d="M1162.85,-113.849C1110.84,-106.255 1027.75,-93.2411 946.691,-75.9791"/>
<polygon fill="midnightblue" stroke="midnightblue" points="947.331,-72.5367 936.818,-73.853 945.857,-79.3799 947.331,-72.5367"/>
</g>
<!-- Node32&#45;&gt;Node24 -->
<g id="edge59" class="edge"><title>Node32&#45;&gt;Node24</title>
<path fill="none" stroke="midnightblue" d="M1265.32,-113.686C1307.83,-106.453 1363.4,-93.8689 1377,-76 1395.72,-51.4108 1354.51,-31.4988 1322.89,-20.461"/>
<polygon fill="midnightblue" stroke="midnightblue" points="1323.65,-17.0234 1313.05,-17.1944 1321.44,-23.6669 1323.65,-17.0234"/>
</g>
<!-- Node32&#45;&gt;Node30 -->
<g id="edge65" class="edge"><title>Node32&#45;&gt;Node30</title>
<path fill="none" stroke="midnightblue" d="M1219.13,-131.779C1225.12,-153.978 1225.43,-212.801 1194,-244 1173.89,-263.966 1099.98,-276.814 1047.06,-283.473"/>
<polygon fill="midnightblue" stroke="midnightblue" points="1046.61,-280.001 1037.11,-284.683 1047.46,-286.95 1046.61,-280.001"/>
</g>
<!-- Node33 -->
<g id="node33" class="node"><title>Node33</title>
<polygon fill="white" stroke="#bfbfbf" points="1300,-56.5 1300,-75.5 1368,-75.5 1368,-56.5 1300,-56.5"/>
<text text-anchor="middle" x="1334" y="-63.5" font-family="Helvetica,sans-Serif" font-size="10.00">wdlendian.h</text>
</g>
<!-- Node32&#45;&gt;Node33 -->
<g id="edge63" class="edge"><title>Node32&#45;&gt;Node33</title>
<path fill="none" stroke="midnightblue" d="M1233.01,-112.444C1252.59,-103.636 1283.31,-89.8116 1305.73,-79.722"/>
<polygon fill="midnightblue" stroke="midnightblue" points="1307.39,-82.8119 1315.07,-75.5164 1304.52,-76.4284 1307.39,-82.8119"/>
</g>
<!-- Node34 -->
<g id="node34" class="node"><title>Node34</title>
<polygon fill="white" stroke="#bfbfbf" points="1204.5,-56.5 1204.5,-75.5 1281.5,-75.5 1281.5,-56.5 1204.5,-56.5"/>
<text text-anchor="middle" x="1243" y="-63.5" font-family="Helvetica,sans-Serif" font-size="10.00">wdl_base64.h</text>
</g>
<!-- Node32&#45;&gt;Node34 -->
<g id="edge64" class="edge"><title>Node32&#45;&gt;Node34</title>
<path fill="none" stroke="midnightblue" d="M1218.79,-112.083C1222.76,-104.691 1228.53,-93.9533 1233.43,-84.8111"/>
<polygon fill="midnightblue" stroke="midnightblue" points="1236.65,-86.217 1238.3,-75.7511 1230.49,-82.9051 1236.65,-86.217"/>
</g>
<!-- Node35&#45;&gt;Node10 -->
<g id="edge67" class="edge"><title>Node35&#45;&gt;Node10</title>
<path fill="none" stroke="midnightblue" d="M341.246,-286.259C308.658,-282.003 263.808,-271.221 235,-244 212.617,-222.85 211,-209.795 211,-179 211,-179 211,-179 211,-121 211,-90.2048 211.635,-76.06 235,-56 262.661,-32.2517 367.332,-19.1847 421.723,-13.8676"/>
<polygon fill="midnightblue" stroke="midnightblue" points="422.267,-17.3319 431.893,-12.9066 421.608,-10.3629 422.267,-17.3319"/>
</g>
<!-- Node35&#45;&gt;Node11 -->
<g id="edge68" class="edge"><title>Node35&#45;&gt;Node11</title>
<path fill="none" stroke="midnightblue" d="M394.057,-280.491C412.211,-267.778 447.769,-243.259 479,-224 522.028,-197.466 530.43,-185.103 578,-168 664.226,-136.998 699.744,-174.35 781,-132 803.004,-120.531 822.257,-99.0163 833.984,-83.889"/>
<polygon fill="midnightblue" stroke="midnightblue" points="836.81,-85.9535 839.982,-75.8447 831.199,-81.769 836.81,-85.9535"/>
</g>
<!-- Node35&#45;&gt;Node12 -->
<g id="edge69" class="edge"><title>Node35&#45;&gt;Node12</title>
<path fill="none" stroke="midnightblue" d="M422.772,-281.661C482.221,-270.96 591.668,-251.26 647.409,-241.226"/>
<polygon fill="midnightblue" stroke="midnightblue" points="648.268,-244.628 657.49,-239.412 647.028,-237.739 648.268,-244.628"/>
</g>
<!-- Node35&#45;&gt;Node13 -->
<g id="edge70" class="edge"><title>Node35&#45;&gt;Node13</title>
<path fill="none" stroke="midnightblue" d="M357.442,-280.389C341.234,-273.307 321.176,-261.548 311,-244 281.469,-193.078 291.618,-119.38 298.625,-85.4124"/>
<polygon fill="midnightblue" stroke="midnightblue" points="302.074,-86.0267 300.819,-75.5065 295.24,-84.513 302.074,-86.0267"/>
</g>
<!-- Node35&#45;&gt;Node14 -->
<g id="edge71" class="edge"><title>Node35&#45;&gt;Node14</title>
<path fill="none" stroke="midnightblue" d="M401.382,-280.368C444.669,-261.091 549.39,-214.454 600.282,-191.789"/>
<polygon fill="midnightblue" stroke="midnightblue" points="601.997,-194.857 609.708,-187.591 599.149,-188.462 601.997,-194.857"/>
</g>
<!-- Node35&#45;&gt;Node22 -->
<g id="edge72" class="edge"><title>Node35&#45;&gt;Node22</title>
<path fill="none" stroke="midnightblue" d="M355.085,-280.41C316.222,-266.126 249,-233.535 249,-179 249,-179 249,-179 249,-121 249,-90.9022 244.437,-74.726 268,-56 282.448,-44.5178 826.895,-20.8144 1005.73,-13.3227"/>
<polygon fill="midnightblue" stroke="midnightblue" points="1006.13,-16.8092 1015.97,-12.8945 1005.83,-9.81527 1006.13,-16.8092"/>
</g>
<!-- Node35&#45;&gt;Node23 -->
<g id="edge74" class="edge"><title>Node35&#45;&gt;Node23</title>
<path fill="none" stroke="midnightblue" d="M380.758,-280.397C379.519,-271.358 377.704,-256.715 377,-244 373.588,-182.393 374.303,-153.458 420,-112 436.571,-96.966 491.199,-83.8811 532.688,-75.7544"/>
<polygon fill="midnightblue" stroke="midnightblue" points="533.49,-79.1645 542.653,-73.847 532.174,-72.2893 533.49,-79.1645"/>
</g>
<!-- Node35&#45;&gt;Node26 -->
<g id="edge73" class="edge"><title>Node35&#45;&gt;Node26</title>
<path fill="none" stroke="midnightblue" d="M422.75,-283.773C500.403,-273.813 669.315,-252.147 753.393,-241.363"/>
<polygon fill="midnightblue" stroke="midnightblue" points="753.985,-244.816 763.458,-240.072 753.094,-237.873 753.985,-244.816"/>
</g>
<!-- Node35&#45;&gt;Node29 -->
<g id="edge75" class="edge"><title>Node35&#45;&gt;Node29</title>
<path fill="none" stroke="midnightblue" d="M380.979,-280.183C379.854,-267.292 379.128,-242.79 387,-224 402.007,-188.18 434.881,-156.115 455.926,-138.148"/>
<polygon fill="midnightblue" stroke="midnightblue" points="458.414,-140.631 463.873,-131.551 453.943,-135.245 458.414,-140.631"/>
</g>
</g>
</svg>
        <g id="navigator" transform="translate(0 0)" fill="#404254">
                <rect fill="#f2f5e9" fill-opacity="0.5" stroke="#606060" stroke-width=".5" x="0" y="0" width="60" height="60"/>
                <use id="zoomplus" xlink:href="#zoomPlus" x="17" y="9" onmousedown="handleZoom(evt,'in')"/>
                <use id="zoomminus" xlink:href="#zoomMin" x="42" y="9" onmousedown="handleZoom(evt,'out')"/>
                <use id="reset" xlink:href="#resetDef" x="30" y="36" onmousedown="handleReset()"/>
                <g id="arrowUp" xlink:href="#dirArrow" transform="translate(30 24)" onmousedown="handlePan(0,-1)">
                  <use xlink:href="#rim" fill="#404040">
                        <set attributeName="fill" to="#808080" begin="arrowUp.mouseover" end="arrowUp.mouseout"/>
                  </use>
                  <path fill="none" stroke="white" stroke-width="1.5" d="M0,-3.0v7 M-2.5,-0.5L0,-3.0L2.5,-0.5"/>
                </g>
                <g id="arrowRight" xlink:href="#dirArrow" transform="rotate(90) translate(36 -43)" onmousedown="handlePan(1,0)">
                  <use xlink:href="#rim" fill="#404040">
                        <set attributeName="fill" to="#808080" begin="arrowRight.mouseover" end="arrowRight.mouseout"/>
                  </use>
                  <path fill="none" stroke="white" stroke-width="1.5" d="M0,-3.0v7 M-2.5,-0.5L0,-3.0L2.5,-0.5"/>
                </g>
                <g id="arrowDown" xlink:href="#dirArrow" transform="rotate(180) translate(-30 -48)" onmousedown="handlePan(0,1)">
                  <use xlink:href="#rim" fill="#404040">
                        <set attributeName="fill" to="#808080" begin="arrowDown.mouseover" end="arrowDown.mouseout"/>
                  </use>
                  <path fill="none" stroke="white" stroke-width="1.5" d="M0,-3.0v7 M-2.5,-0.5L0,-3.0L2.5,-0.5"/>
                </g>
                <g id="arrowLeft" xlink:href="#dirArrow" transform="rotate(270) translate(-36 17)" onmousedown="handlePan(-1,0)">
                  <use xlink:href="#rim" fill="#404040">
                        <set attributeName="fill" to="#808080" begin="arrowLeft.mouseover" end="arrowLeft.mouseout"/>
                  </use>
                  <path fill="none" stroke="white" stroke-width="1.5" d="M0,-3.0v7 M-2.5,-0.5L0,-3.0L2.5,-0.5"/>
                </g>
        </g>
        <svg viewBox="0 0 15 15" width="100%" height="30px" preserveAspectRatio="xMaxYMin meet">
         <g id="arrow_out" transform="scale(0.3 0.3)">
          <a xlink:href="_i_plug_v_s_t3_8h__incl_org.svg" target="_base">
           <rect id="button" ry="5" rx="5" y="6" x="6" height="38" width="38"
                fill="#f2f5e9" fill-opacity="0.5" stroke="#606060" stroke-width="1.0"/>
           <path id="arrow"
             d="M 11.500037,31.436501 C 11.940474,20.09759 22.043105,11.32322 32.158766,21.979434 L 37.068811,17.246167 C 37.068811,17.246167 37.088388,32 37.088388,32 L 22.160133,31.978069 C 22.160133,31.978069 26.997745,27.140456 26.997745,27.140456 C 18.528582,18.264221 13.291696,25.230495 11.500037,31.436501 z"
             style="fill:#404040;"/>
          </a>
         </g>
        </svg>
</svg>
