<?xml version="1.0" encoding="UTF-8" standalone="no"?>
<!DOCTYPE svg PUBLIC "-//W3C//DTD SVG 1.1//EN"
 "http://www.w3.org/Graphics/SVG/1.1/DTD/svg11.dtd">
<!-- Generated by graphviz version 2.36.0 (20140111.2315)
 -->
<!-- Title: IPlugAAX.h Pages: 1 -->
<!--zoomable 476 -->
<svg id="main" version="1.1" xmlns="http://www.w3.org/2000/svg" xmlns:xlink="http://www.w3.org/1999/xlink" xml:space="preserve" onload="init(evt)">
<style type="text/css"><![CDATA[
.edge:hover path { stroke: red; }
.edge:hover polygon { stroke: red; fill: red; }
]]></style>
<script type="text/javascript"><![CDATA[
var edges = document.getElementsByTagName('g');
if (edges && edges.length) {
  for (var i=0;i<edges.length;i++) {
    if (edges[i].id.substr(0,4)=='edge') {
      edges[i].setAttribute('class','edge');
    }
  }
}
]]></script>
        <defs>
                <circle id="rim" cx="0" cy="0" r="7"/>
                <circle id="rim2" cx="0" cy="0" r="3.5"/>
                <g id="zoomPlus">
                        <use xlink:href="#rim" fill="#404040">
                                <set attributeName="fill" to="#808080" begin="zoomplus.mouseover" end="zoomplus.mouseout"/>
                        </use>
                        <path d="M-4,0h8M0,-4v8" fill="none" stroke="white" stroke-width="1.5" pointer-events="none"/>
                </g>
                <g id="zoomMin">
                        <use xlink:href="#rim" fill="#404040">
                                <set attributeName="fill" to="#808080" begin="zoomminus.mouseover" end="zoomminus.mouseout"/>
                        </use>
                        <path d="M-4,0h8" fill="none" stroke="white" stroke-width="1.5" pointer-events="none"/>
                </g>
                <g id="dirArrow">
                        <path fill="none" stroke="white" stroke-width="1.5" d="M0,-3.0v7 M-2.5,-0.5L0,-3.0L2.5,-0.5"/>
                </g>
               <g id="resetDef">
                       <use xlink:href="#rim2" fill="#404040">
                               <set attributeName="fill" to="#808080" begin="reset.mouseover" end="reset.mouseout"/>
                       </use>
               </g>
        </defs>

<script type="text/javascript">
var viewWidth = 1589;
var viewHeight = 476;
var sectionId = 'dynsection-0';
</script>
<script xlink:href="svgpan.js"/>
<svg id="graph" class="graph">
<g id="viewport">
<title>IPlugAAX.h</title>
<polygon fill="white" stroke="none" points="-4,4 -4,-472 1584.88,-472 1584.88,4 -4,4"/>
<!-- Node1 -->
<g id="node1" class="node"><title>Node1</title>
<polygon fill="#bfbfbf" stroke="black" points="1088.88,-448.5 1088.88,-467.5 1156.88,-467.5 1156.88,-448.5 1088.88,-448.5"/>
<text text-anchor="middle" x="1122.88" y="-455.5" font-family="Helvetica,sans-Serif" font-size="10.00">IPlugAAX.h</text>
</g>
<!-- Node2 -->
<g id="node2" class="node"><title>Node2</title>
<g id="a_node2"><a xlink:href="_i_plug_platform_8h.html" target="_top" xlink:title="Include to get consistently named preprocessor macros for different platforms and logging functionali...">
<polygon fill="white" stroke="black" points="697.885,-168.5 697.885,-187.5 781.885,-187.5 781.885,-168.5 697.885,-168.5"/>
<text text-anchor="middle" x="739.885" y="-175.5" font-family="Helvetica,sans-Serif" font-size="10.00">IPlugPlatform.h</text>
</a>
</g>
</g>
<!-- Node1&#45;&gt;Node2 -->
<g id="edge1" class="edge"><title>Node1&#45;&gt;Node2</title>
<path fill="none" stroke="midnightblue" d="M1088.88,-454.503C1058.15,-450.448 1013.75,-439.822 986.885,-412 965.98,-390.347 967.885,-377.098 967.885,-347 967.885,-347 967.885,-347 967.885,-289 967.885,-211.35 859.285,-188.487 791.987,-181.773"/>
<polygon fill="midnightblue" stroke="midnightblue" points="792.245,-178.282 781.969,-180.862 791.611,-185.253 792.245,-178.282"/>
</g>
<!-- Node17 -->
<g id="node17" class="node"><title>Node17</title>
<g id="a_node17"><a xlink:href="_i_plug_base__select_8h_source.html" target="_top" xlink:title="IPlugBase_select.h">
<polygon fill="white" stroke="black" points="791.385,-392.5 791.385,-411.5 892.385,-411.5 892.385,-392.5 791.385,-392.5"/>
<text text-anchor="middle" x="841.885" y="-399.5" font-family="Helvetica,sans-Serif" font-size="10.00">IPlugBase_select.h</text>
</a>
</g>
</g>
<!-- Node1&#45;&gt;Node17 -->
<g id="edge21" class="edge"><title>Node1&#45;&gt;Node17</title>
<path fill="none" stroke="midnightblue" d="M1088.71,-450.433C1040.83,-441.232 953.281,-424.407 896.359,-413.468"/>
<polygon fill="midnightblue" stroke="midnightblue" points="896.933,-410.015 886.452,-411.564 895.612,-416.889 896.933,-410.015"/>
</g>
<!-- Node31 -->
<g id="node31" class="node"><title>Node31</title>
<polygon fill="white" stroke="#bfbfbf" points="996.385,-392.5 996.385,-411.5 1119.38,-411.5 1119.38,-392.5 996.385,-392.5"/>
<text text-anchor="middle" x="1057.88" y="-399.5" font-family="Helvetica,sans-Serif" font-size="10.00">IPlugAAX_Parameters.h</text>
</g>
<!-- Node1&#45;&gt;Node31 -->
<g id="edge72" class="edge"><title>Node1&#45;&gt;Node31</title>
<path fill="none" stroke="midnightblue" d="M1112.44,-448.324C1102.74,-440.263 1088.07,-428.077 1076.39,-418.369"/>
<polygon fill="midnightblue" stroke="midnightblue" points="1078.45,-415.532 1068.52,-411.834 1073.97,-420.916 1078.45,-415.532"/>
</g>
<!-- Node32 -->
<g id="node32" class="node"><title>Node32</title>
<polygon fill="white" stroke="#bfbfbf" points="1137.88,-392.5 1137.88,-411.5 1239.88,-411.5 1239.88,-392.5 1137.88,-392.5"/>
<text text-anchor="middle" x="1188.88" y="-399.5" font-family="Helvetica,sans-Serif" font-size="10.00">AAX_CEffectGUI.h</text>
</g>
<!-- Node1&#45;&gt;Node32 -->
<g id="edge73" class="edge"><title>Node1&#45;&gt;Node32</title>
<path fill="none" stroke="midnightblue" d="M1133.49,-448.324C1143.34,-440.263 1158.24,-428.077 1170.1,-418.369"/>
<polygon fill="midnightblue" stroke="midnightblue" points="1172.56,-420.875 1178.09,-411.834 1168.13,-415.457 1172.56,-420.875"/>
</g>
<!-- Node33 -->
<g id="node33" class="node"><title>Node33</title>
<polygon fill="white" stroke="#bfbfbf" points="1257.88,-392.5 1257.88,-411.5 1425.88,-411.5 1425.88,-392.5 1257.88,-392.5"/>
<text text-anchor="middle" x="1341.88" y="-399.5" font-family="Helvetica,sans-Serif" font-size="10.00">AAX_Push8ByteStructAlignment.h</text>
</g>
<!-- Node1&#45;&gt;Node33 -->
<g id="edge74" class="edge"><title>Node1&#45;&gt;Node33</title>
<path fill="none" stroke="midnightblue" d="M1157.1,-448.562C1194.89,-439.245 1255.86,-424.212 1297.34,-413.983"/>
<polygon fill="midnightblue" stroke="midnightblue" points="1298.31,-417.349 1307.18,-411.556 1296.64,-410.552 1298.31,-417.349"/>
</g>
<!-- Node34 -->
<g id="node34" class="node"><title>Node34</title>
<polygon fill="white" stroke="#bfbfbf" points="1444.38,-392.5 1444.38,-411.5 1581.38,-411.5 1581.38,-392.5 1444.38,-392.5"/>
<text text-anchor="middle" x="1512.88" y="-399.5" font-family="Helvetica,sans-Serif" font-size="10.00">AAX_PopStructAlignment.h</text>
</g>
<!-- Node1&#45;&gt;Node34 -->
<g id="edge75" class="edge"><title>Node1&#45;&gt;Node34</title>
<path fill="none" stroke="midnightblue" d="M1157.15,-452.255C1220.47,-443.488 1357.01,-424.583 1441.3,-412.912"/>
<polygon fill="midnightblue" stroke="midnightblue" points="1441.89,-416.364 1451.31,-411.525 1440.93,-409.43 1441.89,-416.364"/>
</g>
<!-- Node3 -->
<g id="node3" class="node"><title>Node3</title>
<g id="a_node3"><a xlink:href="_i_plug_logger_8h.html" target="_top" xlink:title="IPlug Logging functionailty To trace some arbitrary data: Trace(TRACELOC, &quot;%s:%d&quot;, myStr, myInt); To simply create a trace entry in the log: TRACE; No need to wrap tracer calls in #ifdef TRACER_BUILD because Trace is a no&#45;op unless TRACER_BUILD is defined. ">
<polygon fill="white" stroke="black" points="597.385,-112.5 597.385,-131.5 674.385,-131.5 674.385,-112.5 597.385,-112.5"/>
<text text-anchor="middle" x="635.885" y="-119.5" font-family="Helvetica,sans-Serif" font-size="10.00">IPlugLogger.h</text>
</a>
</g>
</g>
<!-- Node2&#45;&gt;Node3 -->
<g id="edge2" class="edge"><title>Node2&#45;&gt;Node3</title>
<path fill="none" stroke="midnightblue" d="M723.175,-168.324C706.573,-159.703 680.883,-146.364 661.664,-136.386"/>
<polygon fill="midnightblue" stroke="midnightblue" points="663.041,-133.156 652.553,-131.655 659.815,-139.369 663.041,-133.156"/>
</g>
<!-- Node4 -->
<g id="node4" class="node"><title>Node4</title>
<polygon fill="white" stroke="#bfbfbf" points="448.385,-0.5 448.385,-19.5 491.385,-19.5 491.385,-0.5 448.385,-0.5"/>
<text text-anchor="middle" x="469.885" y="-7.5" font-family="Helvetica,sans-Serif" font-size="10.00">cstdio</text>
</g>
<!-- Node3&#45;&gt;Node4 -->
<g id="edge3" class="edge"><title>Node3&#45;&gt;Node4</title>
<path fill="none" stroke="midnightblue" d="M633.7,-112.085C629.835,-98.1533 620.489,-71.2431 602.885,-56 594.989,-49.1633 538.054,-31.3115 501.281,-20.2576"/>
<polygon fill="midnightblue" stroke="midnightblue" points="502.084,-16.8449 491.501,-17.335 500.08,-23.5518 502.084,-16.8449"/>
</g>
<!-- Node5 -->
<g id="node5" class="node"><title>Node5</title>
<polygon fill="white" stroke="#bfbfbf" points="785.885,-0.5 785.885,-19.5 831.885,-19.5 831.885,-0.5 785.885,-0.5"/>
<text text-anchor="middle" x="808.885" y="-7.5" font-family="Helvetica,sans-Serif" font-size="10.00">cctype</text>
</g>
<!-- Node3&#45;&gt;Node5 -->
<g id="edge4" class="edge"><title>Node3&#45;&gt;Node5</title>
<path fill="none" stroke="midnightblue" d="M666.015,-112.41C689.104,-104.972 721.102,-92.7614 745.885,-76 765.72,-62.5844 784.263,-42.1109 796.024,-27.7343"/>
<polygon fill="midnightblue" stroke="midnightblue" points="798.938,-29.6939 802.422,-19.6883 793.458,-25.3372 798.938,-29.6939"/>
</g>
<!-- Node6 -->
<g id="node6" class="node"><title>Node6</title>
<polygon fill="white" stroke="#bfbfbf" points="688.385,-56.5 688.385,-75.5 737.385,-75.5 737.385,-56.5 688.385,-56.5"/>
<text text-anchor="middle" x="712.885" y="-63.5" font-family="Helvetica,sans-Serif" font-size="10.00">cstdarg</text>
</g>
<!-- Node3&#45;&gt;Node6 -->
<g id="edge5" class="edge"><title>Node3&#45;&gt;Node6</title>
<path fill="none" stroke="midnightblue" d="M648.256,-112.324C660.043,-104.058 678.017,-91.4527 692.02,-81.6322"/>
<polygon fill="midnightblue" stroke="midnightblue" points="694.366,-84.2619 700.544,-75.6545 690.347,-78.5307 694.366,-84.2619"/>
</g>
<!-- Node7 -->
<g id="node7" class="node"><title>Node7</title>
<polygon fill="white" stroke="#bfbfbf" points="547.885,-56.5 547.885,-75.5 593.885,-75.5 593.885,-56.5 547.885,-56.5"/>
<text text-anchor="middle" x="570.885" y="-63.5" font-family="Helvetica,sans-Serif" font-size="10.00">cstdint</text>
</g>
<!-- Node3&#45;&gt;Node7 -->
<g id="edge6" class="edge"><title>Node3&#45;&gt;Node7</title>
<path fill="none" stroke="midnightblue" d="M625.441,-112.324C615.739,-104.263 601.069,-92.0765 589.385,-82.3695"/>
<polygon fill="midnightblue" stroke="midnightblue" points="591.447,-79.532 581.518,-75.8339 586.974,-84.9163 591.447,-79.532"/>
</g>
<!-- Node8 -->
<g id="node8" class="node"><title>Node8</title>
<polygon fill="white" stroke="#bfbfbf" points="979.885,-0.5 979.885,-19.5 1025.88,-19.5 1025.88,-0.5 979.885,-0.5"/>
<text text-anchor="middle" x="1002.88" y="-7.5" font-family="Helvetica,sans-Serif" font-size="10.00">cstring</text>
</g>
<!-- Node3&#45;&gt;Node8 -->
<g id="edge7" class="edge"><title>Node3&#45;&gt;Node8</title>
<path fill="none" stroke="midnightblue" d="M674.473,-119.892C750.864,-117.037 918.023,-107.299 964.885,-76 981.154,-65.1337 991.389,-44.7551 997.084,-29.7013"/>
<polygon fill="midnightblue" stroke="midnightblue" points="1000.51,-30.4877 1000.45,-19.8931 993.894,-28.2155 1000.51,-30.4877"/>
</g>
<!-- Node9 -->
<g id="node9" class="node"><title>Node9</title>
<polygon fill="white" stroke="#bfbfbf" points="344.385,-56.5 344.385,-75.5 385.385,-75.5 385.385,-56.5 344.385,-56.5"/>
<text text-anchor="middle" x="364.885" y="-63.5" font-family="Helvetica,sans-Serif" font-size="10.00">ctime</text>
</g>
<!-- Node3&#45;&gt;Node9 -->
<g id="edge8" class="edge"><title>Node3&#45;&gt;Node9</title>
<path fill="none" stroke="midnightblue" d="M597.345,-113.32C543.048,-102.501 445.129,-82.9896 395.5,-73.1005"/>
<polygon fill="midnightblue" stroke="midnightblue" points="396.167,-69.6647 385.676,-71.1429 394.799,-76.5297 396.167,-69.6647"/>
</g>
<!-- Node10 -->
<g id="node10" class="node"><title>Node10</title>
<polygon fill="white" stroke="#bfbfbf" points="480.385,-56.5 480.385,-75.5 529.385,-75.5 529.385,-56.5 480.385,-56.5"/>
<text text-anchor="middle" x="504.885" y="-63.5" font-family="Helvetica,sans-Serif" font-size="10.00">cassert</text>
</g>
<!-- Node3&#45;&gt;Node10 -->
<g id="edge9" class="edge"><title>Node3&#45;&gt;Node10</title>
<path fill="none" stroke="midnightblue" d="M615.127,-112.444C593.568,-103.557 559.621,-89.5632 535.091,-79.4514"/>
<polygon fill="midnightblue" stroke="midnightblue" points="536.124,-76.0917 525.545,-75.5164 533.456,-82.5634 536.124,-76.0917"/>
</g>
<!-- Node11 -->
<g id="node11" class="node"><title>Node11</title>
<polygon fill="white" stroke="#bfbfbf" points="793.885,-56.5 793.885,-75.5 857.885,-75.5 857.885,-56.5 793.885,-56.5"/>
<text text-anchor="middle" x="825.885" y="-63.5" font-family="Helvetica,sans-Serif" font-size="10.00">wdlstring.h</text>
</g>
<!-- Node3&#45;&gt;Node11 -->
<g id="edge10" class="edge"><title>Node3&#45;&gt;Node11</title>
<path fill="none" stroke="midnightblue" d="M665.991,-112.444C698.511,-103.201 750.463,-88.4356 786.276,-78.2572"/>
<polygon fill="midnightblue" stroke="midnightblue" points="787.257,-81.617 795.92,-75.5164 785.344,-74.8837 787.257,-81.617"/>
</g>
<!-- Node12 -->
<g id="node12" class="node"><title>Node12</title>
<polygon fill="white" stroke="#bfbfbf" points="1049.88,-56.5 1049.88,-75.5 1101.88,-75.5 1101.88,-56.5 1049.88,-56.5"/>
<text text-anchor="middle" x="1075.88" y="-63.5" font-family="Helvetica,sans-Serif" font-size="10.00">mutex.h</text>
</g>
<!-- Node3&#45;&gt;Node12 -->
<g id="edge11" class="edge"><title>Node3&#45;&gt;Node12</title>
<path fill="none" stroke="midnightblue" d="M674.546,-116.255C758.722,-105.924 957.593,-81.5176 1039.58,-71.4556"/>
<polygon fill="midnightblue" stroke="midnightblue" points="1040.17,-74.9097 1049.67,-70.2176 1039.32,-67.9618 1040.17,-74.9097"/>
</g>
<!-- Node13 -->
<g id="node13" class="node"><title>Node13</title>
<g id="a_node13"><a xlink:href="_i_plug_constants_8h.html" target="_top" xlink:title="Constant definitions, magic numbers. ">
<polygon fill="white" stroke="black" points="509.885,-0.5 509.885,-19.5 601.885,-19.5 601.885,-0.5 509.885,-0.5"/>
<text text-anchor="middle" x="555.885" y="-7.5" font-family="Helvetica,sans-Serif" font-size="10.00">IPlugConstants.h</text>
</a>
</g>
</g>
<!-- Node3&#45;&gt;Node13 -->
<g id="edge12" class="edge"><title>Node3&#45;&gt;Node13</title>
<path fill="none" stroke="midnightblue" d="M638.484,-112.29C641.879,-99.1025 646.253,-73.7288 635.885,-56 627.024,-40.8495 610.979,-30.406 595.573,-23.4236"/>
<polygon fill="midnightblue" stroke="midnightblue" points="596.71,-20.1064 586.132,-19.5122 594.031,-26.5733 596.71,-20.1064"/>
</g>
<!-- Node14 -->
<g id="node14" class="node"><title>Node14</title>
<g id="a_node14"><a xlink:href="_i_plug_utilities_8h.html" target="_top" xlink:title="Utility functions and macros. ">
<polygon fill="white" stroke="black" points="875.885,-56.5 875.885,-75.5 955.885,-75.5 955.885,-56.5 875.885,-56.5"/>
<text text-anchor="middle" x="915.885" y="-63.5" font-family="Helvetica,sans-Serif" font-size="10.00">IPlugUtilities.h</text>
</a>
</g>
</g>
<!-- Node3&#45;&gt;Node14 -->
<g id="edge13" class="edge"><title>Node3&#45;&gt;Node14</title>
<path fill="none" stroke="midnightblue" d="M674.524,-113.548C724.378,-103.933 811.195,-87.1902 865.991,-76.6225"/>
<polygon fill="midnightblue" stroke="midnightblue" points="866.677,-80.0546 875.833,-74.7242 865.351,-73.1813 866.677,-80.0546"/>
</g>
<!-- Node14&#45;&gt;Node2 -->
<g id="edge20" class="edge"><title>Node14&#45;&gt;Node2</title>
<path fill="none" stroke="midnightblue" d="M901.143,-75.6598C885.959,-84.6229 861.648,-99.0941 840.885,-112 813.241,-129.183 781.758,-149.577 761.395,-162.879"/>
<polygon fill="midnightblue" stroke="midnightblue" points="759.327,-160.05 752.876,-168.454 763.16,-165.907 759.327,-160.05"/>
</g>
<!-- Node14&#45;&gt;Node4 -->
<g id="edge15" class="edge"><title>Node14&#45;&gt;Node4</title>
<path fill="none" stroke="midnightblue" d="M875.818,-57.3589C872.8,-56.8697 869.797,-56.4099 866.885,-56 708.348,-33.6834 663.226,-50.2085 501.739,-19.7831"/>
<polygon fill="midnightblue" stroke="midnightblue" points="501.921,-16.2543 491.441,-17.8095 500.603,-23.1292 501.921,-16.2543"/>
</g>
<!-- Node14&#45;&gt;Node5 -->
<g id="edge18" class="edge"><title>Node14&#45;&gt;Node5</title>
<path fill="none" stroke="midnightblue" d="M898.693,-56.324C881.534,-47.6641 854.939,-34.2424 835.137,-24.249"/>
<polygon fill="midnightblue" stroke="midnightblue" points="836.538,-21.0354 826.034,-19.6545 833.384,-27.2847 836.538,-21.0354"/>
</g>
<!-- Node14&#45;&gt;Node8 -->
<g id="edge17" class="edge"><title>Node14&#45;&gt;Node8</title>
<path fill="none" stroke="midnightblue" d="M929.863,-56.324C943.434,-47.9002 964.265,-34.9709 980.21,-25.0741"/>
<polygon fill="midnightblue" stroke="midnightblue" points="982.291,-27.9019 988.941,-19.6545 978.599,-21.9544 982.291,-27.9019"/>
</g>
<!-- Node14&#45;&gt;Node13 -->
<g id="edge19" class="edge"><title>Node14&#45;&gt;Node13</title>
<path fill="none" stroke="midnightblue" d="M875.795,-57.5086C872.782,-56.9848 869.787,-56.4763 866.885,-56 778.024,-41.4159 674.461,-26.9308 612.097,-18.4801"/>
<polygon fill="midnightblue" stroke="midnightblue" points="612.453,-14.9964 602.075,-17.1258 611.516,-21.9334 612.453,-14.9964"/>
</g>
<!-- Node15 -->
<g id="node15" class="node"><title>Node15</title>
<polygon fill="white" stroke="#bfbfbf" points="224.885,-0.5 224.885,-19.5 268.885,-19.5 268.885,-0.5 224.885,-0.5"/>
<text text-anchor="middle" x="246.885" y="-7.5" font-family="Helvetica,sans-Serif" font-size="10.00">cmath</text>
</g>
<!-- Node14&#45;&gt;Node15 -->
<g id="edge14" class="edge"><title>Node14&#45;&gt;Node15</title>
<path fill="none" stroke="midnightblue" d="M875.829,-57.2747C872.808,-56.805 869.802,-56.3726 866.885,-56 751.368,-41.244 389.993,-19.3864 279.383,-12.8877"/>
<polygon fill="midnightblue" stroke="midnightblue" points="279.373,-9.38122 269.186,-12.2904 278.964,-16.3692 279.373,-9.38122"/>
</g>
<!-- Node16 -->
<g id="node16" class="node"><title>Node16</title>
<polygon fill="white" stroke="#bfbfbf" points="893.385,-0.5 893.385,-19.5 938.385,-19.5 938.385,-0.5 893.385,-0.5"/>
<text text-anchor="middle" x="915.885" y="-7.5" font-family="Helvetica,sans-Serif" font-size="10.00">cstdlib</text>
</g>
<!-- Node14&#45;&gt;Node16 -->
<g id="edge16" class="edge"><title>Node14&#45;&gt;Node16</title>
<path fill="none" stroke="midnightblue" d="M915.885,-56.083C915.885,-49.0059 915.885,-38.8611 915.885,-29.9865"/>
<polygon fill="midnightblue" stroke="midnightblue" points="919.385,-29.751 915.885,-19.7511 912.385,-29.7511 919.385,-29.751"/>
</g>
<!-- Node18 -->
<g id="node18" class="node"><title>Node18</title>
<g id="a_node18"><a xlink:href="_i_plug_base_graphics_8h.html" target="_top" xlink:title="An IPlugBase class for an IPlug plug&#45;in that uses IGraphics for it&#39;s UI. ">
<polygon fill="white" stroke="black" points="741.385,-336.5 741.385,-355.5 850.385,-355.5 850.385,-336.5 741.385,-336.5"/>
<text text-anchor="middle" x="795.885" y="-343.5" font-family="Helvetica,sans-Serif" font-size="10.00">IPlugBaseGraphics.h</text>
</a>
</g>
</g>
<!-- Node17&#45;&gt;Node18 -->
<g id="edge22" class="edge"><title>Node17&#45;&gt;Node18</title>
<path fill="none" stroke="midnightblue" d="M834.289,-392.083C827.657,-384.298 817.864,-372.801 809.827,-363.367"/>
<polygon fill="midnightblue" stroke="midnightblue" points="812.488,-361.094 803.339,-355.751 807.16,-365.633 812.488,-361.094"/>
</g>
<!-- Node25 -->
<g id="node25" class="node"><title>Node25</title>
<g id="a_node25"><a xlink:href="_i_plug_processor_8h.html" target="_top" xlink:title="The base class for IPlug Audio Processing. ">
<polygon fill="white" stroke="black" points="285.885,-280.5 285.885,-299.5 377.885,-299.5 377.885,-280.5 285.885,-280.5"/>
<text text-anchor="middle" x="331.885" y="-287.5" font-family="Helvetica,sans-Serif" font-size="10.00">IPlugProcessor.h</text>
</a>
</g>
</g>
<!-- Node17&#45;&gt;Node25 -->
<g id="edge45" class="edge"><title>Node17&#45;&gt;Node25</title>
<path fill="none" stroke="midnightblue" d="M802.29,-392.46C710.313,-372.622 482.381,-323.46 381.398,-301.679"/>
<polygon fill="midnightblue" stroke="midnightblue" points="381.967,-298.222 371.454,-299.535 380.491,-305.064 381.967,-298.222"/>
</g>
<!-- Node30 -->
<g id="node30" class="node"><title>Node30</title>
<g id="a_node30"><a xlink:href="_i_plug_presets_8h.html" target="_top" xlink:title="IPlugPresets.h">
<polygon fill="white" stroke="black" points="999.385,-280.5 999.385,-299.5 1080.38,-299.5 1080.38,-280.5 999.385,-280.5"/>
<text text-anchor="middle" x="1039.88" y="-287.5" font-family="Helvetica,sans-Serif" font-size="10.00">IPlugPresets.h</text>
</a>
</g>
</g>
<!-- Node17&#45;&gt;Node30 -->
<g id="edge62" class="edge"><title>Node17&#45;&gt;Node30</title>
<path fill="none" stroke="midnightblue" d="M857.422,-392.368C891.76,-373.292 974.325,-327.422 1015.58,-304.505"/>
<polygon fill="midnightblue" stroke="midnightblue" points="1017.38,-307.507 1024.42,-299.591 1013.98,-301.388 1017.38,-307.507"/>
</g>
<!-- Node19 -->
<g id="node19" class="node"><title>Node19</title>
<g id="a_node19"><a xlink:href="_i_plug_base_8h.html" target="_top" xlink:title="The lowest level base class of an IPlug plug&#45;in. ">
<polygon fill="white" stroke="black" points="742.885,-280.5 742.885,-299.5 812.885,-299.5 812.885,-280.5 742.885,-280.5"/>
<text text-anchor="middle" x="777.885" y="-287.5" font-family="Helvetica,sans-Serif" font-size="10.00">IPlugBase.h</text>
</a>
</g>
</g>
<!-- Node18&#45;&gt;Node19 -->
<g id="edge23" class="edge"><title>Node18&#45;&gt;Node19</title>
<path fill="none" stroke="midnightblue" d="M792.912,-336.083C790.501,-328.849 787.021,-318.409 784.017,-309.397"/>
<polygon fill="midnightblue" stroke="midnightblue" points="787.285,-308.131 780.802,-299.751 780.644,-310.345 787.285,-308.131"/>
</g>
<!-- Node19&#45;&gt;Node2 -->
<g id="edge28" class="edge"><title>Node19&#45;&gt;Node2</title>
<path fill="none" stroke="midnightblue" d="M774.903,-280.368C768.743,-262.537 754.496,-221.295 746.197,-197.272"/>
<polygon fill="midnightblue" stroke="midnightblue" points="749.426,-195.9 742.853,-187.591 742.81,-198.186 749.426,-195.9"/>
</g>
<!-- Node19&#45;&gt;Node7 -->
<g id="edge25" class="edge"><title>Node19&#45;&gt;Node7</title>
<path fill="none" stroke="midnightblue" d="M742.804,-283.163C715.764,-277.174 678.743,-265.571 652.885,-244 602.432,-201.912 581.356,-121.963 574.106,-85.709"/>
<polygon fill="midnightblue" stroke="midnightblue" points="577.491,-84.7666 572.218,-75.5768 570.609,-86.0487 577.491,-84.7666"/>
</g>
<!-- Node19&#45;&gt;Node8 -->
<g id="edge24" class="edge"><title>Node19&#45;&gt;Node8</title>
<path fill="none" stroke="midnightblue" d="M786.658,-280.225C795.497,-271.291 809.43,-256.95 820.885,-244 871.106,-187.223 871.536,-161.567 928.885,-112 952.413,-91.6644 970.784,-101.288 988.885,-76 998.438,-62.6535 1001.7,-44.0809 1002.71,-30.2048"/>
<polygon fill="midnightblue" stroke="midnightblue" points="1006.22,-30.0018 1003.12,-19.8714 999.225,-29.7253 1006.22,-30.0018"/>
</g>
<!-- Node19&#45;&gt;Node12 -->
<g id="edge27" class="edge"><title>Node19&#45;&gt;Node12</title>
<path fill="none" stroke="midnightblue" d="M803.224,-280.367C822.484,-272.906 848.827,-260.686 867.885,-244 890.515,-224.187 889.77,-213.397 905.885,-188 926.916,-154.854 920.632,-137.014 950.885,-112 964.759,-100.528 1008.19,-86.3145 1039.98,-76.9683"/>
<polygon fill="midnightblue" stroke="midnightblue" points="1041.2,-80.2572 1049.83,-74.1145 1039.26,-73.5333 1041.2,-80.2572"/>
</g>
<!-- Node19&#45;&gt;Node13 -->
<g id="edge29" class="edge"><title>Node19&#45;&gt;Node13</title>
<path fill="none" stroke="midnightblue" d="M742.672,-286.776C673.707,-281.927 523.659,-268.797 478.885,-244 392.855,-196.355 369.004,-168.233 334.885,-76 331.801,-67.6632 329.261,-62.8839 334.885,-56 340.153,-49.5506 436.044,-31.7958 499.768,-20.6125"/>
<polygon fill="midnightblue" stroke="midnightblue" points="500.452,-24.0461 509.7,-18.8768 499.247,-17.1506 500.452,-24.0461"/>
</g>
<!-- Node19&#45;&gt;Node14 -->
<g id="edge40" class="edge"><title>Node19&#45;&gt;Node14</title>
<path fill="none" stroke="midnightblue" d="M782.224,-280.214C795.381,-253.854 836.528,-173.472 878.885,-112 885.7,-102.11 894.153,-91.7124 901.259,-83.4063"/>
<polygon fill="midnightblue" stroke="midnightblue" points="904.118,-85.454 908.051,-75.6165 898.841,-80.8537 904.118,-85.454"/>
</g>
<!-- Node20 -->
<g id="node20" class="node"><title>Node20</title>
<polygon fill="white" stroke="#bfbfbf" points="662.385,-224.5 662.385,-243.5 711.385,-243.5 711.385,-224.5 662.385,-224.5"/>
<text text-anchor="middle" x="686.885" y="-231.5" font-family="Helvetica,sans-Serif" font-size="10.00">ptrlist.h</text>
</g>
<!-- Node19&#45;&gt;Node20 -->
<g id="edge26" class="edge"><title>Node19&#45;&gt;Node20</title>
<path fill="none" stroke="midnightblue" d="M763.264,-280.324C748.936,-271.822 726.872,-258.729 710.136,-248.797"/>
<polygon fill="midnightblue" stroke="midnightblue" points="711.855,-245.748 701.469,-243.655 708.283,-251.768 711.855,-245.748"/>
</g>
<!-- Node21 -->
<g id="node21" class="node"><title>Node21</title>
<g id="a_node21"><a xlink:href="_i_plug_structs_8h_source.html" target="_top" xlink:title="IPlugStructs.h">
<polygon fill="white" stroke="black" points="488.385,-224.5 488.385,-243.5 567.385,-243.5 567.385,-224.5 488.385,-224.5"/>
<text text-anchor="middle" x="527.885" y="-231.5" font-family="Helvetica,sans-Serif" font-size="10.00">IPlugStructs.h</text>
</a>
</g>
</g>
<!-- Node19&#45;&gt;Node21 -->
<g id="edge30" class="edge"><title>Node19&#45;&gt;Node21</title>
<path fill="none" stroke="midnightblue" d="M742.86,-281.435C699.828,-272.14 626.532,-256.308 577.661,-245.752"/>
<polygon fill="midnightblue" stroke="midnightblue" points="578.136,-242.274 567.623,-243.583 576.658,-249.116 578.136,-242.274"/>
</g>
<!-- Node24 -->
<g id="node24" class="node"><title>Node24</title>
<g id="a_node24"><a xlink:href="_i_plug_parameter_8h_source.html" target="_top" xlink:title="IPlugParameter.h">
<polygon fill="white" stroke="black" points="959.885,-112.5 959.885,-131.5 1051.88,-131.5 1051.88,-112.5 959.885,-112.5"/>
<text text-anchor="middle" x="1005.88" y="-119.5" font-family="Helvetica,sans-Serif" font-size="10.00">IPlugParameter.h</text>
</a>
</g>
</g>
<!-- Node19&#45;&gt;Node24 -->
<g id="edge41" class="edge"><title>Node19&#45;&gt;Node24</title>
<path fill="none" stroke="midnightblue" d="M813.054,-287.601C849.461,-284.446 906.186,-274.548 943.885,-244 976.941,-217.214 994.184,-168.161 1001.49,-141.477"/>
<polygon fill="midnightblue" stroke="midnightblue" points="1004.95,-142.096 1004.04,-131.541 998.167,-140.361 1004.95,-142.096"/>
</g>
<!-- Node21&#45;&gt;Node2 -->
<g id="edge34" class="edge"><title>Node21&#45;&gt;Node2</title>
<path fill="none" stroke="midnightblue" d="M561.477,-224.444C598.072,-215.122 656.723,-200.183 696.71,-189.997"/>
<polygon fill="midnightblue" stroke="midnightblue" points="697.623,-193.377 706.45,-187.516 695.895,-186.593 697.623,-193.377"/>
</g>
<!-- Node21&#45;&gt;Node11 -->
<g id="edge32" class="edge"><title>Node21&#45;&gt;Node11</title>
<path fill="none" stroke="midnightblue" d="M543.487,-224.309C592.267,-197.136 742.164,-113.636 801.417,-80.6297"/>
<polygon fill="midnightblue" stroke="midnightblue" points="803.404,-83.5292 810.437,-75.6051 799.998,-77.4139 803.404,-83.5292"/>
</g>
<!-- Node21&#45;&gt;Node13 -->
<g id="edge33" class="edge"><title>Node21&#45;&gt;Node13</title>
<path fill="none" stroke="midnightblue" d="M519.566,-224.29C494.988,-197.473 426.685,-114.438 463.885,-56 473.862,-40.3268 491.022,-29.9511 507.839,-23.1596"/>
<polygon fill="midnightblue" stroke="midnightblue" points="509.461,-26.2925 517.644,-19.562 507.05,-19.7208 509.461,-26.2925"/>
</g>
<!-- Node22 -->
<g id="node22" class="node"><title>Node22</title>
<polygon fill="white" stroke="#bfbfbf" points="511.885,-168.5 511.885,-187.5 567.885,-187.5 567.885,-168.5 511.885,-168.5"/>
<text text-anchor="middle" x="539.885" y="-175.5" font-family="Helvetica,sans-Serif" font-size="10.00">algorithm</text>
</g>
<!-- Node21&#45;&gt;Node22 -->
<g id="edge31" class="edge"><title>Node21&#45;&gt;Node22</title>
<path fill="none" stroke="midnightblue" d="M529.866,-224.083C531.457,-216.927 533.744,-206.635 535.731,-197.691"/>
<polygon fill="midnightblue" stroke="midnightblue" points="539.187,-198.272 537.94,-187.751 532.354,-196.754 539.187,-198.272"/>
</g>
<!-- Node23 -->
<g id="node23" class="node"><title>Node23</title>
<g id="a_node23"><a xlink:href="_i_plug_midi_8h_source.html" target="_top" xlink:title="IPlugMidi.h">
<polygon fill="white" stroke="black" points="472.385,-112.5 472.385,-131.5 537.385,-131.5 537.385,-112.5 472.385,-112.5"/>
<text text-anchor="middle" x="504.885" y="-119.5" font-family="Helvetica,sans-Serif" font-size="10.00">IPlugMidi.h</text>
</a>
</g>
</g>
<!-- Node21&#45;&gt;Node23 -->
<g id="edge35" class="edge"><title>Node21&#45;&gt;Node23</title>
<path fill="none" stroke="midnightblue" d="M521.256,-224.275C515.12,-215.607 506.427,-201.669 502.885,-188 498.942,-172.785 499.879,-154.895 501.555,-141.739"/>
<polygon fill="midnightblue" stroke="midnightblue" points="505.056,-141.999 503.113,-131.583 498.137,-140.937 505.056,-141.999"/>
</g>
<!-- Node23&#45;&gt;Node7 -->
<g id="edge37" class="edge"><title>Node23&#45;&gt;Node7</title>
<path fill="none" stroke="midnightblue" d="M515.489,-112.324C525.341,-104.263 540.236,-92.0765 552.1,-82.3695"/>
<polygon fill="midnightblue" stroke="midnightblue" points="554.565,-84.8752 560.088,-75.8339 550.132,-79.4575 554.565,-84.8752"/>
</g>
<!-- Node23&#45;&gt;Node10 -->
<g id="edge36" class="edge"><title>Node23&#45;&gt;Node10</title>
<path fill="none" stroke="midnightblue" d="M504.885,-112.083C504.885,-105.006 504.885,-94.8611 504.885,-85.9865"/>
<polygon fill="midnightblue" stroke="midnightblue" points="508.385,-85.751 504.885,-75.7511 501.385,-85.7511 508.385,-85.751"/>
</g>
<!-- Node23&#45;&gt;Node13 -->
<g id="edge38" class="edge"><title>Node23&#45;&gt;Node13</title>
<path fill="none" stroke="midnightblue" d="M494.548,-112.408C480.673,-99.7955 459.061,-75.6387 470.885,-56 480.172,-40.5744 496.718,-30.1596 512.758,-23.2713"/>
<polygon fill="midnightblue" stroke="midnightblue" points="514.055,-26.5224 522.086,-19.6119 511.498,-20.006 514.055,-26.5224"/>
</g>
<!-- Node23&#45;&gt;Node14 -->
<g id="edge39" class="edge"><title>Node23&#45;&gt;Node14</title>
<path fill="none" stroke="midnightblue" d="M537.403,-117.203C610.603,-108.618 787.422,-87.6581 865.854,-76.0606"/>
<polygon fill="midnightblue" stroke="midnightblue" points="866.441,-79.5118 875.805,-74.557 865.395,-72.5903 866.441,-79.5118"/>
</g>
<!-- Node24&#45;&gt;Node8 -->
<g id="edge42" class="edge"><title>Node24&#45;&gt;Node8</title>
<path fill="none" stroke="midnightblue" d="M1047.13,-112.475C1084.14,-102.797 1129.91,-84.5418 1110.88,-56 1094.35,-31.1931 1061.27,-20.0394 1036.06,-15.0376"/>
<polygon fill="midnightblue" stroke="midnightblue" points="1036.6,-11.5796 1026.15,-13.3009 1035.39,-18.4746 1036.6,-11.5796"/>
</g>
<!-- Node24&#45;&gt;Node11 -->
<g id="edge43" class="edge"><title>Node24&#45;&gt;Node11</title>
<path fill="none" stroke="midnightblue" d="M977.363,-112.444C946.818,-103.28 898.177,-88.6876 864.282,-78.5192"/>
<polygon fill="midnightblue" stroke="midnightblue" points="864.857,-75.0376 854.273,-75.5164 862.845,-81.7424 864.857,-75.0376"/>
</g>
<!-- Node24&#45;&gt;Node14 -->
<g id="edge44" class="edge"><title>Node24&#45;&gt;Node14</title>
<path fill="none" stroke="midnightblue" d="M991.425,-112.324C977.385,-103.9 955.836,-90.9709 939.342,-81.0741"/>
<polygon fill="midnightblue" stroke="midnightblue" points="940.685,-77.7983 930.309,-75.6545 937.083,-83.8007 940.685,-77.7983"/>
</g>
<!-- Node25&#45;&gt;Node2 -->
<g id="edge49" class="edge"><title>Node25&#45;&gt;Node2</title>
<path fill="none" stroke="midnightblue" d="M377.92,-283.24C427.441,-276.414 508.196,-263.454 575.885,-244 625.235,-229.816 680.286,-206.332 712.404,-191.812"/>
<polygon fill="midnightblue" stroke="midnightblue" points="713.959,-194.95 721.604,-187.614 711.053,-188.582 713.959,-194.95"/>
</g>
<!-- Node25&#45;&gt;Node7 -->
<g id="edge47" class="edge"><title>Node25&#45;&gt;Node7</title>
<path fill="none" stroke="midnightblue" d="M331.214,-280.381C330.014,-259.049 329.716,-202.985 355.885,-168 379.081,-136.989 483.959,-97.1193 538.186,-78.0797"/>
<polygon fill="midnightblue" stroke="midnightblue" points="539.395,-81.3648 547.69,-74.7738 537.095,-74.7533 539.395,-81.3648"/>
</g>
<!-- Node25&#45;&gt;Node8 -->
<g id="edge46" class="edge"><title>Node25&#45;&gt;Node8</title>
<path fill="none" stroke="midnightblue" d="M328.345,-280.238C315.121,-245.927 272.493,-119.469 334.885,-56 382.637,-7.42325 879.172,-27.4138 946.885,-20 954.355,-19.1821 962.347,-18.0521 969.887,-16.8688"/>
<polygon fill="midnightblue" stroke="midnightblue" points="970.494,-20.3161 979.797,-15.2463 969.363,-13.4081 970.494,-20.3161"/>
</g>
<!-- Node25&#45;&gt;Node13 -->
<g id="edge50" class="edge"><title>Node25&#45;&gt;Node13</title>
<path fill="none" stroke="midnightblue" d="M285.616,-281.991C244.296,-274.673 188.281,-261.775 174.885,-244 151.334,-212.75 101.423,-171.371 263.885,-56 347.859,3.6332 392.407,-34.0546 499.842,-19.875"/>
<polygon fill="midnightblue" stroke="midnightblue" points="500.347,-23.3384 509.745,-18.4453 499.347,-16.4103 500.347,-23.3384"/>
</g>
<!-- Node25&#45;&gt;Node14 -->
<g id="edge52" class="edge"><title>Node25&#45;&gt;Node14</title>
<path fill="none" stroke="midnightblue" d="M341.031,-280.347C365.28,-257.924 434.075,-197.63 502.885,-168 577.818,-135.734 603.538,-150.974 682.885,-132 752.185,-115.428 831.972,-92.271 877.906,-78.5369"/>
<polygon fill="midnightblue" stroke="midnightblue" points="879.155,-81.8162 887.727,-75.5894 877.143,-75.1116 879.155,-81.8162"/>
</g>
<!-- Node25&#45;&gt;Node20 -->
<g id="edge48" class="edge"><title>Node25&#45;&gt;Node20</title>
<path fill="none" stroke="midnightblue" d="M377.931,-281.996C449.905,-271.048 587.481,-250.121 651.938,-240.316"/>
<polygon fill="midnightblue" stroke="midnightblue" points="652.64,-243.749 662,-238.785 651.587,-236.829 652.64,-243.749"/>
</g>
<!-- Node25&#45;&gt;Node21 -->
<g id="edge51" class="edge"><title>Node25&#45;&gt;Node21</title>
<path fill="none" stroke="midnightblue" d="M362.942,-280.444C396.488,-271.201 450.082,-256.436 487.025,-246.257"/>
<polygon fill="midnightblue" stroke="midnightblue" points="488.262,-249.547 496.973,-243.516 486.403,-242.798 488.262,-249.547"/>
</g>
<!-- Node26 -->
<g id="node26" class="node"><title>Node26</title>
<g id="a_node26"><a xlink:href="_n_chan_delay_8h_source.html" target="_top" xlink:title="NChanDelay.h">
<polygon fill="white" stroke="black" points="184.385,-224.5 184.385,-243.5 265.385,-243.5 265.385,-224.5 184.385,-224.5"/>
<text text-anchor="middle" x="224.885" y="-231.5" font-family="Helvetica,sans-Serif" font-size="10.00">NChanDelay.h</text>
</a>
</g>
</g>
<!-- Node25&#45;&gt;Node26 -->
<g id="edge53" class="edge"><title>Node25&#45;&gt;Node26</title>
<path fill="none" stroke="midnightblue" d="M314.693,-280.324C297.534,-271.664 270.939,-258.242 251.137,-248.249"/>
<polygon fill="midnightblue" stroke="midnightblue" points="252.538,-245.035 242.034,-243.655 249.384,-251.285 252.538,-245.035"/>
</g>
<!-- Node27 -->
<g id="node27" class="node"><title>Node27</title>
<g id="a_node27"><a xlink:href="_i_plug_processor_8cpp_source.html" target="_top" xlink:title="IPlugProcessor.cpp">
<polygon fill="white" stroke="black" points="57.8848,-112.5 57.8848,-131.5 159.885,-131.5 159.885,-112.5 57.8848,-112.5"/>
<text text-anchor="middle" x="108.885" y="-119.5" font-family="Helvetica,sans-Serif" font-size="10.00">IPlugProcessor.cpp</text>
</a>
</g>
</g>
<!-- Node25&#45;&gt;Node27 -->
<g id="edge54" class="edge"><title>Node25&#45;&gt;Node27</title>
<path fill="none" stroke="midnightblue" d="M285.794,-284.36C233.783,-277.844 154.026,-264.441 132.885,-244 104.806,-216.851 99.8741,-168.342 102.534,-141.735"/>
<polygon fill="midnightblue" stroke="midnightblue" points="106,-142.221 104.093,-131.799 99.0847,-141.136 106,-142.221"/>
</g>
<!-- Node27&#45;&gt;Node4 -->
<g id="edge56" class="edge"><title>Node27&#45;&gt;Node4</title>
<path fill="none" stroke="midnightblue" d="M87.3871,-112.481C60.2206,-100.532 19.2356,-77.8075 38.8848,-56 52.2637,-41.1515 340.491,-19.9417 437.984,-13.1672"/>
<polygon fill="midnightblue" stroke="midnightblue" points="438.385,-16.648 448.12,-12.4673 437.903,-9.66464 438.385,-16.648"/>
</g>
<!-- Node27&#45;&gt;Node9 -->
<g id="edge57" class="edge"><title>Node27&#45;&gt;Node9</title>
<path fill="none" stroke="midnightblue" d="M149.449,-112.444C200.852,-101.601 288.293,-83.156 334.38,-73.4346"/>
<polygon fill="midnightblue" stroke="midnightblue" points="335.298,-76.818 344.36,-71.3294 333.853,-69.9688 335.298,-76.818"/>
</g>
<!-- Node27&#45;&gt;Node10 -->
<g id="edge58" class="edge"><title>Node27&#45;&gt;Node10</title>
<path fill="none" stroke="midnightblue" d="M160.249,-113.996C242.06,-102.84 399.859,-81.3217 469.911,-71.7691"/>
<polygon fill="midnightblue" stroke="midnightblue" points="470.548,-75.2147 479.984,-70.3956 469.603,-68.2789 470.548,-75.2147"/>
</g>
<!-- Node27&#45;&gt;Node15 -->
<g id="edge55" class="edge"><title>Node27&#45;&gt;Node15</title>
<path fill="none" stroke="midnightblue" d="M70.9863,-112.467C33.1242,-102.2 -16.4743,-82.9205 5.88479,-56 31.9982,-24.5593 154.561,-14.9663 214.167,-12.1355"/>
<polygon fill="midnightblue" stroke="midnightblue" points="214.69,-15.6161 224.527,-11.6819 214.383,-8.62276 214.69,-15.6161"/>
</g>
<!-- Node27&#45;&gt;Node25 -->
<g id="edge61" class="edge"><title>Node27&#45;&gt;Node25</title>
<path fill="none" stroke="midnightblue" d="M112.85,-131.799C116.937,-154.046 118.794,-212.973 150.885,-244 168.878,-261.397 229.33,-273.697 275.545,-280.991"/>
<polygon fill="midnightblue" stroke="midnightblue" points="275.05,-284.456 285.466,-282.516 276.114,-277.537 275.05,-284.456"/>
</g>
<!-- Node28 -->
<g id="node28" class="node"><title>Node28</title>
<polygon fill="white" stroke="#bfbfbf" points="47.8848,-56.5 47.8848,-75.5 115.885,-75.5 115.885,-56.5 47.8848,-56.5"/>
<text text-anchor="middle" x="81.8848" y="-63.5" font-family="Helvetica,sans-Serif" font-size="10.00">wdlendian.h</text>
</g>
<!-- Node27&#45;&gt;Node28 -->
<g id="edge59" class="edge"><title>Node27&#45;&gt;Node28</title>
<path fill="none" stroke="midnightblue" d="M104.426,-112.083C100.73,-104.691 95.3614,-93.9533 90.7903,-84.8111"/>
<polygon fill="midnightblue" stroke="midnightblue" points="93.863,-83.1301 86.2603,-75.7511 87.602,-86.2606 93.863,-83.1301"/>
</g>
<!-- Node29 -->
<g id="node29" class="node"><title>Node29</title>
<polygon fill="white" stroke="#bfbfbf" points="134.385,-56.5 134.385,-75.5 211.385,-75.5 211.385,-56.5 134.385,-56.5"/>
<text text-anchor="middle" x="172.885" y="-63.5" font-family="Helvetica,sans-Serif" font-size="10.00">wdl_base64.h</text>
</g>
<!-- Node27&#45;&gt;Node29 -->
<g id="edge60" class="edge"><title>Node27&#45;&gt;Node29</title>
<path fill="none" stroke="midnightblue" d="M119.168,-112.324C128.721,-104.263 143.164,-92.0765 154.669,-82.3695"/>
<polygon fill="midnightblue" stroke="midnightblue" points="157.029,-84.9577 162.415,-75.8339 152.515,-79.6076 157.029,-84.9577"/>
</g>
<!-- Node30&#45;&gt;Node2 -->
<g id="edge67" class="edge"><title>Node30&#45;&gt;Node2</title>
<path fill="none" stroke="midnightblue" d="M1002.32,-280.48C969.115,-272.499 919.615,-259.497 877.885,-244 837.201,-228.892 792.054,-206.491 764.83,-192.325"/>
<polygon fill="midnightblue" stroke="midnightblue" points="766.133,-189.056 755.652,-187.507 762.88,-195.254 766.133,-189.056"/>
</g>
<!-- Node30&#45;&gt;Node7 -->
<g id="edge64" class="edge"><title>Node30&#45;&gt;Node7</title>
<path fill="none" stroke="midnightblue" d="M1023.73,-280.425C973.721,-253.995 816.728,-171.957 682.885,-112 656.397,-100.134 625.787,-87.936 603.268,-79.2381"/>
<polygon fill="midnightblue" stroke="midnightblue" points="604.432,-75.936 593.842,-75.6191 601.923,-82.4709 604.432,-75.936"/>
</g>
<!-- Node30&#45;&gt;Node8 -->
<g id="edge63" class="edge"><title>Node30&#45;&gt;Node8</title>
<path fill="none" stroke="midnightblue" d="M1080.48,-283.306C1108.82,-277.533 1146.06,-266.14 1171.88,-244 1196.64,-222.781 1205.88,-211.602 1205.88,-179 1205.88,-179 1205.88,-179 1205.88,-121 1205.88,-44.7735 1093.87,-21.0961 1036.26,-13.9592"/>
<polygon fill="midnightblue" stroke="midnightblue" points="1036.5,-10.4647 1026.17,-12.8101 1035.71,-17.4197 1036.5,-10.4647"/>
</g>
<!-- Node30&#45;&gt;Node12 -->
<g id="edge66" class="edge"><title>Node30&#45;&gt;Node12</title>
<path fill="none" stroke="midnightblue" d="M1057.39,-280.465C1070.67,-272.917 1087.96,-260.533 1095.88,-244 1121.24,-191.096 1108.06,-169.389 1095.88,-112 1093.89,-102.591 1089.78,-92.7618 1085.81,-84.6981"/>
<polygon fill="midnightblue" stroke="midnightblue" points="1088.77,-82.8101 1081.01,-75.5932 1082.58,-86.0721 1088.77,-82.8101"/>
</g>
<!-- Node30&#45;&gt;Node13 -->
<g id="edge68" class="edge"><title>Node30&#45;&gt;Node13</title>
<path fill="none" stroke="midnightblue" d="M1065.15,-280.348C1081.96,-273.246 1103.06,-261.481 1114.88,-244 1161.72,-174.782 1171,-114.063 1110.88,-56 1093.12,-38.8381 749.828,-20.3904 612.225,-13.6538"/>
<polygon fill="midnightblue" stroke="midnightblue" points="612.057,-10.1416 601.899,-13.1514 611.717,-17.1333 612.057,-10.1416"/>
</g>
<!-- Node30&#45;&gt;Node14 -->
<g id="edge70" class="edge"><title>Node30&#45;&gt;Node14</title>
<path fill="none" stroke="midnightblue" d="M1044.77,-280.188C1059.48,-252.36 1099.98,-165.066 1060.88,-112 1039.37,-82.7982 999.09,-71.9879 966.434,-68.2346"/>
<polygon fill="midnightblue" stroke="midnightblue" points="966.42,-64.7174 956.133,-67.2496 965.754,-71.6856 966.42,-64.7174"/>
</g>
<!-- Node30&#45;&gt;Node20 -->
<g id="edge65" class="edge"><title>Node30&#45;&gt;Node20</title>
<path fill="none" stroke="midnightblue" d="M999.046,-282.753C929.077,-272.049 787.482,-250.389 721.804,-240.342"/>
<polygon fill="midnightblue" stroke="midnightblue" points="721.981,-236.828 711.566,-238.776 720.922,-243.748 721.981,-236.828"/>
</g>
<!-- Node30&#45;&gt;Node21 -->
<g id="edge69" class="edge"><title>Node30&#45;&gt;Node21</title>
<path fill="none" stroke="midnightblue" d="M999.281,-284.718C906.421,-274.924 678.794,-250.916 577.682,-240.252"/>
<polygon fill="midnightblue" stroke="midnightblue" points="577.746,-236.739 567.434,-239.171 577.012,-243.701 577.746,-236.739"/>
</g>
<!-- Node30&#45;&gt;Node24 -->
<g id="edge71" class="edge"><title>Node30&#45;&gt;Node24</title>
<path fill="none" stroke="midnightblue" d="M1038.88,-280.411C1036.46,-260.486 1029.75,-209.643 1019.88,-168 1017.76,-159.032 1014.79,-149.244 1012.14,-141.094"/>
<polygon fill="midnightblue" stroke="midnightblue" points="1015.43,-139.893 1008.92,-131.529 1008.79,-142.123 1015.43,-139.893"/>
</g>
</g>
</svg>
        <g id="navigator" transform="translate(0 0)" fill="#404254">
                <rect fill="#f2f5e9" fill-opacity="0.5" stroke="#606060" stroke-width=".5" x="0" y="0" width="60" height="60"/>
                <use id="zoomplus" xlink:href="#zoomPlus" x="17" y="9" onmousedown="handleZoom(evt,'in')"/>
                <use id="zoomminus" xlink:href="#zoomMin" x="42" y="9" onmousedown="handleZoom(evt,'out')"/>
                <use id="reset" xlink:href="#resetDef" x="30" y="36" onmousedown="handleReset()"/>
                <g id="arrowUp" xlink:href="#dirArrow" transform="translate(30 24)" onmousedown="handlePan(0,-1)">
                  <use xlink:href="#rim" fill="#404040">
                        <set attributeName="fill" to="#808080" begin="arrowUp.mouseover" end="arrowUp.mouseout"/>
                  </use>
                  <path fill="none" stroke="white" stroke-width="1.5" d="M0,-3.0v7 M-2.5,-0.5L0,-3.0L2.5,-0.5"/>
                </g>
                <g id="arrowRight" xlink:href="#dirArrow" transform="rotate(90) translate(36 -43)" onmousedown="handlePan(1,0)">
                  <use xlink:href="#rim" fill="#404040">
                        <set attributeName="fill" to="#808080" begin="arrowRight.mouseover" end="arrowRight.mouseout"/>
                  </use>
                  <path fill="none" stroke="white" stroke-width="1.5" d="M0,-3.0v7 M-2.5,-0.5L0,-3.0L2.5,-0.5"/>
                </g>
                <g id="arrowDown" xlink:href="#dirArrow" transform="rotate(180) translate(-30 -48)" onmousedown="handlePan(0,1)">
                  <use xlink:href="#rim" fill="#404040">
                        <set attributeName="fill" to="#808080" begin="arrowDown.mouseover" end="arrowDown.mouseout"/>
                  </use>
                  <path fill="none" stroke="white" stroke-width="1.5" d="M0,-3.0v7 M-2.5,-0.5L0,-3.0L2.5,-0.5"/>
                </g>
                <g id="arrowLeft" xlink:href="#dirArrow" transform="rotate(270) translate(-36 17)" onmousedown="handlePan(-1,0)">
                  <use xlink:href="#rim" fill="#404040">
                        <set attributeName="fill" to="#808080" begin="arrowLeft.mouseover" end="arrowLeft.mouseout"/>
                  </use>
                  <path fill="none" stroke="white" stroke-width="1.5" d="M0,-3.0v7 M-2.5,-0.5L0,-3.0L2.5,-0.5"/>
                </g>
        </g>
        <svg viewBox="0 0 15 15" width="100%" height="30px" preserveAspectRatio="xMaxYMin meet">
         <g id="arrow_out" transform="scale(0.3 0.3)">
          <a xlink:href="_i_plug_a_a_x_8h__incl_org.svg" target="_base">
           <rect id="button" ry="5" rx="5" y="6" x="6" height="38" width="38"
                fill="#f2f5e9" fill-opacity="0.5" stroke="#606060" stroke-width="1.0"/>
           <path id="arrow"
             d="M 11.500037,31.436501 C 11.940474,20.09759 22.043105,11.32322 32.158766,21.979434 L 37.068811,17.246167 C 37.068811,17.246167 37.088388,32 37.088388,32 L 22.160133,31.978069 C 22.160133,31.978069 26.997745,27.140456 26.997745,27.140456 C 18.528582,18.264221 13.291696,25.230495 11.500037,31.436501 z"
             style="fill:#404040;"/>
          </a>
         </g>
        </svg>
</svg>
