<?xml version="1.0" encoding="UTF-8" standalone="no"?>
<!DOCTYPE svg PUBLIC "-//W3C//DTD SVG 1.1//EN"
 "http://www.w3.org/Graphics/SVG/1.1/DTD/svg11.dtd">
<!-- Generated by graphviz version 2.36.0 (20140111.2315)
 -->
<!-- Title: IPlugPresets.h Pages: 1 -->
<svg width="652pt" height="196pt"
 viewBox="0.00 0.00 652.00 196.00" xmlns="http://www.w3.org/2000/svg" xmlns:xlink="http://www.w3.org/1999/xlink">
<g id="graph0" class="graph" transform="scale(1 1) rotate(0) translate(4 192)">
<title>IPlugPresets.h</title>
<polygon fill="white" stroke="none" points="-4,4 -4,-192 648,-192 648,4 -4,4"/>
<!-- Node1 -->
<g id="node1" class="node"><title>Node1</title>
<polygon fill="#bfbfbf" stroke="black" points="269.5,-168.5 269.5,-187.5 350.5,-187.5 350.5,-168.5 269.5,-168.5"/>
<text text-anchor="middle" x="310" y="-175.5" font-family="Helvetica,sans-Serif" font-size="10.00">IPlugPresets.h</text>
</g>
<!-- Node2 -->
<g id="node2" class="node"><title>Node2</title>
<g id="a_node2"><a xlink:href="_i_plug_base__select_8h_source.html" target="_top" xlink:title="IPlugBase_select.h">
<polygon fill="white" stroke="black" points="259.5,-112.5 259.5,-131.5 360.5,-131.5 360.5,-112.5 259.5,-112.5"/>
<text text-anchor="middle" x="310" y="-119.5" font-family="Helvetica,sans-Serif" font-size="10.00">IPlugBase_select.h</text>
</a>
</g>
</g>
<!-- Node1&#45;&gt;Node2 -->
<g id="edge1" class="edge"><title>Node1&#45;&gt;Node2</title>
<path fill="none" stroke="midnightblue" d="M310,-157.805C310,-148.91 310,-138.78 310,-131.751"/>
<polygon fill="midnightblue" stroke="midnightblue" points="306.5,-158.083 310,-168.083 313.5,-158.083 306.5,-158.083"/>
</g>
<!-- Node3 -->
<g id="node3" class="node"><title>Node3</title>
<g id="a_node3"><a xlink:href="_i_plug_a_a_x_8h.html" target="_top" xlink:title="AAX API base class for an IPlug plug&#45;in, inherits from IPlugBase or IPlugBaseGraphics. ">
<polygon fill="white" stroke="black" points="12,-56.5 12,-75.5 80,-75.5 80,-56.5 12,-56.5"/>
<text text-anchor="middle" x="46" y="-63.5" font-family="Helvetica,sans-Serif" font-size="10.00">IPlugAAX.h</text>
</a>
</g>
</g>
<!-- Node2&#45;&gt;Node3 -->
<g id="edge2" class="edge"><title>Node2&#45;&gt;Node3</title>
<path fill="none" stroke="midnightblue" d="M258.337,-110.432C205.622,-99.6499 125.321,-83.2248 80.0803,-73.971"/>
<polygon fill="midnightblue" stroke="midnightblue" points="257.67,-113.869 268.168,-112.444 259.073,-107.01 257.67,-113.869"/>
</g>
<!-- Node5 -->
<g id="node5" class="node"><title>Node5</title>
<g id="a_node5"><a xlink:href="_i_plug_a_p_p_8h.html" target="_top" xlink:title="Standalone application base class for an IPlug plug&#45;in, inherits from IPlugBase or IPlugBaseGraphics...">
<polygon fill="white" stroke="black" points="103,-56.5 103,-75.5 171,-75.5 171,-56.5 103,-56.5"/>
<text text-anchor="middle" x="137" y="-63.5" font-family="Helvetica,sans-Serif" font-size="10.00">IPlugAPP.h</text>
</a>
</g>
</g>
<!-- Node2&#45;&gt;Node5 -->
<g id="edge4" class="edge"><title>Node2&#45;&gt;Node5</title>
<path fill="none" stroke="midnightblue" d="M272.953,-109.436C240.336,-99.2551 193.59,-84.664 164.284,-75.5164"/>
<polygon fill="midnightblue" stroke="midnightblue" points="271.999,-112.805 282.588,-112.444 274.085,-106.123 271.999,-112.805"/>
</g>
<!-- Node7 -->
<g id="node7" class="node"><title>Node7</title>
<g id="a_node7"><a xlink:href="_i_plug_a_u_8h.html" target="_top" xlink:title="AudioUnit v2 API base class for an IPlug plug&#45;in, inherits from IPlugBase or IPlugBaseGraphics. ">
<polygon fill="white" stroke="black" points="194,-56.5 194,-75.5 256,-75.5 256,-56.5 194,-56.5"/>
<text text-anchor="middle" x="225" y="-63.5" font-family="Helvetica,sans-Serif" font-size="10.00">IPlugAU.h</text>
</a>
</g>
</g>
<!-- Node2&#45;&gt;Node7 -->
<g id="edge6" class="edge"><title>Node2&#45;&gt;Node7</title>
<path fill="none" stroke="midnightblue" d="M287.806,-106.901C272.22,-96.9986 251.87,-84.0705 238.623,-75.6545"/>
<polygon fill="midnightblue" stroke="midnightblue" points="286.026,-109.916 296.343,-112.324 289.779,-104.007 286.026,-109.916"/>
</g>
<!-- Node9 -->
<g id="node9" class="node"><title>Node9</title>
<g id="a_node9"><a xlink:href="_i_plug_a_uv3_8h_source.html" target="_top" xlink:title="IPlugAUv3.h">
<polygon fill="white" stroke="black" points="274,-56.5 274,-75.5 346,-75.5 346,-56.5 274,-56.5"/>
<text text-anchor="middle" x="310" y="-63.5" font-family="Helvetica,sans-Serif" font-size="10.00">IPlugAUv3.h</text>
</a>
</g>
</g>
<!-- Node2&#45;&gt;Node9 -->
<g id="edge8" class="edge"><title>Node2&#45;&gt;Node9</title>
<path fill="none" stroke="midnightblue" d="M310,-101.805C310,-92.9102 310,-82.7798 310,-75.7511"/>
<polygon fill="midnightblue" stroke="midnightblue" points="306.5,-102.083 310,-112.083 313.5,-102.083 306.5,-102.083"/>
</g>
<!-- Node11 -->
<g id="node11" class="node"><title>Node11</title>
<g id="a_node11"><a xlink:href="_i_plug_presets_8cpp_source.html" target="_top" xlink:title="IPlugPresets.cpp">
<polygon fill="white" stroke="black" points="364,-56.5 364,-75.5 456,-75.5 456,-56.5 364,-56.5"/>
<text text-anchor="middle" x="410" y="-63.5" font-family="Helvetica,sans-Serif" font-size="10.00">IPlugPresets.cpp</text>
</a>
</g>
</g>
<!-- Node2&#45;&gt;Node11 -->
<g id="edge10" class="edge"><title>Node2&#45;&gt;Node11</title>
<path fill="none" stroke="midnightblue" d="M335.088,-107.453C353.549,-97.4835 378.097,-84.2279 393.973,-75.6545"/>
<polygon fill="midnightblue" stroke="midnightblue" points="333.203,-104.493 326.067,-112.324 336.529,-110.652 333.203,-104.493"/>
</g>
<!-- Node12 -->
<g id="node12" class="node"><title>Node12</title>
<g id="a_node12"><a xlink:href="_i_plug_v_s_t_8h.html" target="_top" xlink:title="VST2.4 API base class for an IPlug plug&#45;in, inherits from IPlugBase or IPlugBaseGraphics. ">
<polygon fill="white" stroke="black" points="474.5,-56.5 474.5,-75.5 541.5,-75.5 541.5,-56.5 474.5,-56.5"/>
<text text-anchor="middle" x="508" y="-63.5" font-family="Helvetica,sans-Serif" font-size="10.00">IPlugVST.h</text>
</a>
</g>
</g>
<!-- Node2&#45;&gt;Node12 -->
<g id="edge11" class="edge"><title>Node2&#45;&gt;Node12</title>
<path fill="none" stroke="midnightblue" d="M351.438,-109.699C388.807,-99.507 442.943,-84.7429 476.773,-75.5164"/>
<polygon fill="midnightblue" stroke="midnightblue" points="350.1,-106.436 341.374,-112.444 351.942,-113.189 350.1,-106.436"/>
</g>
<!-- Node14 -->
<g id="node14" class="node"><title>Node14</title>
<g id="a_node14"><a xlink:href="_i_plug_v_s_t3_8h.html" target="_top" xlink:title="VST3 base class for an IPlug plug&#45;in, inherits from IPlugBase or IPlugBaseGraphics. ">
<polygon fill="white" stroke="black" points="562,-56.5 562,-75.5 634,-75.5 634,-56.5 562,-56.5"/>
<text text-anchor="middle" x="598" y="-63.5" font-family="Helvetica,sans-Serif" font-size="10.00">IPlugVST3.h</text>
</a>
</g>
</g>
<!-- Node2&#45;&gt;Node14 -->
<g id="edge13" class="edge"><title>Node2&#45;&gt;Node14</title>
<path fill="none" stroke="midnightblue" d="M365.702,-110.556C423.538,-99.7117 512.324,-83.0643 561.698,-73.8067"/>
<polygon fill="midnightblue" stroke="midnightblue" points="364.818,-107.161 355.634,-112.444 366.108,-114.041 364.818,-107.161"/>
</g>
<!-- Node4 -->
<g id="node4" class="node"><title>Node4</title>
<g id="a_node4"><a xlink:href="_i_plug_a_a_x_8cpp_source.html" target="_top" xlink:title="IPlugAAX.cpp">
<polygon fill="white" stroke="black" points="0,-0.5 0,-19.5 78,-19.5 78,-0.5 0,-0.5"/>
<text text-anchor="middle" x="39" y="-7.5" font-family="Helvetica,sans-Serif" font-size="10.00">IPlugAAX.cpp</text>
</a>
</g>
</g>
<!-- Node3&#45;&gt;Node4 -->
<g id="edge3" class="edge"><title>Node3&#45;&gt;Node4</title>
<path fill="none" stroke="midnightblue" d="M43.5501,-46.1005C42.388,-37.1357 41.0557,-26.8579 40.1344,-19.7511"/>
<polygon fill="midnightblue" stroke="midnightblue" points="40.0875,-46.6159 44.8441,-56.083 47.0294,-45.716 40.0875,-46.6159"/>
</g>
<!-- Node6 -->
<g id="node6" class="node"><title>Node6</title>
<g id="a_node6"><a xlink:href="_i_plug_a_p_p_8cpp_source.html" target="_top" xlink:title="IPlugAPP.cpp">
<polygon fill="white" stroke="black" points="96,-0.5 96,-19.5 174,-19.5 174,-0.5 96,-0.5"/>
<text text-anchor="middle" x="135" y="-7.5" font-family="Helvetica,sans-Serif" font-size="10.00">IPlugAPP.cpp</text>
</a>
</g>
</g>
<!-- Node5&#45;&gt;Node6 -->
<g id="edge5" class="edge"><title>Node5&#45;&gt;Node6</title>
<path fill="none" stroke="midnightblue" d="M136.289,-45.8045C135.96,-36.9102 135.584,-26.7798 135.324,-19.7511"/>
<polygon fill="midnightblue" stroke="midnightblue" points="132.802,-46.2194 136.67,-56.083 139.797,-45.9603 132.802,-46.2194"/>
</g>
<!-- Node8 -->
<g id="node8" class="node"><title>Node8</title>
<g id="a_node8"><a xlink:href="_i_plug_a_u_8cpp_source.html" target="_top" xlink:title="IPlugAU.cpp">
<polygon fill="white" stroke="black" points="192,-0.5 192,-19.5 264,-19.5 264,-0.5 192,-0.5"/>
<text text-anchor="middle" x="228" y="-7.5" font-family="Helvetica,sans-Serif" font-size="10.00">IPlugAU.cpp</text>
</a>
</g>
</g>
<!-- Node7&#45;&gt;Node8 -->
<g id="edge7" class="edge"><title>Node7&#45;&gt;Node8</title>
<path fill="none" stroke="midnightblue" d="M226.066,-45.8045C226.561,-36.9102 227.123,-26.7798 227.514,-19.7511"/>
<polygon fill="midnightblue" stroke="midnightblue" points="222.556,-45.9042 225.495,-56.083 229.545,-46.2926 222.556,-45.9042"/>
</g>
<!-- Node10 -->
<g id="node10" class="node"><title>Node10</title>
<g id="a_node10"><a xlink:href="_i_plug_a_uv3_8mm_source.html" target="_top" xlink:title="IPlugAUv3.mm">
<polygon fill="white" stroke="black" points="282.5,-0.5 282.5,-19.5 365.5,-19.5 365.5,-0.5 282.5,-0.5"/>
<text text-anchor="middle" x="324" y="-7.5" font-family="Helvetica,sans-Serif" font-size="10.00">IPlugAUv3.mm</text>
</a>
</g>
</g>
<!-- Node9&#45;&gt;Node10 -->
<g id="edge9" class="edge"><title>Node9&#45;&gt;Node10</title>
<path fill="none" stroke="midnightblue" d="M314.823,-46.3956C317.165,-37.362 319.868,-26.936 321.731,-19.7511"/>
<polygon fill="midnightblue" stroke="midnightblue" points="311.434,-45.5246 312.312,-56.083 318.21,-47.2814 311.434,-45.5246"/>
</g>
<!-- Node13 -->
<g id="node13" class="node"><title>Node13</title>
<g id="a_node13"><a xlink:href="_i_plug_v_s_t_8cpp_source.html" target="_top" xlink:title="IPlugVST.cpp">
<polygon fill="white" stroke="black" points="466.5,-0.5 466.5,-19.5 543.5,-19.5 543.5,-0.5 466.5,-0.5"/>
<text text-anchor="middle" x="505" y="-7.5" font-family="Helvetica,sans-Serif" font-size="10.00">IPlugVST.cpp</text>
</a>
</g>
</g>
<!-- Node12&#45;&gt;Node13 -->
<g id="edge12" class="edge"><title>Node12&#45;&gt;Node13</title>
<path fill="none" stroke="midnightblue" d="M506.934,-45.8045C506.439,-36.9102 505.877,-26.7798 505.486,-19.7511"/>
<polygon fill="midnightblue" stroke="midnightblue" points="503.455,-46.2926 507.505,-56.083 510.444,-45.9042 503.455,-46.2926"/>
</g>
<!-- Node15 -->
<g id="node15" class="node"><title>Node15</title>
<g id="a_node15"><a xlink:href="_i_plug_v_s_t3_8cpp_source.html" target="_top" xlink:title="IPlugVST3.cpp">
<polygon fill="white" stroke="black" points="561.5,-0.5 561.5,-19.5 644.5,-19.5 644.5,-0.5 561.5,-0.5"/>
<text text-anchor="middle" x="603" y="-7.5" font-family="Helvetica,sans-Serif" font-size="10.00">IPlugVST3.cpp</text>
</a>
</g>
</g>
<!-- Node14&#45;&gt;Node15 -->
<g id="edge14" class="edge"><title>Node14&#45;&gt;Node15</title>
<path fill="none" stroke="midnightblue" d="M599.75,-46.1005C600.58,-37.1357 601.532,-26.8579 602.19,-19.7511"/>
<polygon fill="midnightblue" stroke="midnightblue" points="596.263,-45.8029 598.826,-56.083 603.233,-46.4483 596.263,-45.8029"/>
</g>
</g>
</svg>
