<?xml version="1.0" encoding="UTF-8" standalone="no"?>
<!DOCTYPE svg PUBLIC "-//W3C//DTD SVG 1.1//EN"
 "http://www.w3.org/Graphics/SVG/1.1/DTD/svg11.dtd">
<!-- Generated by graphviz version 2.36.0 (20140111.2315)
 -->
<!-- Title: IPlugVST.h Pages: 1 -->
<!--zoomable 476 -->
<svg id="main" version="1.1" xmlns="http://www.w3.org/2000/svg" xmlns:xlink="http://www.w3.org/1999/xlink" xml:space="preserve" onload="init(evt)">
<style type="text/css"><![CDATA[
.edge:hover path { stroke: red; }
.edge:hover polygon { stroke: red; fill: red; }
]]></style>
<script type="text/javascript"><![CDATA[
var edges = document.getElementsByTagName('g');
if (edges && edges.length) {
  for (var i=0;i<edges.length;i++) {
    if (edges[i].id.substr(0,4)=='edge') {
      edges[i].setAttribute('class','edge');
    }
  }
}
]]></script>
        <defs>
                <circle id="rim" cx="0" cy="0" r="7"/>
                <circle id="rim2" cx="0" cy="0" r="3.5"/>
                <g id="zoomPlus">
                        <use xlink:href="#rim" fill="#404040">
                                <set attributeName="fill" to="#808080" begin="zoomplus.mouseover" end="zoomplus.mouseout"/>
                        </use>
                        <path d="M-4,0h8M0,-4v8" fill="none" stroke="white" stroke-width="1.5" pointer-events="none"/>
                </g>
                <g id="zoomMin">
                        <use xlink:href="#rim" fill="#404040">
                                <set attributeName="fill" to="#808080" begin="zoomminus.mouseover" end="zoomminus.mouseout"/>
                        </use>
                        <path d="M-4,0h8" fill="none" stroke="white" stroke-width="1.5" pointer-events="none"/>
                </g>
                <g id="dirArrow">
                        <path fill="none" stroke="white" stroke-width="1.5" d="M0,-3.0v7 M-2.5,-0.5L0,-3.0L2.5,-0.5"/>
                </g>
               <g id="resetDef">
                       <use xlink:href="#rim2" fill="#404040">
                               <set attributeName="fill" to="#808080" begin="reset.mouseover" end="reset.mouseout"/>
                       </use>
               </g>
        </defs>

<script type="text/javascript">
var viewWidth = 1194;
var viewHeight = 476;
var sectionId = 'dynsection-0';
</script>
<script xlink:href="svgpan.js"/>
<svg id="graph" class="graph">
<g id="viewport">
<title>IPlugVST.h</title>
<polygon fill="white" stroke="none" points="-4,4 -4,-472 1189.94,-472 1189.94,4 -4,4"/>
<!-- Node1 -->
<g id="node1" class="node"><title>Node1</title>
<polygon fill="#bfbfbf" stroke="black" points="334.5,-448.5 334.5,-467.5 401.5,-467.5 401.5,-448.5 334.5,-448.5"/>
<text text-anchor="middle" x="368" y="-455.5" font-family="Helvetica,sans-Serif" font-size="10.00">IPlugVST.h</text>
</g>
<!-- Node2 -->
<g id="node2" class="node"><title>Node2</title>
<polygon fill="white" stroke="#bfbfbf" points="289,-392.5 289,-411.5 349,-411.5 349,-392.5 289,-392.5"/>
<text text-anchor="middle" x="319" y="-399.5" font-family="Helvetica,sans-Serif" font-size="10.00">aeffectx.h</text>
</g>
<!-- Node1&#45;&gt;Node2 -->
<g id="edge1" class="edge"><title>Node1&#45;&gt;Node2</title>
<path fill="none" stroke="midnightblue" d="M359.909,-448.083C352.845,-440.298 342.412,-428.801 333.851,-419.367"/>
<polygon fill="midnightblue" stroke="midnightblue" points="336.253,-416.805 326.941,-411.751 331.069,-421.509 336.253,-416.805"/>
</g>
<!-- Node3 -->
<g id="node3" class="node"><title>Node3</title>
<g id="a_node3"><a xlink:href="_i_plug_base__select_8h_source.html" target="_top" xlink:title="IPlugBase_select.h">
<polygon fill="white" stroke="black" points="367.5,-392.5 367.5,-411.5 468.5,-411.5 468.5,-392.5 367.5,-392.5"/>
<text text-anchor="middle" x="418" y="-399.5" font-family="Helvetica,sans-Serif" font-size="10.00">IPlugBase_select.h</text>
</a>
</g>
</g>
<!-- Node1&#45;&gt;Node3 -->
<g id="edge2" class="edge"><title>Node1&#45;&gt;Node3</title>
<path fill="none" stroke="midnightblue" d="M376.256,-448.083C383.465,-440.298 394.11,-428.801 402.846,-419.367"/>
<polygon fill="midnightblue" stroke="midnightblue" points="405.671,-421.467 409.897,-411.751 400.535,-416.711 405.671,-421.467"/>
</g>
<!-- Node4 -->
<g id="node4" class="node"><title>Node4</title>
<g id="a_node4"><a xlink:href="_i_plug_base_graphics_8h.html" target="_top" xlink:title="An IPlugBase class for an IPlug plug&#45;in that uses IGraphics for it&#39;s UI. ">
<polygon fill="white" stroke="black" points="363.5,-336.5 363.5,-355.5 472.5,-355.5 472.5,-336.5 363.5,-336.5"/>
<text text-anchor="middle" x="418" y="-343.5" font-family="Helvetica,sans-Serif" font-size="10.00">IPlugBaseGraphics.h</text>
</a>
</g>
</g>
<!-- Node3&#45;&gt;Node4 -->
<g id="edge3" class="edge"><title>Node3&#45;&gt;Node4</title>
<path fill="none" stroke="midnightblue" d="M418,-392.083C418,-385.006 418,-374.861 418,-365.986"/>
<polygon fill="midnightblue" stroke="midnightblue" points="421.5,-365.751 418,-355.751 414.5,-365.751 421.5,-365.751"/>
</g>
<!-- Node26 -->
<g id="node26" class="node"><title>Node26</title>
<g id="a_node26"><a xlink:href="_i_plug_processor_8h.html" target="_top" xlink:title="The base class for IPlug Audio Processing. ">
<polygon fill="white" stroke="black" points="734,-280.5 734,-299.5 826,-299.5 826,-280.5 734,-280.5"/>
<text text-anchor="middle" x="780" y="-287.5" font-family="Helvetica,sans-Serif" font-size="10.00">IPlugProcessor.h</text>
</a>
</g>
</g>
<!-- Node3&#45;&gt;Node26 -->
<g id="edge45" class="edge"><title>Node3&#45;&gt;Node26</title>
<path fill="none" stroke="midnightblue" d="M446.104,-392.46C510.519,-372.886 668.879,-324.766 741.94,-302.565"/>
<polygon fill="midnightblue" stroke="midnightblue" points="743.114,-305.867 751.664,-299.61 741.078,-299.169 743.114,-305.867"/>
</g>
<!-- Node31 -->
<g id="node31" class="node"><title>Node31</title>
<g id="a_node31"><a xlink:href="_i_plug_presets_8h.html" target="_top" xlink:title="IPlugPresets.h">
<polygon fill="white" stroke="black" points="130.5,-280.5 130.5,-299.5 211.5,-299.5 211.5,-280.5 130.5,-280.5"/>
<text text-anchor="middle" x="171" y="-287.5" font-family="Helvetica,sans-Serif" font-size="10.00">IPlugPresets.h</text>
</a>
</g>
</g>
<!-- Node3&#45;&gt;Node31 -->
<g id="edge62" class="edge"><title>Node3&#45;&gt;Node31</title>
<path fill="none" stroke="midnightblue" d="M398.618,-392.368C355.331,-373.091 250.61,-326.454 199.718,-303.789"/>
<polygon fill="midnightblue" stroke="midnightblue" points="200.851,-300.462 190.292,-299.591 198.003,-306.857 200.851,-300.462"/>
</g>
<!-- Node5 -->
<g id="node5" class="node"><title>Node5</title>
<g id="a_node5"><a xlink:href="_i_plug_base_8h.html" target="_top" xlink:title="The lowest level base class of an IPlug plug&#45;in. ">
<polygon fill="white" stroke="black" points="383,-280.5 383,-299.5 453,-299.5 453,-280.5 383,-280.5"/>
<text text-anchor="middle" x="418" y="-287.5" font-family="Helvetica,sans-Serif" font-size="10.00">IPlugBase.h</text>
</a>
</g>
</g>
<!-- Node4&#45;&gt;Node5 -->
<g id="edge4" class="edge"><title>Node4&#45;&gt;Node5</title>
<path fill="none" stroke="midnightblue" d="M418,-336.083C418,-329.006 418,-318.861 418,-309.986"/>
<polygon fill="midnightblue" stroke="midnightblue" points="421.5,-309.751 418,-299.751 414.5,-309.751 421.5,-309.751"/>
</g>
<!-- Node6 -->
<g id="node6" class="node"><title>Node6</title>
<polygon fill="white" stroke="#bfbfbf" points="221,-0.5 221,-19.5 267,-19.5 267,-0.5 221,-0.5"/>
<text text-anchor="middle" x="244" y="-7.5" font-family="Helvetica,sans-Serif" font-size="10.00">cstring</text>
</g>
<!-- Node5&#45;&gt;Node6 -->
<g id="edge5" class="edge"><title>Node5&#45;&gt;Node6</title>
<path fill="none" stroke="midnightblue" d="M386.684,-280.425C363.559,-273.126 332.055,-261.087 308,-244 253.837,-205.526 239.442,-191.052 209,-132 193.298,-101.541 182.377,-87.4443 196,-56 201.268,-43.8399 211.62,-33.4594 221.365,-25.7429"/>
<polygon fill="midnightblue" stroke="midnightblue" points="223.644,-28.4116 229.63,-19.6698 219.499,-22.7707 223.644,-28.4116"/>
</g>
<!-- Node7 -->
<g id="node7" class="node"><title>Node7</title>
<polygon fill="white" stroke="#bfbfbf" points="612,-56.5 612,-75.5 658,-75.5 658,-56.5 612,-56.5"/>
<text text-anchor="middle" x="635" y="-63.5" font-family="Helvetica,sans-Serif" font-size="10.00">cstdint</text>
</g>
<!-- Node5&#45;&gt;Node7 -->
<g id="edge6" class="edge"><title>Node5&#45;&gt;Node7</title>
<path fill="none" stroke="midnightblue" d="M453.07,-287.128C509.573,-283.298 616.788,-272.389 640,-244 659.387,-220.288 645.564,-126.25 638.484,-85.733"/>
<polygon fill="midnightblue" stroke="midnightblue" points="641.918,-85.0483 636.7,-75.8274 635.028,-86.2895 641.918,-85.0483"/>
</g>
<!-- Node8 -->
<g id="node8" class="node"><title>Node8</title>
<polygon fill="white" stroke="#bfbfbf" points="446.5,-224.5 446.5,-243.5 495.5,-243.5 495.5,-224.5 446.5,-224.5"/>
<text text-anchor="middle" x="471" y="-231.5" font-family="Helvetica,sans-Serif" font-size="10.00">ptrlist.h</text>
</g>
<!-- Node5&#45;&gt;Node8 -->
<g id="edge7" class="edge"><title>Node5&#45;&gt;Node8</title>
<path fill="none" stroke="midnightblue" d="M426.752,-280.083C434.47,-272.22 445.905,-260.569 455.217,-251.081"/>
<polygon fill="midnightblue" stroke="midnightblue" points="457.904,-253.34 462.411,-243.751 452.908,-248.436 457.904,-253.34"/>
</g>
<!-- Node9 -->
<g id="node9" class="node"><title>Node9</title>
<polygon fill="white" stroke="#bfbfbf" points="66,-56.5 66,-75.5 118,-75.5 118,-56.5 66,-56.5"/>
<text text-anchor="middle" x="92" y="-63.5" font-family="Helvetica,sans-Serif" font-size="10.00">mutex.h</text>
</g>
<!-- Node5&#45;&gt;Node9 -->
<g id="edge8" class="edge"><title>Node5&#45;&gt;Node9</title>
<path fill="none" stroke="midnightblue" d="M382.977,-283.406C348.434,-277.004 294.753,-264.645 252,-244 214.218,-225.755 205.247,-218.083 176,-188 144.195,-155.286 115.921,-109.398 101.705,-84.5894"/>
<polygon fill="midnightblue" stroke="midnightblue" points="104.614,-82.6214 96.6573,-75.6253 98.5144,-86.0561 104.614,-82.6214"/>
</g>
<!-- Node10 -->
<g id="node10" class="node"><title>Node10</title>
<g id="a_node10"><a xlink:href="_i_plug_platform_8h.html" target="_top" xlink:title="Include to get consistently named preprocessor macros for different platforms and logging functionali...">
<polygon fill="white" stroke="black" points="376,-168.5 376,-187.5 460,-187.5 460,-168.5 376,-168.5"/>
<text text-anchor="middle" x="418" y="-175.5" font-family="Helvetica,sans-Serif" font-size="10.00">IPlugPlatform.h</text>
</a>
</g>
</g>
<!-- Node5&#45;&gt;Node10 -->
<g id="edge9" class="edge"><title>Node5&#45;&gt;Node10</title>
<path fill="none" stroke="midnightblue" d="M418,-280.368C418,-262.617 418,-221.666 418,-197.597"/>
<polygon fill="midnightblue" stroke="midnightblue" points="421.5,-197.591 418,-187.591 414.5,-197.591 421.5,-197.591"/>
</g>
<!-- Node18 -->
<g id="node18" class="node"><title>Node18</title>
<g id="a_node18"><a xlink:href="_i_plug_constants_8h.html" target="_top" xlink:title="Constant definitions, magic numbers. ">
<polygon fill="white" stroke="black" points="805,-0.5 805,-19.5 897,-19.5 897,-0.5 805,-0.5"/>
<text text-anchor="middle" x="851" y="-7.5" font-family="Helvetica,sans-Serif" font-size="10.00">IPlugConstants.h</text>
</a>
</g>
</g>
<!-- Node5&#45;&gt;Node18 -->
<g id="edge29" class="edge"><title>Node5&#45;&gt;Node18</title>
<path fill="none" stroke="midnightblue" d="M453.067,-288.198C501.344,-285.839 589.915,-276.935 657,-244 755.523,-195.631 786.647,-173.002 838,-76 845.656,-61.5383 848.818,-43.0893 850.116,-29.5436"/>
<polygon fill="midnightblue" stroke="midnightblue" points="853.611,-29.7357 850.826,-19.5136 846.628,-29.2415 853.611,-29.7357"/>
</g>
<!-- Node19 -->
<g id="node19" class="node"><title>Node19</title>
<g id="a_node19"><a xlink:href="_i_plug_utilities_8h.html" target="_top" xlink:title="Utility functions and macros. ">
<polygon fill="white" stroke="black" points="332,-56.5 332,-75.5 412,-75.5 412,-56.5 332,-56.5"/>
<text text-anchor="middle" x="372" y="-63.5" font-family="Helvetica,sans-Serif" font-size="10.00">IPlugUtilities.h</text>
</a>
</g>
</g>
<!-- Node5&#45;&gt;Node19 -->
<g id="edge40" class="edge"><title>Node5&#45;&gt;Node19</title>
<path fill="none" stroke="midnightblue" d="M411.85,-280.361C400.31,-263.558 375.783,-224.88 367,-188 358.548,-152.51 363.851,-109.54 368.145,-85.5357"/>
<polygon fill="midnightblue" stroke="midnightblue" points="371.592,-86.1449 370.051,-75.6628 364.719,-84.8181 371.592,-86.1449"/>
</g>
<!-- Node22 -->
<g id="node22" class="node"><title>Node22</title>
<g id="a_node22"><a xlink:href="_i_plug_structs_8h_source.html" target="_top" xlink:title="IPlugStructs.h">
<polygon fill="white" stroke="black" points="552.5,-224.5 552.5,-243.5 631.5,-243.5 631.5,-224.5 552.5,-224.5"/>
<text text-anchor="middle" x="592" y="-231.5" font-family="Helvetica,sans-Serif" font-size="10.00">IPlugStructs.h</text>
</a>
</g>
</g>
<!-- Node5&#45;&gt;Node22 -->
<g id="edge30" class="edge"><title>Node5&#45;&gt;Node22</title>
<path fill="none" stroke="midnightblue" d="M445.571,-280.444C475.097,-271.28 522.118,-256.688 554.883,-246.519"/>
<polygon fill="midnightblue" stroke="midnightblue" points="556.045,-249.823 564.558,-243.516 553.97,-243.138 556.045,-249.823"/>
</g>
<!-- Node25 -->
<g id="node25" class="node"><title>Node25</title>
<g id="a_node25"><a xlink:href="_i_plug_parameter_8h_source.html" target="_top" xlink:title="IPlugParameter.h">
<polygon fill="white" stroke="black" points="218,-112.5 218,-131.5 310,-131.5 310,-112.5 218,-112.5"/>
<text text-anchor="middle" x="264" y="-119.5" font-family="Helvetica,sans-Serif" font-size="10.00">IPlugParameter.h</text>
</a>
</g>
</g>
<!-- Node5&#45;&gt;Node25 -->
<g id="edge41" class="edge"><title>Node5&#45;&gt;Node25</title>
<path fill="none" stroke="midnightblue" d="M390.907,-280.492C371.491,-273.288 345.74,-261.339 328,-244 297.664,-214.35 278.517,-167.22 269.704,-141.402"/>
<polygon fill="midnightblue" stroke="midnightblue" points="272.986,-140.176 266.558,-131.755 266.331,-142.347 272.986,-140.176"/>
</g>
<!-- Node11 -->
<g id="node11" class="node"><title>Node11</title>
<g id="a_node11"><a xlink:href="_i_plug_logger_8h.html" target="_top" xlink:title="IPlug Logging functionailty To trace some arbitrary data: Trace(TRACELOC, &quot;%s:%d&quot;, myStr, myInt); To simply create a trace entry in the log: TRACE; No need to wrap tracer calls in #ifdef TRACER_BUILD because Trace is a no&#45;op unless TRACER_BUILD is defined. ">
<polygon fill="white" stroke="black" points="484.5,-112.5 484.5,-131.5 561.5,-131.5 561.5,-112.5 484.5,-112.5"/>
<text text-anchor="middle" x="523" y="-119.5" font-family="Helvetica,sans-Serif" font-size="10.00">IPlugLogger.h</text>
</a>
</g>
</g>
<!-- Node10&#45;&gt;Node11 -->
<g id="edge10" class="edge"><title>Node10&#45;&gt;Node11</title>
<path fill="none" stroke="midnightblue" d="M434.87,-168.324C451.709,-159.664 477.807,-146.242 497.238,-136.249"/>
<polygon fill="midnightblue" stroke="midnightblue" points="498.88,-139.341 506.172,-131.655 495.678,-133.116 498.88,-139.341"/>
</g>
<!-- Node11&#45;&gt;Node6 -->
<g id="edge15" class="edge"><title>Node11&#45;&gt;Node6</title>
<path fill="none" stroke="midnightblue" d="M484.39,-117.678C442.766,-112.9 375.432,-101.645 323,-76 297.961,-63.7531 273.932,-42.0939 259.085,-27.1651"/>
<polygon fill="midnightblue" stroke="midnightblue" points="261.301,-24.4216 251.833,-19.6663 256.269,-29.2879 261.301,-24.4216"/>
</g>
<!-- Node11&#45;&gt;Node7 -->
<g id="edge14" class="edge"><title>Node11&#45;&gt;Node7</title>
<path fill="none" stroke="midnightblue" d="M540.995,-112.324C559.038,-103.625 587.047,-90.1202 607.803,-80.113"/>
<polygon fill="midnightblue" stroke="midnightblue" points="609.562,-83.1502 617.05,-75.6545 606.522,-76.8449 609.562,-83.1502"/>
</g>
<!-- Node11&#45;&gt;Node9 -->
<g id="edge19" class="edge"><title>Node11&#45;&gt;Node9</title>
<path fill="none" stroke="midnightblue" d="M484.372,-116.16C401.716,-105.804 208.691,-81.6202 128.224,-71.5386"/>
<polygon fill="midnightblue" stroke="midnightblue" points="128.445,-68.0389 118.087,-70.2684 127.574,-74.9846 128.445,-68.0389"/>
</g>
<!-- Node12 -->
<g id="node12" class="node"><title>Node12</title>
<polygon fill="white" stroke="#bfbfbf" points="524.5,-0.5 524.5,-19.5 567.5,-19.5 567.5,-0.5 524.5,-0.5"/>
<text text-anchor="middle" x="546" y="-7.5" font-family="Helvetica,sans-Serif" font-size="10.00">cstdio</text>
</g>
<!-- Node11&#45;&gt;Node12 -->
<g id="edge11" class="edge"><title>Node11&#45;&gt;Node12</title>
<path fill="none" stroke="midnightblue" d="M524.805,-112.368C528.516,-94.617 537.079,-53.6664 542.111,-29.5974"/>
<polygon fill="midnightblue" stroke="midnightblue" points="545.583,-30.0961 544.204,-19.5914 538.731,-28.6634 545.583,-30.0961"/>
</g>
<!-- Node13 -->
<g id="node13" class="node"><title>Node13</title>
<polygon fill="white" stroke="#bfbfbf" points="415,-0.5 415,-19.5 461,-19.5 461,-0.5 415,-0.5"/>
<text text-anchor="middle" x="438" y="-7.5" font-family="Helvetica,sans-Serif" font-size="10.00">cctype</text>
</g>
<!-- Node11&#45;&gt;Node13 -->
<g id="edge12" class="edge"><title>Node11&#45;&gt;Node13</title>
<path fill="none" stroke="midnightblue" d="M505.438,-112.416C491.319,-104.688 471.935,-92.0823 460,-76 449.804,-62.2612 444.124,-43.4816 441.102,-29.6403"/>
<polygon fill="midnightblue" stroke="midnightblue" points="444.534,-28.9509 439.213,-19.7891 437.659,-30.2694 444.534,-28.9509"/>
</g>
<!-- Node14 -->
<g id="node14" class="node"><title>Node14</title>
<polygon fill="white" stroke="#bfbfbf" points="468.5,-56.5 468.5,-75.5 517.5,-75.5 517.5,-56.5 468.5,-56.5"/>
<text text-anchor="middle" x="493" y="-63.5" font-family="Helvetica,sans-Serif" font-size="10.00">cstdarg</text>
</g>
<!-- Node11&#45;&gt;Node14 -->
<g id="edge13" class="edge"><title>Node11&#45;&gt;Node14</title>
<path fill="none" stroke="midnightblue" d="M518.046,-112.083C513.896,-104.613 507.847,-93.7244 502.733,-84.5199"/>
<polygon fill="midnightblue" stroke="midnightblue" points="505.778,-82.7929 497.862,-75.7511 499.659,-86.1924 505.778,-82.7929"/>
</g>
<!-- Node15 -->
<g id="node15" class="node"><title>Node15</title>
<polygon fill="white" stroke="#bfbfbf" points="743.5,-56.5 743.5,-75.5 784.5,-75.5 784.5,-56.5 743.5,-56.5"/>
<text text-anchor="middle" x="764" y="-63.5" font-family="Helvetica,sans-Serif" font-size="10.00">ctime</text>
</g>
<!-- Node11&#45;&gt;Node15 -->
<g id="edge16" class="edge"><title>Node11&#45;&gt;Node15</title>
<path fill="none" stroke="midnightblue" d="M561.722,-113.723C602.218,-105.896 667.801,-92.6108 733.685,-75.9077"/>
<polygon fill="midnightblue" stroke="midnightblue" points="734.586,-79.2901 743.405,-73.4188 732.849,-72.5089 734.586,-79.2901"/>
</g>
<!-- Node16 -->
<g id="node16" class="node"><title>Node16</title>
<polygon fill="white" stroke="#bfbfbf" points="676.5,-56.5 676.5,-75.5 725.5,-75.5 725.5,-56.5 676.5,-56.5"/>
<text text-anchor="middle" x="701" y="-63.5" font-family="Helvetica,sans-Serif" font-size="10.00">cassert</text>
</g>
<!-- Node11&#45;&gt;Node16 -->
<g id="edge17" class="edge"><title>Node11&#45;&gt;Node16</title>
<path fill="none" stroke="midnightblue" d="M551.205,-112.444C582.476,-102.957 632.929,-87.6507 666.522,-77.4595"/>
<polygon fill="midnightblue" stroke="midnightblue" points="667.813,-80.7254 676.367,-74.473 665.781,-74.0269 667.813,-80.7254"/>
</g>
<!-- Node17 -->
<g id="node17" class="node"><title>Node17</title>
<polygon fill="white" stroke="#bfbfbf" points="212,-56.5 212,-75.5 276,-75.5 276,-56.5 212,-56.5"/>
<text text-anchor="middle" x="244" y="-63.5" font-family="Helvetica,sans-Serif" font-size="10.00">wdlstring.h</text>
</g>
<!-- Node11&#45;&gt;Node17 -->
<g id="edge18" class="edge"><title>Node11&#45;&gt;Node17</title>
<path fill="none" stroke="midnightblue" d="M484.241,-113.544C437.997,-104.642 358.347,-89.2861 290,-76 288.742,-75.7554 287.464,-75.5069 286.175,-75.2558"/>
<polygon fill="midnightblue" stroke="midnightblue" points="286.654,-71.7833 276.169,-73.3042 285.314,-78.6539 286.654,-71.7833"/>
</g>
<!-- Node11&#45;&gt;Node18 -->
<g id="edge20" class="edge"><title>Node11&#45;&gt;Node18</title>
<path fill="none" stroke="midnightblue" d="M530.89,-112.197C544.23,-97.9164 572.757,-69.9032 603,-56 664.688,-27.6409 742.699,-17.1276 794.586,-13.2453"/>
<polygon fill="midnightblue" stroke="midnightblue" points="794.868,-16.7343 804.603,-12.554 794.386,-9.75094 794.868,-16.7343"/>
</g>
<!-- Node11&#45;&gt;Node19 -->
<g id="edge21" class="edge"><title>Node11&#45;&gt;Node19</title>
<path fill="none" stroke="midnightblue" d="M499.074,-112.444C473.781,-103.399 433.698,-89.064 405.32,-78.9158"/>
<polygon fill="midnightblue" stroke="midnightblue" points="406.409,-75.5882 395.814,-75.5164 404.052,-82.1794 406.409,-75.5882"/>
</g>
<!-- Node19&#45;&gt;Node6 -->
<g id="edge25" class="edge"><title>Node19&#45;&gt;Node6</title>
<path fill="none" stroke="midnightblue" d="M351.718,-56.4435C330.653,-47.5566 297.483,-33.5632 273.514,-23.4514"/>
<polygon fill="midnightblue" stroke="midnightblue" points="274.761,-20.1787 264.187,-19.5164 272.04,-26.6283 274.761,-20.1787"/>
</g>
<!-- Node19&#45;&gt;Node10 -->
<g id="edge28" class="edge"><title>Node19&#45;&gt;Node10</title>
<path fill="none" stroke="midnightblue" d="M375.593,-75.5914C383.069,-93.4683 400.435,-134.997 410.472,-158.998"/>
<polygon fill="midnightblue" stroke="midnightblue" points="407.303,-160.493 414.39,-168.368 413.761,-157.792 407.303,-160.493"/>
</g>
<!-- Node19&#45;&gt;Node12 -->
<g id="edge23" class="edge"><title>Node19&#45;&gt;Node12</title>
<path fill="none" stroke="midnightblue" d="M399.571,-56.4435C430.786,-46.7561 481.553,-31.0008 514.358,-20.8199"/>
<polygon fill="midnightblue" stroke="midnightblue" points="515.817,-24.0319 524.33,-17.7251 513.742,-17.3464 515.817,-24.0319"/>
</g>
<!-- Node19&#45;&gt;Node13 -->
<g id="edge26" class="edge"><title>Node19&#45;&gt;Node13</title>
<path fill="none" stroke="midnightblue" d="M382.604,-56.324C392.456,-48.2631 407.351,-36.0765 419.215,-26.3695"/>
<polygon fill="midnightblue" stroke="midnightblue" points="421.68,-28.8752 427.203,-19.8339 417.247,-23.4575 421.68,-28.8752"/>
</g>
<!-- Node19&#45;&gt;Node18 -->
<g id="edge27" class="edge"><title>Node19&#45;&gt;Node18</title>
<path fill="none" stroke="midnightblue" d="M412.015,-60.4889C497.252,-50.8797 696.918,-28.3704 794.84,-17.3312"/>
<polygon fill="midnightblue" stroke="midnightblue" points="795.3,-20.8016 804.845,-16.2033 794.516,-13.8457 795.3,-20.8016"/>
</g>
<!-- Node20 -->
<g id="node20" class="node"><title>Node20</title>
<polygon fill="white" stroke="#bfbfbf" points="1058,-0.5 1058,-19.5 1102,-19.5 1102,-0.5 1058,-0.5"/>
<text text-anchor="middle" x="1080" y="-7.5" font-family="Helvetica,sans-Serif" font-size="10.00">cmath</text>
</g>
<!-- Node19&#45;&gt;Node20 -->
<g id="edge22" class="edge"><title>Node19&#45;&gt;Node20</title>
<path fill="none" stroke="midnightblue" d="M412.28,-60.6286C427.255,-59.0698 444.395,-57.364 460,-56 684.674,-36.3618 955.686,-18.799 1047.67,-13.0094"/>
<polygon fill="midnightblue" stroke="midnightblue" points="1047.98,-16.497 1057.74,-12.3777 1047.54,-9.51076 1047.98,-16.497"/>
</g>
<!-- Node21 -->
<g id="node21" class="node"><title>Node21</title>
<polygon fill="white" stroke="#bfbfbf" points="349.5,-0.5 349.5,-19.5 394.5,-19.5 394.5,-0.5 349.5,-0.5"/>
<text text-anchor="middle" x="372" y="-7.5" font-family="Helvetica,sans-Serif" font-size="10.00">cstdlib</text>
</g>
<!-- Node19&#45;&gt;Node21 -->
<g id="edge24" class="edge"><title>Node19&#45;&gt;Node21</title>
<path fill="none" stroke="midnightblue" d="M372,-56.083C372,-49.0059 372,-38.8611 372,-29.9865"/>
<polygon fill="midnightblue" stroke="midnightblue" points="375.5,-29.751 372,-19.7511 368.5,-29.7511 375.5,-29.751"/>
</g>
<!-- Node22&#45;&gt;Node10 -->
<g id="edge34" class="edge"><title>Node22&#45;&gt;Node10</title>
<path fill="none" stroke="midnightblue" d="M564.429,-224.444C534.903,-215.28 487.882,-200.688 455.117,-190.519"/>
<polygon fill="midnightblue" stroke="midnightblue" points="456.03,-187.138 445.442,-187.516 453.955,-193.823 456.03,-187.138"/>
</g>
<!-- Node22&#45;&gt;Node17 -->
<g id="edge32" class="edge"><title>Node22&#45;&gt;Node17</title>
<path fill="none" stroke="midnightblue" d="M587.416,-224.084C579.815,-210.152 563.306,-183.241 542,-168 536.446,-164.027 357.651,-104.605 279.721,-78.8067"/>
<polygon fill="midnightblue" stroke="midnightblue" points="280.452,-75.3621 269.859,-75.5433 278.253,-82.0077 280.452,-75.3621"/>
</g>
<!-- Node22&#45;&gt;Node18 -->
<g id="edge33" class="edge"><title>Node22&#45;&gt;Node18</title>
<path fill="none" stroke="midnightblue" d="M609.629,-224.479C650.603,-203.944 753.587,-148.046 817,-76 829.203,-62.1354 838.492,-43.1181 844.252,-29.2364"/>
<polygon fill="midnightblue" stroke="midnightblue" points="847.563,-30.3798 847.958,-19.7924 841.047,-27.8224 847.563,-30.3798"/>
</g>
<!-- Node23 -->
<g id="node23" class="node"><title>Node23</title>
<polygon fill="white" stroke="#bfbfbf" points="478,-168.5 478,-187.5 534,-187.5 534,-168.5 478,-168.5"/>
<text text-anchor="middle" x="506" y="-175.5" font-family="Helvetica,sans-Serif" font-size="10.00">algorithm</text>
</g>
<!-- Node22&#45;&gt;Node23 -->
<g id="edge31" class="edge"><title>Node22&#45;&gt;Node23</title>
<path fill="none" stroke="midnightblue" d="M578.183,-224.324C564.767,-215.9 544.176,-202.971 528.414,-193.074"/>
<polygon fill="midnightblue" stroke="midnightblue" points="530.113,-190.008 519.783,-187.655 526.391,-195.936 530.113,-190.008"/>
</g>
<!-- Node24 -->
<g id="node24" class="node"><title>Node24</title>
<g id="a_node24"><a xlink:href="_i_plug_midi_8h_source.html" target="_top" xlink:title="IPlugMidi.h">
<polygon fill="white" stroke="black" points="656.5,-112.5 656.5,-131.5 721.5,-131.5 721.5,-112.5 656.5,-112.5"/>
<text text-anchor="middle" x="689" y="-119.5" font-family="Helvetica,sans-Serif" font-size="10.00">IPlugMidi.h</text>
</a>
</g>
</g>
<!-- Node22&#45;&gt;Node24 -->
<g id="edge35" class="edge"><title>Node22&#45;&gt;Node24</title>
<path fill="none" stroke="midnightblue" d="M599.611,-224.368C615.761,-206.055 653.684,-163.049 674.571,-139.362"/>
<polygon fill="midnightblue" stroke="midnightblue" points="677.435,-141.407 681.424,-131.591 672.185,-136.777 677.435,-141.407"/>
</g>
<!-- Node24&#45;&gt;Node7 -->
<g id="edge37" class="edge"><title>Node24&#45;&gt;Node7</title>
<path fill="none" stroke="midnightblue" d="M680.083,-112.083C672.22,-104.22 660.569,-92.5688 651.081,-83.0813"/>
<polygon fill="midnightblue" stroke="midnightblue" points="653.297,-80.3473 643.751,-75.7511 648.347,-85.2971 653.297,-80.3473"/>
</g>
<!-- Node24&#45;&gt;Node16 -->
<g id="edge36" class="edge"><title>Node24&#45;&gt;Node16</title>
<path fill="none" stroke="midnightblue" d="M690.982,-112.083C692.572,-104.927 694.859,-94.6353 696.846,-85.6911"/>
<polygon fill="midnightblue" stroke="midnightblue" points="700.303,-86.2722 699.055,-75.7511 693.469,-84.7537 700.303,-86.2722"/>
</g>
<!-- Node24&#45;&gt;Node18 -->
<g id="edge38" class="edge"><title>Node24&#45;&gt;Node18</title>
<path fill="none" stroke="midnightblue" d="M717.657,-112.374C739.578,-104.917 769.871,-92.6978 793,-76 811.509,-62.6377 828.354,-42.4364 839.064,-28.1058"/>
<polygon fill="midnightblue" stroke="midnightblue" points="842.144,-29.8202 845.171,-19.6671 836.473,-25.716 842.144,-29.8202"/>
</g>
<!-- Node24&#45;&gt;Node19 -->
<g id="edge39" class="edge"><title>Node24&#45;&gt;Node19</title>
<path fill="none" stroke="midnightblue" d="M656.269,-115.424C600.787,-105.973 487.92,-86.7466 422.325,-75.5728"/>
<polygon fill="midnightblue" stroke="midnightblue" points="422.666,-72.0804 412.22,-73.8513 421.49,-78.981 422.666,-72.0804"/>
</g>
<!-- Node25&#45;&gt;Node6 -->
<g id="edge42" class="edge"><title>Node25&#45;&gt;Node6</title>
<path fill="none" stroke="midnightblue" d="M244.094,-112.41C229.775,-105.04 211.542,-92.9163 203,-76 193.968,-58.1129 209.645,-38.8417 224.148,-25.9667"/>
<polygon fill="midnightblue" stroke="midnightblue" points="226.456,-28.5992 231.919,-19.5215 221.988,-23.2109 226.456,-28.5992"/>
</g>
<!-- Node25&#45;&gt;Node17 -->
<g id="edge43" class="edge"><title>Node25&#45;&gt;Node17</title>
<path fill="none" stroke="midnightblue" d="M260.697,-112.083C258.018,-104.849 254.151,-94.4087 250.814,-85.3968"/>
<polygon fill="midnightblue" stroke="midnightblue" points="253.996,-83.9129 247.241,-75.7511 247.432,-86.3442 253.996,-83.9129"/>
</g>
<!-- Node25&#45;&gt;Node19 -->
<g id="edge44" class="edge"><title>Node25&#45;&gt;Node19</title>
<path fill="none" stroke="midnightblue" d="M281.352,-112.324C298.672,-103.664 325.515,-90.2424 345.502,-80.249"/>
<polygon fill="midnightblue" stroke="midnightblue" points="347.312,-83.2572 354.691,-75.6545 344.181,-76.9962 347.312,-83.2572"/>
</g>
<!-- Node26&#45;&gt;Node6 -->
<g id="edge46" class="edge"><title>Node26&#45;&gt;Node6</title>
<path fill="none" stroke="midnightblue" d="M784.286,-280.358C800.407,-246.493 853.472,-121.48 793,-56 758.819,-18.9879 391.195,-24.3274 341,-20 319.773,-18.17 295.948,-15.9616 277.222,-14.1904"/>
<polygon fill="midnightblue" stroke="midnightblue" points="277.405,-10.6922 267.119,-13.2305 276.743,-17.6608 277.405,-10.6922"/>
</g>
<!-- Node26&#45;&gt;Node7 -->
<g id="edge47" class="edge"><title>Node26&#45;&gt;Node7</title>
<path fill="none" stroke="midnightblue" d="M780.291,-280.187C780.733,-251.602 778.133,-160.505 730,-112 712.955,-94.8231 688.08,-83.3673 668.06,-76.3144"/>
<polygon fill="midnightblue" stroke="midnightblue" points="668.983,-72.9331 658.389,-73.1103 666.781,-79.5779 668.983,-72.9331"/>
</g>
<!-- Node26&#45;&gt;Node8 -->
<g id="edge48" class="edge"><title>Node26&#45;&gt;Node8</title>
<path fill="none" stroke="midnightblue" d="M733.981,-282.214C680.116,-274.068 588.308,-259.546 510,-244 508.552,-243.712 507.075,-243.411 505.585,-243.099"/>
<polygon fill="midnightblue" stroke="midnightblue" points="506.224,-239.656 495.708,-240.944 504.732,-246.495 506.224,-239.656"/>
</g>
<!-- Node26&#45;&gt;Node10 -->
<g id="edge49" class="edge"><title>Node26&#45;&gt;Node10</title>
<path fill="none" stroke="midnightblue" d="M733.745,-284.171C685.414,-278.21 607.873,-266.045 544,-244 538.789,-242.202 479.162,-211.086 443.835,-192.568"/>
<polygon fill="midnightblue" stroke="midnightblue" points="445.062,-189.259 434.58,-187.714 441.81,-195.458 445.062,-189.259"/>
</g>
<!-- Node26&#45;&gt;Node18 -->
<g id="edge50" class="edge"><title>Node26&#45;&gt;Node18</title>
<path fill="none" stroke="midnightblue" d="M826.064,-286.233C932.215,-278.597 1185,-252.679 1185,-179 1185,-179 1185,-179 1185,-121 1185,-90.9022 1188.74,-75.7134 1166,-56 1128.4,-23.4063 987.71,-14.4014 907.655,-11.9265"/>
<polygon fill="midnightblue" stroke="midnightblue" points="907.349,-8.41648 897.253,-11.6311 907.15,-15.4137 907.349,-8.41648"/>
</g>
<!-- Node26&#45;&gt;Node19 -->
<g id="edge52" class="edge"><title>Node26&#45;&gt;Node19</title>
<path fill="none" stroke="midnightblue" d="M766.324,-280.41C732.905,-259.61 644.108,-205.495 566,-168 527.162,-149.356 514.419,-151.494 476,-132 445.732,-116.642 412.833,-95.2069 392.317,-81.2182"/>
<polygon fill="midnightblue" stroke="midnightblue" points="394.292,-78.3289 384.071,-75.541 390.323,-84.0946 394.292,-78.3289"/>
</g>
<!-- Node26&#45;&gt;Node22 -->
<g id="edge51" class="edge"><title>Node26&#45;&gt;Node22</title>
<path fill="none" stroke="midnightblue" d="M750.211,-280.444C718.171,-271.241 667.067,-256.562 631.647,-246.388"/>
<polygon fill="midnightblue" stroke="midnightblue" points="632.227,-242.913 621.65,-243.516 630.295,-249.641 632.227,-242.913"/>
</g>
<!-- Node27 -->
<g id="node27" class="node"><title>Node27</title>
<g id="a_node27"><a xlink:href="_n_chan_delay_8h_source.html" target="_top" xlink:title="NChanDelay.h">
<polygon fill="white" stroke="black" points="884.5,-224.5 884.5,-243.5 965.5,-243.5 965.5,-224.5 884.5,-224.5"/>
<text text-anchor="middle" x="925" y="-231.5" font-family="Helvetica,sans-Serif" font-size="10.00">NChanDelay.h</text>
</a>
</g>
</g>
<!-- Node26&#45;&gt;Node27 -->
<g id="edge53" class="edge"><title>Node26&#45;&gt;Node27</title>
<path fill="none" stroke="midnightblue" d="M802.976,-280.444C827.157,-271.438 865.418,-257.189 892.646,-247.049"/>
<polygon fill="midnightblue" stroke="midnightblue" points="893.982,-250.286 902.132,-243.516 891.539,-243.727 893.982,-250.286"/>
</g>
<!-- Node28 -->
<g id="node28" class="node"><title>Node28</title>
<g id="a_node28"><a xlink:href="_i_plug_processor_8cpp_source.html" target="_top" xlink:title="IPlugProcessor.cpp">
<polygon fill="white" stroke="black" points="952,-112.5 952,-131.5 1054,-131.5 1054,-112.5 952,-112.5"/>
<text text-anchor="middle" x="1003" y="-119.5" font-family="Helvetica,sans-Serif" font-size="10.00">IPlugProcessor.cpp</text>
</a>
</g>
</g>
<!-- Node26&#45;&gt;Node28 -->
<g id="edge54" class="edge"><title>Node26&#45;&gt;Node28</title>
<path fill="none" stroke="midnightblue" d="M826.299,-282.983C874.496,-276.193 945.37,-263.487 965,-244 992.376,-216.823 995.671,-168.684 998.214,-142.052"/>
<polygon fill="midnightblue" stroke="midnightblue" points="1001.73,-142.107 999.369,-131.779 994.773,-141.325 1001.73,-142.107"/>
</g>
<!-- Node28&#45;&gt;Node12 -->
<g id="edge56" class="edge"><title>Node28&#45;&gt;Node12</title>
<path fill="none" stroke="midnightblue" d="M983.607,-112.411C951.603,-98.5649 885.449,-71.3165 827,-56 738.246,-32.7421 630.39,-19.5473 577.849,-14.0546"/>
<polygon fill="midnightblue" stroke="midnightblue" points="578.106,-10.5627 567.802,-13.0283 577.395,-17.5265 578.106,-10.5627"/>
</g>
<!-- Node28&#45;&gt;Node15 -->
<g id="edge57" class="edge"><title>Node28&#45;&gt;Node15</title>
<path fill="none" stroke="midnightblue" d="M965.13,-112.444C917.95,-101.784 838.252,-83.7765 794.691,-73.9343"/>
<polygon fill="midnightblue" stroke="midnightblue" points="795.216,-70.4649 784.691,-71.6749 793.674,-77.2928 795.216,-70.4649"/>
</g>
<!-- Node28&#45;&gt;Node16 -->
<g id="edge58" class="edge"><title>Node28&#45;&gt;Node16</title>
<path fill="none" stroke="midnightblue" d="M951.854,-113.849C899.841,-106.255 816.747,-93.2411 735.691,-75.9791"/>
<polygon fill="midnightblue" stroke="midnightblue" points="736.331,-72.5367 725.818,-73.853 734.857,-79.3799 736.331,-72.5367"/>
</g>
<!-- Node28&#45;&gt;Node20 -->
<g id="edge55" class="edge"><title>Node28&#45;&gt;Node20</title>
<path fill="none" stroke="midnightblue" d="M1054.32,-113.686C1096.83,-106.453 1152.4,-93.8689 1166,-76 1184.72,-51.4108 1143.51,-31.4988 1111.89,-20.461"/>
<polygon fill="midnightblue" stroke="midnightblue" points="1112.65,-17.0234 1102.05,-17.1944 1110.44,-23.6669 1112.65,-17.0234"/>
</g>
<!-- Node28&#45;&gt;Node26 -->
<g id="edge61" class="edge"><title>Node28&#45;&gt;Node26</title>
<path fill="none" stroke="midnightblue" d="M1008.13,-131.779C1014.12,-153.978 1014.43,-212.801 983,-244 962.888,-263.966 888.98,-276.814 836.059,-283.473"/>
<polygon fill="midnightblue" stroke="midnightblue" points="835.612,-280.001 826.108,-284.683 836.457,-286.95 835.612,-280.001"/>
</g>
<!-- Node29 -->
<g id="node29" class="node"><title>Node29</title>
<polygon fill="white" stroke="#bfbfbf" points="1089,-56.5 1089,-75.5 1157,-75.5 1157,-56.5 1089,-56.5"/>
<text text-anchor="middle" x="1123" y="-63.5" font-family="Helvetica,sans-Serif" font-size="10.00">wdlendian.h</text>
</g>
<!-- Node28&#45;&gt;Node29 -->
<g id="edge59" class="edge"><title>Node28&#45;&gt;Node29</title>
<path fill="none" stroke="midnightblue" d="M1022.01,-112.444C1041.59,-103.636 1072.31,-89.8116 1094.73,-79.722"/>
<polygon fill="midnightblue" stroke="midnightblue" points="1096.39,-82.8119 1104.07,-75.5164 1093.52,-76.4284 1096.39,-82.8119"/>
</g>
<!-- Node30 -->
<g id="node30" class="node"><title>Node30</title>
<polygon fill="white" stroke="#bfbfbf" points="993.5,-56.5 993.5,-75.5 1070.5,-75.5 1070.5,-56.5 993.5,-56.5"/>
<text text-anchor="middle" x="1032" y="-63.5" font-family="Helvetica,sans-Serif" font-size="10.00">wdl_base64.h</text>
</g>
<!-- Node28&#45;&gt;Node30 -->
<g id="edge60" class="edge"><title>Node28&#45;&gt;Node30</title>
<path fill="none" stroke="midnightblue" d="M1007.79,-112.083C1011.76,-104.691 1017.53,-93.9533 1022.43,-84.8111"/>
<polygon fill="midnightblue" stroke="midnightblue" points="1025.65,-86.217 1027.3,-75.7511 1019.49,-82.9051 1025.65,-86.217"/>
</g>
<!-- Node31&#45;&gt;Node6 -->
<g id="edge63" class="edge"><title>Node31&#45;&gt;Node6</title>
<path fill="none" stroke="midnightblue" d="M130.246,-286.259C97.6584,-282.003 52.8081,-271.221 24,-244 1.61663,-222.85 0,-209.795 0,-179 0,-179 0,-179 0,-121 0,-90.2048 0.634595,-76.06 24,-56 51.6614,-32.2517 156.332,-19.1847 210.723,-13.8676"/>
<polygon fill="midnightblue" stroke="midnightblue" points="211.267,-17.3319 220.893,-12.9066 210.608,-10.3629 211.267,-17.3319"/>
</g>
<!-- Node31&#45;&gt;Node7 -->
<g id="edge64" class="edge"><title>Node31&#45;&gt;Node7</title>
<path fill="none" stroke="midnightblue" d="M183.057,-280.491C201.211,-267.778 236.769,-243.259 268,-224 311.028,-197.466 319.43,-185.103 367,-168 453.226,-136.998 488.744,-174.35 570,-132 592.004,-120.531 611.257,-99.0163 622.984,-83.889"/>
<polygon fill="midnightblue" stroke="midnightblue" points="625.81,-85.9535 628.982,-75.8447 620.199,-81.769 625.81,-85.9535"/>
</g>
<!-- Node31&#45;&gt;Node8 -->
<g id="edge65" class="edge"><title>Node31&#45;&gt;Node8</title>
<path fill="none" stroke="midnightblue" d="M211.772,-281.661C271.221,-270.96 380.668,-251.26 436.409,-241.226"/>
<polygon fill="midnightblue" stroke="midnightblue" points="437.268,-244.628 446.49,-239.412 436.028,-237.739 437.268,-244.628"/>
</g>
<!-- Node31&#45;&gt;Node9 -->
<g id="edge66" class="edge"><title>Node31&#45;&gt;Node9</title>
<path fill="none" stroke="midnightblue" d="M146.442,-280.389C130.234,-273.307 110.176,-261.548 100,-244 70.4688,-193.078 80.618,-119.38 87.6252,-85.4124"/>
<polygon fill="midnightblue" stroke="midnightblue" points="91.0739,-86.0267 89.8192,-75.5065 84.2395,-84.513 91.0739,-86.0267"/>
</g>
<!-- Node31&#45;&gt;Node10 -->
<g id="edge67" class="edge"><title>Node31&#45;&gt;Node10</title>
<path fill="none" stroke="midnightblue" d="M190.382,-280.368C233.669,-261.091 338.39,-214.454 389.282,-191.789"/>
<polygon fill="midnightblue" stroke="midnightblue" points="390.997,-194.857 398.708,-187.591 388.149,-188.462 390.997,-194.857"/>
</g>
<!-- Node31&#45;&gt;Node18 -->
<g id="edge68" class="edge"><title>Node31&#45;&gt;Node18</title>
<path fill="none" stroke="midnightblue" d="M144.085,-280.41C105.222,-266.126 38,-233.535 38,-179 38,-179 38,-179 38,-121 38,-90.9022 33.437,-74.726 57,-56 71.4481,-44.5178 615.895,-20.8144 794.726,-13.3227"/>
<polygon fill="midnightblue" stroke="midnightblue" points="795.126,-16.8092 804.971,-12.8945 794.833,-9.81527 795.126,-16.8092"/>
</g>
<!-- Node31&#45;&gt;Node19 -->
<g id="edge70" class="edge"><title>Node31&#45;&gt;Node19</title>
<path fill="none" stroke="midnightblue" d="M169.758,-280.397C168.519,-271.358 166.704,-256.715 166,-244 162.588,-182.393 163.303,-153.458 209,-112 225.571,-96.966 280.199,-83.8811 321.688,-75.7544"/>
<polygon fill="midnightblue" stroke="midnightblue" points="322.49,-79.1645 331.653,-73.847 321.174,-72.2893 322.49,-79.1645"/>
</g>
<!-- Node31&#45;&gt;Node22 -->
<g id="edge69" class="edge"><title>Node31&#45;&gt;Node22</title>
<path fill="none" stroke="midnightblue" d="M211.75,-283.773C289.403,-273.813 458.315,-252.147 542.393,-241.363"/>
<polygon fill="midnightblue" stroke="midnightblue" points="542.985,-244.816 552.458,-240.072 542.094,-237.873 542.985,-244.816"/>
</g>
<!-- Node31&#45;&gt;Node25 -->
<g id="edge71" class="edge"><title>Node31&#45;&gt;Node25</title>
<path fill="none" stroke="midnightblue" d="M169.979,-280.183C168.854,-267.292 168.128,-242.79 176,-224 191.007,-188.18 223.881,-156.115 244.926,-138.148"/>
<polygon fill="midnightblue" stroke="midnightblue" points="247.414,-140.631 252.873,-131.551 242.943,-135.245 247.414,-140.631"/>
</g>
</g>
</svg>
        <g id="navigator" transform="translate(0 0)" fill="#404254">
                <rect fill="#f2f5e9" fill-opacity="0.5" stroke="#606060" stroke-width=".5" x="0" y="0" width="60" height="60"/>
                <use id="zoomplus" xlink:href="#zoomPlus" x="17" y="9" onmousedown="handleZoom(evt,'in')"/>
                <use id="zoomminus" xlink:href="#zoomMin" x="42" y="9" onmousedown="handleZoom(evt,'out')"/>
                <use id="reset" xlink:href="#resetDef" x="30" y="36" onmousedown="handleReset()"/>
                <g id="arrowUp" xlink:href="#dirArrow" transform="translate(30 24)" onmousedown="handlePan(0,-1)">
                  <use xlink:href="#rim" fill="#404040">
                        <set attributeName="fill" to="#808080" begin="arrowUp.mouseover" end="arrowUp.mouseout"/>
                  </use>
                  <path fill="none" stroke="white" stroke-width="1.5" d="M0,-3.0v7 M-2.5,-0.5L0,-3.0L2.5,-0.5"/>
                </g>
                <g id="arrowRight" xlink:href="#dirArrow" transform="rotate(90) translate(36 -43)" onmousedown="handlePan(1,0)">
                  <use xlink:href="#rim" fill="#404040">
                        <set attributeName="fill" to="#808080" begin="arrowRight.mouseover" end="arrowRight.mouseout"/>
                  </use>
                  <path fill="none" stroke="white" stroke-width="1.5" d="M0,-3.0v7 M-2.5,-0.5L0,-3.0L2.5,-0.5"/>
                </g>
                <g id="arrowDown" xlink:href="#dirArrow" transform="rotate(180) translate(-30 -48)" onmousedown="handlePan(0,1)">
                  <use xlink:href="#rim" fill="#404040">
                        <set attributeName="fill" to="#808080" begin="arrowDown.mouseover" end="arrowDown.mouseout"/>
                  </use>
                  <path fill="none" stroke="white" stroke-width="1.5" d="M0,-3.0v7 M-2.5,-0.5L0,-3.0L2.5,-0.5"/>
                </g>
                <g id="arrowLeft" xlink:href="#dirArrow" transform="rotate(270) translate(-36 17)" onmousedown="handlePan(-1,0)">
                  <use xlink:href="#rim" fill="#404040">
                        <set attributeName="fill" to="#808080" begin="arrowLeft.mouseover" end="arrowLeft.mouseout"/>
                  </use>
                  <path fill="none" stroke="white" stroke-width="1.5" d="M0,-3.0v7 M-2.5,-0.5L0,-3.0L2.5,-0.5"/>
                </g>
        </g>
        <svg viewBox="0 0 15 15" width="100%" height="30px" preserveAspectRatio="xMaxYMin meet">
         <g id="arrow_out" transform="scale(0.3 0.3)">
          <a xlink:href="_i_plug_v_s_t_8h__incl_org.svg" target="_base">
           <rect id="button" ry="5" rx="5" y="6" x="6" height="38" width="38"
                fill="#f2f5e9" fill-opacity="0.5" stroke="#606060" stroke-width="1.0"/>
           <path id="arrow"
             d="M 11.500037,31.436501 C 11.940474,20.09759 22.043105,11.32322 32.158766,21.979434 L 37.068811,17.246167 C 37.068811,17.246167 37.088388,32 37.088388,32 L 22.160133,31.978069 C 22.160133,31.978069 26.997745,27.140456 26.997745,27.140456 C 18.528582,18.264221 13.291696,25.230495 11.500037,31.436501 z"
             style="fill:#404040;"/>
          </a>
         </g>
        </svg>
</svg>
