<?xml version="1.0" encoding="UTF-8" standalone="no"?>
<!DOCTYPE svg PUBLIC "-//W3C//DTD SVG 1.1//EN"
 "http://www.w3.org/Graphics/SVG/1.1/DTD/svg11.dtd">
<!-- Generated by graphviz version 2.36.0 (20140111.2315)
 -->
<!-- Title: IPlugProcessor.h Pages: 1 -->
<!--zoomable 308 -->
<svg id="main" version="1.1" xmlns="http://www.w3.org/2000/svg" xmlns:xlink="http://www.w3.org/1999/xlink" xml:space="preserve" onload="init(evt)">
<style type="text/css"><![CDATA[
.edge:hover path { stroke: red; }
.edge:hover polygon { stroke: red; fill: red; }
]]></style>
<script type="text/javascript"><![CDATA[
var edges = document.getElementsByTagName('g');
if (edges && edges.length) {
  for (var i=0;i<edges.length;i++) {
    if (edges[i].id.substr(0,4)=='edge') {
      edges[i].setAttribute('class','edge');
    }
  }
}
]]></script>
        <defs>
                <circle id="rim" cx="0" cy="0" r="7"/>
                <circle id="rim2" cx="0" cy="0" r="3.5"/>
                <g id="zoomPlus">
                        <use xlink:href="#rim" fill="#404040">
                                <set attributeName="fill" to="#808080" begin="zoomplus.mouseover" end="zoomplus.mouseout"/>
                        </use>
                        <path d="M-4,0h8M0,-4v8" fill="none" stroke="white" stroke-width="1.5" pointer-events="none"/>
                </g>
                <g id="zoomMin">
                        <use xlink:href="#rim" fill="#404040">
                                <set attributeName="fill" to="#808080" begin="zoomminus.mouseover" end="zoomminus.mouseout"/>
                        </use>
                        <path d="M-4,0h8" fill="none" stroke="white" stroke-width="1.5" pointer-events="none"/>
                </g>
                <g id="dirArrow">
                        <path fill="none" stroke="white" stroke-width="1.5" d="M0,-3.0v7 M-2.5,-0.5L0,-3.0L2.5,-0.5"/>
                </g>
               <g id="resetDef">
                       <use xlink:href="#rim2" fill="#404040">
                               <set attributeName="fill" to="#808080" begin="reset.mouseover" end="reset.mouseout"/>
                       </use>
               </g>
        </defs>

<script type="text/javascript">
var viewWidth = 1199;
var viewHeight = 308;
var sectionId = 'dynsection-0';
</script>
<script xlink:href="svgpan.js"/>
<svg id="graph" class="graph">
<g id="viewport">
<title>IPlugProcessor.h</title>
<polygon fill="white" stroke="none" points="-4,4 -4,-304 1194.96,-304 1194.96,4 -4,4"/>
<!-- Node1 -->
<g id="node1" class="node"><title>Node1</title>
<polygon fill="#bfbfbf" stroke="black" points="656.958,-280.5 656.958,-299.5 748.958,-299.5 748.958,-280.5 656.958,-280.5"/>
<text text-anchor="middle" x="702.958" y="-287.5" font-family="Helvetica,sans-Serif" font-size="10.00">IPlugProcessor.h</text>
</g>
<!-- Node2 -->
<g id="node2" class="node"><title>Node2</title>
<polygon fill="white" stroke="#bfbfbf" points="359.958,-0.5 359.958,-19.5 405.958,-19.5 405.958,-0.5 359.958,-0.5"/>
<text text-anchor="middle" x="382.958" y="-7.5" font-family="Helvetica,sans-Serif" font-size="10.00">cstring</text>
</g>
<!-- Node1&#45;&gt;Node2 -->
<g id="edge1" class="edge"><title>Node1&#45;&gt;Node2</title>
<path fill="none" stroke="midnightblue" d="M656.614,-286.182C550.496,-278.462 298.958,-252.419 298.958,-179 298.958,-179 298.958,-179 298.958,-121 298.958,-79.7307 336.766,-44.3249 361.652,-25.4905"/>
<polygon fill="midnightblue" stroke="midnightblue" points="363.807,-28.2514 369.833,-19.5372 359.688,-22.5916 363.807,-28.2514"/>
</g>
<!-- Node3 -->
<g id="node3" class="node"><title>Node3</title>
<polygon fill="white" stroke="#bfbfbf" points="864.958,-56.5 864.958,-75.5 910.958,-75.5 910.958,-56.5 864.958,-56.5"/>
<text text-anchor="middle" x="887.958" y="-63.5" font-family="Helvetica,sans-Serif" font-size="10.00">cstdint</text>
</g>
<!-- Node1&#45;&gt;Node3 -->
<g id="edge2" class="edge"><title>Node1&#45;&gt;Node3</title>
<path fill="none" stroke="midnightblue" d="M728.468,-280.408C764.174,-266.909 828.03,-237.088 857.958,-188 877.701,-155.616 884.472,-110.867 886.779,-85.8572"/>
<polygon fill="midnightblue" stroke="midnightblue" points="890.292,-85.8279 887.573,-75.5878 883.313,-85.2882 890.292,-85.8279"/>
</g>
<!-- Node4 -->
<g id="node4" class="node"><title>Node4</title>
<polygon fill="white" stroke="#bfbfbf" points="1043.46,-224.5 1043.46,-243.5 1092.46,-243.5 1092.46,-224.5 1043.46,-224.5"/>
<text text-anchor="middle" x="1067.96" y="-231.5" font-family="Helvetica,sans-Serif" font-size="10.00">ptrlist.h</text>
</g>
<!-- Node1&#45;&gt;Node4 -->
<g id="edge3" class="edge"><title>Node1&#45;&gt;Node4</title>
<path fill="none" stroke="midnightblue" d="M749.055,-283.956C812.397,-276.726 929.782,-262.25 1028.96,-244 1030.41,-243.733 1031.89,-243.448 1033.38,-243.15"/>
<polygon fill="midnightblue" stroke="midnightblue" points="1034.22,-246.551 1043.27,-241.049 1032.76,-239.704 1034.22,-246.551"/>
</g>
<!-- Node5 -->
<g id="node5" class="node"><title>Node5</title>
<g id="a_node5"><a xlink:href="_i_plug_platform_8h.html" target="_top" xlink:title="Include to get consistently named preprocessor macros for different platforms and logging functionali...">
<polygon fill="white" stroke="black" points="568.958,-168.5 568.958,-187.5 652.958,-187.5 652.958,-168.5 568.958,-168.5"/>
<text text-anchor="middle" x="610.958" y="-175.5" font-family="Helvetica,sans-Serif" font-size="10.00">IPlugPlatform.h</text>
</a>
</g>
</g>
<!-- Node1&#45;&gt;Node5 -->
<g id="edge4" class="edge"><title>Node1&#45;&gt;Node5</title>
<path fill="none" stroke="midnightblue" d="M695.739,-280.368C680.422,-262.055 644.453,-219.049 624.643,-195.362"/>
<polygon fill="midnightblue" stroke="midnightblue" points="627.244,-193.017 618.143,-187.591 621.874,-197.508 627.244,-193.017"/>
</g>
<!-- Node14 -->
<g id="node14" class="node"><title>Node14</title>
<g id="a_node14"><a xlink:href="_i_plug_constants_8h.html" target="_top" xlink:title="Constant definitions, magic numbers. ">
<polygon fill="white" stroke="black" points="892.958,-0.5 892.958,-19.5 984.958,-19.5 984.958,-0.5 892.958,-0.5"/>
<text text-anchor="middle" x="938.958" y="-7.5" font-family="Helvetica,sans-Serif" font-size="10.00">IPlugConstants.h</text>
</a>
</g>
</g>
<!-- Node1&#45;&gt;Node14 -->
<g id="edge24" class="edge"><title>Node1&#45;&gt;Node14</title>
<path fill="none" stroke="midnightblue" d="M748.994,-282.572C835.782,-269.156 1014.96,-234.712 1014.96,-179 1014.96,-179 1014.96,-179 1014.96,-121 1014.96,-81.2757 980.994,-45.5045 958.476,-26.1536"/>
<polygon fill="midnightblue" stroke="midnightblue" points="960.44,-23.2364 950.5,-19.5672 955.982,-28.6337 960.44,-23.2364"/>
</g>
<!-- Node15 -->
<g id="node15" class="node"><title>Node15</title>
<g id="a_node15"><a xlink:href="_i_plug_utilities_8h.html" target="_top" xlink:title="Utility functions and macros. ">
<polygon fill="white" stroke="black" points="364.958,-56.5 364.958,-75.5 444.958,-75.5 444.958,-56.5 364.958,-56.5"/>
<text text-anchor="middle" x="404.958" y="-63.5" font-family="Helvetica,sans-Serif" font-size="10.00">IPlugUtilities.h</text>
</a>
</g>
</g>
<!-- Node1&#45;&gt;Node15 -->
<g id="edge35" class="edge"><title>Node1&#45;&gt;Node15</title>
<path fill="none" stroke="midnightblue" d="M690.619,-280.488C665.729,-263.274 607.801,-222.984 559.958,-188 526.664,-163.655 518.489,-157.354 485.958,-132 464.359,-115.167 439.879,-95.4291 423.538,-82.1579"/>
<polygon fill="midnightblue" stroke="midnightblue" points="425.333,-79.1062 415.367,-75.5098 420.915,-84.536 425.333,-79.1062"/>
</g>
<!-- Node18 -->
<g id="node18" class="node"><title>Node18</title>
<g id="a_node18"><a xlink:href="_i_plug_structs_8h_source.html" target="_top" xlink:title="IPlugStructs.h">
<polygon fill="white" stroke="black" points="706.458,-224.5 706.458,-243.5 785.458,-243.5 785.458,-224.5 706.458,-224.5"/>
<text text-anchor="middle" x="745.958" y="-231.5" font-family="Helvetica,sans-Serif" font-size="10.00">IPlugStructs.h</text>
</a>
</g>
</g>
<!-- Node1&#45;&gt;Node18 -->
<g id="edge25" class="edge"><title>Node1&#45;&gt;Node18</title>
<path fill="none" stroke="midnightblue" d="M710.058,-280.083C716.195,-272.377 725.227,-261.033 732.697,-251.653"/>
<polygon fill="midnightblue" stroke="midnightblue" points="735.498,-253.754 738.989,-243.751 730.022,-249.394 735.498,-253.754"/>
</g>
<!-- Node21 -->
<g id="node21" class="node"><title>Node21</title>
<g id="a_node21"><a xlink:href="_n_chan_delay_8h_source.html" target="_top" xlink:title="NChanDelay.h">
<polygon fill="white" stroke="black" points="1110.46,-224.5 1110.46,-243.5 1191.46,-243.5 1191.46,-224.5 1110.46,-224.5"/>
<text text-anchor="middle" x="1150.96" y="-231.5" font-family="Helvetica,sans-Serif" font-size="10.00">NChanDelay.h</text>
</a>
</g>
</g>
<!-- Node1&#45;&gt;Node21 -->
<g id="edge36" class="edge"><title>Node1&#45;&gt;Node21</title>
<path fill="none" stroke="midnightblue" d="M749.048,-284.778C821.508,-277.924 966.701,-263.317 1100.33,-244.001"/>
<polygon fill="midnightblue" stroke="midnightblue" points="1100.94,-247.448 1110.33,-242.542 1099.93,-240.521 1100.94,-247.448"/>
</g>
<!-- Node22 -->
<g id="node22" class="node"><title>Node22</title>
<g id="a_node22"><a xlink:href="_i_plug_processor_8cpp_source.html" target="_top" xlink:title="IPlugProcessor.cpp">
<polygon fill="white" stroke="black" points="141.958,-112.5 141.958,-131.5 243.958,-131.5 243.958,-112.5 141.958,-112.5"/>
<text text-anchor="middle" x="192.958" y="-119.5" font-family="Helvetica,sans-Serif" font-size="10.00">IPlugProcessor.cpp</text>
</a>
</g>
</g>
<!-- Node1&#45;&gt;Node22 -->
<g id="edge37" class="edge"><title>Node1&#45;&gt;Node22</title>
<path fill="none" stroke="midnightblue" d="M656.845,-288.644C559.989,-287.202 339.675,-279.974 275.958,-244 233.964,-220.291 205.044,-168.773 195.204,-141.23"/>
<polygon fill="midnightblue" stroke="midnightblue" points="198.553,-140.21 192.309,-131.65 191.852,-142.235 198.553,-140.21"/>
</g>
<!-- Node6 -->
<g id="node6" class="node"><title>Node6</title>
<g id="a_node6"><a xlink:href="_i_plug_logger_8h.html" target="_top" xlink:title="IPlug Logging functionailty To trace some arbitrary data: Trace(TRACELOC, &quot;%s:%d&quot;, myStr, myInt); To simply create a trace entry in the log: TRACE; No need to wrap tracer calls in #ifdef TRACER_BUILD because Trace is a no&#45;op unless TRACER_BUILD is defined. ">
<polygon fill="white" stroke="black" points="542.458,-112.5 542.458,-131.5 619.458,-131.5 619.458,-112.5 542.458,-112.5"/>
<text text-anchor="middle" x="580.958" y="-119.5" font-family="Helvetica,sans-Serif" font-size="10.00">IPlugLogger.h</text>
</a>
</g>
</g>
<!-- Node5&#45;&gt;Node6 -->
<g id="edge5" class="edge"><title>Node5&#45;&gt;Node6</title>
<path fill="none" stroke="midnightblue" d="M606.004,-168.083C601.854,-160.613 595.805,-149.724 590.691,-140.52"/>
<polygon fill="midnightblue" stroke="midnightblue" points="593.735,-138.793 585.819,-131.751 587.616,-142.192 593.735,-138.793"/>
</g>
<!-- Node6&#45;&gt;Node2 -->
<g id="edge10" class="edge"><title>Node6&#45;&gt;Node2</title>
<path fill="none" stroke="midnightblue" d="M565.421,-112.368C531.083,-93.2916 448.518,-47.4223 407.267,-24.5054"/>
<polygon fill="midnightblue" stroke="midnightblue" points="408.864,-21.3883 398.422,-19.5914 405.464,-27.5075 408.864,-21.3883"/>
</g>
<!-- Node6&#45;&gt;Node3 -->
<g id="edge9" class="edge"><title>Node6&#45;&gt;Node3</title>
<path fill="none" stroke="midnightblue" d="M619.476,-116.084C670.969,-109.209 765.231,-95.5673 854.589,-76.1042"/>
<polygon fill="midnightblue" stroke="midnightblue" points="855.605,-79.4643 864.615,-73.8908 854.096,-72.6289 855.605,-79.4643"/>
</g>
<!-- Node7 -->
<g id="node7" class="node"><title>Node7</title>
<polygon fill="white" stroke="#bfbfbf" points="298.458,-0.5 298.458,-19.5 341.458,-19.5 341.458,-0.5 298.458,-0.5"/>
<text text-anchor="middle" x="319.958" y="-7.5" font-family="Helvetica,sans-Serif" font-size="10.00">cstdio</text>
</g>
<!-- Node6&#45;&gt;Node7 -->
<g id="edge6" class="edge"><title>Node6&#45;&gt;Node7</title>
<path fill="none" stroke="midnightblue" d="M542.298,-117.205C486.043,-111.036 385.143,-97.3334 355.958,-76 340.37,-64.6064 330.704,-44.317 325.363,-29.4284"/>
<polygon fill="midnightblue" stroke="midnightblue" points="328.636,-28.1743 322.216,-19.7461 321.979,-30.3382 328.636,-28.1743"/>
</g>
<!-- Node8 -->
<g id="node8" class="node"><title>Node8</title>
<polygon fill="white" stroke="#bfbfbf" points="487.958,-0.5 487.958,-19.5 533.958,-19.5 533.958,-0.5 487.958,-0.5"/>
<text text-anchor="middle" x="510.958" y="-7.5" font-family="Helvetica,sans-Serif" font-size="10.00">cctype</text>
</g>
<!-- Node6&#45;&gt;Node8 -->
<g id="edge7" class="edge"><title>Node6&#45;&gt;Node8</title>
<path fill="none" stroke="midnightblue" d="M567.312,-112.254C555.759,-104.172 539.584,-91.1484 529.958,-76 520.992,-61.891 516.124,-43.4029 513.568,-29.7527"/>
<polygon fill="midnightblue" stroke="midnightblue" points="516.982,-28.9373 511.926,-19.6267 510.072,-30.0581 516.982,-28.9373"/>
</g>
<!-- Node9 -->
<g id="node9" class="node"><title>Node9</title>
<polygon fill="white" stroke="#bfbfbf" points="539.458,-56.5 539.458,-75.5 588.458,-75.5 588.458,-56.5 539.458,-56.5"/>
<text text-anchor="middle" x="563.958" y="-63.5" font-family="Helvetica,sans-Serif" font-size="10.00">cstdarg</text>
</g>
<!-- Node6&#45;&gt;Node9 -->
<g id="edge8" class="edge"><title>Node6&#45;&gt;Node9</title>
<path fill="none" stroke="midnightblue" d="M578.15,-112.083C575.873,-104.849 572.586,-94.4087 569.749,-85.3968"/>
<polygon fill="midnightblue" stroke="midnightblue" points="573.054,-84.2385 566.713,-75.7511 566.377,-86.3406 573.054,-84.2385"/>
</g>
<!-- Node10 -->
<g id="node10" class="node"><title>Node10</title>
<polygon fill="white" stroke="#bfbfbf" points="229.458,-56.5 229.458,-75.5 270.458,-75.5 270.458,-56.5 229.458,-56.5"/>
<text text-anchor="middle" x="249.958" y="-63.5" font-family="Helvetica,sans-Serif" font-size="10.00">ctime</text>
</g>
<!-- Node6&#45;&gt;Node10 -->
<g id="edge11" class="edge"><title>Node6&#45;&gt;Node10</title>
<path fill="none" stroke="midnightblue" d="M542.34,-114.7C475.898,-103.86 341.271,-81.897 280.703,-72.0159"/>
<polygon fill="midnightblue" stroke="midnightblue" points="281.058,-68.5276 270.625,-70.3717 279.931,-75.4363 281.058,-68.5276"/>
</g>
<!-- Node11 -->
<g id="node11" class="node"><title>Node11</title>
<polygon fill="white" stroke="#bfbfbf" points="677.458,-56.5 677.458,-75.5 726.458,-75.5 726.458,-56.5 677.458,-56.5"/>
<text text-anchor="middle" x="701.958" y="-63.5" font-family="Helvetica,sans-Serif" font-size="10.00">cassert</text>
</g>
<!-- Node6&#45;&gt;Node11 -->
<g id="edge12" class="edge"><title>Node6&#45;&gt;Node11</title>
<path fill="none" stroke="midnightblue" d="M600.13,-112.444C619.867,-103.636 650.843,-89.8116 673.451,-79.722"/>
<polygon fill="midnightblue" stroke="midnightblue" points="675.169,-82.788 682.875,-75.5164 672.316,-76.3957 675.169,-82.788"/>
</g>
<!-- Node12 -->
<g id="node12" class="node"><title>Node12</title>
<polygon fill="white" stroke="#bfbfbf" points="782.958,-56.5 782.958,-75.5 846.958,-75.5 846.958,-56.5 782.958,-56.5"/>
<text text-anchor="middle" x="814.958" y="-63.5" font-family="Helvetica,sans-Serif" font-size="10.00">wdlstring.h</text>
</g>
<!-- Node6&#45;&gt;Node12 -->
<g id="edge13" class="edge"><title>Node6&#45;&gt;Node12</title>
<path fill="none" stroke="midnightblue" d="M618.036,-112.444C660.239,-102.704 729.02,-86.8319 773.111,-76.6569"/>
<polygon fill="midnightblue" stroke="midnightblue" points="773.984,-80.0475 782.941,-74.3884 772.41,-73.2267 773.984,-80.0475"/>
</g>
<!-- Node13 -->
<g id="node13" class="node"><title>Node13</title>
<polygon fill="white" stroke="#bfbfbf" points="606.958,-56.5 606.958,-75.5 658.958,-75.5 658.958,-56.5 606.958,-56.5"/>
<text text-anchor="middle" x="632.958" y="-63.5" font-family="Helvetica,sans-Serif" font-size="10.00">mutex.h</text>
</g>
<!-- Node6&#45;&gt;Node13 -->
<g id="edge14" class="edge"><title>Node6&#45;&gt;Node13</title>
<path fill="none" stroke="midnightblue" d="M589.544,-112.083C597.117,-104.22 608.336,-92.5688 617.472,-83.0813"/>
<polygon fill="midnightblue" stroke="midnightblue" points="620.115,-85.3821 624.531,-75.7511 615.073,-80.5266 620.115,-85.3821"/>
</g>
<!-- Node6&#45;&gt;Node14 -->
<g id="edge15" class="edge"><title>Node6&#45;&gt;Node14</title>
<path fill="none" stroke="midnightblue" d="M617.394,-112.433C649.017,-104.509 695.754,-91.6161 734.958,-76 753.054,-68.7914 755.797,-63.0451 773.958,-56 811.463,-41.451 855.485,-29.6976 888.621,-21.8558"/>
<polygon fill="midnightblue" stroke="midnightblue" points="889.589,-25.2241 898.536,-19.549 888.003,-18.4062 889.589,-25.2241"/>
</g>
<!-- Node6&#45;&gt;Node15 -->
<g id="edge16" class="edge"><title>Node6&#45;&gt;Node15</title>
<path fill="none" stroke="midnightblue" d="M553.07,-112.444C523.204,-103.28 475.643,-88.6876 442.502,-78.5192"/>
<polygon fill="midnightblue" stroke="midnightblue" points="443.302,-75.1037 432.715,-75.5164 441.248,-81.7958 443.302,-75.1037"/>
</g>
<!-- Node15&#45;&gt;Node2 -->
<g id="edge20" class="edge"><title>Node15&#45;&gt;Node2</title>
<path fill="none" stroke="midnightblue" d="M401.325,-56.083C398.345,-48.77 394.032,-38.1814 390.333,-29.1034"/>
<polygon fill="midnightblue" stroke="midnightblue" points="393.537,-27.6914 386.523,-19.7511 387.055,-30.3326 393.537,-27.6914"/>
</g>
<!-- Node15&#45;&gt;Node5 -->
<g id="edge23" class="edge"><title>Node15&#45;&gt;Node5</title>
<path fill="none" stroke="midnightblue" d="M421.047,-75.5914C456.777,-94.6708 542.96,-140.691 585.846,-163.591"/>
<polygon fill="midnightblue" stroke="midnightblue" points="584.323,-166.746 594.793,-168.368 587.621,-160.571 584.323,-166.746"/>
</g>
<!-- Node15&#45;&gt;Node7 -->
<g id="edge18" class="edge"><title>Node15&#45;&gt;Node7</title>
<path fill="none" stroke="midnightblue" d="M391.301,-56.324C378.041,-47.9002 357.69,-34.9709 342.111,-25.0741"/>
<polygon fill="midnightblue" stroke="midnightblue" points="343.898,-22.0626 333.58,-19.6545 340.144,-27.9711 343.898,-22.0626"/>
</g>
<!-- Node15&#45;&gt;Node8 -->
<g id="edge21" class="edge"><title>Node15&#45;&gt;Node8</title>
<path fill="none" stroke="midnightblue" d="M421.988,-56.324C438.987,-47.6641 465.334,-34.2424 484.95,-24.249"/>
<polygon fill="midnightblue" stroke="midnightblue" points="486.648,-27.3125 493.969,-19.6545 483.47,-21.0752 486.648,-27.3125"/>
</g>
<!-- Node15&#45;&gt;Node14 -->
<g id="edge22" class="edge"><title>Node15&#45;&gt;Node14</title>
<path fill="none" stroke="midnightblue" d="M445.094,-60.9412C539.202,-51.4248 774.276,-27.6532 882.634,-16.6957"/>
<polygon fill="midnightblue" stroke="midnightblue" points="883.118,-20.1646 892.715,-15.6762 882.414,-13.2002 883.118,-20.1646"/>
</g>
<!-- Node16 -->
<g id="node16" class="node"><title>Node16</title>
<polygon fill="white" stroke="#bfbfbf" points="97.9577,-0.5 97.9577,-19.5 141.958,-19.5 141.958,-0.5 97.9577,-0.5"/>
<text text-anchor="middle" x="119.958" y="-7.5" font-family="Helvetica,sans-Serif" font-size="10.00">cmath</text>
</g>
<!-- Node15&#45;&gt;Node16 -->
<g id="edge17" class="edge"><title>Node15&#45;&gt;Node16</title>
<path fill="none" stroke="midnightblue" d="M364.729,-57.3776C307.74,-46.5798 204.627,-27.0426 152.297,-17.1275"/>
<polygon fill="midnightblue" stroke="midnightblue" points="152.714,-13.6442 142.237,-15.2213 151.41,-20.5218 152.714,-13.6442"/>
</g>
<!-- Node17 -->
<g id="node17" class="node"><title>Node17</title>
<polygon fill="white" stroke="#bfbfbf" points="424.458,-0.5 424.458,-19.5 469.458,-19.5 469.458,-0.5 424.458,-0.5"/>
<text text-anchor="middle" x="446.958" y="-7.5" font-family="Helvetica,sans-Serif" font-size="10.00">cstdlib</text>
</g>
<!-- Node15&#45;&gt;Node17 -->
<g id="edge19" class="edge"><title>Node15&#45;&gt;Node17</title>
<path fill="none" stroke="midnightblue" d="M411.893,-56.083C417.887,-48.3768 426.71,-37.0333 434.005,-27.6531"/>
<polygon fill="midnightblue" stroke="midnightblue" points="436.775,-29.7934 440.151,-19.7511 431.249,-25.4958 436.775,-29.7934"/>
</g>
<!-- Node18&#45;&gt;Node5 -->
<g id="edge29" class="edge"><title>Node18&#45;&gt;Node5</title>
<path fill="none" stroke="midnightblue" d="M724.567,-224.444C702.25,-215.517 667.054,-201.439 641.75,-191.317"/>
<polygon fill="midnightblue" stroke="midnightblue" points="642.833,-187.981 632.249,-187.516 640.234,-194.48 642.833,-187.981"/>
</g>
<!-- Node18&#45;&gt;Node12 -->
<g id="edge27" class="edge"><title>Node18&#45;&gt;Node12</title>
<path fill="none" stroke="midnightblue" d="M749.667,-224.075C760.576,-197.832 792.701,-120.545 807.427,-85.1165"/>
<polygon fill="midnightblue" stroke="midnightblue" points="810.79,-86.1456 811.396,-75.5681 804.326,-83.4588 810.79,-86.1456"/>
</g>
<!-- Node18&#45;&gt;Node14 -->
<g id="edge28" class="edge"><title>Node18&#45;&gt;Node14</title>
<path fill="none" stroke="midnightblue" d="M780.852,-224.439C804.358,-217.431 835.12,-205.74 857.958,-188 906.678,-150.154 920.786,-134.639 939.958,-76 944.84,-61.0656 944.117,-43.1512 942.44,-29.9148"/>
<polygon fill="midnightblue" stroke="midnightblue" points="945.843,-29.0182 940.839,-19.6794 938.927,-30.1003 945.843,-29.0182"/>
</g>
<!-- Node19 -->
<g id="node19" class="node"><title>Node19</title>
<polygon fill="white" stroke="#bfbfbf" points="793.958,-168.5 793.958,-187.5 849.958,-187.5 849.958,-168.5 793.958,-168.5"/>
<text text-anchor="middle" x="821.958" y="-175.5" font-family="Helvetica,sans-Serif" font-size="10.00">algorithm</text>
</g>
<!-- Node18&#45;&gt;Node19 -->
<g id="edge26" class="edge"><title>Node18&#45;&gt;Node19</title>
<path fill="none" stroke="midnightblue" d="M758.168,-224.324C769.734,-216.107 787.333,-203.602 801.118,-193.807"/>
<polygon fill="midnightblue" stroke="midnightblue" points="803.4,-196.479 809.525,-187.834 799.346,-190.773 803.4,-196.479"/>
</g>
<!-- Node20 -->
<g id="node20" class="node"><title>Node20</title>
<g id="a_node20"><a xlink:href="_i_plug_midi_8h_source.html" target="_top" xlink:title="IPlugMidi.h">
<polygon fill="white" stroke="black" points="672.458,-112.5 672.458,-131.5 737.458,-131.5 737.458,-112.5 672.458,-112.5"/>
<text text-anchor="middle" x="704.958" y="-119.5" font-family="Helvetica,sans-Serif" font-size="10.00">IPlugMidi.h</text>
</a>
</g>
</g>
<!-- Node18&#45;&gt;Node20 -->
<g id="edge30" class="edge"><title>Node18&#45;&gt;Node20</title>
<path fill="none" stroke="midnightblue" d="M742.74,-224.368C736.094,-206.537 720.722,-165.295 711.768,-141.272"/>
<polygon fill="midnightblue" stroke="midnightblue" points="714.932,-139.739 708.16,-131.591 708.373,-142.184 714.932,-139.739"/>
</g>
<!-- Node20&#45;&gt;Node3 -->
<g id="edge32" class="edge"><title>Node20&#45;&gt;Node3</title>
<path fill="none" stroke="midnightblue" d="M733.955,-112.444C766.977,-102.699 820.804,-86.8158 855.284,-76.6414"/>
<polygon fill="midnightblue" stroke="midnightblue" points="856.29,-79.9938 864.891,-73.8067 854.309,-73.28 856.29,-79.9938"/>
</g>
<!-- Node20&#45;&gt;Node11 -->
<g id="edge31" class="edge"><title>Node20&#45;&gt;Node11</title>
<path fill="none" stroke="midnightblue" d="M704.462,-112.083C704.069,-105.006 703.506,-94.8611 703.012,-85.9865"/>
<polygon fill="midnightblue" stroke="midnightblue" points="706.493,-85.5415 702.444,-75.7511 699.504,-85.9299 706.493,-85.5415"/>
</g>
<!-- Node20&#45;&gt;Node14 -->
<g id="edge33" class="edge"><title>Node20&#45;&gt;Node14</title>
<path fill="none" stroke="midnightblue" d="M737.69,-118.231C791.126,-113.062 893.78,-100.21 919.958,-76 932.626,-64.2842 937.013,-44.6378 938.451,-30.0048"/>
<polygon fill="midnightblue" stroke="midnightblue" points="941.971,-29.7827 939.074,-19.5916 934.983,-29.3648 941.971,-29.7827"/>
</g>
<!-- Node20&#45;&gt;Node15 -->
<g id="edge34" class="edge"><title>Node20&#45;&gt;Node15</title>
<path fill="none" stroke="midnightblue" d="M672.281,-115.118C619.919,-105.693 516.843,-87.1394 455.108,-76.0271"/>
<polygon fill="midnightblue" stroke="midnightblue" points="455.66,-72.5702 445.198,-74.2433 454.42,-79.4595 455.66,-72.5702"/>
</g>
<!-- Node22&#45;&gt;Node1 -->
<g id="edge44" class="edge"><title>Node22&#45;&gt;Node1</title>
<path fill="none" stroke="midnightblue" d="M200.793,-131.65C215.596,-154.606 246.389,-217.143 293.958,-244 353.365,-277.541 548.902,-286.092 646.575,-288.265"/>
<polygon fill="midnightblue" stroke="midnightblue" points="646.78,-291.77 656.851,-288.478 646.925,-284.772 646.78,-291.77"/>
</g>
<!-- Node22&#45;&gt;Node7 -->
<g id="edge39" class="edge"><title>Node22&#45;&gt;Node7</title>
<path fill="none" stroke="midnightblue" d="M141.659,-116.632C85.3632,-109.887 6.94988,-93.5414 38.9577,-56 70.6883,-18.7837 221.4,-12.2167 288.087,-11.1517"/>
<polygon fill="midnightblue" stroke="midnightblue" points="288.453,-14.6474 298.408,-11.0206 288.364,-7.64797 288.453,-14.6474"/>
</g>
<!-- Node22&#45;&gt;Node10 -->
<g id="edge40" class="edge"><title>Node22&#45;&gt;Node10</title>
<path fill="none" stroke="midnightblue" d="M202.116,-112.324C210.459,-104.42 222.99,-92.5482 233.135,-82.9377"/>
<polygon fill="midnightblue" stroke="midnightblue" points="235.781,-85.2522 240.633,-75.8339 230.966,-80.1705 235.781,-85.2522"/>
</g>
<!-- Node22&#45;&gt;Node11 -->
<g id="edge41" class="edge"><title>Node22&#45;&gt;Node11</title>
<path fill="none" stroke="midnightblue" d="M244.293,-118.903C330.018,-114.799 507.779,-103.719 667.193,-75.8357"/>
<polygon fill="midnightblue" stroke="midnightblue" points="667.946,-79.2567 677.18,-74.0621 666.723,-72.3645 667.946,-79.2567"/>
</g>
<!-- Node22&#45;&gt;Node16 -->
<g id="edge38" class="edge"><title>Node22&#45;&gt;Node16</title>
<path fill="none" stroke="midnightblue" d="M141.688,-115.731C92.2675,-109.469 22.5937,-97.1142 5.95767,-76 -19.1823,-44.0926 45.9963,-25.1005 87.8783,-16.5109"/>
<polygon fill="midnightblue" stroke="midnightblue" points="88.5535,-19.9453 97.6993,-14.597 87.2144,-13.0745 88.5535,-19.9453"/>
</g>
<!-- Node23 -->
<g id="node23" class="node"><title>Node23</title>
<polygon fill="white" stroke="#bfbfbf" points="47.9577,-56.5 47.9577,-75.5 115.958,-75.5 115.958,-56.5 47.9577,-56.5"/>
<text text-anchor="middle" x="81.9577" y="-63.5" font-family="Helvetica,sans-Serif" font-size="10.00">wdlendian.h</text>
</g>
<!-- Node22&#45;&gt;Node23 -->
<g id="edge42" class="edge"><title>Node22&#45;&gt;Node23</title>
<path fill="none" stroke="midnightblue" d="M175.124,-112.324C157.242,-103.625 129.483,-90.1202 108.912,-80.113"/>
<polygon fill="midnightblue" stroke="midnightblue" points="110.271,-76.8819 99.7475,-75.6545 107.209,-83.1765 110.271,-76.8819"/>
</g>
<!-- Node24 -->
<g id="node24" class="node"><title>Node24</title>
<polygon fill="white" stroke="#bfbfbf" points="134.458,-56.5 134.458,-75.5 211.458,-75.5 211.458,-56.5 134.458,-56.5"/>
<text text-anchor="middle" x="172.958" y="-63.5" font-family="Helvetica,sans-Serif" font-size="10.00">wdl_base64.h</text>
</g>
<!-- Node22&#45;&gt;Node24 -->
<g id="edge43" class="edge"><title>Node22&#45;&gt;Node24</title>
<path fill="none" stroke="midnightblue" d="M189.655,-112.083C186.976,-104.849 183.109,-94.4087 179.771,-85.3968"/>
<polygon fill="midnightblue" stroke="midnightblue" points="182.954,-83.9129 176.199,-75.7511 176.39,-86.3442 182.954,-83.9129"/>
</g>
</g>
</svg>
        <g id="navigator" transform="translate(0 0)" fill="#404254">
                <rect fill="#f2f5e9" fill-opacity="0.5" stroke="#606060" stroke-width=".5" x="0" y="0" width="60" height="60"/>
                <use id="zoomplus" xlink:href="#zoomPlus" x="17" y="9" onmousedown="handleZoom(evt,'in')"/>
                <use id="zoomminus" xlink:href="#zoomMin" x="42" y="9" onmousedown="handleZoom(evt,'out')"/>
                <use id="reset" xlink:href="#resetDef" x="30" y="36" onmousedown="handleReset()"/>
                <g id="arrowUp" xlink:href="#dirArrow" transform="translate(30 24)" onmousedown="handlePan(0,-1)">
                  <use xlink:href="#rim" fill="#404040">
                        <set attributeName="fill" to="#808080" begin="arrowUp.mouseover" end="arrowUp.mouseout"/>
                  </use>
                  <path fill="none" stroke="white" stroke-width="1.5" d="M0,-3.0v7 M-2.5,-0.5L0,-3.0L2.5,-0.5"/>
                </g>
                <g id="arrowRight" xlink:href="#dirArrow" transform="rotate(90) translate(36 -43)" onmousedown="handlePan(1,0)">
                  <use xlink:href="#rim" fill="#404040">
                        <set attributeName="fill" to="#808080" begin="arrowRight.mouseover" end="arrowRight.mouseout"/>
                  </use>
                  <path fill="none" stroke="white" stroke-width="1.5" d="M0,-3.0v7 M-2.5,-0.5L0,-3.0L2.5,-0.5"/>
                </g>
                <g id="arrowDown" xlink:href="#dirArrow" transform="rotate(180) translate(-30 -48)" onmousedown="handlePan(0,1)">
                  <use xlink:href="#rim" fill="#404040">
                        <set attributeName="fill" to="#808080" begin="arrowDown.mouseover" end="arrowDown.mouseout"/>
                  </use>
                  <path fill="none" stroke="white" stroke-width="1.5" d="M0,-3.0v7 M-2.5,-0.5L0,-3.0L2.5,-0.5"/>
                </g>
                <g id="arrowLeft" xlink:href="#dirArrow" transform="rotate(270) translate(-36 17)" onmousedown="handlePan(-1,0)">
                  <use xlink:href="#rim" fill="#404040">
                        <set attributeName="fill" to="#808080" begin="arrowLeft.mouseover" end="arrowLeft.mouseout"/>
                  </use>
                  <path fill="none" stroke="white" stroke-width="1.5" d="M0,-3.0v7 M-2.5,-0.5L0,-3.0L2.5,-0.5"/>
                </g>
        </g>
        <svg viewBox="0 0 15 15" width="100%" height="30px" preserveAspectRatio="xMaxYMin meet">
         <g id="arrow_out" transform="scale(0.3 0.3)">
          <a xlink:href="_i_plug_processor_8h__incl_org.svg" target="_base">
           <rect id="button" ry="5" rx="5" y="6" x="6" height="38" width="38"
                fill="#f2f5e9" fill-opacity="0.5" stroke="#606060" stroke-width="1.0"/>
           <path id="arrow"
             d="M 11.500037,31.436501 C 11.940474,20.09759 22.043105,11.32322 32.158766,21.979434 L 37.068811,17.246167 C 37.068811,17.246167 37.088388,32 37.088388,32 L 22.160133,31.978069 C 22.160133,31.978069 26.997745,27.140456 26.997745,27.140456 C 18.528582,18.264221 13.291696,25.230495 11.500037,31.436501 z"
             style="fill:#404040;"/>
          </a>
         </g>
        </svg>
</svg>
