<?xml version="1.0" encoding="UTF-8" standalone="no"?>
<!DOCTYPE svg PUBLIC "-//W3C//DTD SVG 1.1//EN"
 "http://www.w3.org/Graphics/SVG/1.1/DTD/svg11.dtd">
<!-- Generated by graphviz version 2.36.0 (20140111.2315)
 -->
<!-- Title: IPlug_include_in_plug_hdr.h Pages: 1 -->
<!--zoomable 264 -->
<svg id="main" version="1.1" xmlns="http://www.w3.org/2000/svg" xmlns:xlink="http://www.w3.org/1999/xlink" xml:space="preserve" onload="init(evt)">
<style type="text/css"><![CDATA[
.edge:hover path { stroke: red; }
.edge:hover polygon { stroke: red; fill: red; }
]]></style>
<script type="text/javascript"><![CDATA[
var edges = document.getElementsByTagName('g');
if (edges && edges.length) {
  for (var i=0;i<edges.length;i++) {
    if (edges[i].id.substr(0,4)=='edge') {
      edges[i].setAttribute('class','edge');
    }
  }
}
]]></script>
        <defs>
                <circle id="rim" cx="0" cy="0" r="7"/>
                <circle id="rim2" cx="0" cy="0" r="3.5"/>
                <g id="zoomPlus">
                        <use xlink:href="#rim" fill="#404040">
                                <set attributeName="fill" to="#808080" begin="zoomplus.mouseover" end="zoomplus.mouseout"/>
                        </use>
                        <path d="M-4,0h8M0,-4v8" fill="none" stroke="white" stroke-width="1.5" pointer-events="none"/>
                </g>
                <g id="zoomMin">
                        <use xlink:href="#rim" fill="#404040">
                                <set attributeName="fill" to="#808080" begin="zoomminus.mouseover" end="zoomminus.mouseout"/>
                        </use>
                        <path d="M-4,0h8" fill="none" stroke="white" stroke-width="1.5" pointer-events="none"/>
                </g>
                <g id="dirArrow">
                        <path fill="none" stroke="white" stroke-width="1.5" d="M0,-3.0v7 M-2.5,-0.5L0,-3.0L2.5,-0.5"/>
                </g>
               <g id="resetDef">
                       <use xlink:href="#rim2" fill="#404040">
                               <set attributeName="fill" to="#808080" begin="reset.mouseover" end="reset.mouseout"/>
                       </use>
               </g>
        </defs>

<script type="text/javascript">
var viewWidth = 736;
var viewHeight = 264;
var sectionId = 'dynsection-0';
</script>
<script xlink:href="svgpan.js"/>
<svg id="graph" class="graph">
<g id="viewport">
<title>IPlug_include_in_plug_hdr.h</title>
<polygon fill="white" stroke="none" points="-4,4 -4,-260 732.147,-260 732.147,4 -4,4"/>
<!-- Node1 -->
<g id="node1" class="node"><title>Node1</title>
<polygon fill="#bfbfbf" stroke="black" points="324.647,-225 324.647,-255 435.647,-255 435.647,-225 324.647,-225"/>
<text text-anchor="start" x="332.647" y="-243" font-family="Helvetica,sans-Serif" font-size="10.00">IPlug_include_in_plug</text>
<text text-anchor="middle" x="380.147" y="-232" font-family="Helvetica,sans-Serif" font-size="10.00">_hdr.h</text>
</g>
<!-- Node2 -->
<g id="node2" class="node"><title>Node2</title>
<polygon fill="white" stroke="#bfbfbf" points="320.647,-0.5 320.647,-19.5 363.647,-19.5 363.647,-0.5 320.647,-0.5"/>
<text text-anchor="middle" x="342.147" y="-7.5" font-family="Helvetica,sans-Serif" font-size="10.00">cstdio</text>
</g>
<!-- Node1&#45;&gt;Node2 -->
<g id="edge1" class="edge"><title>Node1&#45;&gt;Node2</title>
<path fill="none" stroke="midnightblue" d="M324.348,-233.495C238.356,-221.667 75.8878,-185.292 4.14744,-76 -0.730352,-68.569 -1.70854,-62.6873 4.14744,-56 24.2091,-33.0904 230.378,-17.9372 310.524,-12.872"/>
<polygon fill="midnightblue" stroke="midnightblue" points="310.764,-16.3639 320.528,-12.251 310.331,-9.37735 310.764,-16.3639"/>
</g>
<!-- Node3 -->
<g id="node3" class="node"><title>Node3</title>
<g id="a_node3"><a xlink:href="_i_plug_platform_8h.html" target="_top" xlink:title="Include to get consistently named preprocessor macros for different platforms and logging functionali...">
<polygon fill="white" stroke="black" points="338.147,-168.5 338.147,-187.5 422.147,-187.5 422.147,-168.5 338.147,-168.5"/>
<text text-anchor="middle" x="380.147" y="-175.5" font-family="Helvetica,sans-Serif" font-size="10.00">IPlugPlatform.h</text>
</a>
</g>
</g>
<!-- Node1&#45;&gt;Node3 -->
<g id="edge2" class="edge"><title>Node1&#45;&gt;Node3</title>
<path fill="none" stroke="midnightblue" d="M380.147,-224.781C380.147,-216.781 380.147,-206.689 380.147,-198.017"/>
<polygon fill="midnightblue" stroke="midnightblue" points="383.648,-197.73 380.147,-187.731 376.648,-197.731 383.648,-197.73"/>
</g>
<!-- Node17 -->
<g id="node17" class="node"><title>Node17</title>
<polygon fill="white" stroke="#bfbfbf" points="439.647,-168.5 439.647,-187.5 490.647,-187.5 490.647,-168.5 439.647,-168.5"/>
<text text-anchor="middle" x="465.147" y="-175.5" font-family="Helvetica,sans-Serif" font-size="10.00">config.h</text>
</g>
<!-- Node1&#45;&gt;Node17 -->
<g id="edge22" class="edge"><title>Node1&#45;&gt;Node17</title>
<path fill="none" stroke="midnightblue" d="M400.291,-224.781C413.742,-215.286 431.369,-202.843 444.851,-193.327"/>
<polygon fill="midnightblue" stroke="midnightblue" points="446.876,-196.182 453.027,-187.556 442.839,-190.463 446.876,-196.182"/>
</g>
<!-- Node4 -->
<g id="node4" class="node"><title>Node4</title>
<g id="a_node4"><a xlink:href="_i_plug_logger_8h.html" target="_top" xlink:title="IPlug Logging functionailty To trace some arbitrary data: Trace(TRACELOC, &quot;%s:%d&quot;, myStr, myInt); To simply create a trace entry in the log: TRACE; No need to wrap tracer calls in #ifdef TRACER_BUILD because Trace is a no&#45;op unless TRACER_BUILD is defined. ">
<polygon fill="white" stroke="black" points="341.647,-112.5 341.647,-131.5 418.647,-131.5 418.647,-112.5 341.647,-112.5"/>
<text text-anchor="middle" x="380.147" y="-119.5" font-family="Helvetica,sans-Serif" font-size="10.00">IPlugLogger.h</text>
</a>
</g>
</g>
<!-- Node3&#45;&gt;Node4 -->
<g id="edge3" class="edge"><title>Node3&#45;&gt;Node4</title>
<path fill="none" stroke="midnightblue" d="M380.147,-168.083C380.147,-161.006 380.147,-150.861 380.147,-141.986"/>
<polygon fill="midnightblue" stroke="midnightblue" points="383.648,-141.751 380.147,-131.751 376.648,-141.751 383.648,-141.751"/>
</g>
<!-- Node4&#45;&gt;Node2 -->
<g id="edge4" class="edge"><title>Node4&#45;&gt;Node2</title>
<path fill="none" stroke="midnightblue" d="M391.012,-112.122C405.003,-99.5633 426.268,-75.9196 415.147,-56 406.132,-39.8523 388.678,-28.7801 373.098,-21.6599"/>
<polygon fill="midnightblue" stroke="midnightblue" points="374.306,-18.3712 363.731,-17.7271 371.596,-24.8255 374.306,-18.3712"/>
</g>
<!-- Node5 -->
<g id="node5" class="node"><title>Node5</title>
<polygon fill="white" stroke="#bfbfbf" points="492.147,-0.5 492.147,-19.5 538.147,-19.5 538.147,-0.5 492.147,-0.5"/>
<text text-anchor="middle" x="515.147" y="-7.5" font-family="Helvetica,sans-Serif" font-size="10.00">cctype</text>
</g>
<!-- Node4&#45;&gt;Node5 -->
<g id="edge5" class="edge"><title>Node4&#45;&gt;Node5</title>
<path fill="none" stroke="midnightblue" d="M394.751,-112.429C408.901,-103.875 430.719,-90.0195 448.147,-76 467.18,-60.69 487.025,-40.877 500.13,-27.1701"/>
<polygon fill="midnightblue" stroke="midnightblue" points="503.032,-29.1943 507.35,-19.5194 497.941,-24.3897 503.032,-29.1943"/>
</g>
<!-- Node6 -->
<g id="node6" class="node"><title>Node6</title>
<polygon fill="white" stroke="#bfbfbf" points="13.6474,-56.5 13.6474,-75.5 62.6474,-75.5 62.6474,-56.5 13.6474,-56.5"/>
<text text-anchor="middle" x="38.1474" y="-63.5" font-family="Helvetica,sans-Serif" font-size="10.00">cstdarg</text>
</g>
<!-- Node4&#45;&gt;Node6 -->
<g id="edge6" class="edge"><title>Node4&#45;&gt;Node6</title>
<path fill="none" stroke="midnightblue" d="M341.489,-116.783C284.725,-110.279 175.348,-96.5633 72.8487,-75.9328"/>
<polygon fill="midnightblue" stroke="midnightblue" points="73.4506,-72.4836 62.9529,-73.9147 72.0518,-79.3424 73.4506,-72.4836"/>
</g>
<!-- Node7 -->
<g id="node7" class="node"><title>Node7</title>
<polygon fill="white" stroke="#bfbfbf" points="81.1474,-56.5 81.1474,-75.5 127.147,-75.5 127.147,-56.5 81.1474,-56.5"/>
<text text-anchor="middle" x="104.147" y="-63.5" font-family="Helvetica,sans-Serif" font-size="10.00">cstdint</text>
</g>
<!-- Node4&#45;&gt;Node7 -->
<g id="edge7" class="edge"><title>Node4&#45;&gt;Node7</title>
<path fill="none" stroke="midnightblue" d="M341.464,-114.992C295.138,-107.55 215.021,-93.8967 137.133,-76.0552"/>
<polygon fill="midnightblue" stroke="midnightblue" points="137.686,-72.5907 127.154,-73.7431 136.106,-79.4101 137.686,-72.5907"/>
</g>
<!-- Node8 -->
<g id="node8" class="node"><title>Node8</title>
<polygon fill="white" stroke="#bfbfbf" points="682.147,-0.5 682.147,-19.5 728.147,-19.5 728.147,-0.5 682.147,-0.5"/>
<text text-anchor="middle" x="705.147" y="-7.5" font-family="Helvetica,sans-Serif" font-size="10.00">cstring</text>
</g>
<!-- Node4&#45;&gt;Node8 -->
<g id="edge8" class="edge"><title>Node4&#45;&gt;Node8</title>
<path fill="none" stroke="midnightblue" d="M418.793,-119.997C469.028,-117.373 558.447,-108.131 627.147,-76 652.206,-64.2801 675.854,-42.5018 690.404,-27.4018"/>
<polygon fill="midnightblue" stroke="midnightblue" points="693.232,-29.5023 697.503,-19.8064 688.118,-24.7227 693.232,-29.5023"/>
</g>
<!-- Node9 -->
<g id="node9" class="node"><title>Node9</title>
<polygon fill="white" stroke="#bfbfbf" points="145.647,-56.5 145.647,-75.5 186.647,-75.5 186.647,-56.5 145.647,-56.5"/>
<text text-anchor="middle" x="166.147" y="-63.5" font-family="Helvetica,sans-Serif" font-size="10.00">ctime</text>
</g>
<!-- Node4&#45;&gt;Node9 -->
<g id="edge9" class="edge"><title>Node4&#45;&gt;Node9</title>
<path fill="none" stroke="midnightblue" d="M342.057,-112.466C306.581,-104.355 252.021,-91.4694 196.363,-76.2203"/>
<polygon fill="midnightblue" stroke="midnightblue" points="197.267,-72.839 186.696,-73.5505 195.403,-79.5864 197.267,-72.839"/>
</g>
<!-- Node10 -->
<g id="node10" class="node"><title>Node10</title>
<polygon fill="white" stroke="#bfbfbf" points="204.647,-56.5 204.647,-75.5 253.647,-75.5 253.647,-56.5 204.647,-56.5"/>
<text text-anchor="middle" x="229.147" y="-63.5" font-family="Helvetica,sans-Serif" font-size="10.00">cassert</text>
</g>
<!-- Node4&#45;&gt;Node10 -->
<g id="edge10" class="edge"><title>Node4&#45;&gt;Node10</title>
<path fill="none" stroke="midnightblue" d="M356.221,-112.444C330.929,-103.399 290.845,-89.064 262.468,-78.9158"/>
<polygon fill="midnightblue" stroke="midnightblue" points="263.556,-75.5882 252.962,-75.5164 261.199,-82.1794 263.556,-75.5882"/>
</g>
<!-- Node11 -->
<g id="node11" class="node"><title>Node11</title>
<polygon fill="white" stroke="#bfbfbf" points="272.147,-56.5 272.147,-75.5 336.147,-75.5 336.147,-56.5 272.147,-56.5"/>
<text text-anchor="middle" x="304.147" y="-63.5" font-family="Helvetica,sans-Serif" font-size="10.00">wdlstring.h</text>
</g>
<!-- Node4&#45;&gt;Node11 -->
<g id="edge11" class="edge"><title>Node4&#45;&gt;Node11</title>
<path fill="none" stroke="midnightblue" d="M367.937,-112.324C356.372,-104.107 338.772,-91.6017 324.987,-81.8069"/>
<polygon fill="midnightblue" stroke="midnightblue" points="326.759,-78.7729 316.58,-75.8339 322.705,-84.4791 326.759,-78.7729"/>
</g>
<!-- Node12 -->
<g id="node12" class="node"><title>Node12</title>
<polygon fill="white" stroke="#bfbfbf" points="354.147,-56.5 354.147,-75.5 406.147,-75.5 406.147,-56.5 354.147,-56.5"/>
<text text-anchor="middle" x="380.147" y="-63.5" font-family="Helvetica,sans-Serif" font-size="10.00">mutex.h</text>
</g>
<!-- Node4&#45;&gt;Node12 -->
<g id="edge12" class="edge"><title>Node4&#45;&gt;Node12</title>
<path fill="none" stroke="midnightblue" d="M380.147,-112.083C380.147,-105.006 380.147,-94.8611 380.147,-85.9865"/>
<polygon fill="midnightblue" stroke="midnightblue" points="383.648,-85.751 380.147,-75.7511 376.648,-85.7511 383.648,-85.751"/>
</g>
<!-- Node13 -->
<g id="node13" class="node"><title>Node13</title>
<g id="a_node13"><a xlink:href="_i_plug_constants_8h.html" target="_top" xlink:title="Constant definitions, magic numbers. ">
<polygon fill="white" stroke="black" points="382.147,-0.5 382.147,-19.5 474.147,-19.5 474.147,-0.5 382.147,-0.5"/>
<text text-anchor="middle" x="428.147" y="-7.5" font-family="Helvetica,sans-Serif" font-size="10.00">IPlugConstants.h</text>
</a>
</g>
</g>
<!-- Node4&#45;&gt;Node13 -->
<g id="edge13" class="edge"><title>Node4&#45;&gt;Node13</title>
<path fill="none" stroke="midnightblue" d="M395.881,-112.236C408.037,-104.481 423.959,-91.9292 431.147,-76 437.682,-61.5201 436.132,-43.3346 433.408,-29.8839"/>
<polygon fill="midnightblue" stroke="midnightblue" points="436.743,-28.7843 430.995,-19.8843 429.938,-30.4263 436.743,-28.7843"/>
</g>
<!-- Node14 -->
<g id="node14" class="node"><title>Node14</title>
<g id="a_node14"><a xlink:href="_i_plug_utilities_8h.html" target="_top" xlink:title="Utility functions and macros. ">
<polygon fill="white" stroke="black" points="538.147,-56.5 538.147,-75.5 618.147,-75.5 618.147,-56.5 538.147,-56.5"/>
<text text-anchor="middle" x="578.147" y="-63.5" font-family="Helvetica,sans-Serif" font-size="10.00">IPlugUtilities.h</text>
</a>
</g>
</g>
<!-- Node4&#45;&gt;Node14 -->
<g id="edge14" class="edge"><title>Node4&#45;&gt;Node14</title>
<path fill="none" stroke="midnightblue" d="M411.521,-112.444C445.41,-103.201 499.55,-88.4356 536.871,-78.2572"/>
<polygon fill="midnightblue" stroke="midnightblue" points="538.194,-81.5243 546.921,-75.5164 536.352,-74.771 538.194,-81.5243"/>
</g>
<!-- Node14&#45;&gt;Node2 -->
<g id="edge16" class="edge"><title>Node14&#45;&gt;Node2</title>
<path fill="none" stroke="midnightblue" d="M537.895,-56.9886C498.449,-48.9543 436.426,-35.8355 373.476,-19.947"/>
<polygon fill="midnightblue" stroke="midnightblue" points="374.332,-16.5532 363.777,-17.4785 372.605,-23.337 374.332,-16.5532"/>
</g>
<!-- Node14&#45;&gt;Node3 -->
<g id="edge21" class="edge"><title>Node14&#45;&gt;Node3</title>
<path fill="none" stroke="midnightblue" d="M562.683,-75.5914C528.412,-94.6307 445.852,-140.497 404.544,-163.446"/>
<polygon fill="midnightblue" stroke="midnightblue" points="402.726,-160.452 395.684,-168.368 406.126,-166.572 402.726,-160.452"/>
</g>
<!-- Node14&#45;&gt;Node5 -->
<g id="edge19" class="edge"><title>Node14&#45;&gt;Node5</title>
<path fill="none" stroke="midnightblue" d="M568.025,-56.324C558.621,-48.2631 544.403,-36.0765 533.078,-26.3695"/>
<polygon fill="midnightblue" stroke="midnightblue" points="535.324,-23.6844 525.454,-19.8339 530.768,-28.9993 535.324,-23.6844"/>
</g>
<!-- Node14&#45;&gt;Node8 -->
<g id="edge18" class="edge"><title>Node14&#45;&gt;Node8</title>
<path fill="none" stroke="midnightblue" d="M598.271,-56.4435C619.172,-47.5566 652.082,-33.5632 675.864,-23.4514"/>
<polygon fill="midnightblue" stroke="midnightblue" points="677.285,-26.6504 685.118,-19.5164 674.546,-20.2085 677.285,-26.6504"/>
</g>
<!-- Node14&#45;&gt;Node13 -->
<g id="edge20" class="edge"><title>Node14&#45;&gt;Node13</title>
<path fill="none" stroke="midnightblue" d="M554.379,-56.4435C529.255,-47.3986 489.436,-33.064 461.247,-22.9158"/>
<polygon fill="midnightblue" stroke="midnightblue" points="462.399,-19.6106 451.804,-19.5164 460.028,-26.1968 462.399,-19.6106"/>
</g>
<!-- Node15 -->
<g id="node15" class="node"><title>Node15</title>
<polygon fill="white" stroke="#bfbfbf" points="556.147,-0.5 556.147,-19.5 600.147,-19.5 600.147,-0.5 556.147,-0.5"/>
<text text-anchor="middle" x="578.147" y="-7.5" font-family="Helvetica,sans-Serif" font-size="10.00">cmath</text>
</g>
<!-- Node14&#45;&gt;Node15 -->
<g id="edge15" class="edge"><title>Node14&#45;&gt;Node15</title>
<path fill="none" stroke="midnightblue" d="M578.147,-56.083C578.147,-49.0059 578.147,-38.8611 578.147,-29.9865"/>
<polygon fill="midnightblue" stroke="midnightblue" points="581.648,-29.751 578.147,-19.7511 574.648,-29.7511 581.648,-29.751"/>
</g>
<!-- Node16 -->
<g id="node16" class="node"><title>Node16</title>
<polygon fill="white" stroke="#bfbfbf" points="618.647,-0.5 618.647,-19.5 663.647,-19.5 663.647,-0.5 618.647,-0.5"/>
<text text-anchor="middle" x="641.147" y="-7.5" font-family="Helvetica,sans-Serif" font-size="10.00">cstdlib</text>
</g>
<!-- Node14&#45;&gt;Node16 -->
<g id="edge17" class="edge"><title>Node14&#45;&gt;Node16</title>
<path fill="none" stroke="midnightblue" d="M588.269,-56.324C597.674,-48.2631 611.892,-36.0765 623.216,-26.3695"/>
<polygon fill="midnightblue" stroke="midnightblue" points="625.526,-28.9993 630.841,-19.8339 620.971,-23.6844 625.526,-28.9993"/>
</g>
</g>
</svg>
        <g id="navigator" transform="translate(0 0)" fill="#404254">
                <rect fill="#f2f5e9" fill-opacity="0.5" stroke="#606060" stroke-width=".5" x="0" y="0" width="60" height="60"/>
                <use id="zoomplus" xlink:href="#zoomPlus" x="17" y="9" onmousedown="handleZoom(evt,'in')"/>
                <use id="zoomminus" xlink:href="#zoomMin" x="42" y="9" onmousedown="handleZoom(evt,'out')"/>
                <use id="reset" xlink:href="#resetDef" x="30" y="36" onmousedown="handleReset()"/>
                <g id="arrowUp" xlink:href="#dirArrow" transform="translate(30 24)" onmousedown="handlePan(0,-1)">
                  <use xlink:href="#rim" fill="#404040">
                        <set attributeName="fill" to="#808080" begin="arrowUp.mouseover" end="arrowUp.mouseout"/>
                  </use>
                  <path fill="none" stroke="white" stroke-width="1.5" d="M0,-3.0v7 M-2.5,-0.5L0,-3.0L2.5,-0.5"/>
                </g>
                <g id="arrowRight" xlink:href="#dirArrow" transform="rotate(90) translate(36 -43)" onmousedown="handlePan(1,0)">
                  <use xlink:href="#rim" fill="#404040">
                        <set attributeName="fill" to="#808080" begin="arrowRight.mouseover" end="arrowRight.mouseout"/>
                  </use>
                  <path fill="none" stroke="white" stroke-width="1.5" d="M0,-3.0v7 M-2.5,-0.5L0,-3.0L2.5,-0.5"/>
                </g>
                <g id="arrowDown" xlink:href="#dirArrow" transform="rotate(180) translate(-30 -48)" onmousedown="handlePan(0,1)">
                  <use xlink:href="#rim" fill="#404040">
                        <set attributeName="fill" to="#808080" begin="arrowDown.mouseover" end="arrowDown.mouseout"/>
                  </use>
                  <path fill="none" stroke="white" stroke-width="1.5" d="M0,-3.0v7 M-2.5,-0.5L0,-3.0L2.5,-0.5"/>
                </g>
                <g id="arrowLeft" xlink:href="#dirArrow" transform="rotate(270) translate(-36 17)" onmousedown="handlePan(-1,0)">
                  <use xlink:href="#rim" fill="#404040">
                        <set attributeName="fill" to="#808080" begin="arrowLeft.mouseover" end="arrowLeft.mouseout"/>
                  </use>
                  <path fill="none" stroke="white" stroke-width="1.5" d="M0,-3.0v7 M-2.5,-0.5L0,-3.0L2.5,-0.5"/>
                </g>
        </g>
        <svg viewBox="0 0 15 15" width="100%" height="30px" preserveAspectRatio="xMaxYMin meet">
         <g id="arrow_out" transform="scale(0.3 0.3)">
          <a xlink:href="_i_plug__include__in__plug__hdr_8h__incl_org.svg" target="_base">
           <rect id="button" ry="5" rx="5" y="6" x="6" height="38" width="38"
                fill="#f2f5e9" fill-opacity="0.5" stroke="#606060" stroke-width="1.0"/>
           <path id="arrow"
             d="M 11.500037,31.436501 C 11.940474,20.09759 22.043105,11.32322 32.158766,21.979434 L 37.068811,17.246167 C 37.068811,17.246167 37.088388,32 37.088388,32 L 22.160133,31.978069 C 22.160133,31.978069 26.997745,27.140456 26.997745,27.140456 C 18.528582,18.264221 13.291696,25.230495 11.500037,31.436501 z"
             style="fill:#404040;"/>
          </a>
         </g>
        </svg>
</svg>
