<?xml version="1.0" encoding="UTF-8" standalone="no"?>
<!DOCTYPE svg PUBLIC "-//W3C//DTD SVG 1.1//EN"
 "http://www.w3.org/Graphics/SVG/1.1/DTD/svg11.dtd">
<!-- Generated by graphviz version 2.36.0 (20140111.2315)
 -->
<!-- Title: IPlugUtilities.h Pages: 1 -->
<!--zoomable 196 -->
<svg id="main" version="1.1" xmlns="http://www.w3.org/2000/svg" xmlns:xlink="http://www.w3.org/1999/xlink" xml:space="preserve" onload="init(evt)">
<style type="text/css"><![CDATA[
.edge:hover path { stroke: red; }
.edge:hover polygon { stroke: red; fill: red; }
]]></style>
<script type="text/javascript"><![CDATA[
var edges = document.getElementsByTagName('g');
if (edges && edges.length) {
  for (var i=0;i<edges.length;i++) {
    if (edges[i].id.substr(0,4)=='edge') {
      edges[i].setAttribute('class','edge');
    }
  }
}
]]></script>
        <defs>
                <circle id="rim" cx="0" cy="0" r="7"/>
                <circle id="rim2" cx="0" cy="0" r="3.5"/>
                <g id="zoomPlus">
                        <use xlink:href="#rim" fill="#404040">
                                <set attributeName="fill" to="#808080" begin="zoomplus.mouseover" end="zoomplus.mouseout"/>
                        </use>
                        <path d="M-4,0h8M0,-4v8" fill="none" stroke="white" stroke-width="1.5" pointer-events="none"/>
                </g>
                <g id="zoomMin">
                        <use xlink:href="#rim" fill="#404040">
                                <set attributeName="fill" to="#808080" begin="zoomminus.mouseover" end="zoomminus.mouseout"/>
                        </use>
                        <path d="M-4,0h8" fill="none" stroke="white" stroke-width="1.5" pointer-events="none"/>
                </g>
                <g id="dirArrow">
                        <path fill="none" stroke="white" stroke-width="1.5" d="M0,-3.0v7 M-2.5,-0.5L0,-3.0L2.5,-0.5"/>
                </g>
               <g id="resetDef">
                       <use xlink:href="#rim2" fill="#404040">
                               <set attributeName="fill" to="#808080" begin="reset.mouseover" end="reset.mouseout"/>
                       </use>
               </g>
        </defs>

<script type="text/javascript">
var viewWidth = 701;
var viewHeight = 196;
var sectionId = 'dynsection-0';
</script>
<script xlink:href="svgpan.js"/>
<svg id="graph" class="graph">
<g id="viewport">
<title>IPlugUtilities.h</title>
<polygon fill="white" stroke="none" points="-4,4 -4,-192 697,-192 697,4 -4,4"/>
<!-- Node1 -->
<g id="node1" class="node"><title>Node1</title>
<polygon fill="#bfbfbf" stroke="black" points="127,-168.5 127,-187.5 207,-187.5 207,-168.5 127,-168.5"/>
<text text-anchor="middle" x="167" y="-175.5" font-family="Helvetica,sans-Serif" font-size="10.00">IPlugUtilities.h</text>
</g>
<!-- Node2 -->
<g id="node2" class="node"><title>Node2</title>
<polygon fill="white" stroke="#bfbfbf" points="0,-112.5 0,-131.5 44,-131.5 44,-112.5 0,-112.5"/>
<text text-anchor="middle" x="22" y="-119.5" font-family="Helvetica,sans-Serif" font-size="10.00">cmath</text>
</g>
<!-- Node1&#45;&gt;Node2 -->
<g id="edge1" class="edge"><title>Node1&#45;&gt;Node2</title>
<path fill="none" stroke="midnightblue" d="M144.024,-168.444C119.701,-159.385 81.1313,-145.021 53.8745,-134.871"/>
<polygon fill="midnightblue" stroke="midnightblue" points="54.9845,-131.549 44.3917,-131.339 52.5415,-138.109 54.9845,-131.549"/>
</g>
<!-- Node3 -->
<g id="node3" class="node"><title>Node3</title>
<polygon fill="white" stroke="#bfbfbf" points="0.5,-0.5 0.5,-19.5 43.5,-19.5 43.5,-0.5 0.5,-0.5"/>
<text text-anchor="middle" x="22" y="-7.5" font-family="Helvetica,sans-Serif" font-size="10.00">cstdio</text>
</g>
<!-- Node1&#45;&gt;Node3 -->
<g id="edge2" class="edge"><title>Node1&#45;&gt;Node3</title>
<path fill="none" stroke="midnightblue" d="M159.204,-168.075C135.886,-141.38 66.4303,-61.865 36.257,-27.3218"/>
<polygon fill="midnightblue" stroke="midnightblue" points="38.6988,-24.797 29.4842,-19.5681 33.4269,-29.402 38.6988,-24.797"/>
</g>
<!-- Node4 -->
<g id="node4" class="node"><title>Node4</title>
<polygon fill="white" stroke="#bfbfbf" points="354.5,-112.5 354.5,-131.5 399.5,-131.5 399.5,-112.5 354.5,-112.5"/>
<text text-anchor="middle" x="377" y="-119.5" font-family="Helvetica,sans-Serif" font-size="10.00">cstdlib</text>
</g>
<!-- Node1&#45;&gt;Node4 -->
<g id="edge3" class="edge"><title>Node1&#45;&gt;Node4</title>
<path fill="none" stroke="midnightblue" d="M200.275,-168.444C239.769,-158.288 305.195,-141.464 344.393,-131.385"/>
<polygon fill="midnightblue" stroke="midnightblue" points="345.423,-134.734 354.236,-128.854 343.68,-127.954 345.423,-134.734"/>
</g>
<!-- Node5 -->
<g id="node5" class="node"><title>Node5</title>
<polygon fill="white" stroke="#bfbfbf" points="62,-0.5 62,-19.5 108,-19.5 108,-0.5 62,-0.5"/>
<text text-anchor="middle" x="85" y="-7.5" font-family="Helvetica,sans-Serif" font-size="10.00">cstring</text>
</g>
<!-- Node1&#45;&gt;Node5 -->
<g id="edge4" class="edge"><title>Node1&#45;&gt;Node5</title>
<path fill="none" stroke="midnightblue" d="M162.591,-168.075C149.572,-141.719 111.12,-63.878 93.724,-28.6608"/>
<polygon fill="midnightblue" stroke="midnightblue" points="96.7994,-26.9838 89.2324,-19.5681 90.5233,-30.084 96.7994,-26.9838"/>
</g>
<!-- Node6 -->
<g id="node6" class="node"><title>Node6</title>
<polygon fill="white" stroke="#bfbfbf" points="126,-0.5 126,-19.5 172,-19.5 172,-0.5 126,-0.5"/>
<text text-anchor="middle" x="149" y="-7.5" font-family="Helvetica,sans-Serif" font-size="10.00">cctype</text>
</g>
<!-- Node1&#45;&gt;Node6 -->
<g id="edge5" class="edge"><title>Node1&#45;&gt;Node6</title>
<path fill="none" stroke="midnightblue" d="M166.032,-168.075C163.199,-141.945 154.878,-65.2106 151.014,-29.577"/>
<polygon fill="midnightblue" stroke="midnightblue" points="154.487,-29.1325 149.929,-19.5681 147.528,-29.8872 154.487,-29.1325"/>
</g>
<!-- Node7 -->
<g id="node7" class="node"><title>Node7</title>
<g id="a_node7"><a xlink:href="_i_plug_constants_8h.html" target="_top" xlink:title="Constant definitions, magic numbers. ">
<polygon fill="white" stroke="black" points="190,-0.5 190,-19.5 282,-19.5 282,-0.5 190,-0.5"/>
<text text-anchor="middle" x="236" y="-7.5" font-family="Helvetica,sans-Serif" font-size="10.00">IPlugConstants.h</text>
</a>
</g>
</g>
<!-- Node1&#45;&gt;Node7 -->
<g id="edge6" class="edge"><title>Node1&#45;&gt;Node7</title>
<path fill="none" stroke="midnightblue" d="M170.71,-168.075C181.618,-141.832 213.743,-64.5453 228.47,-29.1165"/>
<polygon fill="midnightblue" stroke="midnightblue" points="231.832,-30.1456 232.439,-19.5681 225.368,-27.4588 231.832,-30.1456"/>
</g>
<!-- Node8 -->
<g id="node8" class="node"><title>Node8</title>
<g id="a_node8"><a xlink:href="_i_plug_platform_8h.html" target="_top" xlink:title="Include to get consistently named preprocessor macros for different platforms and logging functionali...">
<polygon fill="white" stroke="black" points="214,-112.5 214,-131.5 298,-131.5 298,-112.5 214,-112.5"/>
<text text-anchor="middle" x="256" y="-119.5" font-family="Helvetica,sans-Serif" font-size="10.00">IPlugPlatform.h</text>
</a>
</g>
</g>
<!-- Node1&#45;&gt;Node8 -->
<g id="edge7" class="edge"><title>Node1&#45;&gt;Node8</title>
<path fill="none" stroke="midnightblue" d="M181.299,-168.324C195.183,-159.9 216.492,-146.971 232.804,-137.074"/>
<polygon fill="midnightblue" stroke="midnightblue" points="235.002,-139.834 241.736,-131.655 231.371,-133.85 235.002,-139.834"/>
</g>
<!-- Node9 -->
<g id="node9" class="node"><title>Node9</title>
<g id="a_node9"><a xlink:href="_i_plug_logger_8h.html" target="_top" xlink:title="IPlug Logging functionailty To trace some arbitrary data: Trace(TRACELOC, &quot;%s:%d&quot;, myStr, myInt); To simply create a trace entry in the log: TRACE; No need to wrap tracer calls in #ifdef TRACER_BUILD because Trace is a no&#45;op unless TRACER_BUILD is defined. ">
<polygon fill="white" stroke="black" points="286.5,-56.5 286.5,-75.5 363.5,-75.5 363.5,-56.5 286.5,-56.5"/>
<text text-anchor="middle" x="325" y="-63.5" font-family="Helvetica,sans-Serif" font-size="10.00">IPlugLogger.h</text>
</a>
</g>
</g>
<!-- Node8&#45;&gt;Node9 -->
<g id="edge8" class="edge"><title>Node8&#45;&gt;Node9</title>
<path fill="none" stroke="midnightblue" d="M267.086,-112.324C277.486,-104.185 293.261,-91.8395 305.722,-82.0874"/>
<polygon fill="midnightblue" stroke="midnightblue" points="307.994,-84.7533 313.712,-75.8339 303.68,-79.2407 307.994,-84.7533"/>
</g>
<!-- Node9&#45;&gt;Node1 -->
<g id="edge19" class="edge"><title>Node9&#45;&gt;Node1</title>
<path fill="none" stroke="midnightblue" d="M324.914,-75.8509C324.295,-89.6939 321.076,-116.485 306,-132 282.756,-155.921 246.717,-167.141 217.16,-172.396"/>
<polygon fill="midnightblue" stroke="midnightblue" points="216.33,-168.984 207.007,-174.017 217.434,-175.896 216.33,-168.984"/>
</g>
<!-- Node9&#45;&gt;Node3 -->
<g id="edge9" class="edge"><title>Node9&#45;&gt;Node3</title>
<path fill="none" stroke="midnightblue" d="M286.433,-60.0876C235.376,-53.2635 142.412,-39.7286 53.5669,-19.8826"/>
<polygon fill="midnightblue" stroke="midnightblue" points="54.1211,-16.4196 43.5949,-17.6241 52.5748,-23.2467 54.1211,-16.4196"/>
</g>
<!-- Node9&#45;&gt;Node5 -->
<g id="edge13" class="edge"><title>Node9&#45;&gt;Node5</title>
<path fill="none" stroke="midnightblue" d="M286.118,-57.3275C246.255,-49.2977 182.258,-35.955 117.933,-20.1164"/>
<polygon fill="midnightblue" stroke="midnightblue" points="118.576,-16.6699 108.027,-17.6578 116.89,-23.4637 118.576,-16.6699"/>
</g>
<!-- Node9&#45;&gt;Node6 -->
<g id="edge10" class="edge"><title>Node9&#45;&gt;Node6</title>
<path fill="none" stroke="midnightblue" d="M297.112,-56.4435C265.841,-46.8489 215.17,-31.3021 181.964,-21.1141"/>
<polygon fill="midnightblue" stroke="midnightblue" points="182.848,-17.7241 172.261,-18.1368 180.794,-24.4162 182.848,-17.7241"/>
</g>
<!-- Node9&#45;&gt;Node7 -->
<g id="edge18" class="edge"><title>Node9&#45;&gt;Node7</title>
<path fill="none" stroke="midnightblue" d="M310.701,-56.324C296.817,-47.9002 275.508,-34.9709 259.196,-25.0741"/>
<polygon fill="midnightblue" stroke="midnightblue" points="260.629,-21.8495 250.264,-19.6545 256.998,-27.8341 260.629,-21.8495"/>
</g>
<!-- Node10 -->
<g id="node10" class="node"><title>Node10</title>
<polygon fill="white" stroke="#bfbfbf" points="300.5,-0.5 300.5,-19.5 349.5,-19.5 349.5,-0.5 300.5,-0.5"/>
<text text-anchor="middle" x="325" y="-7.5" font-family="Helvetica,sans-Serif" font-size="10.00">cstdarg</text>
</g>
<!-- Node9&#45;&gt;Node10 -->
<g id="edge11" class="edge"><title>Node9&#45;&gt;Node10</title>
<path fill="none" stroke="midnightblue" d="M325,-56.083C325,-49.0059 325,-38.8611 325,-29.9865"/>
<polygon fill="midnightblue" stroke="midnightblue" points="328.5,-29.751 325,-19.7511 321.5,-29.7511 328.5,-29.751"/>
</g>
<!-- Node11 -->
<g id="node11" class="node"><title>Node11</title>
<polygon fill="white" stroke="#bfbfbf" points="368,-0.5 368,-19.5 414,-19.5 414,-0.5 368,-0.5"/>
<text text-anchor="middle" x="391" y="-7.5" font-family="Helvetica,sans-Serif" font-size="10.00">cstdint</text>
</g>
<!-- Node9&#45;&gt;Node11 -->
<g id="edge12" class="edge"><title>Node9&#45;&gt;Node11</title>
<path fill="none" stroke="midnightblue" d="M335.604,-56.324C345.456,-48.2631 360.351,-36.0765 372.215,-26.3695"/>
<polygon fill="midnightblue" stroke="midnightblue" points="374.68,-28.8752 380.203,-19.8339 370.247,-23.4575 374.68,-28.8752"/>
</g>
<!-- Node12 -->
<g id="node12" class="node"><title>Node12</title>
<polygon fill="white" stroke="#bfbfbf" points="432.5,-0.5 432.5,-19.5 473.5,-19.5 473.5,-0.5 432.5,-0.5"/>
<text text-anchor="middle" x="453" y="-7.5" font-family="Helvetica,sans-Serif" font-size="10.00">ctime</text>
</g>
<!-- Node9&#45;&gt;Node12 -->
<g id="edge14" class="edge"><title>Node9&#45;&gt;Node12</title>
<path fill="none" stroke="midnightblue" d="M345.282,-56.4435C366.347,-47.5566 399.517,-33.5632 423.486,-23.4514"/>
<polygon fill="midnightblue" stroke="midnightblue" points="424.96,-26.6283 432.813,-19.5164 422.239,-20.1787 424.96,-26.6283"/>
</g>
<!-- Node13 -->
<g id="node13" class="node"><title>Node13</title>
<polygon fill="white" stroke="#bfbfbf" points="491.5,-0.5 491.5,-19.5 540.5,-19.5 540.5,-0.5 491.5,-0.5"/>
<text text-anchor="middle" x="516" y="-7.5" font-family="Helvetica,sans-Serif" font-size="10.00">cassert</text>
</g>
<!-- Node9&#45;&gt;Node13 -->
<g id="edge15" class="edge"><title>Node9&#45;&gt;Node13</title>
<path fill="none" stroke="midnightblue" d="M355.265,-56.4435C389.539,-46.7534 445.287,-30.9921 481.296,-20.8115"/>
<polygon fill="midnightblue" stroke="midnightblue" points="482.673,-24.0596 491.343,-17.971 480.768,-17.3236 482.673,-24.0596"/>
</g>
<!-- Node14 -->
<g id="node14" class="node"><title>Node14</title>
<polygon fill="white" stroke="#bfbfbf" points="559,-0.5 559,-19.5 623,-19.5 623,-0.5 559,-0.5"/>
<text text-anchor="middle" x="591" y="-7.5" font-family="Helvetica,sans-Serif" font-size="10.00">wdlstring.h</text>
</g>
<!-- Node9&#45;&gt;Node14 -->
<g id="edge16" class="edge"><title>Node9&#45;&gt;Node14</title>
<path fill="none" stroke="midnightblue" d="M363.879,-57.3468C408.579,-48.5112 484.141,-33.4635 549,-20 549.1,-19.9792 549.201,-19.9583 549.302,-19.9374"/>
<polygon fill="midnightblue" stroke="midnightblue" points="549.838,-23.4012 558.905,-17.9217 548.4,-16.5505 549.838,-23.4012"/>
</g>
<!-- Node15 -->
<g id="node15" class="node"><title>Node15</title>
<polygon fill="white" stroke="#bfbfbf" points="641,-0.5 641,-19.5 693,-19.5 693,-0.5 641,-0.5"/>
<text text-anchor="middle" x="667" y="-7.5" font-family="Helvetica,sans-Serif" font-size="10.00">mutex.h</text>
</g>
<!-- Node9&#45;&gt;Node15 -->
<g id="edge17" class="edge"><title>Node9&#45;&gt;Node15</title>
<path fill="none" stroke="midnightblue" d="M363.515,-60.6864C420.072,-54.0616 529.065,-40.1937 630.868,-20.0518"/>
<polygon fill="midnightblue" stroke="midnightblue" points="631.578,-23.4793 640.696,-18.0831 630.203,-16.6156 631.578,-23.4793"/>
</g>
</g>
</svg>
        <g id="navigator" transform="translate(0 0)" fill="#404254">
                <rect fill="#f2f5e9" fill-opacity="0.5" stroke="#606060" stroke-width=".5" x="0" y="0" width="60" height="60"/>
                <use id="zoomplus" xlink:href="#zoomPlus" x="17" y="9" onmousedown="handleZoom(evt,'in')"/>
                <use id="zoomminus" xlink:href="#zoomMin" x="42" y="9" onmousedown="handleZoom(evt,'out')"/>
                <use id="reset" xlink:href="#resetDef" x="30" y="36" onmousedown="handleReset()"/>
                <g id="arrowUp" xlink:href="#dirArrow" transform="translate(30 24)" onmousedown="handlePan(0,-1)">
                  <use xlink:href="#rim" fill="#404040">
                        <set attributeName="fill" to="#808080" begin="arrowUp.mouseover" end="arrowUp.mouseout"/>
                  </use>
                  <path fill="none" stroke="white" stroke-width="1.5" d="M0,-3.0v7 M-2.5,-0.5L0,-3.0L2.5,-0.5"/>
                </g>
                <g id="arrowRight" xlink:href="#dirArrow" transform="rotate(90) translate(36 -43)" onmousedown="handlePan(1,0)">
                  <use xlink:href="#rim" fill="#404040">
                        <set attributeName="fill" to="#808080" begin="arrowRight.mouseover" end="arrowRight.mouseout"/>
                  </use>
                  <path fill="none" stroke="white" stroke-width="1.5" d="M0,-3.0v7 M-2.5,-0.5L0,-3.0L2.5,-0.5"/>
                </g>
                <g id="arrowDown" xlink:href="#dirArrow" transform="rotate(180) translate(-30 -48)" onmousedown="handlePan(0,1)">
                  <use xlink:href="#rim" fill="#404040">
                        <set attributeName="fill" to="#808080" begin="arrowDown.mouseover" end="arrowDown.mouseout"/>
                  </use>
                  <path fill="none" stroke="white" stroke-width="1.5" d="M0,-3.0v7 M-2.5,-0.5L0,-3.0L2.5,-0.5"/>
                </g>
                <g id="arrowLeft" xlink:href="#dirArrow" transform="rotate(270) translate(-36 17)" onmousedown="handlePan(-1,0)">
                  <use xlink:href="#rim" fill="#404040">
                        <set attributeName="fill" to="#808080" begin="arrowLeft.mouseover" end="arrowLeft.mouseout"/>
                  </use>
                  <path fill="none" stroke="white" stroke-width="1.5" d="M0,-3.0v7 M-2.5,-0.5L0,-3.0L2.5,-0.5"/>
                </g>
        </g>
        <svg viewBox="0 0 15 15" width="100%" height="30px" preserveAspectRatio="xMaxYMin meet">
         <g id="arrow_out" transform="scale(0.3 0.3)">
          <a xlink:href="_i_plug_utilities_8h__incl_org.svg" target="_base">
           <rect id="button" ry="5" rx="5" y="6" x="6" height="38" width="38"
                fill="#f2f5e9" fill-opacity="0.5" stroke="#606060" stroke-width="1.0"/>
           <path id="arrow"
             d="M 11.500037,31.436501 C 11.940474,20.09759 22.043105,11.32322 32.158766,21.979434 L 37.068811,17.246167 C 37.068811,17.246167 37.088388,32 37.088388,32 L 22.160133,31.978069 C 22.160133,31.978069 26.997745,27.140456 26.997745,27.140456 C 18.528582,18.264221 13.291696,25.230495 11.500037,31.436501 z"
             style="fill:#404040;"/>
          </a>
         </g>
        </svg>
</svg>
