<?xml version="1.0" encoding="UTF-8" standalone="no"?>
<!DOCTYPE svg PUBLIC "-//W3C//DTD SVG 1.1//EN"
 "http://www.w3.org/Graphics/SVG/1.1/DTD/svg11.dtd">
<!-- Generated by graphviz version 2.36.0 (20140111.2315)
 -->
<!-- Title: IPlugPlatform.h Pages: 1 -->
<svg width="675pt" height="196pt"
 viewBox="0.00 0.00 675.00 196.00" xmlns="http://www.w3.org/2000/svg" xmlns:xlink="http://www.w3.org/1999/xlink">
<g id="graph0" class="graph" transform="scale(1 1) rotate(0) translate(4 192)">
<title>IPlugPlatform.h</title>
<polygon fill="white" stroke="none" points="-4,4 -4,-192 671,-192 671,4 -4,4"/>
<!-- Node1 -->
<g id="node1" class="node"><title>Node1</title>
<polygon fill="#bfbfbf" stroke="black" points="257,-168.5 257,-187.5 341,-187.5 341,-168.5 257,-168.5"/>
<text text-anchor="middle" x="299" y="-175.5" font-family="Helvetica,sans-Serif" font-size="10.00">IPlugPlatform.h</text>
</g>
<!-- Node2 -->
<g id="node2" class="node"><title>Node2</title>
<g id="a_node2"><a xlink:href="_i_plug_logger_8h.html" target="_top" xlink:title="IPlug Logging functionailty To trace some arbitrary data: Trace(TRACELOC, &quot;%s:%d&quot;, myStr, myInt); To simply create a trace entry in the log: TRACE; No need to wrap tracer calls in #ifdef TRACER_BUILD because Trace is a no&#45;op unless TRACER_BUILD is defined. ">
<polygon fill="white" stroke="black" points="330.5,-112.5 330.5,-131.5 407.5,-131.5 407.5,-112.5 330.5,-112.5"/>
<text text-anchor="middle" x="369" y="-119.5" font-family="Helvetica,sans-Serif" font-size="10.00">IPlugLogger.h</text>
</a>
</g>
</g>
<!-- Node1&#45;&gt;Node2 -->
<g id="edge1" class="edge"><title>Node1&#45;&gt;Node2</title>
<path fill="none" stroke="midnightblue" d="M310.247,-168.324C320.797,-160.185 336.801,-147.839 349.442,-138.087"/>
<polygon fill="midnightblue" stroke="midnightblue" points="351.769,-140.713 357.549,-131.834 347.493,-135.171 351.769,-140.713"/>
</g>
<!-- Node3 -->
<g id="node3" class="node"><title>Node3</title>
<polygon fill="white" stroke="#bfbfbf" points="384.5,-0.5 384.5,-19.5 427.5,-19.5 427.5,-0.5 384.5,-0.5"/>
<text text-anchor="middle" x="406" y="-7.5" font-family="Helvetica,sans-Serif" font-size="10.00">cstdio</text>
</g>
<!-- Node2&#45;&gt;Node3 -->
<g id="edge2" class="edge"><title>Node2&#45;&gt;Node3</title>
<path fill="none" stroke="midnightblue" d="M407.548,-118.728C463.975,-114.507 564.788,-103.265 587,-76 592.614,-69.1085 592.475,-63.0027 587,-56 568.783,-32.6993 484.394,-19.7381 437.551,-14.2253"/>
<polygon fill="midnightblue" stroke="midnightblue" points="437.942,-10.7473 427.612,-13.101 437.155,-17.7029 437.942,-10.7473"/>
</g>
<!-- Node4 -->
<g id="node4" class="node"><title>Node4</title>
<polygon fill="white" stroke="#bfbfbf" points="520,-0.5 520,-19.5 566,-19.5 566,-0.5 520,-0.5"/>
<text text-anchor="middle" x="543" y="-7.5" font-family="Helvetica,sans-Serif" font-size="10.00">cctype</text>
</g>
<!-- Node2&#45;&gt;Node4 -->
<g id="edge3" class="edge"><title>Node2&#45;&gt;Node4</title>
<path fill="none" stroke="midnightblue" d="M407.877,-119.316C467.881,-115.809 578.696,-105.423 603,-76 618.301,-57.4762 592.493,-37.3178 570.106,-24.4405"/>
<polygon fill="midnightblue" stroke="midnightblue" points="571.618,-21.2783 561.164,-19.5559 568.262,-27.4215 571.618,-21.2783"/>
</g>
<!-- Node5 -->
<g id="node5" class="node"><title>Node5</title>
<polygon fill="white" stroke="#bfbfbf" points="185.5,-56.5 185.5,-75.5 234.5,-75.5 234.5,-56.5 185.5,-56.5"/>
<text text-anchor="middle" x="210" y="-63.5" font-family="Helvetica,sans-Serif" font-size="10.00">cstdarg</text>
</g>
<!-- Node2&#45;&gt;Node5 -->
<g id="edge4" class="edge"><title>Node2&#45;&gt;Node5</title>
<path fill="none" stroke="midnightblue" d="M343.806,-112.444C316.9,-103.306 274.097,-88.7689 244.168,-78.6044"/>
<polygon fill="midnightblue" stroke="midnightblue" points="245.148,-75.2408 234.554,-75.339 242.897,-81.869 245.148,-75.2408"/>
</g>
<!-- Node6 -->
<g id="node6" class="node"><title>Node6</title>
<polygon fill="white" stroke="#bfbfbf" points="253,-56.5 253,-75.5 299,-75.5 299,-56.5 253,-56.5"/>
<text text-anchor="middle" x="276" y="-63.5" font-family="Helvetica,sans-Serif" font-size="10.00">cstdint</text>
</g>
<!-- Node2&#45;&gt;Node6 -->
<g id="edge5" class="edge"><title>Node2&#45;&gt;Node6</title>
<path fill="none" stroke="midnightblue" d="M354.058,-112.324C339.415,-103.822 316.866,-90.7288 299.762,-80.7975"/>
<polygon fill="midnightblue" stroke="midnightblue" points="301.31,-77.6491 290.905,-75.6545 297.795,-83.7027 301.31,-77.6491"/>
</g>
<!-- Node7 -->
<g id="node7" class="node"><title>Node7</title>
<polygon fill="white" stroke="#bfbfbf" points="621,-0.5 621,-19.5 667,-19.5 667,-0.5 621,-0.5"/>
<text text-anchor="middle" x="644" y="-7.5" font-family="Helvetica,sans-Serif" font-size="10.00">cstring</text>
</g>
<!-- Node2&#45;&gt;Node7 -->
<g id="edge6" class="edge"><title>Node2&#45;&gt;Node7</title>
<path fill="none" stroke="midnightblue" d="M407.764,-118.608C469.741,-114.047 587.391,-102.134 619,-76 632.811,-64.581 639.01,-44.5957 641.782,-29.7912"/>
<polygon fill="midnightblue" stroke="midnightblue" points="645.272,-30.1179 643.302,-19.7078 638.35,-29.0741 645.272,-30.1179"/>
</g>
<!-- Node8 -->
<g id="node8" class="node"><title>Node8</title>
<polygon fill="white" stroke="#bfbfbf" points="317.5,-56.5 317.5,-75.5 358.5,-75.5 358.5,-56.5 317.5,-56.5"/>
<text text-anchor="middle" x="338" y="-63.5" font-family="Helvetica,sans-Serif" font-size="10.00">ctime</text>
</g>
<!-- Node2&#45;&gt;Node8 -->
<g id="edge7" class="edge"><title>Node2&#45;&gt;Node8</title>
<path fill="none" stroke="midnightblue" d="M363.881,-112.083C359.592,-104.613 353.342,-93.7244 348.058,-84.5199"/>
<polygon fill="midnightblue" stroke="midnightblue" points="351.038,-82.6811 343.024,-75.7511 344.967,-86.1662 351.038,-82.6811"/>
</g>
<!-- Node9 -->
<g id="node9" class="node"><title>Node9</title>
<polygon fill="white" stroke="#bfbfbf" points="376.5,-56.5 376.5,-75.5 425.5,-75.5 425.5,-56.5 376.5,-56.5"/>
<text text-anchor="middle" x="401" y="-63.5" font-family="Helvetica,sans-Serif" font-size="10.00">cassert</text>
</g>
<!-- Node2&#45;&gt;Node9 -->
<g id="edge8" class="edge"><title>Node2&#45;&gt;Node9</title>
<path fill="none" stroke="midnightblue" d="M374.284,-112.083C378.711,-104.613 385.163,-93.7244 390.618,-84.5199"/>
<polygon fill="midnightblue" stroke="midnightblue" points="393.727,-86.1383 395.814,-75.7511 387.705,-82.5697 393.727,-86.1383"/>
</g>
<!-- Node10 -->
<g id="node10" class="node"><title>Node10</title>
<polygon fill="white" stroke="#bfbfbf" points="444,-56.5 444,-75.5 508,-75.5 508,-56.5 444,-56.5"/>
<text text-anchor="middle" x="476" y="-63.5" font-family="Helvetica,sans-Serif" font-size="10.00">wdlstring.h</text>
</g>
<!-- Node2&#45;&gt;Node10 -->
<g id="edge9" class="edge"><title>Node2&#45;&gt;Node10</title>
<path fill="none" stroke="midnightblue" d="M386.191,-112.324C403.351,-103.664 429.946,-90.2424 449.747,-80.249"/>
<polygon fill="midnightblue" stroke="midnightblue" points="451.501,-83.2847 458.851,-75.6545 448.347,-77.0354 451.501,-83.2847"/>
</g>
<!-- Node11 -->
<g id="node11" class="node"><title>Node11</title>
<polygon fill="white" stroke="#bfbfbf" points="526,-56.5 526,-75.5 578,-75.5 578,-56.5 526,-56.5"/>
<text text-anchor="middle" x="552" y="-63.5" font-family="Helvetica,sans-Serif" font-size="10.00">mutex.h</text>
</g>
<!-- Node2&#45;&gt;Node11 -->
<g id="edge10" class="edge"><title>Node2&#45;&gt;Node11</title>
<path fill="none" stroke="midnightblue" d="M397.997,-112.444C430.01,-102.997 481.576,-87.7807 516.113,-77.5897"/>
<polygon fill="midnightblue" stroke="midnightblue" points="517.207,-80.9162 525.807,-74.729 515.225,-74.2024 517.207,-80.9162"/>
</g>
<!-- Node12 -->
<g id="node12" class="node"><title>Node12</title>
<g id="a_node12"><a xlink:href="_i_plug_constants_8h.html" target="_top" xlink:title="Constant definitions, magic numbers. ">
<polygon fill="white" stroke="black" points="0,-0.5 0,-19.5 92,-19.5 92,-0.5 0,-0.5"/>
<text text-anchor="middle" x="46" y="-7.5" font-family="Helvetica,sans-Serif" font-size="10.00">IPlugConstants.h</text>
</a>
</g>
</g>
<!-- Node2&#45;&gt;Node12 -->
<g id="edge11" class="edge"><title>Node2&#45;&gt;Node12</title>
<path fill="none" stroke="midnightblue" d="M330.404,-119.387C260.717,-115.78 117.454,-104.971 78,-76 62.8256,-64.8576 54.4565,-44.5257 50.1221,-29.5584"/>
<polygon fill="midnightblue" stroke="midnightblue" points="53.5006,-28.6421 47.6395,-19.8161 46.7173,-30.3707 53.5006,-28.6421"/>
</g>
<!-- Node13 -->
<g id="node13" class="node"><title>Node13</title>
<g id="a_node13"><a xlink:href="_i_plug_utilities_8h.html" target="_top" xlink:title="Utility functions and macros. ">
<polygon fill="white" stroke="black" points="87,-56.5 87,-75.5 167,-75.5 167,-56.5 87,-56.5"/>
<text text-anchor="middle" x="127" y="-63.5" font-family="Helvetica,sans-Serif" font-size="10.00">IPlugUtilities.h</text>
</a>
</g>
</g>
<!-- Node2&#45;&gt;Node13 -->
<g id="edge12" class="edge"><title>Node2&#45;&gt;Node13</title>
<path fill="none" stroke="midnightblue" d="M330.654,-112.444C288.527,-103.043 220.794,-87.9291 175.128,-77.7393"/>
<polygon fill="midnightblue" stroke="midnightblue" points="175.688,-74.2784 165.166,-75.5164 174.164,-81.1103 175.688,-74.2784"/>
</g>
<!-- Node13&#45;&gt;Node1 -->
<g id="edge19" class="edge"><title>Node13&#45;&gt;Node1</title>
<path fill="none" stroke="midnightblue" d="M140.434,-75.5914C169.891,-94.4303 240.418,-139.535 276.662,-162.714"/>
<polygon fill="midnightblue" stroke="midnightblue" points="275.193,-165.929 285.503,-168.368 278.965,-160.032 275.193,-165.929"/>
</g>
<!-- Node13&#45;&gt;Node3 -->
<g id="edge14" class="edge"><title>Node13&#45;&gt;Node3</title>
<path fill="none" stroke="midnightblue" d="M167.271,-57.2056C223.202,-46.3802 323.258,-27.0147 374.245,-17.1462"/>
<polygon fill="midnightblue" stroke="midnightblue" points="375.194,-20.5276 384.346,-15.191 373.863,-13.6551 375.194,-20.5276"/>
</g>
<!-- Node13&#45;&gt;Node4 -->
<g id="edge17" class="edge"><title>Node13&#45;&gt;Node4</title>
<path fill="none" stroke="midnightblue" d="M167.079,-57.4375C170.094,-56.9302 173.093,-56.4448 176,-56 298.62,-37.2385 445.237,-21.1602 509.754,-14.4047"/>
<polygon fill="midnightblue" stroke="midnightblue" points="510.164,-17.881 519.747,-13.3642 509.439,-10.9187 510.164,-17.881"/>
</g>
<!-- Node13&#45;&gt;Node7 -->
<g id="edge16" class="edge"><title>Node13&#45;&gt;Node7</title>
<path fill="none" stroke="midnightblue" d="M167.063,-57.3324C170.082,-56.8493 173.086,-56.3982 176,-56 352.414,-31.8918 398.019,-39.5185 575,-20 586.676,-18.7123 599.436,-17.1044 610.773,-15.6054"/>
<polygon fill="midnightblue" stroke="midnightblue" points="611.267,-19.0706 620.713,-14.2716 610.336,-12.1328 611.267,-19.0706"/>
</g>
<!-- Node13&#45;&gt;Node12 -->
<g id="edge18" class="edge"><title>Node13&#45;&gt;Node12</title>
<path fill="none" stroke="midnightblue" d="M113.986,-56.324C101.468,-47.979 82.3183,-35.2122 67.5286,-25.3524"/>
<polygon fill="midnightblue" stroke="midnightblue" points="69.2437,-22.2894 58.9818,-19.6545 65.3608,-28.1137 69.2437,-22.2894"/>
</g>
<!-- Node14 -->
<g id="node14" class="node"><title>Node14</title>
<polygon fill="white" stroke="#bfbfbf" points="110,-0.5 110,-19.5 154,-19.5 154,-0.5 110,-0.5"/>
<text text-anchor="middle" x="132" y="-7.5" font-family="Helvetica,sans-Serif" font-size="10.00">cmath</text>
</g>
<!-- Node13&#45;&gt;Node14 -->
<g id="edge13" class="edge"><title>Node13&#45;&gt;Node14</title>
<path fill="none" stroke="midnightblue" d="M127.826,-56.083C128.481,-49.0059 129.42,-38.8611 130.242,-29.9865"/>
<polygon fill="midnightblue" stroke="midnightblue" points="133.753,-30.0312 131.19,-19.7511 126.783,-29.3858 133.753,-30.0312"/>
</g>
<!-- Node15 -->
<g id="node15" class="node"><title>Node15</title>
<polygon fill="white" stroke="#bfbfbf" points="172.5,-0.5 172.5,-19.5 217.5,-19.5 217.5,-0.5 172.5,-0.5"/>
<text text-anchor="middle" x="195" y="-7.5" font-family="Helvetica,sans-Serif" font-size="10.00">cstdlib</text>
</g>
<!-- Node13&#45;&gt;Node15 -->
<g id="edge15" class="edge"><title>Node13&#45;&gt;Node15</title>
<path fill="none" stroke="midnightblue" d="M137.925,-56.324C148.175,-48.1849 163.721,-35.8395 176.001,-26.0874"/>
<polygon fill="midnightblue" stroke="midnightblue" points="178.221,-28.7937 183.876,-19.8339 173.868,-23.3119 178.221,-28.7937"/>
</g>
</g>
</svg>
