<?xml version="1.0" encoding="UTF-8" standalone="no"?>
<!DOCTYPE svg PUBLIC "-//W3C//DTD SVG 1.1//EN"
 "http://www.w3.org/Graphics/SVG/1.1/DTD/svg11.dtd">
<!-- Generated by graphviz version 2.36.0 (20140111.2315)
 -->
<!-- Title: IPlugAU.h Pages: 1 -->
<svg width="1625pt" height="476pt"
 viewBox="0.00 0.00 1624.94 476.00" xmlns="http://www.w3.org/2000/svg" xmlns:xlink="http://www.w3.org/1999/xlink">
<g id="graph0" class="graph" transform="scale(1 1) rotate(0) translate(4 472)">
<title>IPlugAU.h</title>
<polygon fill="white" stroke="none" points="-4,4 -4,-472 1620.94,-472 1620.94,4 -4,4"/>
<!-- Node1 -->
<g id="node1" class="node"><title>Node1</title>
<polygon fill="#bfbfbf" stroke="black" points="455,-448.5 455,-467.5 517,-467.5 517,-448.5 455,-448.5"/>
<text text-anchor="middle" x="486" y="-455.5" font-family="Helvetica,sans-Serif" font-size="10.00">IPlugAU.h</text>
</g>
<!-- Node2 -->
<g id="node2" class="node"><title>Node2</title>
<polygon fill="white" stroke="#bfbfbf" points="0,-392.5 0,-411.5 146,-411.5 146,-392.5 0,-392.5"/>
<text text-anchor="middle" x="73" y="-399.5" font-family="Helvetica,sans-Serif" font-size="10.00">CoreServices/CoreServices.h</text>
</g>
<!-- Node1&#45;&gt;Node2 -->
<g id="edge1" class="edge"><title>Node1&#45;&gt;Node2</title>
<path fill="none" stroke="midnightblue" d="M454.958,-452.941C390.316,-444.489 239.678,-424.793 148.075,-412.816"/>
<polygon fill="midnightblue" stroke="midnightblue" points="148.399,-409.329 138.03,-411.503 147.492,-416.27 148.399,-409.329"/>
</g>
<!-- Node3 -->
<g id="node3" class="node"><title>Node3</title>
<polygon fill="white" stroke="#bfbfbf" points="164.5,-392.5 164.5,-411.5 299.5,-411.5 299.5,-392.5 164.5,-392.5"/>
<text text-anchor="middle" x="232" y="-399.5" font-family="Helvetica,sans-Serif" font-size="10.00">AudioUnit/AUComponent.h</text>
</g>
<!-- Node1&#45;&gt;Node3 -->
<g id="edge2" class="edge"><title>Node1&#45;&gt;Node3</title>
<path fill="none" stroke="midnightblue" d="M454.855,-450.379C411.76,-441.217 333.461,-424.57 282.091,-413.649"/>
<polygon fill="midnightblue" stroke="midnightblue" points="282.704,-410.201 272.194,-411.545 281.248,-417.048 282.704,-410.201"/>
</g>
<!-- Node4 -->
<g id="node4" class="node"><title>Node4</title>
<polygon fill="white" stroke="#bfbfbf" points="318,-392.5 318,-411.5 476,-411.5 476,-392.5 318,-392.5"/>
<text text-anchor="middle" x="397" y="-399.5" font-family="Helvetica,sans-Serif" font-size="10.00">AudioUnit/AudioUnitProperties.h</text>
</g>
<!-- Node1&#45;&gt;Node4 -->
<g id="edge3" class="edge"><title>Node1&#45;&gt;Node4</title>
<path fill="none" stroke="midnightblue" d="M471.701,-448.324C457.817,-439.9 436.508,-426.971 420.196,-417.074"/>
<polygon fill="midnightblue" stroke="midnightblue" points="421.629,-413.85 411.264,-411.655 417.998,-419.834 421.629,-413.85"/>
</g>
<!-- Node5 -->
<g id="node5" class="node"><title>Node5</title>
<polygon fill="white" stroke="#bfbfbf" points="494.5,-392.5 494.5,-411.5 657.5,-411.5 657.5,-392.5 494.5,-392.5"/>
<text text-anchor="middle" x="576" y="-399.5" font-family="Helvetica,sans-Serif" font-size="10.00">AudioToolbox/AudioUnitUtilities.h</text>
</g>
<!-- Node1&#45;&gt;Node5 -->
<g id="edge4" class="edge"><title>Node1&#45;&gt;Node5</title>
<path fill="none" stroke="midnightblue" d="M500.46,-448.324C514.5,-439.9 536.048,-426.971 552.543,-417.074"/>
<polygon fill="midnightblue" stroke="midnightblue" points="554.802,-419.801 561.576,-411.655 551.2,-413.798 554.802,-419.801"/>
</g>
<!-- Node6 -->
<g id="node6" class="node"><title>Node6</title>
<polygon fill="white" stroke="#bfbfbf" points="676,-392.5 676,-411.5 780,-411.5 780,-392.5 676,-392.5"/>
<text text-anchor="middle" x="728" y="-399.5" font-family="Helvetica,sans-Serif" font-size="10.00">AvailabilityMacros.h</text>
</g>
<!-- Node1&#45;&gt;Node6 -->
<g id="edge5" class="edge"><title>Node1&#45;&gt;Node6</title>
<path fill="none" stroke="midnightblue" d="M517.142,-450.051C558.378,-440.85 631.512,-424.53 679.881,-413.737"/>
<polygon fill="midnightblue" stroke="midnightblue" points="680.809,-417.116 689.807,-411.522 679.284,-410.284 680.809,-417.116"/>
</g>
<!-- Node7 -->
<g id="node7" class="node"><title>Node7</title>
<g id="a_node7"><a xlink:href="_i_plug_base__select_8h_source.html" target="_top" xlink:title="IPlugBase_select.h">
<polygon fill="white" stroke="black" points="798.5,-392.5 798.5,-411.5 899.5,-411.5 899.5,-392.5 798.5,-392.5"/>
<text text-anchor="middle" x="849" y="-399.5" font-family="Helvetica,sans-Serif" font-size="10.00">IPlugBase_select.h</text>
</a>
</g>
</g>
<!-- Node1&#45;&gt;Node7 -->
<g id="edge6" class="edge"><title>Node1&#45;&gt;Node7</title>
<path fill="none" stroke="midnightblue" d="M517.408,-452.351C570.715,-444.457 682.574,-427.877 788.074,-412.136"/>
<polygon fill="midnightblue" stroke="midnightblue" points="788.888,-415.554 798.262,-410.616 787.855,-408.63 788.888,-415.554"/>
</g>
<!-- Node8 -->
<g id="node8" class="node"><title>Node8</title>
<g id="a_node8"><a xlink:href="_i_plug_base_graphics_8h.html" target="_top" xlink:title="An IPlugBase class for an IPlug plug&#45;in that uses IGraphics for it&#39;s UI. ">
<polygon fill="white" stroke="black" points="794.5,-336.5 794.5,-355.5 903.5,-355.5 903.5,-336.5 794.5,-336.5"/>
<text text-anchor="middle" x="849" y="-343.5" font-family="Helvetica,sans-Serif" font-size="10.00">IPlugBaseGraphics.h</text>
</a>
</g>
</g>
<!-- Node7&#45;&gt;Node8 -->
<g id="edge7" class="edge"><title>Node7&#45;&gt;Node8</title>
<path fill="none" stroke="midnightblue" d="M849,-392.083C849,-385.006 849,-374.861 849,-365.986"/>
<polygon fill="midnightblue" stroke="midnightblue" points="852.5,-365.751 849,-355.751 845.5,-365.751 852.5,-365.751"/>
</g>
<!-- Node30 -->
<g id="node30" class="node"><title>Node30</title>
<g id="a_node30"><a xlink:href="_i_plug_processor_8h.html" target="_top" xlink:title="The base class for IPlug Audio Processing. ">
<polygon fill="white" stroke="black" points="1165,-280.5 1165,-299.5 1257,-299.5 1257,-280.5 1165,-280.5"/>
<text text-anchor="middle" x="1211" y="-287.5" font-family="Helvetica,sans-Serif" font-size="10.00">IPlugProcessor.h</text>
</a>
</g>
</g>
<!-- Node7&#45;&gt;Node30 -->
<g id="edge49" class="edge"><title>Node7&#45;&gt;Node30</title>
<path fill="none" stroke="midnightblue" d="M877.104,-392.46C941.519,-372.886 1099.88,-324.766 1172.94,-302.565"/>
<polygon fill="midnightblue" stroke="midnightblue" points="1174.11,-305.867 1182.66,-299.61 1172.08,-299.169 1174.11,-305.867"/>
</g>
<!-- Node35 -->
<g id="node35" class="node"><title>Node35</title>
<g id="a_node35"><a xlink:href="_i_plug_presets_8h.html" target="_top" xlink:title="IPlugPresets.h">
<polygon fill="white" stroke="black" points="561.5,-280.5 561.5,-299.5 642.5,-299.5 642.5,-280.5 561.5,-280.5"/>
<text text-anchor="middle" x="602" y="-287.5" font-family="Helvetica,sans-Serif" font-size="10.00">IPlugPresets.h</text>
</a>
</g>
</g>
<!-- Node7&#45;&gt;Node35 -->
<g id="edge66" class="edge"><title>Node7&#45;&gt;Node35</title>
<path fill="none" stroke="midnightblue" d="M829.618,-392.368C786.331,-373.091 681.61,-326.454 630.718,-303.789"/>
<polygon fill="midnightblue" stroke="midnightblue" points="631.851,-300.462 621.292,-299.591 629.003,-306.857 631.851,-300.462"/>
</g>
<!-- Node9 -->
<g id="node9" class="node"><title>Node9</title>
<g id="a_node9"><a xlink:href="_i_plug_base_8h.html" target="_top" xlink:title="The lowest level base class of an IPlug plug&#45;in. ">
<polygon fill="white" stroke="black" points="814,-280.5 814,-299.5 884,-299.5 884,-280.5 814,-280.5"/>
<text text-anchor="middle" x="849" y="-287.5" font-family="Helvetica,sans-Serif" font-size="10.00">IPlugBase.h</text>
</a>
</g>
</g>
<!-- Node8&#45;&gt;Node9 -->
<g id="edge8" class="edge"><title>Node8&#45;&gt;Node9</title>
<path fill="none" stroke="midnightblue" d="M849,-336.083C849,-329.006 849,-318.861 849,-309.986"/>
<polygon fill="midnightblue" stroke="midnightblue" points="852.5,-309.751 849,-299.751 845.5,-309.751 852.5,-309.751"/>
</g>
<!-- Node10 -->
<g id="node10" class="node"><title>Node10</title>
<polygon fill="white" stroke="#bfbfbf" points="652,-0.5 652,-19.5 698,-19.5 698,-0.5 652,-0.5"/>
<text text-anchor="middle" x="675" y="-7.5" font-family="Helvetica,sans-Serif" font-size="10.00">cstring</text>
</g>
<!-- Node9&#45;&gt;Node10 -->
<g id="edge9" class="edge"><title>Node9&#45;&gt;Node10</title>
<path fill="none" stroke="midnightblue" d="M817.684,-280.425C794.559,-273.126 763.055,-261.087 739,-244 684.837,-205.526 670.442,-191.052 640,-132 624.298,-101.541 613.377,-87.4443 627,-56 632.268,-43.8399 642.62,-33.4594 652.365,-25.7429"/>
<polygon fill="midnightblue" stroke="midnightblue" points="654.644,-28.4116 660.63,-19.6698 650.499,-22.7707 654.644,-28.4116"/>
</g>
<!-- Node11 -->
<g id="node11" class="node"><title>Node11</title>
<polygon fill="white" stroke="#bfbfbf" points="1043,-56.5 1043,-75.5 1089,-75.5 1089,-56.5 1043,-56.5"/>
<text text-anchor="middle" x="1066" y="-63.5" font-family="Helvetica,sans-Serif" font-size="10.00">cstdint</text>
</g>
<!-- Node9&#45;&gt;Node11 -->
<g id="edge10" class="edge"><title>Node9&#45;&gt;Node11</title>
<path fill="none" stroke="midnightblue" d="M884.07,-287.128C940.573,-283.298 1047.79,-272.389 1071,-244 1090.39,-220.288 1076.56,-126.25 1069.48,-85.733"/>
<polygon fill="midnightblue" stroke="midnightblue" points="1072.92,-85.0483 1067.7,-75.8274 1066.03,-86.2895 1072.92,-85.0483"/>
</g>
<!-- Node12 -->
<g id="node12" class="node"><title>Node12</title>
<polygon fill="white" stroke="#bfbfbf" points="877.5,-224.5 877.5,-243.5 926.5,-243.5 926.5,-224.5 877.5,-224.5"/>
<text text-anchor="middle" x="902" y="-231.5" font-family="Helvetica,sans-Serif" font-size="10.00">ptrlist.h</text>
</g>
<!-- Node9&#45;&gt;Node12 -->
<g id="edge11" class="edge"><title>Node9&#45;&gt;Node12</title>
<path fill="none" stroke="midnightblue" d="M857.752,-280.083C865.47,-272.22 876.905,-260.569 886.217,-251.081"/>
<polygon fill="midnightblue" stroke="midnightblue" points="888.904,-253.34 893.411,-243.751 883.908,-248.436 888.904,-253.34"/>
</g>
<!-- Node13 -->
<g id="node13" class="node"><title>Node13</title>
<polygon fill="white" stroke="#bfbfbf" points="497,-56.5 497,-75.5 549,-75.5 549,-56.5 497,-56.5"/>
<text text-anchor="middle" x="523" y="-63.5" font-family="Helvetica,sans-Serif" font-size="10.00">mutex.h</text>
</g>
<!-- Node9&#45;&gt;Node13 -->
<g id="edge12" class="edge"><title>Node9&#45;&gt;Node13</title>
<path fill="none" stroke="midnightblue" d="M813.977,-283.406C779.434,-277.004 725.753,-264.645 683,-244 645.218,-225.755 636.247,-218.083 607,-188 575.195,-155.286 546.921,-109.398 532.705,-84.5894"/>
<polygon fill="midnightblue" stroke="midnightblue" points="535.614,-82.6214 527.657,-75.6253 529.514,-86.0561 535.614,-82.6214"/>
</g>
<!-- Node14 -->
<g id="node14" class="node"><title>Node14</title>
<g id="a_node14"><a xlink:href="_i_plug_platform_8h.html" target="_top" xlink:title="Include to get consistently named preprocessor macros for different platforms and logging functionali...">
<polygon fill="white" stroke="black" points="807,-168.5 807,-187.5 891,-187.5 891,-168.5 807,-168.5"/>
<text text-anchor="middle" x="849" y="-175.5" font-family="Helvetica,sans-Serif" font-size="10.00">IPlugPlatform.h</text>
</a>
</g>
</g>
<!-- Node9&#45;&gt;Node14 -->
<g id="edge13" class="edge"><title>Node9&#45;&gt;Node14</title>
<path fill="none" stroke="midnightblue" d="M849,-280.368C849,-262.617 849,-221.666 849,-197.597"/>
<polygon fill="midnightblue" stroke="midnightblue" points="852.5,-197.591 849,-187.591 845.5,-197.591 852.5,-197.591"/>
</g>
<!-- Node22 -->
<g id="node22" class="node"><title>Node22</title>
<g id="a_node22"><a xlink:href="_i_plug_constants_8h.html" target="_top" xlink:title="Constant definitions, magic numbers. ">
<polygon fill="white" stroke="black" points="1236,-0.5 1236,-19.5 1328,-19.5 1328,-0.5 1236,-0.5"/>
<text text-anchor="middle" x="1282" y="-7.5" font-family="Helvetica,sans-Serif" font-size="10.00">IPlugConstants.h</text>
</a>
</g>
</g>
<!-- Node9&#45;&gt;Node22 -->
<g id="edge33" class="edge"><title>Node9&#45;&gt;Node22</title>
<path fill="none" stroke="midnightblue" d="M884.067,-288.198C932.344,-285.839 1020.92,-276.935 1088,-244 1186.52,-195.631 1217.65,-173.002 1269,-76 1276.66,-61.5383 1279.82,-43.0893 1281.12,-29.5436"/>
<polygon fill="midnightblue" stroke="midnightblue" points="1284.61,-29.7357 1281.83,-19.5136 1277.63,-29.2415 1284.61,-29.7357"/>
</g>
<!-- Node23 -->
<g id="node23" class="node"><title>Node23</title>
<g id="a_node23"><a xlink:href="_i_plug_utilities_8h.html" target="_top" xlink:title="Utility functions and macros. ">
<polygon fill="white" stroke="black" points="763,-56.5 763,-75.5 843,-75.5 843,-56.5 763,-56.5"/>
<text text-anchor="middle" x="803" y="-63.5" font-family="Helvetica,sans-Serif" font-size="10.00">IPlugUtilities.h</text>
</a>
</g>
</g>
<!-- Node9&#45;&gt;Node23 -->
<g id="edge44" class="edge"><title>Node9&#45;&gt;Node23</title>
<path fill="none" stroke="midnightblue" d="M842.85,-280.361C831.31,-263.558 806.783,-224.88 798,-188 789.548,-152.51 794.851,-109.54 799.145,-85.5357"/>
<polygon fill="midnightblue" stroke="midnightblue" points="802.592,-86.1449 801.051,-75.6628 795.719,-84.8181 802.592,-86.1449"/>
</g>
<!-- Node26 -->
<g id="node26" class="node"><title>Node26</title>
<g id="a_node26"><a xlink:href="_i_plug_structs_8h_source.html" target="_top" xlink:title="IPlugStructs.h">
<polygon fill="white" stroke="black" points="983.5,-224.5 983.5,-243.5 1062.5,-243.5 1062.5,-224.5 983.5,-224.5"/>
<text text-anchor="middle" x="1023" y="-231.5" font-family="Helvetica,sans-Serif" font-size="10.00">IPlugStructs.h</text>
</a>
</g>
</g>
<!-- Node9&#45;&gt;Node26 -->
<g id="edge34" class="edge"><title>Node9&#45;&gt;Node26</title>
<path fill="none" stroke="midnightblue" d="M876.571,-280.444C906.097,-271.28 953.118,-256.688 985.883,-246.519"/>
<polygon fill="midnightblue" stroke="midnightblue" points="987.045,-249.823 995.558,-243.516 984.97,-243.138 987.045,-249.823"/>
</g>
<!-- Node29 -->
<g id="node29" class="node"><title>Node29</title>
<g id="a_node29"><a xlink:href="_i_plug_parameter_8h_source.html" target="_top" xlink:title="IPlugParameter.h">
<polygon fill="white" stroke="black" points="649,-112.5 649,-131.5 741,-131.5 741,-112.5 649,-112.5"/>
<text text-anchor="middle" x="695" y="-119.5" font-family="Helvetica,sans-Serif" font-size="10.00">IPlugParameter.h</text>
</a>
</g>
</g>
<!-- Node9&#45;&gt;Node29 -->
<g id="edge45" class="edge"><title>Node9&#45;&gt;Node29</title>
<path fill="none" stroke="midnightblue" d="M821.907,-280.492C802.491,-273.288 776.74,-261.339 759,-244 728.664,-214.35 709.517,-167.22 700.704,-141.402"/>
<polygon fill="midnightblue" stroke="midnightblue" points="703.986,-140.176 697.558,-131.755 697.331,-142.347 703.986,-140.176"/>
</g>
<!-- Node15 -->
<g id="node15" class="node"><title>Node15</title>
<g id="a_node15"><a xlink:href="_i_plug_logger_8h.html" target="_top" xlink:title="IPlug Logging functionailty To trace some arbitrary data: Trace(TRACELOC, &quot;%s:%d&quot;, myStr, myInt); To simply create a trace entry in the log: TRACE; No need to wrap tracer calls in #ifdef TRACER_BUILD because Trace is a no&#45;op unless TRACER_BUILD is defined. ">
<polygon fill="white" stroke="black" points="915.5,-112.5 915.5,-131.5 992.5,-131.5 992.5,-112.5 915.5,-112.5"/>
<text text-anchor="middle" x="954" y="-119.5" font-family="Helvetica,sans-Serif" font-size="10.00">IPlugLogger.h</text>
</a>
</g>
</g>
<!-- Node14&#45;&gt;Node15 -->
<g id="edge14" class="edge"><title>Node14&#45;&gt;Node15</title>
<path fill="none" stroke="midnightblue" d="M865.87,-168.324C882.709,-159.664 908.807,-146.242 928.238,-136.249"/>
<polygon fill="midnightblue" stroke="midnightblue" points="929.88,-139.341 937.172,-131.655 926.678,-133.116 929.88,-139.341"/>
</g>
<!-- Node15&#45;&gt;Node10 -->
<g id="edge19" class="edge"><title>Node15&#45;&gt;Node10</title>
<path fill="none" stroke="midnightblue" d="M915.39,-117.678C873.766,-112.9 806.432,-101.645 754,-76 728.961,-63.7531 704.932,-42.0939 690.085,-27.1651"/>
<polygon fill="midnightblue" stroke="midnightblue" points="692.301,-24.4216 682.833,-19.6663 687.269,-29.2879 692.301,-24.4216"/>
</g>
<!-- Node15&#45;&gt;Node11 -->
<g id="edge18" class="edge"><title>Node15&#45;&gt;Node11</title>
<path fill="none" stroke="midnightblue" d="M971.995,-112.324C990.038,-103.625 1018.05,-90.1202 1038.8,-80.113"/>
<polygon fill="midnightblue" stroke="midnightblue" points="1040.56,-83.1502 1048.05,-75.6545 1037.52,-76.8449 1040.56,-83.1502"/>
</g>
<!-- Node15&#45;&gt;Node13 -->
<g id="edge23" class="edge"><title>Node15&#45;&gt;Node13</title>
<path fill="none" stroke="midnightblue" d="M915.372,-116.16C832.716,-105.804 639.691,-81.6202 559.224,-71.5386"/>
<polygon fill="midnightblue" stroke="midnightblue" points="559.445,-68.0389 549.087,-70.2684 558.574,-74.9846 559.445,-68.0389"/>
</g>
<!-- Node16 -->
<g id="node16" class="node"><title>Node16</title>
<polygon fill="white" stroke="#bfbfbf" points="955.5,-0.5 955.5,-19.5 998.5,-19.5 998.5,-0.5 955.5,-0.5"/>
<text text-anchor="middle" x="977" y="-7.5" font-family="Helvetica,sans-Serif" font-size="10.00">cstdio</text>
</g>
<!-- Node15&#45;&gt;Node16 -->
<g id="edge15" class="edge"><title>Node15&#45;&gt;Node16</title>
<path fill="none" stroke="midnightblue" d="M955.805,-112.368C959.516,-94.617 968.079,-53.6664 973.111,-29.5974"/>
<polygon fill="midnightblue" stroke="midnightblue" points="976.583,-30.0961 975.204,-19.5914 969.731,-28.6634 976.583,-30.0961"/>
</g>
<!-- Node17 -->
<g id="node17" class="node"><title>Node17</title>
<polygon fill="white" stroke="#bfbfbf" points="846,-0.5 846,-19.5 892,-19.5 892,-0.5 846,-0.5"/>
<text text-anchor="middle" x="869" y="-7.5" font-family="Helvetica,sans-Serif" font-size="10.00">cctype</text>
</g>
<!-- Node15&#45;&gt;Node17 -->
<g id="edge16" class="edge"><title>Node15&#45;&gt;Node17</title>
<path fill="none" stroke="midnightblue" d="M936.438,-112.416C922.319,-104.688 902.935,-92.0823 891,-76 880.804,-62.2612 875.124,-43.4816 872.102,-29.6403"/>
<polygon fill="midnightblue" stroke="midnightblue" points="875.534,-28.9509 870.213,-19.7891 868.659,-30.2694 875.534,-28.9509"/>
</g>
<!-- Node18 -->
<g id="node18" class="node"><title>Node18</title>
<polygon fill="white" stroke="#bfbfbf" points="899.5,-56.5 899.5,-75.5 948.5,-75.5 948.5,-56.5 899.5,-56.5"/>
<text text-anchor="middle" x="924" y="-63.5" font-family="Helvetica,sans-Serif" font-size="10.00">cstdarg</text>
</g>
<!-- Node15&#45;&gt;Node18 -->
<g id="edge17" class="edge"><title>Node15&#45;&gt;Node18</title>
<path fill="none" stroke="midnightblue" d="M949.046,-112.083C944.896,-104.613 938.847,-93.7244 933.733,-84.5199"/>
<polygon fill="midnightblue" stroke="midnightblue" points="936.778,-82.7929 928.862,-75.7511 930.659,-86.1924 936.778,-82.7929"/>
</g>
<!-- Node19 -->
<g id="node19" class="node"><title>Node19</title>
<polygon fill="white" stroke="#bfbfbf" points="1174.5,-56.5 1174.5,-75.5 1215.5,-75.5 1215.5,-56.5 1174.5,-56.5"/>
<text text-anchor="middle" x="1195" y="-63.5" font-family="Helvetica,sans-Serif" font-size="10.00">ctime</text>
</g>
<!-- Node15&#45;&gt;Node19 -->
<g id="edge20" class="edge"><title>Node15&#45;&gt;Node19</title>
<path fill="none" stroke="midnightblue" d="M992.722,-113.723C1033.22,-105.896 1098.8,-92.6108 1164.69,-75.9077"/>
<polygon fill="midnightblue" stroke="midnightblue" points="1165.59,-79.2901 1174.4,-73.4188 1163.85,-72.5089 1165.59,-79.2901"/>
</g>
<!-- Node20 -->
<g id="node20" class="node"><title>Node20</title>
<polygon fill="white" stroke="#bfbfbf" points="1107.5,-56.5 1107.5,-75.5 1156.5,-75.5 1156.5,-56.5 1107.5,-56.5"/>
<text text-anchor="middle" x="1132" y="-63.5" font-family="Helvetica,sans-Serif" font-size="10.00">cassert</text>
</g>
<!-- Node15&#45;&gt;Node20 -->
<g id="edge21" class="edge"><title>Node15&#45;&gt;Node20</title>
<path fill="none" stroke="midnightblue" d="M982.205,-112.444C1013.48,-102.957 1063.93,-87.6507 1097.52,-77.4595"/>
<polygon fill="midnightblue" stroke="midnightblue" points="1098.81,-80.7254 1107.37,-74.473 1096.78,-74.0269 1098.81,-80.7254"/>
</g>
<!-- Node21 -->
<g id="node21" class="node"><title>Node21</title>
<polygon fill="white" stroke="#bfbfbf" points="643,-56.5 643,-75.5 707,-75.5 707,-56.5 643,-56.5"/>
<text text-anchor="middle" x="675" y="-63.5" font-family="Helvetica,sans-Serif" font-size="10.00">wdlstring.h</text>
</g>
<!-- Node15&#45;&gt;Node21 -->
<g id="edge22" class="edge"><title>Node15&#45;&gt;Node21</title>
<path fill="none" stroke="midnightblue" d="M915.241,-113.544C868.997,-104.642 789.347,-89.2861 721,-76 719.742,-75.7554 718.464,-75.5069 717.175,-75.2558"/>
<polygon fill="midnightblue" stroke="midnightblue" points="717.654,-71.7833 707.169,-73.3042 716.314,-78.6539 717.654,-71.7833"/>
</g>
<!-- Node15&#45;&gt;Node22 -->
<g id="edge24" class="edge"><title>Node15&#45;&gt;Node22</title>
<path fill="none" stroke="midnightblue" d="M961.89,-112.197C975.23,-97.9164 1003.76,-69.9032 1034,-56 1095.69,-27.6409 1173.7,-17.1276 1225.59,-13.2453"/>
<polygon fill="midnightblue" stroke="midnightblue" points="1225.87,-16.7343 1235.6,-12.554 1225.39,-9.75094 1225.87,-16.7343"/>
</g>
<!-- Node15&#45;&gt;Node23 -->
<g id="edge25" class="edge"><title>Node15&#45;&gt;Node23</title>
<path fill="none" stroke="midnightblue" d="M930.074,-112.444C904.781,-103.399 864.698,-89.064 836.32,-78.9158"/>
<polygon fill="midnightblue" stroke="midnightblue" points="837.409,-75.5882 826.814,-75.5164 835.052,-82.1794 837.409,-75.5882"/>
</g>
<!-- Node23&#45;&gt;Node10 -->
<g id="edge29" class="edge"><title>Node23&#45;&gt;Node10</title>
<path fill="none" stroke="midnightblue" d="M782.718,-56.4435C761.653,-47.5566 728.483,-33.5632 704.514,-23.4514"/>
<polygon fill="midnightblue" stroke="midnightblue" points="705.761,-20.1787 695.187,-19.5164 703.04,-26.6283 705.761,-20.1787"/>
</g>
<!-- Node23&#45;&gt;Node14 -->
<g id="edge32" class="edge"><title>Node23&#45;&gt;Node14</title>
<path fill="none" stroke="midnightblue" d="M806.593,-75.5914C814.069,-93.4683 831.435,-134.997 841.472,-158.998"/>
<polygon fill="midnightblue" stroke="midnightblue" points="838.303,-160.493 845.39,-168.368 844.761,-157.792 838.303,-160.493"/>
</g>
<!-- Node23&#45;&gt;Node16 -->
<g id="edge27" class="edge"><title>Node23&#45;&gt;Node16</title>
<path fill="none" stroke="midnightblue" d="M830.571,-56.4435C861.786,-46.7561 912.553,-31.0008 945.358,-20.8199"/>
<polygon fill="midnightblue" stroke="midnightblue" points="946.817,-24.0319 955.33,-17.7251 944.742,-17.3464 946.817,-24.0319"/>
</g>
<!-- Node23&#45;&gt;Node17 -->
<g id="edge30" class="edge"><title>Node23&#45;&gt;Node17</title>
<path fill="none" stroke="midnightblue" d="M813.604,-56.324C823.456,-48.2631 838.351,-36.0765 850.215,-26.3695"/>
<polygon fill="midnightblue" stroke="midnightblue" points="852.68,-28.8752 858.203,-19.8339 848.247,-23.4575 852.68,-28.8752"/>
</g>
<!-- Node23&#45;&gt;Node22 -->
<g id="edge31" class="edge"><title>Node23&#45;&gt;Node22</title>
<path fill="none" stroke="midnightblue" d="M843.015,-60.4889C928.252,-50.8797 1127.92,-28.3704 1225.84,-17.3312"/>
<polygon fill="midnightblue" stroke="midnightblue" points="1226.3,-20.8016 1235.84,-16.2033 1225.52,-13.8457 1226.3,-20.8016"/>
</g>
<!-- Node24 -->
<g id="node24" class="node"><title>Node24</title>
<polygon fill="white" stroke="#bfbfbf" points="1489,-0.5 1489,-19.5 1533,-19.5 1533,-0.5 1489,-0.5"/>
<text text-anchor="middle" x="1511" y="-7.5" font-family="Helvetica,sans-Serif" font-size="10.00">cmath</text>
</g>
<!-- Node23&#45;&gt;Node24 -->
<g id="edge26" class="edge"><title>Node23&#45;&gt;Node24</title>
<path fill="none" stroke="midnightblue" d="M843.28,-60.6286C858.255,-59.0698 875.395,-57.364 891,-56 1115.67,-36.3618 1386.69,-18.799 1478.67,-13.0094"/>
<polygon fill="midnightblue" stroke="midnightblue" points="1478.98,-16.497 1488.74,-12.3777 1478.54,-9.51076 1478.98,-16.497"/>
</g>
<!-- Node25 -->
<g id="node25" class="node"><title>Node25</title>
<polygon fill="white" stroke="#bfbfbf" points="780.5,-0.5 780.5,-19.5 825.5,-19.5 825.5,-0.5 780.5,-0.5"/>
<text text-anchor="middle" x="803" y="-7.5" font-family="Helvetica,sans-Serif" font-size="10.00">cstdlib</text>
</g>
<!-- Node23&#45;&gt;Node25 -->
<g id="edge28" class="edge"><title>Node23&#45;&gt;Node25</title>
<path fill="none" stroke="midnightblue" d="M803,-56.083C803,-49.0059 803,-38.8611 803,-29.9865"/>
<polygon fill="midnightblue" stroke="midnightblue" points="806.5,-29.751 803,-19.7511 799.5,-29.7511 806.5,-29.751"/>
</g>
<!-- Node26&#45;&gt;Node14 -->
<g id="edge38" class="edge"><title>Node26&#45;&gt;Node14</title>
<path fill="none" stroke="midnightblue" d="M995.429,-224.444C965.903,-215.28 918.882,-200.688 886.117,-190.519"/>
<polygon fill="midnightblue" stroke="midnightblue" points="887.03,-187.138 876.442,-187.516 884.955,-193.823 887.03,-187.138"/>
</g>
<!-- Node26&#45;&gt;Node21 -->
<g id="edge36" class="edge"><title>Node26&#45;&gt;Node21</title>
<path fill="none" stroke="midnightblue" d="M1018.42,-224.084C1010.81,-210.152 994.306,-183.241 973,-168 967.446,-164.027 788.651,-104.605 710.721,-78.8067"/>
<polygon fill="midnightblue" stroke="midnightblue" points="711.452,-75.3621 700.859,-75.5433 709.253,-82.0077 711.452,-75.3621"/>
</g>
<!-- Node26&#45;&gt;Node22 -->
<g id="edge37" class="edge"><title>Node26&#45;&gt;Node22</title>
<path fill="none" stroke="midnightblue" d="M1040.63,-224.479C1081.6,-203.944 1184.59,-148.046 1248,-76 1260.2,-62.1354 1269.49,-43.1181 1275.25,-29.2364"/>
<polygon fill="midnightblue" stroke="midnightblue" points="1278.56,-30.3798 1278.96,-19.7924 1272.05,-27.8224 1278.56,-30.3798"/>
</g>
<!-- Node27 -->
<g id="node27" class="node"><title>Node27</title>
<polygon fill="white" stroke="#bfbfbf" points="909,-168.5 909,-187.5 965,-187.5 965,-168.5 909,-168.5"/>
<text text-anchor="middle" x="937" y="-175.5" font-family="Helvetica,sans-Serif" font-size="10.00">algorithm</text>
</g>
<!-- Node26&#45;&gt;Node27 -->
<g id="edge35" class="edge"><title>Node26&#45;&gt;Node27</title>
<path fill="none" stroke="midnightblue" d="M1009.18,-224.324C995.767,-215.9 975.176,-202.971 959.414,-193.074"/>
<polygon fill="midnightblue" stroke="midnightblue" points="961.113,-190.008 950.783,-187.655 957.391,-195.936 961.113,-190.008"/>
</g>
<!-- Node28 -->
<g id="node28" class="node"><title>Node28</title>
<g id="a_node28"><a xlink:href="_i_plug_midi_8h_source.html" target="_top" xlink:title="IPlugMidi.h">
<polygon fill="white" stroke="black" points="1087.5,-112.5 1087.5,-131.5 1152.5,-131.5 1152.5,-112.5 1087.5,-112.5"/>
<text text-anchor="middle" x="1120" y="-119.5" font-family="Helvetica,sans-Serif" font-size="10.00">IPlugMidi.h</text>
</a>
</g>
</g>
<!-- Node26&#45;&gt;Node28 -->
<g id="edge39" class="edge"><title>Node26&#45;&gt;Node28</title>
<path fill="none" stroke="midnightblue" d="M1030.61,-224.368C1046.76,-206.055 1084.68,-163.049 1105.57,-139.362"/>
<polygon fill="midnightblue" stroke="midnightblue" points="1108.44,-141.407 1112.42,-131.591 1103.18,-136.777 1108.44,-141.407"/>
</g>
<!-- Node28&#45;&gt;Node11 -->
<g id="edge41" class="edge"><title>Node28&#45;&gt;Node11</title>
<path fill="none" stroke="midnightblue" d="M1111.08,-112.083C1103.22,-104.22 1091.57,-92.5688 1082.08,-83.0813"/>
<polygon fill="midnightblue" stroke="midnightblue" points="1084.3,-80.3473 1074.75,-75.7511 1079.35,-85.2971 1084.3,-80.3473"/>
</g>
<!-- Node28&#45;&gt;Node20 -->
<g id="edge40" class="edge"><title>Node28&#45;&gt;Node20</title>
<path fill="none" stroke="midnightblue" d="M1121.98,-112.083C1123.57,-104.927 1125.86,-94.6353 1127.85,-85.6911"/>
<polygon fill="midnightblue" stroke="midnightblue" points="1131.3,-86.2722 1130.06,-75.7511 1124.47,-84.7537 1131.3,-86.2722"/>
</g>
<!-- Node28&#45;&gt;Node22 -->
<g id="edge42" class="edge"><title>Node28&#45;&gt;Node22</title>
<path fill="none" stroke="midnightblue" d="M1148.66,-112.374C1170.58,-104.917 1200.87,-92.6978 1224,-76 1242.51,-62.6377 1259.35,-42.4364 1270.06,-28.1058"/>
<polygon fill="midnightblue" stroke="midnightblue" points="1273.14,-29.8202 1276.17,-19.6671 1267.47,-25.716 1273.14,-29.8202"/>
</g>
<!-- Node28&#45;&gt;Node23 -->
<g id="edge43" class="edge"><title>Node28&#45;&gt;Node23</title>
<path fill="none" stroke="midnightblue" d="M1087.27,-115.424C1031.79,-105.973 918.92,-86.7466 853.325,-75.5728"/>
<polygon fill="midnightblue" stroke="midnightblue" points="853.666,-72.0804 843.22,-73.8513 852.49,-78.981 853.666,-72.0804"/>
</g>
<!-- Node29&#45;&gt;Node10 -->
<g id="edge46" class="edge"><title>Node29&#45;&gt;Node10</title>
<path fill="none" stroke="midnightblue" d="M675.094,-112.41C660.775,-105.04 642.542,-92.9163 634,-76 624.968,-58.1129 640.645,-38.8417 655.148,-25.9667"/>
<polygon fill="midnightblue" stroke="midnightblue" points="657.456,-28.5992 662.919,-19.5215 652.988,-23.2109 657.456,-28.5992"/>
</g>
<!-- Node29&#45;&gt;Node21 -->
<g id="edge47" class="edge"><title>Node29&#45;&gt;Node21</title>
<path fill="none" stroke="midnightblue" d="M691.697,-112.083C689.018,-104.849 685.151,-94.4087 681.814,-85.3968"/>
<polygon fill="midnightblue" stroke="midnightblue" points="684.996,-83.9129 678.241,-75.7511 678.432,-86.3442 684.996,-83.9129"/>
</g>
<!-- Node29&#45;&gt;Node23 -->
<g id="edge48" class="edge"><title>Node29&#45;&gt;Node23</title>
<path fill="none" stroke="midnightblue" d="M712.352,-112.324C729.672,-103.664 756.515,-90.2424 776.502,-80.249"/>
<polygon fill="midnightblue" stroke="midnightblue" points="778.312,-83.2572 785.691,-75.6545 775.181,-76.9962 778.312,-83.2572"/>
</g>
<!-- Node30&#45;&gt;Node10 -->
<g id="edge50" class="edge"><title>Node30&#45;&gt;Node10</title>
<path fill="none" stroke="midnightblue" d="M1215.29,-280.358C1231.41,-246.493 1284.47,-121.48 1224,-56 1189.82,-18.9879 822.195,-24.3274 772,-20 750.773,-18.17 726.948,-15.9616 708.222,-14.1904"/>
<polygon fill="midnightblue" stroke="midnightblue" points="708.405,-10.6922 698.119,-13.2305 707.743,-17.6608 708.405,-10.6922"/>
</g>
<!-- Node30&#45;&gt;Node11 -->
<g id="edge51" class="edge"><title>Node30&#45;&gt;Node11</title>
<path fill="none" stroke="midnightblue" d="M1211.29,-280.187C1211.73,-251.602 1209.13,-160.505 1161,-112 1143.95,-94.8231 1119.08,-83.3673 1099.06,-76.3144"/>
<polygon fill="midnightblue" stroke="midnightblue" points="1099.98,-72.9331 1089.39,-73.1103 1097.78,-79.5779 1099.98,-72.9331"/>
</g>
<!-- Node30&#45;&gt;Node12 -->
<g id="edge52" class="edge"><title>Node30&#45;&gt;Node12</title>
<path fill="none" stroke="midnightblue" d="M1164.98,-282.214C1111.12,-274.068 1019.31,-259.546 941,-244 939.552,-243.712 938.075,-243.411 936.585,-243.099"/>
<polygon fill="midnightblue" stroke="midnightblue" points="937.224,-239.656 926.708,-240.944 935.732,-246.495 937.224,-239.656"/>
</g>
<!-- Node30&#45;&gt;Node14 -->
<g id="edge53" class="edge"><title>Node30&#45;&gt;Node14</title>
<path fill="none" stroke="midnightblue" d="M1164.75,-284.171C1116.41,-278.21 1038.87,-266.045 975,-244 969.789,-242.202 910.162,-211.086 874.835,-192.568"/>
<polygon fill="midnightblue" stroke="midnightblue" points="876.062,-189.259 865.58,-187.714 872.81,-195.458 876.062,-189.259"/>
</g>
<!-- Node30&#45;&gt;Node22 -->
<g id="edge54" class="edge"><title>Node30&#45;&gt;Node22</title>
<path fill="none" stroke="midnightblue" d="M1257.06,-286.233C1363.21,-278.597 1616,-252.679 1616,-179 1616,-179 1616,-179 1616,-121 1616,-90.9022 1619.74,-75.7134 1597,-56 1559.4,-23.4063 1418.71,-14.4014 1338.65,-11.9265"/>
<polygon fill="midnightblue" stroke="midnightblue" points="1338.35,-8.41648 1328.25,-11.6311 1338.15,-15.4137 1338.35,-8.41648"/>
</g>
<!-- Node30&#45;&gt;Node23 -->
<g id="edge56" class="edge"><title>Node30&#45;&gt;Node23</title>
<path fill="none" stroke="midnightblue" d="M1197.32,-280.41C1163.9,-259.61 1075.11,-205.495 997,-168 958.162,-149.356 945.419,-151.494 907,-132 876.732,-116.642 843.833,-95.2069 823.317,-81.2182"/>
<polygon fill="midnightblue" stroke="midnightblue" points="825.292,-78.3289 815.071,-75.541 821.323,-84.0946 825.292,-78.3289"/>
</g>
<!-- Node30&#45;&gt;Node26 -->
<g id="edge55" class="edge"><title>Node30&#45;&gt;Node26</title>
<path fill="none" stroke="midnightblue" d="M1181.21,-280.444C1149.17,-271.241 1098.07,-256.562 1062.65,-246.388"/>
<polygon fill="midnightblue" stroke="midnightblue" points="1063.23,-242.913 1052.65,-243.516 1061.29,-249.641 1063.23,-242.913"/>
</g>
<!-- Node31 -->
<g id="node31" class="node"><title>Node31</title>
<g id="a_node31"><a xlink:href="_n_chan_delay_8h_source.html" target="_top" xlink:title="NChanDelay.h">
<polygon fill="white" stroke="black" points="1315.5,-224.5 1315.5,-243.5 1396.5,-243.5 1396.5,-224.5 1315.5,-224.5"/>
<text text-anchor="middle" x="1356" y="-231.5" font-family="Helvetica,sans-Serif" font-size="10.00">NChanDelay.h</text>
</a>
</g>
</g>
<!-- Node30&#45;&gt;Node31 -->
<g id="edge57" class="edge"><title>Node30&#45;&gt;Node31</title>
<path fill="none" stroke="midnightblue" d="M1233.98,-280.444C1258.16,-271.438 1296.42,-257.189 1323.65,-247.049"/>
<polygon fill="midnightblue" stroke="midnightblue" points="1324.98,-250.286 1333.13,-243.516 1322.54,-243.727 1324.98,-250.286"/>
</g>
<!-- Node32 -->
<g id="node32" class="node"><title>Node32</title>
<g id="a_node32"><a xlink:href="_i_plug_processor_8cpp_source.html" target="_top" xlink:title="IPlugProcessor.cpp">
<polygon fill="white" stroke="black" points="1383,-112.5 1383,-131.5 1485,-131.5 1485,-112.5 1383,-112.5"/>
<text text-anchor="middle" x="1434" y="-119.5" font-family="Helvetica,sans-Serif" font-size="10.00">IPlugProcessor.cpp</text>
</a>
</g>
</g>
<!-- Node30&#45;&gt;Node32 -->
<g id="edge58" class="edge"><title>Node30&#45;&gt;Node32</title>
<path fill="none" stroke="midnightblue" d="M1257.3,-282.983C1305.5,-276.193 1376.37,-263.487 1396,-244 1423.38,-216.823 1426.67,-168.684 1429.21,-142.052"/>
<polygon fill="midnightblue" stroke="midnightblue" points="1432.73,-142.107 1430.37,-131.779 1425.77,-141.325 1432.73,-142.107"/>
</g>
<!-- Node32&#45;&gt;Node16 -->
<g id="edge60" class="edge"><title>Node32&#45;&gt;Node16</title>
<path fill="none" stroke="midnightblue" d="M1414.61,-112.411C1382.6,-98.5649 1316.45,-71.3165 1258,-56 1169.25,-32.7421 1061.39,-19.5473 1008.85,-14.0546"/>
<polygon fill="midnightblue" stroke="midnightblue" points="1009.11,-10.5627 998.802,-13.0283 1008.39,-17.5265 1009.11,-10.5627"/>
</g>
<!-- Node32&#45;&gt;Node19 -->
<g id="edge61" class="edge"><title>Node32&#45;&gt;Node19</title>
<path fill="none" stroke="midnightblue" d="M1396.13,-112.444C1348.95,-101.784 1269.25,-83.7765 1225.69,-73.9343"/>
<polygon fill="midnightblue" stroke="midnightblue" points="1226.22,-70.4649 1215.69,-71.6749 1224.67,-77.2928 1226.22,-70.4649"/>
</g>
<!-- Node32&#45;&gt;Node20 -->
<g id="edge62" class="edge"><title>Node32&#45;&gt;Node20</title>
<path fill="none" stroke="midnightblue" d="M1382.85,-113.849C1330.84,-106.255 1247.75,-93.2411 1166.69,-75.9791"/>
<polygon fill="midnightblue" stroke="midnightblue" points="1167.33,-72.5367 1156.82,-73.853 1165.86,-79.3799 1167.33,-72.5367"/>
</g>
<!-- Node32&#45;&gt;Node24 -->
<g id="edge59" class="edge"><title>Node32&#45;&gt;Node24</title>
<path fill="none" stroke="midnightblue" d="M1485.32,-113.686C1527.83,-106.453 1583.4,-93.8689 1597,-76 1615.72,-51.4108 1574.51,-31.4988 1542.89,-20.461"/>
<polygon fill="midnightblue" stroke="midnightblue" points="1543.65,-17.0234 1533.05,-17.1944 1541.44,-23.6669 1543.65,-17.0234"/>
</g>
<!-- Node32&#45;&gt;Node30 -->
<g id="edge65" class="edge"><title>Node32&#45;&gt;Node30</title>
<path fill="none" stroke="midnightblue" d="M1439.13,-131.779C1445.12,-153.978 1445.43,-212.801 1414,-244 1393.89,-263.966 1319.98,-276.814 1267.06,-283.473"/>
<polygon fill="midnightblue" stroke="midnightblue" points="1266.61,-280.001 1257.11,-284.683 1267.46,-286.95 1266.61,-280.001"/>
</g>
<!-- Node33 -->
<g id="node33" class="node"><title>Node33</title>
<polygon fill="white" stroke="#bfbfbf" points="1520,-56.5 1520,-75.5 1588,-75.5 1588,-56.5 1520,-56.5"/>
<text text-anchor="middle" x="1554" y="-63.5" font-family="Helvetica,sans-Serif" font-size="10.00">wdlendian.h</text>
</g>
<!-- Node32&#45;&gt;Node33 -->
<g id="edge63" class="edge"><title>Node32&#45;&gt;Node33</title>
<path fill="none" stroke="midnightblue" d="M1453.01,-112.444C1472.59,-103.636 1503.31,-89.8116 1525.73,-79.722"/>
<polygon fill="midnightblue" stroke="midnightblue" points="1527.39,-82.8119 1535.07,-75.5164 1524.52,-76.4284 1527.39,-82.8119"/>
</g>
<!-- Node34 -->
<g id="node34" class="node"><title>Node34</title>
<polygon fill="white" stroke="#bfbfbf" points="1424.5,-56.5 1424.5,-75.5 1501.5,-75.5 1501.5,-56.5 1424.5,-56.5"/>
<text text-anchor="middle" x="1463" y="-63.5" font-family="Helvetica,sans-Serif" font-size="10.00">wdl_base64.h</text>
</g>
<!-- Node32&#45;&gt;Node34 -->
<g id="edge64" class="edge"><title>Node32&#45;&gt;Node34</title>
<path fill="none" stroke="midnightblue" d="M1438.79,-112.083C1442.76,-104.691 1448.53,-93.9533 1453.43,-84.8111"/>
<polygon fill="midnightblue" stroke="midnightblue" points="1456.65,-86.217 1458.3,-75.7511 1450.49,-82.9051 1456.65,-86.217"/>
</g>
<!-- Node35&#45;&gt;Node10 -->
<g id="edge67" class="edge"><title>Node35&#45;&gt;Node10</title>
<path fill="none" stroke="midnightblue" d="M561.246,-286.259C528.658,-282.003 483.808,-271.221 455,-244 432.617,-222.85 431,-209.795 431,-179 431,-179 431,-179 431,-121 431,-90.2048 431.635,-76.06 455,-56 482.661,-32.2517 587.332,-19.1847 641.723,-13.8676"/>
<polygon fill="midnightblue" stroke="midnightblue" points="642.267,-17.3319 651.893,-12.9066 641.608,-10.3629 642.267,-17.3319"/>
</g>
<!-- Node35&#45;&gt;Node11 -->
<g id="edge68" class="edge"><title>Node35&#45;&gt;Node11</title>
<path fill="none" stroke="midnightblue" d="M614.057,-280.491C632.211,-267.778 667.769,-243.259 699,-224 742.028,-197.466 750.43,-185.103 798,-168 884.226,-136.998 919.744,-174.35 1001,-132 1023,-120.531 1042.26,-99.0163 1053.98,-83.889"/>
<polygon fill="midnightblue" stroke="midnightblue" points="1056.81,-85.9535 1059.98,-75.8447 1051.2,-81.769 1056.81,-85.9535"/>
</g>
<!-- Node35&#45;&gt;Node12 -->
<g id="edge69" class="edge"><title>Node35&#45;&gt;Node12</title>
<path fill="none" stroke="midnightblue" d="M642.772,-281.661C702.221,-270.96 811.668,-251.26 867.409,-241.226"/>
<polygon fill="midnightblue" stroke="midnightblue" points="868.268,-244.628 877.49,-239.412 867.028,-237.739 868.268,-244.628"/>
</g>
<!-- Node35&#45;&gt;Node13 -->
<g id="edge70" class="edge"><title>Node35&#45;&gt;Node13</title>
<path fill="none" stroke="midnightblue" d="M577.442,-280.389C561.234,-273.307 541.176,-261.548 531,-244 501.469,-193.078 511.618,-119.38 518.625,-85.4124"/>
<polygon fill="midnightblue" stroke="midnightblue" points="522.074,-86.0267 520.819,-75.5065 515.24,-84.513 522.074,-86.0267"/>
</g>
<!-- Node35&#45;&gt;Node14 -->
<g id="edge71" class="edge"><title>Node35&#45;&gt;Node14</title>
<path fill="none" stroke="midnightblue" d="M621.382,-280.368C664.669,-261.091 769.39,-214.454 820.282,-191.789"/>
<polygon fill="midnightblue" stroke="midnightblue" points="821.997,-194.857 829.708,-187.591 819.149,-188.462 821.997,-194.857"/>
</g>
<!-- Node35&#45;&gt;Node22 -->
<g id="edge72" class="edge"><title>Node35&#45;&gt;Node22</title>
<path fill="none" stroke="midnightblue" d="M575.085,-280.41C536.222,-266.126 469,-233.535 469,-179 469,-179 469,-179 469,-121 469,-90.9022 464.437,-74.726 488,-56 502.448,-44.5178 1046.9,-20.8144 1225.73,-13.3227"/>
<polygon fill="midnightblue" stroke="midnightblue" points="1226.13,-16.8092 1235.97,-12.8945 1225.83,-9.81527 1226.13,-16.8092"/>
</g>
<!-- Node35&#45;&gt;Node23 -->
<g id="edge74" class="edge"><title>Node35&#45;&gt;Node23</title>
<path fill="none" stroke="midnightblue" d="M600.758,-280.397C599.519,-271.358 597.704,-256.715 597,-244 593.588,-182.393 594.303,-153.458 640,-112 656.571,-96.966 711.199,-83.8811 752.688,-75.7544"/>
<polygon fill="midnightblue" stroke="midnightblue" points="753.49,-79.1645 762.653,-73.847 752.174,-72.2893 753.49,-79.1645"/>
</g>
<!-- Node35&#45;&gt;Node26 -->
<g id="edge73" class="edge"><title>Node35&#45;&gt;Node26</title>
<path fill="none" stroke="midnightblue" d="M642.75,-283.773C720.403,-273.813 889.315,-252.147 973.393,-241.363"/>
<polygon fill="midnightblue" stroke="midnightblue" points="973.985,-244.816 983.458,-240.072 973.094,-237.873 973.985,-244.816"/>
</g>
<!-- Node35&#45;&gt;Node29 -->
<g id="edge75" class="edge"><title>Node35&#45;&gt;Node29</title>
<path fill="none" stroke="midnightblue" d="M600.979,-280.183C599.854,-267.292 599.128,-242.79 607,-224 622.007,-188.18 654.881,-156.115 675.926,-138.148"/>
<polygon fill="midnightblue" stroke="midnightblue" points="678.414,-140.631 683.873,-131.551 673.943,-135.245 678.414,-140.631"/>
</g>
</g>
</svg>
