<?xml version="1.0" encoding="UTF-8" standalone="no"?>
<!DOCTYPE svg PUBLIC "-//W3C//DTD SVG 1.1//EN"
 "http://www.w3.org/Graphics/SVG/1.1/DTD/svg11.dtd">
<!-- Generated by graphviz version 2.36.0 (20140111.2315)
 -->
<!-- Title: IPlugPresetHandler Pages: 1 -->
<svg width="457pt" height="84pt"
 viewBox="0.00 0.00 457.00 84.00" xmlns="http://www.w3.org/2000/svg" xmlns:xlink="http://www.w3.org/1999/xlink">
<g id="graph0" class="graph" transform="scale(1 1) rotate(0) translate(4 80)">
<title>IPlugPresetHandler</title>
<polygon fill="white" stroke="none" points="-4,4 -4,-80 453,-80 453,4 -4,4"/>
<!-- Node1 -->
<g id="node1" class="node"><title>Node1</title>
<polygon fill="#bfbfbf" stroke="black" points="167.5,-56.5 167.5,-75.5 268.5,-75.5 268.5,-56.5 167.5,-56.5"/>
<text text-anchor="middle" x="218" y="-63.5" font-family="Helvetica,sans-Serif" font-size="10.00">IPlugPresetHandler</text>
</g>
<!-- Node2 -->
<g id="node2" class="node"><title>Node2</title>
<g id="a_node2"><a xlink:href="class_i_plug_a_a_x.html" target="_top" xlink:title="AAX API base class for an IPlug plug&#45;in, inherits from IPlugBase or IPlugBaseGraphics. ">
<polygon fill="white" stroke="black" points="-0.5,-0.5 -0.5,-19.5 58.5,-19.5 58.5,-0.5 -0.5,-0.5"/>
<text text-anchor="middle" x="29" y="-7.5" font-family="Helvetica,sans-Serif" font-size="10.00">IPlugAAX</text>
</a>
</g>
</g>
<!-- Node1&#45;&gt;Node2 -->
<g id="edge1" class="edge"><title>Node1&#45;&gt;Node2</title>
<path fill="none" stroke="midnightblue" d="M177.987,-53.5677C142.333,-43.381 90.962,-28.7034 58.8075,-19.5164"/>
<polygon fill="midnightblue" stroke="midnightblue" points="177.476,-57.0616 188.052,-56.4435 179.399,-50.3309 177.476,-57.0616"/>
</g>
<!-- Node3 -->
<g id="node3" class="node"><title>Node3</title>
<g id="a_node3"><a xlink:href="class_i_plug_a_p_p.html" target="_top" xlink:title="Standalone application base class for an IPlug plug&#45;in, inherits from IPlugBase or IPlugBaseGraphics...">
<polygon fill="white" stroke="black" points="76.5,-0.5 76.5,-19.5 135.5,-19.5 135.5,-0.5 76.5,-0.5"/>
<text text-anchor="middle" x="106" y="-7.5" font-family="Helvetica,sans-Serif" font-size="10.00">IPlugAPP</text>
</a>
</g>
</g>
<!-- Node1&#45;&gt;Node3 -->
<g id="edge2" class="edge"><title>Node1&#45;&gt;Node3</title>
<path fill="none" stroke="midnightblue" d="M190.751,-51.8622C169.984,-41.8492 141.977,-28.3458 123.95,-19.6545"/>
<polygon fill="midnightblue" stroke="midnightblue" points="189.477,-55.1336 200.005,-56.324 192.518,-48.8282 189.477,-55.1336"/>
</g>
<!-- Node4 -->
<g id="node4" class="node"><title>Node4</title>
<g id="a_node4"><a xlink:href="class_i_plug_a_u.html" target="_top" xlink:title="AudioUnit v2 API base class for an IPlug plug&#45;in, inherits from IPlugBase or IPlugBaseGraphics. ">
<polygon fill="white" stroke="black" points="153.5,-0.5 153.5,-19.5 206.5,-19.5 206.5,-0.5 153.5,-0.5"/>
<text text-anchor="middle" x="180" y="-7.5" font-family="Helvetica,sans-Serif" font-size="10.00">IPlugAU</text>
</a>
</g>
</g>
<!-- Node1&#45;&gt;Node4 -->
<g id="edge3" class="edge"><title>Node1&#45;&gt;Node4</title>
<path fill="none" stroke="midnightblue" d="M205.935,-47.8554C199.355,-38.5048 191.489,-27.3265 186.158,-19.7511"/>
<polygon fill="midnightblue" stroke="midnightblue" points="203.108,-49.9192 211.725,-56.083 208.832,-45.8907 203.108,-49.9192"/>
</g>
<!-- Node5 -->
<g id="node5" class="node"><title>Node5</title>
<g id="a_node5"><a xlink:href="class_i_plug_a_uv3.html" target="_top" xlink:title="IPlugAUv3">
<polygon fill="white" stroke="black" points="225,-0.5 225,-19.5 289,-19.5 289,-0.5 225,-0.5"/>
<text text-anchor="middle" x="257" y="-7.5" font-family="Helvetica,sans-Serif" font-size="10.00">IPlugAUv3</text>
</a>
</g>
</g>
<!-- Node1&#45;&gt;Node5 -->
<g id="edge4" class="edge"><title>Node1&#45;&gt;Node5</title>
<path fill="none" stroke="midnightblue" d="M230.382,-47.8554C237.135,-38.5048 245.209,-27.3265 250.68,-19.7511"/>
<polygon fill="midnightblue" stroke="midnightblue" points="227.458,-45.927 224.44,-56.083 233.132,-50.0254 227.458,-45.927"/>
</g>
<!-- Node6 -->
<g id="node6" class="node"><title>Node6</title>
<g id="a_node6"><a xlink:href="class_i_plug_v_s_t.html" target="_top" xlink:title="VST2.4 API base class for an IPlug plug&#45;in, inherits from IPlugBase or IPlugBaseGraphics. ">
<polygon fill="white" stroke="black" points="307.5,-0.5 307.5,-19.5 366.5,-19.5 366.5,-0.5 307.5,-0.5"/>
<text text-anchor="middle" x="337" y="-7.5" font-family="Helvetica,sans-Serif" font-size="10.00">IPlugVST</text>
</a>
</g>
</g>
<!-- Node1&#45;&gt;Node6 -->
<g id="edge5" class="edge"><title>Node1&#45;&gt;Node6</title>
<path fill="none" stroke="midnightblue" d="M246.137,-52.2321C268.396,-42.1312 298.856,-28.3091 318.232,-19.5164"/>
<polygon fill="midnightblue" stroke="midnightblue" points="244.516,-49.124 236.856,-56.4435 247.409,-55.4984 244.516,-49.124"/>
</g>
<!-- Node7 -->
<g id="node7" class="node"><title>Node7</title>
<g id="a_node7"><a xlink:href="class_i_plug_v_s_t3.html" target="_top" xlink:title="VST3 base class for an IPlug plug&#45;in, inherits from IPlugBase or IPlugBaseGraphics. ">
<polygon fill="white" stroke="black" points="385,-0.5 385,-19.5 449,-19.5 449,-0.5 385,-0.5"/>
<text text-anchor="middle" x="417" y="-7.5" font-family="Helvetica,sans-Serif" font-size="10.00">IPlugVST3</text>
</a>
</g>
</g>
<!-- Node1&#45;&gt;Node7 -->
<g id="edge6" class="edge"><title>Node1&#45;&gt;Node7</title>
<path fill="none" stroke="midnightblue" d="M259.648,-53.6986C297.206,-43.507 351.614,-28.7429 385.615,-19.5164"/>
<polygon fill="midnightblue" stroke="midnightblue" points="258.267,-50.4468 249.532,-56.4435 260.1,-57.2025 258.267,-50.4468"/>
</g>
</g>
</svg>
