<?xml version="1.0" encoding="UTF-8" standalone="no"?>
<!DOCTYPE svg PUBLIC "-//W3C//DTD SVG 1.1//EN"
 "http://www.w3.org/Graphics/SVG/1.1/DTD/svg11.dtd">
<!-- Generated by graphviz version 2.36.0 (20140111.2315)
 -->
<!-- Title: IPlugAAX Pages: 1 -->
<svg width="324pt" height="154pt"
 viewBox="0.00 0.00 324.00 154.00" xmlns="http://www.w3.org/2000/svg" xmlns:xlink="http://www.w3.org/1999/xlink">
<g id="graph0" class="graph" transform="scale(1 1) rotate(0) translate(4 150)">
<title>IPlugAAX</title>
<polygon fill="white" stroke="none" points="-4,4 -4,-150 320,-150 320,4 -4,4"/>
<!-- Node1 -->
<g id="node1" class="node"><title>Node1</title>
<polygon fill="#bfbfbf" stroke="black" points="256.5,-60.5 256.5,-79.5 315.5,-79.5 315.5,-60.5 256.5,-60.5"/>
<text text-anchor="middle" x="286" y="-67.5" font-family="Helvetica,sans-Serif" font-size="10.00">IPlugAAX</text>
</g>
<!-- Node2 -->
<g id="node2" class="node"><title>Node2</title>
<g id="a_node2"><a xlink:href="class_i_plug_base_graphics.html" target="_top" xlink:title="An IPlugBase class for an IPlug plug&#45;in that uses IGraphics for it&#39;s UI. ">
<polygon fill="white" stroke="black" points="100.5,-126.5 100.5,-145.5 217.5,-145.5 217.5,-126.5 100.5,-126.5"/>
<text text-anchor="middle" x="159" y="-133.5" font-family="Helvetica,sans-Serif" font-size="10.00">IPLUG_BASE_CLASS</text>
</a>
</g>
</g>
<!-- Node2&#45;&gt;Node1 -->
<g id="edge1" class="edge"><title>Node2&#45;&gt;Node1</title>
<path fill="none" stroke="midnightblue" d="M204.115,-122.963C209.565,-120.869 214.98,-118.543 220,-116 240.226,-105.756 261.214,-89.7587 273.686,-79.5837"/>
<polygon fill="midnightblue" stroke="midnightblue" points="202.568,-119.8 194.344,-126.48 204.938,-126.387 202.568,-119.8"/>
</g>
<!-- Node3 -->
<g id="node3" class="node"><title>Node3</title>
<g id="a_node3"><a xlink:href="class_i_plug_base.html" target="_top" xlink:title="The lowest level base class of an IPlug plug&#45;in. ">
<polygon fill="white" stroke="black" points="0,-126.5 0,-145.5 62,-145.5 62,-126.5 0,-126.5"/>
<text text-anchor="middle" x="31" y="-133.5" font-family="Helvetica,sans-Serif" font-size="10.00">IPlugBase</text>
</a>
</g>
</g>
<!-- Node3&#45;&gt;Node2 -->
<g id="edge2" class="edge"><title>Node3&#45;&gt;Node2</title>
<path fill="none" stroke="midnightblue" d="M72.3144,-136C81.2677,-136 90.9266,-136 100.42,-136"/>
<polygon fill="midnightblue" stroke="midnightblue" points="72.1802,-132.5 62.1801,-136 72.1801,-139.5 72.1802,-132.5"/>
</g>
<!-- Node4 -->
<g id="node4" class="node"><title>Node4</title>
<g id="a_node4"><a xlink:href="class_i_plug_processor.html" target="_top" xlink:title="IPlugProcessor\&lt; PLUG\l_SAMPLE_DST \&gt;">
<polygon fill="white" stroke="black" points="99.5,-77 99.5,-107 218.5,-107 218.5,-77 99.5,-77"/>
<text text-anchor="start" x="107.5" y="-95" font-family="Helvetica,sans-Serif" font-size="10.00">IPlugProcessor&lt; PLUG</text>
<text text-anchor="middle" x="159" y="-84" font-family="Helvetica,sans-Serif" font-size="10.00">_SAMPLE_DST &gt;</text>
</a>
</g>
</g>
<!-- Node4&#45;&gt;Node1 -->
<g id="edge3" class="edge"><title>Node4&#45;&gt;Node1</title>
<path fill="none" stroke="midnightblue" d="M228.932,-79.8679C238.583,-78.1695 248.026,-76.5074 256.33,-75.046"/>
<polygon fill="midnightblue" stroke="midnightblue" points="228.082,-76.4637 218.84,-81.6442 229.295,-83.3578 228.082,-76.4637"/>
</g>
<!-- Node5 -->
<g id="node5" class="node"><title>Node5</title>
<g id="a_node5"><a xlink:href="class_i_plug_preset_handler.html" target="_top" xlink:title="Everything to do with saving presets. ">
<polygon fill="white" stroke="black" points="108.5,-38.5 108.5,-57.5 209.5,-57.5 209.5,-38.5 108.5,-38.5"/>
<text text-anchor="middle" x="159" y="-45.5" font-family="Helvetica,sans-Serif" font-size="10.00">IPlugPresetHandler</text>
</a>
</g>
</g>
<!-- Node5&#45;&gt;Node1 -->
<g id="edge4" class="edge"><title>Node5&#45;&gt;Node1</title>
<path fill="none" stroke="midnightblue" d="M219.869,-58.537C232.56,-60.7706 245.396,-63.0296 256.278,-64.945"/>
<polygon fill="midnightblue" stroke="midnightblue" points="220.218,-55.0446 209.762,-56.7582 219.004,-61.9387 220.218,-55.0446"/>
</g>
<!-- Node6 -->
<g id="node6" class="node"><title>Node6</title>
<polygon fill="white" stroke="#bfbfbf" points="98,-0.5 98,-19.5 220,-19.5 220,-0.5 98,-0.5"/>
<text text-anchor="middle" x="159" y="-7.5" font-family="Helvetica,sans-Serif" font-size="10.00">AAX_CIPlugParameters</text>
</g>
<!-- Node6&#45;&gt;Node1 -->
<g id="edge5" class="edge"><title>Node6&#45;&gt;Node1</title>
<path fill="none" stroke="midnightblue" d="M205.192,-22.927C210.26,-24.7828 215.29,-26.8128 220,-29 239.12,-37.8779 259.398,-51.4149 272.122,-60.4781"/>
<polygon fill="midnightblue" stroke="midnightblue" points="206.067,-19.5268 195.473,-19.5775 203.787,-26.1448 206.067,-19.5268"/>
</g>
</g>
</svg>
