<?xml version="1.0" encoding="UTF-8" standalone="no"?>
<!DOCTYPE svg PUBLIC "-//W3C//DTD SVG 1.1//EN"
 "http://www.w3.org/Graphics/SVG/1.1/DTD/svg11.dtd">
<!-- Generated by graphviz version 2.36.0 (20140111.2315)
 -->
<!-- Title: IPlugVST3 Pages: 1 -->
<svg width="368pt" height="165pt"
 viewBox="0.00 0.00 368.00 165.00" xmlns="http://www.w3.org/2000/svg" xmlns:xlink="http://www.w3.org/1999/xlink">
<g id="graph0" class="graph" transform="scale(1 1) rotate(0) translate(4 161)">
<title>IPlugVST3</title>
<polygon fill="white" stroke="none" points="-4,4 -4,-161 364,-161 364,4 -4,4"/>
<!-- Node1 -->
<g id="node1" class="node"><title>Node1</title>
<polygon fill="#bfbfbf" stroke="black" points="296,-71.5 296,-90.5 360,-90.5 360,-71.5 296,-71.5"/>
<text text-anchor="middle" x="328" y="-78.5" font-family="Helvetica,sans-Serif" font-size="10.00">IPlugVST3</text>
</g>
<!-- Node2 -->
<g id="node2" class="node"><title>Node2</title>
<g id="a_node2"><a xlink:href="class_i_plug_base_graphics.html" target="_top" xlink:title="An IPlugBase class for an IPlug plug&#45;in that uses IGraphics for it&#39;s UI. ">
<polygon fill="white" stroke="black" points="120.5,-137.5 120.5,-156.5 237.5,-156.5 237.5,-137.5 120.5,-137.5"/>
<text text-anchor="middle" x="179" y="-144.5" font-family="Helvetica,sans-Serif" font-size="10.00">IPLUG_BASE_CLASS</text>
</a>
</g>
</g>
<!-- Node2&#45;&gt;Node1 -->
<g id="edge1" class="edge"><title>Node2&#45;&gt;Node1</title>
<path fill="none" stroke="midnightblue" d="M240.05,-134.487C246.901,-132.329 253.686,-129.845 260,-127 281.097,-117.495 302.66,-101.29 315.434,-90.8698"/>
<polygon fill="midnightblue" stroke="midnightblue" points="238.628,-131.255 230.01,-137.419 240.59,-137.975 238.628,-131.255"/>
</g>
<!-- Node3 -->
<g id="node3" class="node"><title>Node3</title>
<g id="a_node3"><a xlink:href="class_i_plug_base.html" target="_top" xlink:title="The lowest level base class of an IPlug plug&#45;in. ">
<polygon fill="white" stroke="black" points="0,-137.5 0,-156.5 62,-156.5 62,-137.5 0,-137.5"/>
<text text-anchor="middle" x="31" y="-144.5" font-family="Helvetica,sans-Serif" font-size="10.00">IPlugBase</text>
</a>
</g>
</g>
<!-- Node3&#45;&gt;Node2 -->
<g id="edge2" class="edge"><title>Node3&#45;&gt;Node2</title>
<path fill="none" stroke="midnightblue" d="M72.5747,-147C87.3564,-147 104.364,-147 120.344,-147"/>
<polygon fill="midnightblue" stroke="midnightblue" points="72.2513,-143.5 62.2513,-147 72.2513,-150.5 72.2513,-143.5"/>
</g>
<!-- Node4 -->
<g id="node4" class="node"><title>Node4</title>
<g id="a_node4"><a xlink:href="class_i_plug_processor.html" target="_top" xlink:title="IPlugProcessor\&lt; PLUG\l_SAMPLE_DST \&gt;">
<polygon fill="white" stroke="black" points="119.5,-88 119.5,-118 238.5,-118 238.5,-88 119.5,-88"/>
<text text-anchor="start" x="127.5" y="-106" font-family="Helvetica,sans-Serif" font-size="10.00">IPlugProcessor&lt; PLUG</text>
<text text-anchor="middle" x="179" y="-95" font-family="Helvetica,sans-Serif" font-size="10.00">_SAMPLE_DST &gt;</text>
</a>
</g>
</g>
<!-- Node4&#45;&gt;Node1 -->
<g id="edge3" class="edge"><title>Node4&#45;&gt;Node1</title>
<path fill="none" stroke="midnightblue" d="M248.695,-92.7191C265.15,-90.2565 281.928,-87.7455 295.71,-85.6829"/>
<polygon fill="midnightblue" stroke="midnightblue" points="247.892,-89.3002 238.521,-94.2418 248.929,-96.2231 247.892,-89.3002"/>
</g>
<!-- Node5 -->
<g id="node5" class="node"><title>Node5</title>
<g id="a_node5"><a xlink:href="class_i_plug_preset_handler.html" target="_top" xlink:title="Everything to do with saving presets. ">
<polygon fill="white" stroke="black" points="128.5,-49.5 128.5,-68.5 229.5,-68.5 229.5,-49.5 128.5,-49.5"/>
<text text-anchor="middle" x="179" y="-56.5" font-family="Helvetica,sans-Serif" font-size="10.00">IPlugPresetHandler</text>
</a>
</g>
</g>
<!-- Node5&#45;&gt;Node1 -->
<g id="edge4" class="edge"><title>Node5&#45;&gt;Node1</title>
<path fill="none" stroke="midnightblue" d="M239.663,-67.9291C258.87,-70.8036 279.384,-73.8738 295.701,-76.3159"/>
<polygon fill="midnightblue" stroke="midnightblue" points="240.175,-64.4669 229.767,-66.4482 239.139,-71.3898 240.175,-64.4669"/>
</g>
<!-- Node6 -->
<g id="node6" class="node"><title>Node6</title>
<polygon fill="white" stroke="#bfbfbf" points="98,-0 98,-30 260,-30 260,-0 98,-0"/>
<text text-anchor="start" x="106" y="-18" font-family="Helvetica,sans-Serif" font-size="10.00">Steinberg::Vst::SingleComponent</text>
<text text-anchor="middle" x="179" y="-7" font-family="Helvetica,sans-Serif" font-size="10.00">Effect</text>
</g>
<!-- Node6&#45;&gt;Node1 -->
<g id="edge5" class="edge"><title>Node6&#45;&gt;Node1</title>
<path fill="none" stroke="midnightblue" d="M244.228,-33.52C249.627,-35.5432 254.948,-37.7074 260,-40 279.621,-48.9041 300.544,-62.4349 313.688,-71.4896"/>
<polygon fill="midnightblue" stroke="midnightblue" points="245.063,-30.1017 234.468,-30.0332 242.708,-36.6937 245.063,-30.1017"/>
</g>
</g>
</svg>
