<?xml version="1.0" encoding="UTF-8" standalone="no"?>
<!DOCTYPE svg PUBLIC "-//W3C//DTD SVG 1.1//EN"
 "http://www.w3.org/Graphics/SVG/1.1/DTD/svg11.dtd">
<!-- Generated by graphviz version 2.36.0 (20140111.2315)
 -->
<!-- Title: APIBitmap Pages: 1 -->
<svg width="357pt" height="84pt"
 viewBox="0.00 0.00 357.00 84.00" xmlns="http://www.w3.org/2000/svg" xmlns:xlink="http://www.w3.org/1999/xlink">
<g id="graph0" class="graph" transform="scale(1 1) rotate(0) translate(4 80)">
<title>APIBitmap</title>
<polygon fill="white" stroke="none" points="-4,4 -4,-80 353,-80 353,4 -4,4"/>
<!-- Node1 -->
<g id="node1" class="node"><title>Node1</title>
<polygon fill="#bfbfbf" stroke="black" points="134,-56.5 134,-75.5 198,-75.5 198,-56.5 134,-56.5"/>
<text text-anchor="middle" x="166" y="-63.5" font-family="Helvetica,sans-Serif" font-size="10.00">APIBitmap</text>
</g>
<!-- Node2 -->
<g id="node2" class="node"><title>Node2</title>
<g id="a_node2"><a xlink:href="class_a_g_g_bitmap.html" target="_top" xlink:title="AGGBitmap">
<polygon fill="white" stroke="black" points="-0.5,-0.5 -0.5,-19.5 68.5,-19.5 68.5,-0.5 -0.5,-0.5"/>
<text text-anchor="middle" x="34" y="-7.5" font-family="Helvetica,sans-Serif" font-size="10.00">AGGBitmap</text>
</a>
</g>
</g>
<!-- Node1&#45;&gt;Node2 -->
<g id="edge1" class="edge"><title>Node1&#45;&gt;Node2</title>
<path fill="none" stroke="midnightblue" d="M135.781,-52.6377C111.01,-42.504 76.6004,-28.4274 54.8179,-19.5164"/>
<polygon fill="midnightblue" stroke="midnightblue" points="134.503,-55.8966 145.084,-56.4435 137.154,-49.4177 134.503,-55.8966"/>
</g>
<!-- Node3 -->
<g id="node3" class="node"><title>Node3</title>
<polygon fill="white" stroke="#bfbfbf" points="86.5,-0.5 86.5,-19.5 157.5,-19.5 157.5,-0.5 86.5,-0.5"/>
<text text-anchor="middle" x="122" y="-7.5" font-family="Helvetica,sans-Serif" font-size="10.00">CairoBitmap</text>
</g>
<!-- Node1&#45;&gt;Node3 -->
<g id="edge2" class="edge"><title>Node1&#45;&gt;Node3</title>
<path fill="none" stroke="midnightblue" d="M152.265,-48.144C144.599,-38.7357 135.367,-27.4046 129.131,-19.7511"/>
<polygon fill="midnightblue" stroke="midnightblue" points="149.704,-50.5415 158.734,-56.083 155.131,-46.1198 149.704,-50.5415"/>
</g>
<!-- Node4 -->
<g id="node4" class="node"><title>Node4</title>
<g id="a_node4"><a xlink:href="class_l_i_c_e_bitmap.html" target="_top" xlink:title="LICEBitmap">
<polygon fill="white" stroke="black" points="176,-0.5 176,-19.5 246,-19.5 246,-0.5 176,-0.5"/>
<text text-anchor="middle" x="211" y="-7.5" font-family="Helvetica,sans-Serif" font-size="10.00">LICEBitmap</text>
</a>
</g>
</g>
<!-- Node1&#45;&gt;Node4 -->
<g id="edge3" class="edge"><title>Node1&#45;&gt;Node4</title>
<path fill="none" stroke="midnightblue" d="M180.047,-48.144C187.887,-38.7357 197.329,-27.4046 203.707,-19.7511"/>
<polygon fill="midnightblue" stroke="midnightblue" points="177.144,-46.1601 173.431,-56.083 182.521,-50.6414 177.144,-46.1601"/>
</g>
<!-- Node5 -->
<g id="node5" class="node"><title>Node5</title>
<polygon fill="white" stroke="#bfbfbf" points="264.5,-0.5 264.5,-19.5 349.5,-19.5 349.5,-0.5 264.5,-0.5"/>
<text text-anchor="middle" x="307" y="-7.5" font-family="Helvetica,sans-Serif" font-size="10.00">NanoVGBitmap</text>
</g>
<!-- Node1&#45;&gt;Node5 -->
<g id="edge4" class="edge"><title>Node1&#45;&gt;Node5</title>
<path fill="none" stroke="midnightblue" d="M197.929,-52.772C224.414,-42.6287 261.392,-28.4669 284.763,-19.5164"/>
<polygon fill="midnightblue" stroke="midnightblue" points="196.429,-49.5985 188.342,-56.4435 198.932,-56.1355 196.429,-49.5985"/>
</g>
</g>
</svg>
