<?xml version="1.0" encoding="UTF-8" standalone="no"?>
<!DOCTYPE svg PUBLIC "-//W3C//DTD SVG 1.1//EN"
 "http://www.w3.org/Graphics/SVG/1.1/DTD/svg11.dtd">
<!-- Generated by graphviz version 2.36.0 (20140111.2315)
 -->
<!-- Title: IControl Pages: 1 -->
<svg width="340pt" height="370pt"
 viewBox="0.00 0.00 340.00 370.00" xmlns="http://www.w3.org/2000/svg" xmlns:xlink="http://www.w3.org/1999/xlink">
<g id="graph0" class="graph" transform="scale(1 1) rotate(0) translate(4 366)">
<title>IControl</title>
<polygon fill="white" stroke="none" points="-4,4 -4,-366 336,-366 336,4 -4,4"/>
<!-- Node1 -->
<g id="node1" class="node"><title>Node1</title>
<polygon fill="#bfbfbf" stroke="black" points="0.5,-171.5 0.5,-190.5 51.5,-190.5 51.5,-171.5 0.5,-171.5"/>
<text text-anchor="middle" x="26" y="-178.5" font-family="Helvetica,sans-Serif" font-size="10.00">IControl</text>
</g>
<!-- Node2 -->
<g id="node2" class="node"><title>Node2</title>
<g id="a_node2"><a xlink:href="class_i_bitmap_control.html" target="_top" xlink:title="A basic control to draw a bitmap, or one frame of a stacked bitmap depending on the current value...">
<polygon fill="white" stroke="black" points="107,-342.5 107,-361.5 189,-361.5 189,-342.5 107,-342.5"/>
<text text-anchor="middle" x="148" y="-349.5" font-family="Helvetica,sans-Serif" font-size="10.00">IBitmapControl</text>
</a>
</g>
</g>
<!-- Node1&#45;&gt;Node2 -->
<g id="edge1" class="edge"><title>Node1&#45;&gt;Node2</title>
<path fill="none" stroke="midnightblue" d="M29.5059,-200.757C34.6327,-232.995 49.3018,-296.924 88,-333 93.3524,-337.99 100.024,-341.669 106.937,-344.383"/>
<polygon fill="midnightblue" stroke="midnightblue" points="32.9578,-200.172 28.0667,-190.774 26.0295,-201.171 32.9578,-200.172"/>
</g>
<!-- Node4 -->
<g id="node4" class="node"><title>Node4</title>
<g id="a_node4"><a xlink:href="class_i_b_slider_control.html" target="_top" xlink:title="A slider with a bitmap for the handle. ">
<polygon fill="white" stroke="black" points="106.5,-304.5 106.5,-323.5 189.5,-323.5 189.5,-304.5 106.5,-304.5"/>
<text text-anchor="middle" x="148" y="-311.5" font-family="Helvetica,sans-Serif" font-size="10.00">IBSliderControl</text>
</a>
</g>
</g>
<!-- Node1&#45;&gt;Node4 -->
<g id="edge3" class="edge"><title>Node1&#45;&gt;Node4</title>
<path fill="none" stroke="midnightblue" d="M32.3862,-200.418C40.3925,-225.754 57.8266,-269.816 88,-295 93.37,-299.482 99.8167,-302.913 106.447,-305.538"/>
<polygon fill="midnightblue" stroke="midnightblue" points="35.6481,-199.107 29.4405,-190.522 28.939,-201.105 35.6481,-199.107"/>
</g>
<!-- Node5 -->
<g id="node5" class="node"><title>Node5</title>
<g id="a_node5"><a xlink:href="class_i_dir_browse_control_base.html" target="_top" xlink:title="An abstract IControl base class that you can inherit from in order to make a control that pops up a m...">
<polygon fill="white" stroke="black" points="88.5,-266.5 88.5,-285.5 207.5,-285.5 207.5,-266.5 88.5,-266.5"/>
<text text-anchor="middle" x="148" y="-273.5" font-family="Helvetica,sans-Serif" font-size="10.00">IDirBrowseControlBase</text>
</a>
</g>
</g>
<!-- Node1&#45;&gt;Node5 -->
<g id="edge4" class="edge"><title>Node1&#45;&gt;Node5</title>
<path fill="none" stroke="midnightblue" d="M37.3382,-199.292C47.9569,-216.513 66.0132,-241.861 88,-257 93.5838,-260.845 99.9926,-263.948 106.482,-266.441"/>
<polygon fill="midnightblue" stroke="midnightblue" points="40.3393,-197.491 32.2264,-190.677 34.3193,-201.063 40.3393,-197.491"/>
</g>
<!-- Node6 -->
<g id="node6" class="node"><title>Node6</title>
<g id="a_node6"><a xlink:href="class_i_graphics_live_edit.html" target="_top" xlink:title="IGraphicsLiveEdit">
<polygon fill="white" stroke="black" points="101,-228.5 101,-247.5 195,-247.5 195,-228.5 101,-228.5"/>
<text text-anchor="middle" x="148" y="-235.5" font-family="Helvetica,sans-Serif" font-size="10.00">IGraphicsLiveEdit</text>
</a>
</g>
</g>
<!-- Node1&#45;&gt;Node6 -->
<g id="edge5" class="edge"><title>Node1&#45;&gt;Node6</title>
<path fill="none" stroke="midnightblue" d="M48.8735,-196.456C60.1803,-203.965 74.4248,-212.703 88,-219 95.7119,-222.577 104.283,-225.756 112.448,-228.442"/>
<polygon fill="midnightblue" stroke="midnightblue" points="50.7422,-193.494 40.5043,-190.767 46.8072,-199.284 50.7422,-193.494"/>
</g>
<!-- Node7 -->
<g id="node7" class="node"><title>Node7</title>
<g id="a_node7"><a xlink:href="class_i_knob_control_base.html" target="_top" xlink:title="Parent for knobs, to handle mouse action and ballistics. ">
<polygon fill="white" stroke="black" points="100,-190.5 100,-209.5 196,-209.5 196,-190.5 100,-190.5"/>
<text text-anchor="middle" x="148" y="-197.5" font-family="Helvetica,sans-Serif" font-size="10.00">IKnobControlBase</text>
</a>
</g>
</g>
<!-- Node1&#45;&gt;Node7 -->
<g id="edge6" class="edge"><title>Node1&#45;&gt;Node7</title>
<path fill="none" stroke="midnightblue" d="M61.531,-186.467C73.4107,-188.348 86.926,-190.488 99.6469,-192.502"/>
<polygon fill="midnightblue" stroke="midnightblue" points="61.9977,-182.998 51.5734,-184.891 60.9029,-189.912 61.9977,-182.998"/>
</g>
<!-- Node10 -->
<g id="node10" class="node"><title>Node10</title>
<g id="a_node10"><a xlink:href="class_i_panel_control.html" target="_top" xlink:title="A basic control to fill a rectangle with a color. ">
<polygon fill="white" stroke="black" points="110,-152.5 110,-171.5 186,-171.5 186,-152.5 110,-152.5"/>
<text text-anchor="middle" x="148" y="-159.5" font-family="Helvetica,sans-Serif" font-size="10.00">IPanelControl</text>
</a>
</g>
</g>
<!-- Node1&#45;&gt;Node10 -->
<g id="edge9" class="edge"><title>Node1&#45;&gt;Node10</title>
<path fill="none" stroke="midnightblue" d="M61.5274,-175.533C76.6015,-173.146 94.3096,-170.343 109.686,-167.908"/>
<polygon fill="midnightblue" stroke="midnightblue" points="60.9029,-172.088 51.5734,-177.109 61.9977,-179.002 60.9029,-172.088"/>
</g>
<!-- Node11 -->
<g id="node11" class="node"><title>Node11</title>
<g id="a_node11"><a xlink:href="class_i_s_v_g_control.html" target="_top" xlink:title="A basic control to draw an SVG image to the screen. ">
<polygon fill="white" stroke="black" points="112,-114.5 112,-133.5 184,-133.5 184,-114.5 112,-114.5"/>
<text text-anchor="middle" x="148" y="-121.5" font-family="Helvetica,sans-Serif" font-size="10.00">ISVGControl</text>
</a>
</g>
</g>
<!-- Node1&#45;&gt;Node11 -->
<g id="edge10" class="edge"><title>Node1&#45;&gt;Node11</title>
<path fill="none" stroke="midnightblue" d="M48.8735,-165.544C60.1803,-158.035 74.4248,-149.297 88,-143 95.7119,-139.423 104.283,-136.244 112.448,-133.558"/>
<polygon fill="midnightblue" stroke="midnightblue" points="46.8072,-162.716 40.5043,-171.233 50.7422,-168.506 46.8072,-162.716"/>
</g>
<!-- Node12 -->
<g id="node12" class="node"><title>Node12</title>
<g id="a_node12"><a xlink:href="class_i_switch_control_base.html" target="_top" xlink:title="Parent for switch controls (including buttons a.k.a. ">
<polygon fill="white" stroke="black" points="96,-76.5 96,-95.5 200,-95.5 200,-76.5 96,-76.5"/>
<text text-anchor="middle" x="148" y="-83.5" font-family="Helvetica,sans-Serif" font-size="10.00">ISwitchControlBase</text>
</a>
</g>
</g>
<!-- Node1&#45;&gt;Node12 -->
<g id="edge11" class="edge"><title>Node1&#45;&gt;Node12</title>
<path fill="none" stroke="midnightblue" d="M37.3382,-162.708C47.9569,-145.487 66.0132,-120.139 88,-105 93.5838,-101.155 99.9926,-98.0522 106.482,-95.5585"/>
<polygon fill="midnightblue" stroke="midnightblue" points="34.3193,-160.937 32.2264,-171.323 40.3393,-164.509 34.3193,-160.937"/>
</g>
<!-- Node14 -->
<g id="node14" class="node"><title>Node14</title>
<g id="a_node14"><a xlink:href="class_i_text_control.html" target="_top" xlink:title="A basic control to output text to the screen. ">
<polygon fill="white" stroke="black" points="112.5,-38.5 112.5,-57.5 183.5,-57.5 183.5,-38.5 112.5,-38.5"/>
<text text-anchor="middle" x="148" y="-45.5" font-family="Helvetica,sans-Serif" font-size="10.00">ITextControl</text>
</a>
</g>
</g>
<!-- Node1&#45;&gt;Node14 -->
<g id="edge13" class="edge"><title>Node1&#45;&gt;Node14</title>
<path fill="none" stroke="midnightblue" d="M32.3862,-161.582C40.3925,-136.246 57.8266,-92.184 88,-67 94.9397,-61.2078 103.678,-57.1711 112.286,-54.3614"/>
<polygon fill="midnightblue" stroke="midnightblue" points="28.939,-160.895 29.4405,-171.478 35.6481,-162.893 28.939,-160.895"/>
</g>
<!-- Node16 -->
<g id="node16" class="node"><title>Node16</title>
<g id="a_node16"><a xlink:href="class_i_v_keyboard_control.html" target="_top" xlink:title="IVKeyboardControl">
<polygon fill="white" stroke="black" points="98.5,-0.5 98.5,-19.5 197.5,-19.5 197.5,-0.5 98.5,-0.5"/>
<text text-anchor="middle" x="148" y="-7.5" font-family="Helvetica,sans-Serif" font-size="10.00">IVKeyboardControl</text>
</a>
</g>
</g>
<!-- Node1&#45;&gt;Node16 -->
<g id="edge15" class="edge"><title>Node1&#45;&gt;Node16</title>
<path fill="none" stroke="midnightblue" d="M29.5059,-161.243C34.6327,-129.005 49.3018,-65.0765 88,-29 92.1717,-25.1109 97.145,-22.0177 102.409,-19.5577"/>
<polygon fill="midnightblue" stroke="midnightblue" points="26.0295,-160.829 28.0667,-171.226 32.9578,-161.828 26.0295,-160.829"/>
</g>
<!-- Node3 -->
<g id="node3" class="node"><title>Node3</title>
<g id="a_node3"><a xlink:href="class_i_b_switch_control.html" target="_top" xlink:title="A vector switch control. ">
<polygon fill="white" stroke="black" points="244,-342.5 244,-361.5 332,-361.5 332,-342.5 244,-342.5"/>
<text text-anchor="middle" x="288" y="-349.5" font-family="Helvetica,sans-Serif" font-size="10.00">IBSwitchControl</text>
</a>
</g>
</g>
<!-- Node2&#45;&gt;Node3 -->
<g id="edge2" class="edge"><title>Node2&#45;&gt;Node3</title>
<path fill="none" stroke="midnightblue" d="M199.547,-352C213.975,-352 229.564,-352 243.53,-352"/>
<polygon fill="midnightblue" stroke="midnightblue" points="199.286,-348.5 189.286,-352 199.286,-355.5 199.286,-348.5"/>
</g>
<!-- Node8 -->
<g id="node8" class="node"><title>Node8</title>
<g id="a_node8"><a xlink:href="class_i_v_knob_control.html" target="_top" xlink:title="A vector knob control drawn using graphics primitves. ">
<polygon fill="white" stroke="black" points="248,-209.5 248,-228.5 328,-228.5 328,-209.5 248,-209.5"/>
<text text-anchor="middle" x="288" y="-216.5" font-family="Helvetica,sans-Serif" font-size="10.00">IVKnobControl</text>
</a>
</g>
</g>
<!-- Node7&#45;&gt;Node8 -->
<g id="edge7" class="edge"><title>Node7&#45;&gt;Node8</title>
<path fill="none" stroke="midnightblue" d="M206.176,-207.872C220.217,-209.805 234.931,-211.831 247.899,-213.616"/>
<polygon fill="midnightblue" stroke="midnightblue" points="206.49,-204.382 196.106,-206.486 205.535,-211.317 206.49,-204.382"/>
</g>
<!-- Node9 -->
<g id="node9" class="node"><title>Node9</title>
<g id="a_node9"><a xlink:href="class_i_v_s_v_g_knob.html" target="_top" xlink:title="A vector knob control which rotates an SVG image. ">
<polygon fill="white" stroke="black" points="253,-171.5 253,-190.5 323,-190.5 323,-171.5 253,-171.5"/>
<text text-anchor="middle" x="288" y="-178.5" font-family="Helvetica,sans-Serif" font-size="10.00">IVSVGKnob</text>
</a>
</g>
</g>
<!-- Node7&#45;&gt;Node9 -->
<g id="edge8" class="edge"><title>Node7&#45;&gt;Node9</title>
<path fill="none" stroke="midnightblue" d="M206.316,-192.109C222.093,-189.937 238.708,-187.649 252.734,-185.718"/>
<polygon fill="midnightblue" stroke="midnightblue" points="205.535,-188.683 196.106,-193.514 206.49,-195.618 205.535,-188.683"/>
</g>
<!-- Node13 -->
<g id="node13" class="node"><title>Node13</title>
<g id="a_node13"><a xlink:href="class_i_v_switch_control.html" target="_top" xlink:title="A vector switch control. ">
<polygon fill="white" stroke="black" points="244,-76.5 244,-95.5 332,-95.5 332,-76.5 244,-76.5"/>
<text text-anchor="middle" x="288" y="-83.5" font-family="Helvetica,sans-Serif" font-size="10.00">IVSwitchControl</text>
</a>
</g>
</g>
<!-- Node12&#45;&gt;Node13 -->
<g id="edge12" class="edge"><title>Node12&#45;&gt;Node13</title>
<path fill="none" stroke="midnightblue" d="M210.551,-86C221.737,-86 233.188,-86 243.709,-86"/>
<polygon fill="midnightblue" stroke="midnightblue" points="210.386,-82.5001 200.386,-86 210.386,-89.5001 210.386,-82.5001"/>
</g>
<!-- Node15 -->
<g id="node15" class="node"><title>Node15</title>
<g id="a_node15"><a xlink:href="class_i_b_text_control.html" target="_top" xlink:title="Display monospace bitmap font text. ">
<polygon fill="white" stroke="black" points="249.5,-38.5 249.5,-57.5 326.5,-57.5 326.5,-38.5 249.5,-38.5"/>
<text text-anchor="middle" x="288" y="-45.5" font-family="Helvetica,sans-Serif" font-size="10.00">IBTextControl</text>
</a>
</g>
</g>
<!-- Node14&#45;&gt;Node15 -->
<g id="edge14" class="edge"><title>Node14&#45;&gt;Node15</title>
<path fill="none" stroke="midnightblue" d="M194.017,-48C211.885,-48 232.203,-48 249.279,-48"/>
<polygon fill="midnightblue" stroke="midnightblue" points="193.823,-44.5001 183.823,-48 193.823,-51.5001 193.823,-44.5001"/>
</g>
</g>
</svg>
