<?xml version="1.0" encoding="UTF-8" standalone="no"?>
<!DOCTYPE svg PUBLIC "-//W3C//DTD SVG 1.1//EN"
 "http://www.w3.org/Graphics/SVG/1.1/DTD/svg11.dtd">
<!-- Generated by graphviz version 2.36.0 (20140111.2315)
 -->
<!-- Title: Graphical Class Hierarchy Pages: 1 -->
<svg width="360pt" height="420pt"
 viewBox="0.00 0.00 360.00 419.63" xmlns="http://www.w3.org/2000/svg" xmlns:xlink="http://www.w3.org/1999/xlink">
<g id="graph0" class="graph" transform="scale(1 1) rotate(0) translate(4 415.634)">
<title>Graphical Class Hierarchy</title>
<polygon fill="white" stroke="none" points="-4,4 -4,-415.634 356,-415.634 356,4 -4,4"/>
<!-- Node1 -->
<g id="node1" class="node"><title>Node1</title>
<g id="a_node1"><a xlink:href="class_i_control.html" target="_top" xlink:title="The lowest level base class of an IGraphics control. ">
<polygon fill="white" stroke="black" points="10.5,-221.134 10.5,-240.134 61.5,-240.134 61.5,-221.134 10.5,-221.134"/>
<text text-anchor="middle" x="36" y="-228.134" font-family="Helvetica,sans-Serif" font-size="10.00">IControl</text>
</a>
</g>
</g>
<!-- Node2 -->
<g id="node2" class="node"><title>Node2</title>
<g id="a_node2"><a xlink:href="class_i_bitmap_control.html" target="_top" xlink:title="A basic control to draw a bitmap, or one frame of a stacked bitmap depending on the current value...">
<polygon fill="white" stroke="black" points="127,-240.134 127,-259.134 209,-259.134 209,-240.134 127,-240.134"/>
<text text-anchor="middle" x="168" y="-247.134" font-family="Helvetica,sans-Serif" font-size="10.00">IBitmapControl</text>
</a>
</g>
</g>
<!-- Node1&#45;&gt;Node2 -->
<g id="edge1" class="edge"><title>Node1&#45;&gt;Node2</title>
<path fill="none" stroke="midnightblue" d="M71.8266,-235.724C88.824,-238.208 109.359,-241.21 126.997,-243.787"/>
<polygon fill="midnightblue" stroke="midnightblue" points="72.1591,-232.236 61.758,-234.252 71.1467,-239.162 72.1591,-232.236"/>
</g>
<!-- Node4 -->
<g id="node4" class="node"><title>Node4</title>
<g id="a_node4"><a xlink:href="class_i_b_slider_control.html" target="_top" xlink:title="A slider with a bitmap for the handle. ">
<polygon fill="white" stroke="black" points="126.5,-392.134 126.5,-411.134 209.5,-411.134 209.5,-392.134 126.5,-392.134"/>
<text text-anchor="middle" x="168" y="-399.134" font-family="Helvetica,sans-Serif" font-size="10.00">IBSliderControl</text>
</a>
</g>
</g>
<!-- Node1&#45;&gt;Node4 -->
<g id="edge3" class="edge"><title>Node1&#45;&gt;Node4</title>
<path fill="none" stroke="midnightblue" d="M40.901,-250.444C48.2859,-282.756 67.3538,-346.792 108,-382.634 113.246,-387.26 119.632,-390.762 126.241,-393.412"/>
<polygon fill="midnightblue" stroke="midnightblue" points="44.2745,-249.482 38.7599,-240.435 37.4294,-250.946 44.2745,-249.482"/>
</g>
<!-- Node5 -->
<g id="node5" class="node"><title>Node5</title>
<g id="a_node5"><a xlink:href="class_i_dir_browse_control_base.html" target="_top" xlink:title="An abstract IControl base class that you can inherit from in order to make a control that pops up a m...">
<polygon fill="white" stroke="black" points="108.5,-354.134 108.5,-373.134 227.5,-373.134 227.5,-354.134 108.5,-354.134"/>
<text text-anchor="middle" x="168" y="-361.134" font-family="Helvetica,sans-Serif" font-size="10.00">IDirBrowseControlBase</text>
</a>
</g>
</g>
<!-- Node1&#45;&gt;Node5 -->
<g id="edge4" class="edge"><title>Node1&#45;&gt;Node5</title>
<path fill="none" stroke="midnightblue" d="M44.0111,-249.732C54.2521,-275.035 75.6714,-319.405 108,-344.634 112.92,-348.474 118.64,-351.549 124.544,-354.009"/>
<polygon fill="midnightblue" stroke="midnightblue" points="47.182,-248.228 40.3073,-240.166 40.6543,-250.756 47.182,-248.228"/>
</g>
<!-- Node6 -->
<g id="node6" class="node"><title>Node6</title>
<g id="a_node6"><a xlink:href="class_i_graphics_live_edit.html" target="_top" xlink:title="IGraphicsLiveEdit">
<polygon fill="white" stroke="black" points="121,-316.134 121,-335.134 215,-335.134 215,-316.134 121,-316.134"/>
<text text-anchor="middle" x="168" y="-323.134" font-family="Helvetica,sans-Serif" font-size="10.00">IGraphicsLiveEdit</text>
</a>
</g>
</g>
<!-- Node1&#45;&gt;Node6 -->
<g id="edge5" class="edge"><title>Node1&#45;&gt;Node6</title>
<path fill="none" stroke="midnightblue" d="M49.3565,-248.395C62.1759,-265.581 83.7225,-291.228 108,-306.634 113.997,-310.44 120.823,-313.546 127.652,-316.06"/>
<polygon fill="midnightblue" stroke="midnightblue" points="52.1793,-246.326 43.48,-240.278 46.5093,-250.431 52.1793,-246.326"/>
</g>
<!-- Node7 -->
<g id="node7" class="node"><title>Node7</title>
<g id="a_node7"><a xlink:href="class_i_knob_control_base.html" target="_top" xlink:title="Parent for knobs, to handle mouse action and ballistics. ">
<polygon fill="white" stroke="black" points="120,-164.134 120,-183.134 216,-183.134 216,-164.134 120,-164.134"/>
<text text-anchor="middle" x="168" y="-171.134" font-family="Helvetica,sans-Serif" font-size="10.00">IKnobControlBase</text>
</a>
</g>
</g>
<!-- Node1&#45;&gt;Node7 -->
<g id="edge6" class="edge"><title>Node1&#45;&gt;Node7</title>
<path fill="none" stroke="midnightblue" d="M61.9867,-215.836C75.3524,-208.288 92.2595,-199.317 108,-192.634 116.221,-189.144 125.314,-185.919 133.848,-183.155"/>
<polygon fill="midnightblue" stroke="midnightblue" points="59.8762,-213.012 52.9476,-221.027 63.3624,-219.082 59.8762,-213.012"/>
</g>
<!-- Node10 -->
<g id="node10" class="node"><title>Node10</title>
<g id="a_node10"><a xlink:href="class_i_panel_control.html" target="_top" xlink:title="A basic control to fill a rectangle with a color. ">
<polygon fill="white" stroke="black" points="130,-50.134 130,-69.134 206,-69.134 206,-50.134 130,-50.134"/>
<text text-anchor="middle" x="168" y="-57.134" font-family="Helvetica,sans-Serif" font-size="10.00">IPanelControl</text>
</a>
</g>
</g>
<!-- Node1&#45;&gt;Node10 -->
<g id="edge9" class="edge"><title>Node1&#45;&gt;Node10</title>
<path fill="none" stroke="midnightblue" d="M40.901,-210.824C48.2859,-178.512 67.3538,-114.477 108,-78.634 114.215,-73.1537 122.029,-69.2512 129.918,-66.4732"/>
<polygon fill="midnightblue" stroke="midnightblue" points="37.4294,-210.322 38.7599,-220.833 44.2745,-211.786 37.4294,-210.322"/>
</g>
<!-- Node11 -->
<g id="node11" class="node"><title>Node11</title>
<g id="a_node11"><a xlink:href="class_i_s_v_g_control.html" target="_top" xlink:title="A basic control to draw an SVG image to the screen. ">
<polygon fill="white" stroke="black" points="132,-202.134 132,-221.134 204,-221.134 204,-202.134 132,-202.134"/>
<text text-anchor="middle" x="168" y="-209.134" font-family="Helvetica,sans-Serif" font-size="10.00">ISVGControl</text>
</a>
</g>
</g>
<!-- Node1&#45;&gt;Node11 -->
<g id="edge10" class="edge"><title>Node1&#45;&gt;Node11</title>
<path fill="none" stroke="midnightblue" d="M71.815,-225.546C90.2924,-222.845 112.953,-219.533 131.528,-216.818"/>
<polygon fill="midnightblue" stroke="midnightblue" points="71.1467,-222.106 61.758,-227.016 72.1591,-229.032 71.1467,-222.106"/>
</g>
<!-- Node12 -->
<g id="node12" class="node"><title>Node12</title>
<g id="a_node12"><a xlink:href="class_i_switch_control_base.html" target="_top" xlink:title="Parent for switch controls (including buttons a.k.a. ">
<polygon fill="white" stroke="black" points="116,-126.134 116,-145.134 220,-145.134 220,-126.134 116,-126.134"/>
<text text-anchor="middle" x="168" y="-133.134" font-family="Helvetica,sans-Serif" font-size="10.00">ISwitchControlBase</text>
</a>
</g>
</g>
<!-- Node1&#45;&gt;Node12 -->
<g id="edge11" class="edge"><title>Node1&#45;&gt;Node12</title>
<path fill="none" stroke="midnightblue" d="M49.3565,-212.873C62.1759,-195.687 83.7225,-170.041 108,-154.634 113.997,-150.828 120.823,-147.722 127.652,-145.208"/>
<polygon fill="midnightblue" stroke="midnightblue" points="46.5093,-210.837 43.48,-220.99 52.1793,-214.942 46.5093,-210.837"/>
</g>
<!-- Node14 -->
<g id="node14" class="node"><title>Node14</title>
<g id="a_node14"><a xlink:href="class_i_text_control.html" target="_top" xlink:title="A basic control to output text to the screen. ">
<polygon fill="white" stroke="black" points="132.5,-278.134 132.5,-297.134 203.5,-297.134 203.5,-278.134 132.5,-278.134"/>
<text text-anchor="middle" x="168" y="-285.134" font-family="Helvetica,sans-Serif" font-size="10.00">ITextControl</text>
</a>
</g>
</g>
<!-- Node1&#45;&gt;Node14 -->
<g id="edge13" class="edge"><title>Node1&#45;&gt;Node14</title>
<path fill="none" stroke="midnightblue" d="M61.9867,-245.432C75.3524,-252.98 92.2595,-261.952 108,-268.634 116.221,-272.124 125.314,-275.349 133.848,-278.113"/>
<polygon fill="midnightblue" stroke="midnightblue" points="63.3624,-242.186 52.9476,-240.241 59.8762,-248.257 63.3624,-242.186"/>
</g>
<!-- Node16 -->
<g id="node16" class="node"><title>Node16</title>
<g id="a_node16"><a xlink:href="class_i_v_keyboard_control.html" target="_top" xlink:title="IVKeyboardControl">
<polygon fill="white" stroke="black" points="118.5,-88.134 118.5,-107.134 217.5,-107.134 217.5,-88.134 118.5,-88.134"/>
<text text-anchor="middle" x="168" y="-95.134" font-family="Helvetica,sans-Serif" font-size="10.00">IVKeyboardControl</text>
</a>
</g>
</g>
<!-- Node1&#45;&gt;Node16 -->
<g id="edge15" class="edge"><title>Node1&#45;&gt;Node16</title>
<path fill="none" stroke="midnightblue" d="M44.0111,-211.536C54.2521,-186.233 75.6714,-141.863 108,-116.634 112.92,-112.794 118.64,-109.719 124.544,-107.259"/>
<polygon fill="midnightblue" stroke="midnightblue" points="40.6543,-210.512 40.3073,-221.102 47.182,-213.04 40.6543,-210.512"/>
</g>
<!-- Node3 -->
<g id="node3" class="node"><title>Node3</title>
<g id="a_node3"><a xlink:href="class_i_b_switch_control.html" target="_top" xlink:title="A vector switch control. ">
<polygon fill="white" stroke="black" points="264,-240.134 264,-259.134 352,-259.134 352,-240.134 264,-240.134"/>
<text text-anchor="middle" x="308" y="-247.134" font-family="Helvetica,sans-Serif" font-size="10.00">IBSwitchControl</text>
</a>
</g>
</g>
<!-- Node2&#45;&gt;Node3 -->
<g id="edge2" class="edge"><title>Node2&#45;&gt;Node3</title>
<path fill="none" stroke="midnightblue" d="M219.547,-249.634C233.975,-249.634 249.564,-249.634 263.53,-249.634"/>
<polygon fill="midnightblue" stroke="midnightblue" points="219.286,-246.134 209.286,-249.634 219.286,-253.134 219.286,-246.134"/>
</g>
<!-- Node8 -->
<g id="node8" class="node"><title>Node8</title>
<g id="a_node8"><a xlink:href="class_i_v_knob_control.html" target="_top" xlink:title="A vector knob control drawn using graphics primitves. ">
<polygon fill="white" stroke="black" points="268,-97.134 268,-116.134 348,-116.134 348,-97.134 268,-97.134"/>
<text text-anchor="middle" x="308" y="-104.134" font-family="Helvetica,sans-Serif" font-size="10.00">IVKnobControl</text>
</a>
</g>
</g>
<!-- Node7&#45;&gt;Node8 -->
<g id="edge7" class="edge"><title>Node7&#45;&gt;Node8</title>
<path fill="none" stroke="midnightblue" d="M213.015,-160.727C218.135,-158.854 223.229,-156.815 228,-154.634 252.229,-143.558 278.253,-126.664 293.557,-116.154"/>
<polygon fill="midnightblue" stroke="midnightblue" points="211.521,-157.54 203.214,-164.116 213.809,-164.156 211.521,-157.54"/>
</g>
<!-- Node9 -->
<g id="node9" class="node"><title>Node9</title>
<g id="a_node9"><a xlink:href="class_i_v_s_v_g_knob.html" target="_top" xlink:title="A vector knob control which rotates an SVG image. ">
<polygon fill="white" stroke="black" points="273,-164.134 273,-183.134 343,-183.134 343,-164.134 273,-164.134"/>
<text text-anchor="middle" x="308" y="-171.134" font-family="Helvetica,sans-Serif" font-size="10.00">IVSVGKnob</text>
</a>
</g>
</g>
<!-- Node7&#45;&gt;Node9 -->
<g id="edge8" class="edge"><title>Node7&#45;&gt;Node9</title>
<path fill="none" stroke="midnightblue" d="M226.316,-173.634C242.093,-173.634 258.708,-173.634 272.734,-173.634"/>
<polygon fill="midnightblue" stroke="midnightblue" points="226.106,-170.134 216.106,-173.634 226.106,-177.134 226.106,-170.134"/>
</g>
<!-- Node13 -->
<g id="node13" class="node"><title>Node13</title>
<g id="a_node13"><a xlink:href="class_i_v_switch_control.html" target="_top" xlink:title="A vector switch control. ">
<polygon fill="white" stroke="black" points="264,-2.13402 264,-21.134 352,-21.134 352,-2.13402 264,-2.13402"/>
<text text-anchor="middle" x="308" y="-9.13402" font-family="Helvetica,sans-Serif" font-size="10.00">IVSwitchControl</text>
</a>
</g>
</g>
<!-- Node12&#45;&gt;Node13 -->
<g id="edge12" class="edge"><title>Node12&#45;&gt;Node13</title>
<path fill="none" stroke="midnightblue" d="M219.316,-121.886C222.358,-120.313 225.282,-118.569 228,-116.634 264.797,-90.4386 291.932,-41.9527 302.339,-21.3271"/>
<polygon fill="midnightblue" stroke="midnightblue" points="217.617,-118.812 209.93,-126.104 220.486,-125.197 217.617,-118.812"/>
</g>
<!-- Node15 -->
<g id="node15" class="node"><title>Node15</title>
<g id="a_node15"><a xlink:href="class_i_b_text_control.html" target="_top" xlink:title="Display monospace bitmap font text. ">
<polygon fill="white" stroke="black" points="269.5,-278.134 269.5,-297.134 346.5,-297.134 346.5,-278.134 269.5,-278.134"/>
<text text-anchor="middle" x="308" y="-285.134" font-family="Helvetica,sans-Serif" font-size="10.00">IBTextControl</text>
</a>
</g>
</g>
<!-- Node14&#45;&gt;Node15 -->
<g id="edge14" class="edge"><title>Node14&#45;&gt;Node15</title>
<path fill="none" stroke="midnightblue" d="M214.017,-287.634C231.885,-287.634 252.203,-287.634 269.279,-287.634"/>
<polygon fill="midnightblue" stroke="midnightblue" points="213.823,-284.134 203.823,-287.634 213.823,-291.134 213.823,-284.134"/>
</g>
<!-- Node17 -->
<g id="node17" class="node"><title>Node17</title>
<g id="a_node17"><a xlink:href="class_i_vector_base.html" target="_top" xlink:title="A An interface for IVControls, in order for them to share a common set of colors. ...">
<polygon fill="white" stroke="black" points="0.5,-31.134 0.5,-50.134 71.5,-50.134 71.5,-31.134 0.5,-31.134"/>
<text text-anchor="middle" x="36" y="-38.134" font-family="Helvetica,sans-Serif" font-size="10.00">IVectorBase</text>
</a>
</g>
</g>
<!-- Node17&#45;&gt;Node8 -->
<g id="edge18" class="edge"><title>Node17&#45;&gt;Node8</title>
<path fill="none" stroke="midnightblue" d="M81.5855,-32.2501C121.269,-26.7196 180.255,-23.3142 228,-40.634 259.249,-51.9697 286.793,-81.6742 299.519,-97.0713"/>
<polygon fill="midnightblue" stroke="midnightblue" points="81.0539,-28.7905 71.6812,-33.7304 82.0887,-35.7136 81.0539,-28.7905"/>
</g>
<!-- Node17&#45;&gt;Node10 -->
<g id="edge16" class="edge"><title>Node17&#45;&gt;Node10</title>
<path fill="none" stroke="midnightblue" d="M81.8231,-47.1851C97.4637,-49.471 114.834,-52.0098 129.788,-54.1953"/>
<polygon fill="midnightblue" stroke="midnightblue" points="82.2387,-43.7087 71.8376,-45.7257 81.2263,-50.6351 82.2387,-43.7087"/>
</g>
<!-- Node17&#45;&gt;Node13 -->
<g id="edge19" class="edge"><title>Node17&#45;&gt;Node13</title>
<path fill="none" stroke="midnightblue" d="M61.322,-26.1099C74.6144,-19.0163 91.6594,-11.2459 108,-7.63402 160.636,4.00068 223.018,-0.0297642 263.723,-4.95386"/>
<polygon fill="midnightblue" stroke="midnightblue" points="59.4097,-23.1685 52.3701,-31.0864 62.8109,-29.2866 59.4097,-23.1685"/>
</g>
<!-- Node17&#45;&gt;Node16 -->
<g id="edge17" class="edge"><title>Node17&#45;&gt;Node16</title>
<path fill="none" stroke="midnightblue" d="M61.9867,-55.4324C75.3524,-62.9801 92.2595,-71.9515 108,-78.634 116.221,-82.1244 125.314,-85.3487 133.848,-88.1126"/>
<polygon fill="midnightblue" stroke="midnightblue" points="63.3624,-52.1863 52.9476,-50.2412 59.8762,-58.2565 63.3624,-52.1863"/>
</g>
</g>
</svg>
