<?xml version="1.0" encoding="UTF-8" standalone="no"?>
<!DOCTYPE svg PUBLIC "-//W3C//DTD SVG 1.1//EN"
 "http://www.w3.org/Graphics/SVG/1.1/DTD/svg11.dtd">
<!-- Generated by graphviz version 2.36.0 (20140111.2315)
 -->
<!-- Title: Graphical Class Hierarchy Pages: 1 -->
<svg width="328pt" height="256pt"
 viewBox="0.00 0.00 328.00 256.00" xmlns="http://www.w3.org/2000/svg" xmlns:xlink="http://www.w3.org/1999/xlink">
<g id="graph0" class="graph" transform="scale(1 1) rotate(0) translate(4 252)">
<title>Graphical Class Hierarchy</title>
<polygon fill="white" stroke="none" points="-4,4 -4,-252 324,-252 324,4 -4,4"/>
<!-- Node1 -->
<g id="node1" class="node"><title>Node1</title>
<polygon fill="white" stroke="#bfbfbf" points="98,-228.5 98,-247.5 220,-247.5 220,-228.5 98,-228.5"/>
<text text-anchor="middle" x="159" y="-235.5" font-family="Helvetica,sans-Serif" font-size="10.00">AAX_CIPlugParameters</text>
</g>
<!-- Node2 -->
<g id="node2" class="node"><title>Node2</title>
<g id="a_node2"><a xlink:href="class_i_plug_a_a_x.html" target="_top" xlink:title="AAX API base class for an IPlug plug&#45;in, inherits from IPlugBase or IPlugBaseGraphics. ">
<polygon fill="white" stroke="black" points="258.5,-228.5 258.5,-247.5 317.5,-247.5 317.5,-228.5 258.5,-228.5"/>
<text text-anchor="middle" x="288" y="-235.5" font-family="Helvetica,sans-Serif" font-size="10.00">IPlugAAX</text>
</a>
</g>
</g>
<!-- Node1&#45;&gt;Node2 -->
<g id="edge1" class="edge"><title>Node1&#45;&gt;Node2</title>
<path fill="none" stroke="midnightblue" d="M230.154,-238C240.119,-238 249.863,-238 258.39,-238"/>
<polygon fill="midnightblue" stroke="midnightblue" points="230.153,-234.5 220.153,-238 230.153,-241.5 230.153,-234.5"/>
</g>
<!-- Node3 -->
<g id="node3" class="node"><title>Node3</title>
<g id="a_node3"><a xlink:href="class_i_plug_base.html" target="_top" xlink:title="The lowest level base class of an IPlug plug&#45;in. ">
<polygon fill="white" stroke="black" points="0,-76.5 0,-95.5 62,-95.5 62,-76.5 0,-76.5"/>
<text text-anchor="middle" x="31" y="-83.5" font-family="Helvetica,sans-Serif" font-size="10.00">IPlugBase</text>
</a>
</g>
</g>
<!-- Node4 -->
<g id="node4" class="node"><title>Node4</title>
<g id="a_node4"><a xlink:href="class_i_plug_base_graphics.html" target="_top" xlink:title="An IPlugBase class for an IPlug plug&#45;in that uses IGraphics for it&#39;s UI. ">
<polygon fill="white" stroke="black" points="108.5,-76.5 108.5,-95.5 209.5,-95.5 209.5,-76.5 108.5,-76.5"/>
<text text-anchor="middle" x="159" y="-83.5" font-family="Helvetica,sans-Serif" font-size="10.00">IPlugBaseGraphics</text>
</a>
</g>
</g>
<!-- Node3&#45;&gt;Node4 -->
<g id="edge2" class="edge"><title>Node3&#45;&gt;Node4</title>
<path fill="none" stroke="midnightblue" d="M72.3365,-86C83.8069,-86 96.4337,-86 108.387,-86"/>
<polygon fill="midnightblue" stroke="midnightblue" points="72.1802,-82.5001 62.1801,-86 72.1801,-89.5001 72.1802,-82.5001"/>
</g>
<!-- Node4&#45;&gt;Node2 -->
<g id="edge3" class="edge"><title>Node4&#45;&gt;Node2</title>
<path fill="none" stroke="midnightblue" d="M215.35,-100.975C216.994,-102.212 218.552,-103.551 220,-105 257.556,-142.586 223.28,-177.137 256,-219 258.877,-222.68 262.68,-225.821 266.635,-228.425"/>
<polygon fill="midnightblue" stroke="midnightblue" points="216.888,-97.8133 206.526,-95.6014 213.247,-103.792 216.888,-97.8133"/>
</g>
<!-- Node5 -->
<g id="node5" class="node"><title>Node5</title>
<g id="a_node5"><a xlink:href="class_i_plug_a_p_p.html" target="_top" xlink:title="Standalone application base class for an IPlug plug&#45;in, inherits from IPlugBase or IPlugBaseGraphics...">
<polygon fill="white" stroke="black" points="258.5,-76.5 258.5,-95.5 317.5,-95.5 317.5,-76.5 258.5,-76.5"/>
<text text-anchor="middle" x="288" y="-83.5" font-family="Helvetica,sans-Serif" font-size="10.00">IPlugAPP</text>
</a>
</g>
</g>
<!-- Node4&#45;&gt;Node5 -->
<g id="edge4" class="edge"><title>Node4&#45;&gt;Node5</title>
<path fill="none" stroke="midnightblue" d="M219.942,-86C233.271,-86 246.81,-86 258.199,-86"/>
<polygon fill="midnightblue" stroke="midnightblue" points="219.829,-82.5001 209.829,-86 219.829,-89.5001 219.829,-82.5001"/>
</g>
<!-- Node6 -->
<g id="node6" class="node"><title>Node6</title>
<g id="a_node6"><a xlink:href="class_i_plug_a_u.html" target="_top" xlink:title="AudioUnit v2 API base class for an IPlug plug&#45;in, inherits from IPlugBase or IPlugBaseGraphics. ">
<polygon fill="white" stroke="black" points="261.5,-190.5 261.5,-209.5 314.5,-209.5 314.5,-190.5 261.5,-190.5"/>
<text text-anchor="middle" x="288" y="-197.5" font-family="Helvetica,sans-Serif" font-size="10.00">IPlugAU</text>
</a>
</g>
</g>
<!-- Node4&#45;&gt;Node6 -->
<g id="edge5" class="edge"><title>Node4&#45;&gt;Node6</title>
<path fill="none" stroke="midnightblue" d="M213.754,-100.349C215.958,-101.757 218.055,-103.303 220,-105 248.16,-129.576 231.029,-153.19 256,-181 259.205,-184.57 263.239,-187.694 267.328,-190.324"/>
<polygon fill="midnightblue" stroke="midnightblue" points="215.283,-97.1978 204.814,-95.5738 211.986,-103.372 215.283,-97.1978"/>
</g>
<!-- Node7 -->
<g id="node7" class="node"><title>Node7</title>
<g id="a_node7"><a xlink:href="class_i_plug_a_uv3.html" target="_top" xlink:title="IPlugAUv3">
<polygon fill="white" stroke="black" points="256,-152.5 256,-171.5 320,-171.5 320,-152.5 256,-152.5"/>
<text text-anchor="middle" x="288" y="-159.5" font-family="Helvetica,sans-Serif" font-size="10.00">IPlugAUv3</text>
</a>
</g>
</g>
<!-- Node4&#45;&gt;Node7 -->
<g id="edge6" class="edge"><title>Node4&#45;&gt;Node7</title>
<path fill="none" stroke="midnightblue" d="M209.359,-99.3394C213.065,-101.026 216.658,-102.907 220,-105 239.717,-117.349 237.927,-128.351 256,-143 260.119,-146.339 264.873,-149.532 269.401,-152.316"/>
<polygon fill="midnightblue" stroke="midnightblue" points="210.575,-96.0554 199.992,-95.5369 207.942,-102.541 210.575,-96.0554"/>
</g>
<!-- Node8 -->
<g id="node8" class="node"><title>Node8</title>
<g id="a_node8"><a xlink:href="class_i_plug_v_s_t.html" target="_top" xlink:title="VST2.4 API base class for an IPlug plug&#45;in, inherits from IPlugBase or IPlugBaseGraphics. ">
<polygon fill="white" stroke="black" points="258.5,-114.5 258.5,-133.5 317.5,-133.5 317.5,-114.5 258.5,-114.5"/>
<text text-anchor="middle" x="288" y="-121.5" font-family="Helvetica,sans-Serif" font-size="10.00">IPlugVST</text>
</a>
</g>
</g>
<!-- Node4&#45;&gt;Node8 -->
<g id="edge7" class="edge"><title>Node4&#45;&gt;Node8</title>
<path fill="none" stroke="midnightblue" d="M201.745,-98.4905C220.318,-104.048 241.717,-110.451 258.429,-115.451"/>
<polygon fill="midnightblue" stroke="midnightblue" points="202.631,-95.1025 192.047,-95.589 200.624,-101.809 202.631,-95.1025"/>
</g>
<!-- Node9 -->
<g id="node9" class="node"><title>Node9</title>
<g id="a_node9"><a xlink:href="class_i_plug_v_s_t3.html" target="_top" xlink:title="VST3 base class for an IPlug plug&#45;in, inherits from IPlugBase or IPlugBaseGraphics. ">
<polygon fill="white" stroke="black" points="256,-38.5 256,-57.5 320,-57.5 320,-38.5 256,-38.5"/>
<text text-anchor="middle" x="288" y="-45.5" font-family="Helvetica,sans-Serif" font-size="10.00">IPlugVST3</text>
</a>
</g>
</g>
<!-- Node4&#45;&gt;Node9 -->
<g id="edge8" class="edge"><title>Node4&#45;&gt;Node9</title>
<path fill="none" stroke="midnightblue" d="M202.05,-73.4182C219.605,-68.1654 239.639,-62.1711 255.841,-57.3232"/>
<polygon fill="midnightblue" stroke="midnightblue" points="200.624,-70.1913 192.047,-76.411 202.631,-76.8975 200.624,-70.1913"/>
</g>
<!-- Node10 -->
<g id="node10" class="node"><title>Node10</title>
<g id="a_node10"><a xlink:href="class_i_plug_w_a_m.html" target="_top" xlink:title="Web Audio Module (WAM) API base class for an IPlug plug&#45;in, inherits from IPlugBase or IPlugBaseGraph...">
<polygon fill="white" stroke="black" points="256,-0.5 256,-19.5 320,-19.5 320,-0.5 256,-0.5"/>
<text text-anchor="middle" x="288" y="-7.5" font-family="Helvetica,sans-Serif" font-size="10.00">IPlugWAM</text>
</a>
</g>
</g>
<!-- Node4&#45;&gt;Node10 -->
<g id="edge9" class="edge"><title>Node4&#45;&gt;Node10</title>
<path fill="none" stroke="midnightblue" d="M209.359,-72.6606C213.065,-70.9741 216.658,-69.0934 220,-67 239.717,-54.6512 237.927,-43.6491 256,-29 260.119,-25.6612 264.873,-22.4678 269.401,-19.6839"/>
<polygon fill="midnightblue" stroke="midnightblue" points="207.942,-69.4587 199.992,-76.4631 210.575,-75.9446 207.942,-69.4587"/>
</g>
<!-- Node11 -->
<g id="node11" class="node"><title>Node11</title>
<g id="a_node11"><a xlink:href="class_i_plug_preset_handler.html" target="_top" xlink:title="Everything to do with saving presets. ">
<polygon fill="white" stroke="black" points="108.5,-114.5 108.5,-133.5 209.5,-133.5 209.5,-114.5 108.5,-114.5"/>
<text text-anchor="middle" x="159" y="-121.5" font-family="Helvetica,sans-Serif" font-size="10.00">IPlugPresetHandler</text>
</a>
</g>
</g>
<!-- Node11&#45;&gt;Node2 -->
<g id="edge10" class="edge"><title>Node11&#45;&gt;Node2</title>
<path fill="none" stroke="midnightblue" d="M213.754,-138.349C215.958,-139.757 218.055,-141.303 220,-143 248.16,-167.576 231.029,-191.19 256,-219 259.205,-222.57 263.239,-225.694 267.328,-228.324"/>
<polygon fill="midnightblue" stroke="midnightblue" points="215.283,-135.198 204.814,-133.574 211.986,-141.372 215.283,-135.198"/>
</g>
<!-- Node11&#45;&gt;Node5 -->
<g id="edge11" class="edge"><title>Node11&#45;&gt;Node5</title>
<path fill="none" stroke="midnightblue" d="M201.745,-111.509C220.318,-105.952 241.717,-99.5493 258.429,-94.5487"/>
<polygon fill="midnightblue" stroke="midnightblue" points="200.624,-108.191 192.047,-114.411 202.631,-114.897 200.624,-108.191"/>
</g>
<!-- Node11&#45;&gt;Node6 -->
<g id="edge12" class="edge"><title>Node11&#45;&gt;Node6</title>
<path fill="none" stroke="midnightblue" d="M209.359,-137.339C213.065,-139.026 216.658,-140.907 220,-143 239.717,-155.349 237.927,-166.351 256,-181 260.119,-184.339 264.873,-187.532 269.401,-190.316"/>
<polygon fill="midnightblue" stroke="midnightblue" points="210.575,-134.055 199.992,-133.537 207.942,-140.541 210.575,-134.055"/>
</g>
<!-- Node11&#45;&gt;Node7 -->
<g id="edge13" class="edge"><title>Node11&#45;&gt;Node7</title>
<path fill="none" stroke="midnightblue" d="M202.05,-136.582C219.605,-141.835 239.639,-147.829 255.841,-152.677"/>
<polygon fill="midnightblue" stroke="midnightblue" points="202.631,-133.103 192.047,-133.589 200.624,-139.809 202.631,-133.103"/>
</g>
<!-- Node11&#45;&gt;Node8 -->
<g id="edge14" class="edge"><title>Node11&#45;&gt;Node8</title>
<path fill="none" stroke="midnightblue" d="M219.942,-124C233.271,-124 246.81,-124 258.199,-124"/>
<polygon fill="midnightblue" stroke="midnightblue" points="219.829,-120.5 209.829,-124 219.829,-127.5 219.829,-120.5"/>
</g>
<!-- Node11&#45;&gt;Node9 -->
<g id="edge15" class="edge"><title>Node11&#45;&gt;Node9</title>
<path fill="none" stroke="midnightblue" d="M209.359,-110.661C213.065,-108.974 216.658,-107.093 220,-105 239.717,-92.6512 237.927,-81.6491 256,-67 260.119,-63.6612 264.873,-60.4678 269.401,-57.6839"/>
<polygon fill="midnightblue" stroke="midnightblue" points="207.942,-107.459 199.992,-114.463 210.575,-113.945 207.942,-107.459"/>
</g>
<!-- Node12 -->
<g id="node12" class="node"><title>Node12</title>
<g id="a_node12"><a xlink:href="class_i_plug_processor.html" target="_top" xlink:title="IPlugProcessor\&lt; PLUG\l_SAMPLE_DST \&gt;">
<polygon fill="white" stroke="black" points="99.5,-153 99.5,-183 218.5,-183 218.5,-153 99.5,-153"/>
<text text-anchor="start" x="107.5" y="-171" font-family="Helvetica,sans-Serif" font-size="10.00">IPlugProcessor&lt; PLUG</text>
<text text-anchor="middle" x="159" y="-160" font-family="Helvetica,sans-Serif" font-size="10.00">_SAMPLE_DST &gt;</text>
</a>
</g>
</g>
<!-- Node12&#45;&gt;Node2 -->
<g id="edge16" class="edge"><title>Node12&#45;&gt;Node2</title>
<path fill="none" stroke="midnightblue" d="M196.109,-187.903C220.167,-201.163 250.713,-218 269.555,-228.384"/>
<polygon fill="midnightblue" stroke="midnightblue" points="197.692,-184.779 187.245,-183.017 194.313,-190.909 197.692,-184.779"/>
</g>
<!-- Node12&#45;&gt;Node5 -->
<g id="edge17" class="edge"><title>Node12&#45;&gt;Node5</title>
<path fill="none" stroke="midnightblue" d="M211.509,-148.271C214.452,-146.615 217.306,-144.858 220,-143 239.153,-129.795 237.927,-119.649 256,-105 260.119,-101.661 264.873,-98.4678 269.401,-95.6839"/>
<polygon fill="midnightblue" stroke="midnightblue" points="209.762,-145.235 202.486,-152.936 212.976,-151.453 209.762,-145.235"/>
</g>
<!-- Node12&#45;&gt;Node6 -->
<g id="edge18" class="edge"><title>Node12&#45;&gt;Node6</title>
<path fill="none" stroke="midnightblue" d="M228.494,-185.258C240.17,-188.2 251.62,-191.085 261.251,-193.512"/>
<polygon fill="midnightblue" stroke="midnightblue" points="229.219,-181.832 218.667,-182.782 227.509,-188.62 229.219,-181.832"/>
</g>
<!-- Node12&#45;&gt;Node7 -->
<g id="edge19" class="edge"><title>Node12&#45;&gt;Node7</title>
<path fill="none" stroke="midnightblue" d="M228.938,-164.743C238.382,-164.297 247.664,-163.858 255.941,-163.467"/>
<polygon fill="midnightblue" stroke="midnightblue" points="228.491,-161.26 218.667,-165.228 228.821,-168.252 228.491,-161.26"/>
</g>
<!-- Node12&#45;&gt;Node8 -->
<g id="edge20" class="edge"><title>Node12&#45;&gt;Node8</title>
<path fill="none" stroke="midnightblue" d="M213.1,-149.603C229.002,-144.094 245.799,-138.274 259.354,-133.578"/>
<polygon fill="midnightblue" stroke="midnightblue" points="211.654,-146.4 203.351,-152.981 213.946,-153.014 211.654,-146.4"/>
</g>
<!-- Node12&#45;&gt;Node9 -->
<g id="edge21" class="edge"><title>Node12&#45;&gt;Node9</title>
<path fill="none" stroke="midnightblue" d="M214.82,-147.385C216.639,-146.01 218.374,-144.55 220,-143 247.05,-117.208 231.029,-94.81 256,-67 259.205,-63.4304 263.239,-60.3057 267.328,-57.6763"/>
<polygon fill="midnightblue" stroke="midnightblue" points="212.859,-144.486 206.397,-152.882 216.685,-150.348 212.859,-144.486"/>
</g>
<!-- Node13 -->
<g id="node13" class="node"><title>Node13</title>
<polygon fill="white" stroke="#bfbfbf" points="99,-38.5 99,-57.5 219,-57.5 219,-38.5 99,-38.5"/>
<text text-anchor="middle" x="159" y="-45.5" font-family="Helvetica,sans-Serif" font-size="10.00">SingleComponentEffect</text>
</g>
<!-- Node13&#45;&gt;Node9 -->
<g id="edge22" class="edge"><title>Node13&#45;&gt;Node9</title>
<path fill="none" stroke="midnightblue" d="M229.168,-48C238.479,-48 247.626,-48 255.8,-48"/>
<polygon fill="midnightblue" stroke="midnightblue" points="229.038,-44.5001 219.038,-48 229.038,-51.5001 229.038,-44.5001"/>
</g>
</g>
</svg>
