<?xml version="1.0" encoding="UTF-8" standalone="no"?>
<!DOCTYPE svg PUBLIC "-//W3C//DTD SVG 1.1//EN"
 "http://www.w3.org/Graphics/SVG/1.1/DTD/svg11.dtd">
<!-- Generated by graphviz version 2.36.0 (20140111.2315)
 -->
<!-- Title: Graphical Class Hierarchy Pages: 1 -->
<svg width="178pt" height="66pt"
 viewBox="0.00 0.00 178.00 66.00" xmlns="http://www.w3.org/2000/svg" xmlns:xlink="http://www.w3.org/1999/xlink">
<g id="graph0" class="graph" transform="scale(1 1) rotate(0) translate(4 62)">
<title>Graphical Class Hierarchy</title>
<polygon fill="white" stroke="none" points="-4,4 -4,-62 174,-62 174,4 -4,4"/>
<!-- Node1 -->
<g id="node1" class="node"><title>Node1</title>
<g id="a_node1"><a xlink:href="class_a_p_i_bitmap.html" target="_top" xlink:title="APIBitmap">
<polygon fill="white" stroke="black" points="0,-19.5 0,-38.5 64,-38.5 64,-19.5 0,-19.5"/>
<text text-anchor="middle" x="32" y="-26.5" font-family="Helvetica,sans-Serif" font-size="10.00">APIBitmap</text>
</a>
</g>
</g>
<!-- Node2 -->
<g id="node2" class="node"><title>Node2</title>
<g id="a_node2"><a xlink:href="class_a_g_g_bitmap.html" target="_top" xlink:title="AGGBitmap">
<polygon fill="white" stroke="black" points="100.5,-38.5 100.5,-57.5 169.5,-57.5 169.5,-38.5 100.5,-38.5"/>
<text text-anchor="middle" x="135" y="-45.5" font-family="Helvetica,sans-Serif" font-size="10.00">AGGBitmap</text>
</a>
</g>
</g>
<!-- Node1&#45;&gt;Node2 -->
<g id="edge1" class="edge"><title>Node1&#45;&gt;Node2</title>
<path fill="none" stroke="midnightblue" d="M74.1187,-36.7352C82.8367,-38.3752 91.9412,-40.0879 100.343,-41.6685"/>
<polygon fill="midnightblue" stroke="midnightblue" points="74.6022,-33.2648 64.1275,-34.8557 73.308,-40.1442 74.6022,-33.2648"/>
</g>
<!-- Node3 -->
<g id="node3" class="node"><title>Node3</title>
<g id="a_node3"><a xlink:href="class_l_i_c_e_bitmap.html" target="_top" xlink:title="LICEBitmap">
<polygon fill="white" stroke="black" points="100,-0.5 100,-19.5 170,-19.5 170,-0.5 100,-0.5"/>
<text text-anchor="middle" x="135" y="-7.5" font-family="Helvetica,sans-Serif" font-size="10.00">LICEBitmap</text>
</a>
</g>
</g>
<!-- Node1&#45;&gt;Node3 -->
<g id="edge2" class="edge"><title>Node1&#45;&gt;Node3</title>
<path fill="none" stroke="midnightblue" d="M74.0154,-21.2842C82.6422,-19.6614 91.6521,-17.9664 99.9886,-16.3982"/>
<polygon fill="midnightblue" stroke="midnightblue" points="73.308,-17.8558 64.1275,-23.1443 74.6022,-24.7352 73.308,-17.8558"/>
</g>
</g>
</svg>
